<svg width="240" height="240" fill="none" xmlns="http://www.w3.org/2000/svg"><g filter="url(#filter0_f)"><path d="M34 67.646L120.5 26 207 67.646v103.257L120.5 213 34 170.903V67.646z" fill="url(#paint0_linear)"/></g><path d="M34 67.646L120.5 26 207 67.646v103.257L120.5 213 34 170.903V67.646z" fill="url(#paint1_linear)"/><path d="M67 87l53-25.5L173 87v63.224L120 176l-53-25.776V87z" fill="url(#paint2_linear)"/><g filter="url(#filter1_f)"><path d="M65.5 88.5v62l53.5 26m-53.5-88l53.5-27 54 27m-107.5 0L119 114m0 62.5l54-25v-63m-54 88V114m54-25.5L119 114" stroke="#fff" stroke-width="4"/></g><path d="M65.5 88.5v62l53.5 26m-53.5-88l53.5-27 54 27m-107.5 0L119 114m0 62.5l54-25v-63m-54 88V114m54-25.5L119 114" stroke="#fff" stroke-width="4"/><defs><linearGradient id="paint0_linear" x1="121" y1="232.5" x2="121" y2="2.5" gradientUnits="userSpaceOnUse"><stop stop-color="#FF3AFF"/><stop offset="1" stop-color="#61FFFF" stop-opacity="0"/></linearGradient><linearGradient id="paint1_linear" x1="121" y1="232.5" x2="121" y2="2.5" gradientUnits="userSpaceOnUse"><stop stop-color="#FF3AFF"/><stop offset="1" stop-color="#61FFFF" stop-opacity="0"/></linearGradient><linearGradient id="paint2_linear" x1="120" y1="173.198" x2="120" y2="49.922" gradientUnits="userSpaceOnUse"><stop stop-color="#61FFFF"/><stop offset="1" stop-color="#61FFFF" stop-opacity="0"/></linearGradient><filter id="filter0_f" x="14" y="6" width="213" height="227" filterUnits="userSpaceOnUse" color-interpolation-filters="sRGB"><feFlood flood-opacity="0" result="BackgroundImageFix"/><feBlend in="SourceGraphic" in2="BackgroundImageFix" result="shape"/><feGaussianBlur stdDeviation="10" result="effect1_foregroundBlur"/></filter><filter id="filter1_f" x="43.5" y="39.262" width="151.5" height="159.452" filterUnits="userSpaceOnUse" color-interpolation-filters="sRGB"><feFlood flood-opacity="0" result="BackgroundImageFix"/><feBlend in="SourceGraphic" in2="BackgroundImageFix" result="shape"/><feGaussianBlur stdDeviation="10" result="effect1_foregroundBlur"/></filter></defs></svg>