<svg width="240" height="240" fill="none" xmlns="http://www.w3.org/2000/svg"><g filter="url(#filter0_f)" fill-rule="evenodd" clip-rule="evenodd"><path d="M67.219 95.04a1.5 1.5 0 1 0 0 3h98.22v4.812a1.5 1.5 0 0 0 3 0V98.04h4.812a1.5 1.5 0 0 0 0-3H67.219z" fill="#FFEDBD"/><path d="M145.007 73.032v-3c0-14.377-11.655-26.032-26.033-26.032-14.377 0-26.032 11.655-26.032 26.032v5.05h52.065v-2.05zm3 2.05h35.237a4 4 0 0 1 3.999 3.892l2.308 85.409a4 4 0 0 1-3.998 4.108H54.921a4 4 0 0 1-3.999-4.108l.542-20.037c-4.596-5.663-7.645-11.398-8.212-16.47-1.461-13.079 3.649-24.877 9.57-33.799l.408-15.103a4 4 0 0 1 3.999-3.892h32.713V70.032C89.942 53.998 102.94 41 118.974 41c16.035 0 29.033 12.998 29.033 29.032v5.05zm35.237 3H57.229a1 1 0 0 0-1 .973l-2.308 85.409a1 1 0 0 0 1 1.027h130.632a1 1 0 0 0 .999-1.027l-2.308-85.41a1 1 0 0 0-1-.972zm-137.01 49.461c-1.136-10.161 2.011-19.605 6.426-27.462l-1.067 39.48c-3.094-4.371-4.967-8.506-5.36-12.018zm35.997 40.948c18.32 9.376 39.988 13.451 55.997 2.544a47.905 47.905 0 0 1 4.186-2.544h-5.779l-.096.065c-13.11 8.931-30.813 7.049-47.284-.065H82.23zm106.75-25.246l.138 5.128c2.763-3.431 4.882-7.848 6.2-13.651 2.919-12.848-1.767-26.125-7.559-36.627l.19 7.029c4.123 9.017 6.654 19.207 4.444 28.933-.834 3.669-1.992 6.682-3.413 9.188z" fill="#fff"/></g><path fill-rule="evenodd" clip-rule="evenodd" d="M67.219 95.04a1.5 1.5 0 1 0 0 3h98.22v4.812a1.5 1.5 0 0 0 3 0V98.04h4.812a1.5 1.5 0 0 0 0-3H67.219z" fill="#FFEDBD"/><path fill-rule="evenodd" clip-rule="evenodd" d="M145.007 73.032v-3c0-14.377-11.655-26.032-26.033-26.032-14.377 0-26.032 11.655-26.032 26.032v5.05h52.065v-2.05zm3 2.05h35.237a4 4 0 0 1 3.999 3.892l2.308 85.409a4 4 0 0 1-3.998 4.108H54.921a4 4 0 0 1-3.999-4.108l.542-20.037c-4.596-5.663-7.645-11.398-8.212-16.47-1.461-13.079 3.649-24.877 9.57-33.799l.408-15.103a4 4 0 0 1 3.999-3.892h32.713V70.032C89.942 53.998 102.94 41 118.974 41c16.035 0 29.033 12.998 29.033 29.032v5.05zm35.237 3H57.229a1 1 0 0 0-1 .973l-2.308 85.409a1 1 0 0 0 1 1.027h130.632a1 1 0 0 0 .999-1.027l-2.308-85.41a1 1 0 0 0-1-.972zm-137.01 49.461c-1.136-10.161 2.011-19.605 6.426-27.462l-1.067 39.48c-3.094-4.371-4.967-8.506-5.36-12.018zm35.997 40.948c18.32 9.376 39.988 13.451 55.997 2.544a47.905 47.905 0 0 1 4.186-2.544h-5.779l-.096.065c-13.11 8.931-30.813 7.049-47.284-.065H82.23zm106.75-25.246l.138 5.128c2.763-3.431 4.882-7.848 6.2-13.651 2.919-12.848-1.767-26.125-7.559-36.627l.19 7.029c4.123 9.017 6.654 19.207 4.444 28.933-.834 3.669-1.992 6.682-3.413 9.188z" fill="#fff"/><defs><filter id="filter0_f" x="28" y="26" width="183.212" height="166.567" filterUnits="userSpaceOnUse" color-interpolation-filters="sRGB"><feFlood flood-opacity="0" result="BackgroundImageFix"/><feBlend in="SourceGraphic" in2="BackgroundImageFix" result="shape"/><feGaussianBlur stdDeviation="7.5" result="effect1_foregroundBlur"/></filter></defs></svg>