<svg width="233" height="232" viewBox="0 0 233 232" fill="none" xmlns="http://www.w3.org/2000/svg">
<g clip-path="url(#clip0)">
<g opacity="0.1" filter="url(#filter0_f)">
<rect x="210.525" y="135.809" width="170.491" height="76.806" transform="rotate(165.86 210.525 135.809)" fill="#61FFFF"/>
<rect x="209.749" y="135.345" width="169.212" height="75.5277" transform="rotate(165.86 209.749 135.345)" stroke="black" stroke-width="1.27836"/>
</g>
<g filter="url(#filter1_d)">
<path fill-rule="evenodd" clip-rule="evenodd" d="M143.441 65.0874L143.326 65.0234L142.676 66.1748L143.441 65.0874ZM155.403 75.0419L156.261 74.0478L156.162 73.9629L155.403 75.0419ZM128.335 59.6317C126.372 59.1982 124.408 58.8644 122.451 58.6272L120.524 58.3935L120.054 62.2318L121.982 62.4655C123.815 62.6877 125.654 63.0003 127.495 63.4067C129.336 63.8131 131.136 64.3037 132.891 64.8736L134.737 65.4729L135.941 61.7967L134.095 61.1974C132.22 60.5888 130.299 60.0652 128.335 59.6317ZM110.82 62.2123L112.756 62.0655L112.461 58.21L110.525 58.3568C106.515 58.6609 102.582 59.3604 98.777 60.4236L96.9076 60.9459L97.9567 64.6688L99.8262 64.1465C103.388 63.1513 107.068 62.4969 110.82 62.2123ZM89.4218 68.1852L91.1533 67.3103L89.3959 63.8622L87.6644 64.7371C84.1117 66.5323 80.7417 68.6701 77.6062 71.1174L76.0781 72.3102L78.4738 75.3533L80.0019 74.1606C82.9384 71.8686 86.0946 69.8664 89.4218 68.1852ZM163.029 81.3733L161.831 79.8518L158.775 82.2373L159.973 83.7588C162.275 86.6827 164.285 89.8254 165.974 93.1383L166.853 94.8623L170.316 93.1125L169.437 91.3884C167.634 87.851 165.487 84.4954 163.029 81.3733ZM71.9288 81.8428L73.1943 80.3765L70.249 77.8564L68.9835 79.3227C66.4076 82.3073 64.109 85.5604 62.1376 89.0505L61.1858 90.7356L64.5705 92.6311L65.5223 90.946C67.3668 87.6806 69.5177 84.6364 71.9288 81.8428ZM173.769 102.453L173.244 100.592L169.505 101.637L170.03 103.498C171.029 107.044 171.687 110.709 171.973 114.444L172.12 116.372L175.992 116.078L175.845 114.151C175.539 110.158 174.837 106.242 173.769 102.453ZM61.0353 101.126L61.6372 99.2879L57.9452 98.0893L57.3433 99.9274C56.7321 101.794 56.2062 103.707 55.7708 105.662C55.3354 107.617 55.0002 109.572 54.7619 111.521L54.5273 113.44L58.3821 113.908L58.6168 111.988C58.8399 110.164 59.1539 108.332 59.5621 106.499C59.9702 104.666 60.463 102.874 61.0353 101.126ZM175.573 126.026L175.808 124.107L171.953 123.639L171.718 125.559C171.495 127.383 171.181 129.215 170.773 131.048C170.365 132.881 169.872 134.673 169.3 136.421L168.698 138.259L172.39 139.458L172.992 137.62C173.603 135.753 174.129 133.84 174.564 131.885C175 129.93 175.335 127.975 175.573 126.026ZM58.3626 123.103L58.2151 121.175L54.343 121.469L54.4905 123.396C54.7959 127.389 55.4983 131.305 56.5661 135.094L57.0907 136.955L60.8296 135.91L60.305 134.049C59.3056 130.503 58.6483 126.838 58.3626 123.103ZM168.197 148.497L169.149 146.811L165.765 144.916L164.813 146.601C162.968 149.866 160.817 152.911 158.406 155.704L157.141 157.17L160.086 159.691L161.352 158.224C163.927 155.24 166.226 151.987 168.197 148.497ZM64.3612 144.409L63.4825 142.685L60.0195 144.435L60.8982 146.159C62.7012 149.696 64.8482 153.052 67.3061 156.174L68.5039 157.695L71.5602 155.31L70.3623 153.788C68.0604 150.864 66.0497 147.722 64.3612 144.409ZM152.729 166.43L154.257 165.237L151.861 162.194L150.333 163.386C147.397 165.678 144.24 167.681 140.913 169.362L139.182 170.237L140.939 173.685L142.671 172.81C146.223 171.015 149.593 168.877 152.729 166.43ZM78.0777 161.827L76.605 160.567L74.0741 163.499L75.5467 164.759C78.5442 167.324 81.8113 169.613 85.3164 171.576L87.0088 172.524L88.9125 169.153L87.2201 168.206C83.9406 166.369 80.8833 164.227 78.0777 161.827ZM131.558 177.123L133.428 176.601L132.378 172.878L130.509 173.401C126.947 174.396 123.267 175.05 119.516 175.335L117.579 175.481L117.874 179.337L119.81 179.19C123.82 178.886 127.753 178.187 131.558 177.123ZM97.444 172.673L95.598 172.074L94.3942 175.75L96.2402 176.35C98.1148 176.958 100.036 177.482 102 177.915C103.963 178.349 105.927 178.683 107.884 178.92L109.811 179.154L110.281 175.315L108.353 175.082C106.52 174.859 104.681 174.547 102.84 174.14C100.999 173.734 99.1994 173.243 97.444 172.673Z" fill="#61FFFF"/>
</g>
<g filter="url(#filter2_d)">
<path fill-rule="evenodd" clip-rule="evenodd" d="M143.421 65.116C142.186 64.4699 140.937 63.8698 139.676 63.3155L137.899 62.535L136.332 66.0726L138.108 66.8531C139.139 67.3062 140.162 67.792 141.174 68.3108L143.421 65.116ZM153.898 77.1821C154.734 77.9517 155.542 78.7422 156.322 79.552L157.666 80.9472L160.469 78.2705L159.125 76.8753C158.17 75.8844 157.177 74.921 156.145 73.9873L153.898 77.1821ZM116.414 62.0696L118.355 62.1101L118.436 58.2442L116.495 58.2038C108.514 58.0376 100.56 59.434 93.1169 62.3083L91.3066 63.0074L92.7108 66.6124L94.5211 65.9134C101.491 63.2218 108.94 61.914 116.414 62.0696ZM171.877 96.8162L171.175 95.0137L167.554 96.4119L168.256 98.2144C170.96 105.154 172.273 112.571 172.117 120.013L172.076 121.946L175.959 122.027L175.999 120.094C176.166 112.147 174.764 104.227 171.877 96.8162ZM75.7783 77.7964L77.1795 76.458L74.4912 73.6676L73.09 75.006C70.2644 77.7049 67.6614 80.7153 65.3323 84.0273C63.0032 87.3394 61.0525 90.8045 59.4718 94.3714L58.6879 96.1401L62.2408 97.7011L63.0246 95.9323C64.5037 92.5947 66.3302 89.3497 68.5134 86.2452C70.6966 83.1406 73.1343 80.3218 75.7783 77.7964ZM170.865 143.175L171.649 141.407L168.097 139.846L167.313 141.614C165.834 144.952 164.007 148.197 161.824 151.301C159.641 154.406 157.203 157.225 154.559 159.75L153.158 161.089L155.846 163.879L157.247 162.541C160.073 159.842 162.676 156.831 165.005 153.519C167.334 150.207 169.285 146.742 170.865 143.175ZM58.2205 117.533L58.2611 115.6L54.3786 115.52L54.338 117.453C54.1711 125.4 55.5736 133.319 58.4603 140.73L59.1624 142.533L62.7829 141.135L62.0808 139.332C59.3777 132.393 58.0642 124.975 58.2205 117.533ZM137.22 175.238L139.031 174.539L137.627 170.934L135.816 171.633C128.847 174.325 121.397 175.633 113.923 175.477L111.982 175.437L111.901 179.302L113.842 179.343C121.824 179.509 129.777 178.113 137.22 175.238ZM74.015 157.995L72.6709 156.599L69.8685 159.276L71.2127 160.671C73.9232 163.485 76.9466 166.077 80.2729 168.396C83.5992 170.715 87.0792 172.657 90.6615 174.231L92.4379 175.012L94.0056 171.474L92.2292 170.694C88.8772 169.221 85.6182 167.402 82.5003 165.228C79.3824 163.055 76.5514 160.627 74.015 157.995Z" fill="white"/>
<path fill-rule="evenodd" clip-rule="evenodd" d="M148.688 58.7503L137.683 74.3988L134.502 72.181L145.507 56.5325L148.688 58.7503Z" fill="white"/>
<path fill-rule="evenodd" clip-rule="evenodd" d="M151.722 84.5803L163.005 68.747L159.838 66.5095L148.555 82.3428L151.722 84.5803Z" fill="white"/>
</g>
</g>
<defs>
<filter id="filter0_f" x="-23.5625" y="11.3298" width="284.088" height="216.129" filterUnits="userSpaceOnUse" color-interpolation-filters="sRGB">
<feFlood flood-opacity="0" result="BackgroundImageFix"/>
<feBlend mode="normal" in="SourceGraphic" in2="BackgroundImageFix" result="shape"/>
<feGaussianBlur stdDeviation="25" result="effect1_foregroundBlur"/>
</filter>
<filter id="filter1_d" x="39.3428" y="43.21" width="151.649" height="151.127" filterUnits="userSpaceOnUse" color-interpolation-filters="sRGB">
<feFlood flood-opacity="0" result="BackgroundImageFix"/>
<feColorMatrix in="SourceAlpha" type="matrix" values="0 0 0 0 0 0 0 0 0 0 0 0 0 0 0 0 0 0 127 0"/>
<feOffset/>
<feGaussianBlur stdDeviation="7.5"/>
<feColorMatrix type="matrix" values="0 0 0 0 0.380392 0 0 0 0 1 0 0 0 0 1 0 0 0 0.75 0"/>
<feBlend mode="normal" in2="BackgroundImageFix" result="effect1_dropShadow"/>
<feBlend mode="normal" in="SourceGraphic" in2="effect1_dropShadow" result="shape"/>
</filter>
<filter id="filter2_d" x="39.3242" y="41.5325" width="151.688" height="152.824" filterUnits="userSpaceOnUse" color-interpolation-filters="sRGB">
<feFlood flood-opacity="0" result="BackgroundImageFix"/>
<feColorMatrix in="SourceAlpha" type="matrix" values="0 0 0 0 0 0 0 0 0 0 0 0 0 0 0 0 0 0 127 0"/>
<feOffset/>
<feGaussianBlur stdDeviation="7.5"/>
<feColorMatrix type="matrix" values="0 0 0 0 1 0 0 0 0 1 0 0 0 0 1 0 0 0 0.75 0"/>
<feBlend mode="normal" in2="BackgroundImageFix" result="effect1_dropShadow"/>
<feBlend mode="normal" in="SourceGraphic" in2="effect1_dropShadow" result="shape"/>
</filter>
<clipPath id="clip0">
<rect width="233" height="232" fill="white"/>
</clipPath>
</defs>
</svg>
