<svg width="240" height="240" fill="none" xmlns="http://www.w3.org/2000/svg"><g filter="url(#filter0_f)" fill-rule="evenodd" clip-rule="evenodd"><path d="M142.896 65.304l-.115-.064-.65 1.151.765-1.087zm11.962 9.954l.858-.994-.099-.084-.759 1.078zm-27.067-15.41a61.84 61.84 0 0 0-5.885-1.004l-1.927-.234-.47 3.838 1.928.234a57.884 57.884 0 0 1 10.909 2.408l1.846.6 1.204-3.677-1.846-.599a61.854 61.854 0 0 0-5.759-1.566zm-17.516 2.58l1.936-.146-.295-3.855-1.936.146a60.706 60.706 0 0 0-11.748 2.067l-1.87.523 1.05 3.722 1.87-.522a56.813 56.813 0 0 1 10.993-1.934zm-21.398 5.974l1.731-.875-1.757-3.448-1.731.875a61.224 61.224 0 0 0-10.059 6.38l-1.528 1.193 2.396 3.043 1.528-1.193a57.351 57.351 0 0 1 9.42-5.975zm73.607 13.188l-1.198-1.522-3.056 2.386 1.198 1.521a57.058 57.058 0 0 1 6.001 9.38l.879 1.724 3.463-1.75-.879-1.724a60.895 60.895 0 0 0-6.408-10.015zm-91.1.47l1.265-1.467-2.945-2.52-1.265 1.466a60.214 60.214 0 0 0-6.846 9.728l-.952 1.685 3.384 1.896.952-1.685a56.337 56.337 0 0 1 6.407-9.104zm101.84 20.61l-.525-1.862-3.738 1.045.524 1.862c1 3.546 1.657 7.21 1.943 10.946l.147 1.927 3.872-.293-.147-1.928a60.003 60.003 0 0 0-2.076-11.697zM60.49 101.343l.602-1.839-3.692-1.198-.602 1.838a61.056 61.056 0 0 0-2.581 11.594l-.235 1.919 3.855.467.235-1.919a57.177 57.177 0 0 1 2.418-10.862zm114.538 24.899l.235-1.919-3.855-.467-.235 1.919a57.25 57.25 0 0 1-2.418 10.863l-.602 1.838 3.692 1.198.602-1.838a60.94 60.94 0 0 0 1.572-5.735c.436-1.955.771-3.91 1.009-5.859zm-117.21-2.923l-.148-1.927-3.872.293.148 1.928a59.973 59.973 0 0 0 2.075 11.697l.525 1.862 3.739-1.045-.525-1.861a56.14 56.14 0 0 1-1.942-10.947zm109.835 25.394l.951-1.685-3.384-1.896-.952 1.686a56.415 56.415 0 0 1-6.407 9.103l-1.265 1.466 2.945 2.52 1.266-1.466a60.264 60.264 0 0 0 6.846-9.728zm-103.837-4.088l-.878-1.724-3.463 1.75.878 1.724a60.879 60.879 0 0 0 6.408 10.015l1.198 1.522 3.056-2.386-1.198-1.521a57.041 57.041 0 0 1-6-9.38zm88.368 22.021l1.528-1.193-2.396-3.043-1.528 1.193a57.275 57.275 0 0 1-9.42 5.975l-1.731.875 1.757 3.448 1.732-.875a61.247 61.247 0 0 0 10.058-6.38zm-74.651-4.603l-1.473-1.26-2.53 2.933 1.472 1.26a60.468 60.468 0 0 0 9.77 6.816l1.692.948 1.904-3.37-1.693-.948a56.538 56.538 0 0 1-9.142-6.379zm53.48 15.297l1.87-.522-1.05-3.723-1.869.522a56.793 56.793 0 0 1-10.993 1.934l-1.936.147.294 3.856 1.937-.147a60.72 60.72 0 0 0 11.747-2.067zm-34.114-4.45l-1.846-.599-1.204 3.676 1.846.599a61.773 61.773 0 0 0 11.644 2.57l1.927.234.47-3.838-1.928-.234a58 58 0 0 1-10.909-2.408z" fill="#61FFFF"/><path d="M142.876 65.332a60.686 60.686 0 0 0-3.745-1.8l-1.777-.78-1.567 3.537 1.776.78c1.031.454 2.054.94 3.066 1.458l2.247-3.195zM153.353 77.4c.836.77 1.644 1.56 2.424 2.37l1.344 1.395 2.803-2.677-1.344-1.395a60.61 60.61 0 0 0-2.98-2.888l-2.247 3.195zm-37.484-15.113l1.941.04.081-3.865-1.941-.04a61.397 61.397 0 0 0-23.378 4.104l-1.81.699 1.404 3.605 1.81-.7a57.5 57.5 0 0 1 21.893-3.843zm55.463 34.747l-.702-1.803-3.621 1.398.703 1.803a56.825 56.825 0 0 1 3.86 21.799l-.041 1.933 3.883.081.04-1.933a60.663 60.663 0 0 0-4.122-23.278zm-96.099-19.02l1.402-1.339-2.689-2.79-1.4 1.339a60.935 60.935 0 0 0-7.759 9.02 60.785 60.785 0 0 0-5.86 10.345l-.784 1.769 3.553 1.56.784-1.768a56.935 56.935 0 0 1 5.489-9.687 57.068 57.068 0 0 1 7.264-8.45zm95.088 65.379l.783-1.769-3.552-1.561-.784 1.769a56.942 56.942 0 0 1-5.489 9.687 57.059 57.059 0 0 1-7.265 8.449l-1.401 1.338 2.688 2.791 1.401-1.339a60.91 60.91 0 0 0 7.758-9.021 60.818 60.818 0 0 0 5.861-10.344zM57.676 117.75l.04-1.933-3.882-.081-.04 1.933a60.67 60.67 0 0 0 4.121 23.278l.702 1.803 3.621-1.399-.702-1.802a56.817 56.817 0 0 1-3.86-21.799zm79 57.705l1.81-.699-1.404-3.605-1.811.699a57.52 57.52 0 0 1-21.893 3.844l-1.941-.041-.081 3.866 1.941.04a61.39 61.39 0 0 0 23.379-4.104zM73.47 158.211l-1.344-1.395-2.802 2.677 1.344 1.395a61.078 61.078 0 0 0 9.06 7.724 61.215 61.215 0 0 0 10.389 5.836l1.776.78 1.568-3.537-1.777-.781a57.312 57.312 0 0 1-9.729-5.465 57.167 57.167 0 0 1-8.485-7.234z" fill="#fff"/><path d="M148.143 58.967l-11.004 15.648-3.182-2.218 11.005-15.648 3.181 2.218zM151.177 84.797l11.283-15.834-3.167-2.237-11.283 15.833 3.167 2.238z" fill="#fff"/></g><path fill-rule="evenodd" clip-rule="evenodd" d="M142.896 65.304l-.115-.064-.65 1.151.765-1.087zm11.962 9.954l.858-.994-.099-.084-.759 1.078zm-27.067-15.41a61.84 61.84 0 0 0-5.885-1.004l-1.927-.234-.47 3.838 1.928.234a57.884 57.884 0 0 1 10.909 2.408l1.846.6 1.204-3.677-1.846-.599a61.854 61.854 0 0 0-5.759-1.566zm-17.516 2.58l1.936-.146-.295-3.855-1.936.146a60.706 60.706 0 0 0-11.748 2.067l-1.87.523 1.05 3.722 1.87-.522a56.813 56.813 0 0 1 10.993-1.934zm-21.398 5.974l1.731-.875-1.757-3.448-1.731.875a61.224 61.224 0 0 0-10.059 6.38l-1.528 1.193 2.396 3.043 1.528-1.193a57.351 57.351 0 0 1 9.42-5.975zm73.607 13.188l-1.198-1.522-3.056 2.386 1.198 1.521a57.058 57.058 0 0 1 6.001 9.38l.879 1.724 3.463-1.75-.879-1.724a60.895 60.895 0 0 0-6.408-10.015zm-91.1.47l1.265-1.467-2.945-2.52-1.265 1.466a60.214 60.214 0 0 0-6.846 9.728l-.952 1.685 3.384 1.896.952-1.685a56.337 56.337 0 0 1 6.407-9.104zm101.84 20.61l-.525-1.862-3.738 1.045.524 1.862c1 3.546 1.657 7.21 1.943 10.946l.147 1.927 3.872-.293-.147-1.928a60.003 60.003 0 0 0-2.076-11.697zM60.49 101.343l.602-1.839-3.692-1.198-.602 1.838a61.056 61.056 0 0 0-2.581 11.594l-.235 1.919 3.855.467.235-1.919a57.177 57.177 0 0 1 2.418-10.862zm114.538 24.899l.235-1.919-3.855-.467-.235 1.919a57.25 57.25 0 0 1-2.418 10.863l-.602 1.838 3.692 1.198.602-1.838a60.94 60.94 0 0 0 1.572-5.735c.436-1.955.771-3.91 1.009-5.859zm-117.21-2.923l-.148-1.927-3.872.293.148 1.928a59.973 59.973 0 0 0 2.075 11.697l.525 1.862 3.739-1.045-.525-1.861a56.14 56.14 0 0 1-1.942-10.947zm109.835 25.394l.951-1.685-3.384-1.896-.952 1.686a56.415 56.415 0 0 1-6.407 9.103l-1.265 1.466 2.945 2.52 1.266-1.466a60.264 60.264 0 0 0 6.846-9.728zm-103.837-4.088l-.878-1.724-3.463 1.75.878 1.724a60.879 60.879 0 0 0 6.408 10.015l1.198 1.522 3.056-2.386-1.198-1.521a57.041 57.041 0 0 1-6-9.38zm88.368 22.021l1.528-1.193-2.396-3.043-1.528 1.193a57.275 57.275 0 0 1-9.42 5.975l-1.731.875 1.757 3.448 1.732-.875a61.247 61.247 0 0 0 10.058-6.38zm-74.651-4.603l-1.473-1.26-2.53 2.933 1.472 1.26a60.468 60.468 0 0 0 9.77 6.816l1.692.948 1.904-3.37-1.693-.948a56.538 56.538 0 0 1-9.142-6.379zm53.48 15.297l1.87-.522-1.05-3.723-1.869.522a56.793 56.793 0 0 1-10.993 1.934l-1.936.147.294 3.856 1.937-.147a60.72 60.72 0 0 0 11.747-2.067zm-34.114-4.45l-1.846-.599-1.204 3.676 1.846.599a61.773 61.773 0 0 0 11.644 2.57l1.927.234.47-3.838-1.928-.234a58 58 0 0 1-10.909-2.408z" fill="#61FFFF"/><path fill-rule="evenodd" clip-rule="evenodd" d="M142.876 65.332a60.686 60.686 0 0 0-3.745-1.8l-1.777-.78-1.567 3.537 1.776.78c1.031.454 2.054.94 3.066 1.458l2.247-3.195zM153.353 77.4c.836.77 1.644 1.56 2.424 2.37l1.344 1.395 2.803-2.677-1.344-1.395a60.61 60.61 0 0 0-2.98-2.888l-2.247 3.195zm-37.484-15.113l1.941.04.081-3.865-1.941-.04a61.397 61.397 0 0 0-23.378 4.104l-1.81.699 1.404 3.605 1.81-.7a57.5 57.5 0 0 1 21.893-3.843zm55.463 34.747l-.702-1.803-3.621 1.398.703 1.803a56.825 56.825 0 0 1 3.86 21.799l-.041 1.933 3.883.081.04-1.933a60.663 60.663 0 0 0-4.122-23.278zm-96.099-19.02l1.402-1.339-2.689-2.79-1.4 1.339a60.935 60.935 0 0 0-7.759 9.02 60.785 60.785 0 0 0-5.86 10.345l-.784 1.769 3.553 1.56.784-1.768a56.935 56.935 0 0 1 5.489-9.687 57.068 57.068 0 0 1 7.264-8.45zm95.088 65.379l.783-1.769-3.552-1.561-.784 1.769a56.942 56.942 0 0 1-5.489 9.687 57.059 57.059 0 0 1-7.265 8.449l-1.401 1.338 2.688 2.791 1.401-1.339a60.91 60.91 0 0 0 7.758-9.021 60.818 60.818 0 0 0 5.861-10.344zM57.676 117.75l.04-1.933-3.882-.081-.04 1.933a60.67 60.67 0 0 0 4.121 23.278l.702 1.803 3.621-1.399-.702-1.802a56.817 56.817 0 0 1-3.86-21.799zm79 57.705l1.81-.699-1.404-3.605-1.811.699a57.52 57.52 0 0 1-21.893 3.844l-1.941-.041-.081 3.866 1.941.04a61.39 61.39 0 0 0 23.379-4.104zM73.47 158.211l-1.344-1.395-2.802 2.677 1.344 1.395a61.078 61.078 0 0 0 9.06 7.724 61.215 61.215 0 0 0 10.389 5.836l1.776.78 1.568-3.537-1.777-.781a57.312 57.312 0 0 1-9.729-5.465 57.167 57.167 0 0 1-8.485-7.234z" fill="#fff"/><path fill-rule="evenodd" clip-rule="evenodd" d="M148.143 58.967l-11.004 15.648-3.182-2.218 11.005-15.648 3.181 2.218zM151.177 84.797l11.283-15.834-3.167-2.237-11.283 15.833 3.167 2.238z" fill="#fff"/><defs><filter id="filter0_f" x="38.779" y="41.749" width="151.688" height="152.824" filterUnits="userSpaceOnUse" color-interpolation-filters="sRGB"><feFlood flood-opacity="0" result="BackgroundImageFix"/><feBlend in="SourceGraphic" in2="BackgroundImageFix" result="shape"/><feGaussianBlur stdDeviation="7.5" result="effect1_foregroundBlur"/></filter></defs></svg>