<svg width="240" height="240" viewBox="0 0 240 240" fill="none" xmlns="http://www.w3.org/2000/svg">
<g filter="url(#filter0_f)">
<path fill-rule="evenodd" clip-rule="evenodd" d="M121.572 104.205C121.615 103.902 121.654 103.603 121.689 103.308C121.952 101.112 122.011 99.0834 121.777 97.3415C121.546 95.6155 121.008 94.0217 119.943 92.8592L119.333 92.1932L114.159 93.54C113.572 91.1599 112.781 88.1442 111.99 85.4977C111.508 83.8835 111.017 82.3752 110.564 81.2244C110.339 80.6536 110.107 80.1293 109.875 79.7117C109.759 79.5041 109.623 79.2861 109.464 79.0911C109.328 78.9238 109.065 78.6319 108.66 78.4578C107.95 78.1521 107.207 78.2243 106.669 78.3407C106.097 78.4645 105.522 78.6911 105.006 78.9355C104.51 79.1707 104.021 79.4457 103.579 79.7196L97.164 71.4085L94.6196 72.4219L88.0313 65.8829L85.1639 67.0249L79.3972 62.549L76.4308 63.7304L71.7767 59.0026L71.6306 59.1465L68.8033 58.8855L68.0479 67.0692L65.0103 68.279L63.8999 75.494L61.0325 76.636L60.7438 85.914L58.1994 86.9274L59.2551 97.3728C58.7453 97.4783 58.2013 97.6147 57.6793 97.7849C57.1372 97.9617 56.5636 98.1927 56.063 98.4961C55.5924 98.7814 55.0033 99.2397 54.6976 99.95C54.5235 100.355 54.5328 100.748 54.549 100.963C54.5679 101.213 54.6189 101.465 54.6776 101.696C54.7957 102.159 54.9882 102.699 55.2174 103.268C55.6795 104.415 56.3597 105.848 57.1193 107.352C58.3646 109.817 59.8638 112.551 61.0733 114.683L56.3902 117.262L56.4051 118.165C56.4309 119.732 57.1161 121.253 58.1139 122.665C59.1199 124.089 60.5268 125.518 62.1927 126.929C65.5256 129.753 70.0752 132.651 75.0602 135.417C77.6605 136.859 80.3952 138.274 83.161 139.632L85.5281 137.449C82.4494 135.957 79.3962 134.391 76.5155 132.793C71.6003 130.066 67.2463 127.278 64.1317 124.64C62.5738 123.321 61.371 122.076 60.5638 120.934C60.0321 120.181 59.7061 119.522 59.5403 118.952L65.1981 115.837L64.4312 114.511C63.16 112.312 61.2864 108.948 59.797 105.999C59.0501 104.521 58.4147 103.176 58.0001 102.147C57.8172 101.693 57.69 101.331 57.6142 101.064L57.6181 101.062C57.8483 100.922 58.1851 100.775 58.6096 100.637C59.4553 100.361 60.4305 100.187 61.0581 100.116L62.5308 99.9494L61.4117 88.8772L63.6812 87.9733L63.9699 78.6953L66.604 77.6461L67.7144 70.4312L70.8661 69.1759L71.4419 62.9389L75.6903 67.2546L78.9132 65.9709L84.6798 70.4469L87.314 69.3978L93.9023 75.9368L96.1718 75.0329L102.971 83.8426L104.155 82.9513C104.66 82.5715 105.488 82.0273 106.292 81.6462C106.695 81.4549 107.04 81.3298 107.304 81.2728L107.308 81.2719C107.437 81.5181 107.593 81.868 107.772 82.3235C108.179 83.356 108.642 84.7692 109.116 86.3564C110.061 89.5215 111.014 93.2531 111.602 95.7233L111.957 97.2134L118.204 95.5872C118.47 96.1141 118.681 96.8196 118.804 97.7398C118.991 99.1398 118.956 100.894 118.71 102.952C118.539 104.384 118.27 105.934 117.917 107.576L121.572 104.205ZM105.887 118.671C106.768 114.847 107.031 110.392 106.346 105.601L103.376 106.026C104.128 111.278 103.637 116.037 102.469 119.848C102.128 120.959 101.734 121.978 101.301 122.901L105.887 118.671ZM98.5044 125.48L89.235 100.521L86.4227 101.565L96.1207 127.679L98.5044 125.48ZM95.9032 127.88C93.2896 127.097 90.3939 125.41 87.5775 123.306C83.8218 120.501 80.4761 117.16 78.5604 114.957L76.2969 116.926C78.3275 119.261 81.8271 122.755 85.782 125.71C88.1438 127.474 90.7706 129.125 93.4094 130.18L95.9032 127.88ZM80.2176 142.347C77.9077 141.332 75.6826 140.501 73.7254 140.008C72.48 139.693 71.2855 139.501 70.2143 139.506C69.1592 139.511 68.0728 139.71 67.1902 140.331L66.4517 140.851L66.8009 143.595C65.5372 143.747 64.0662 143.944 62.7433 144.16C61.7947 144.316 60.8896 144.486 60.183 144.664C59.8344 144.752 59.4909 144.853 59.2001 144.969C59.0559 145.026 58.8856 145.103 58.7205 145.206C58.5857 145.289 58.2962 145.483 58.0891 145.833C57.7645 146.382 57.7598 146.966 57.7908 147.33C57.8248 147.729 57.926 148.121 58.0344 148.454C58.0765 148.584 58.1225 148.713 58.171 148.839L53.1003 151.805L53.5018 153.371L49.3473 156.603L49.7953 158.35L46.8605 161.269L47.2951 162.965L44.6428 164.979L45.1062 165.589L44.6128 167.794L48.7717 168.725L49.2254 170.495L53.2023 171.642L53.6504 173.39L58.847 174.224L59.2485 175.791L65.1205 175.951C65.1389 176.086 65.1605 176.221 65.1859 176.355C65.251 176.699 65.3509 177.091 65.513 177.457C65.6609 177.791 65.9463 178.302 66.4948 178.626C66.8446 178.833 67.1919 178.865 67.3502 178.873C67.5441 178.883 67.7304 178.869 67.8845 178.85C68.1954 178.812 68.5449 178.735 68.8927 178.644C69.5979 178.46 70.4735 178.174 71.3798 177.854C72.6437 177.408 74.0279 176.872 75.2088 176.398L76.2228 178.971L77.1203 179.072C78.1835 179.191 79.2245 178.856 80.1511 178.366C81.0904 177.868 82.0416 177.142 82.9784 176.287C83.2195 176.066 83.4624 175.835 83.7069 175.594L81.6716 173.387C81.4295 173.628 81.1907 173.856 80.9557 174.071C80.1234 174.831 79.3816 175.378 78.7468 175.715C78.5642 175.811 78.4002 175.885 78.2535 175.941L76.8813 172.458L75.4682 173.049C74.1467 173.602 72.1309 174.407 70.3803 175.025C69.5005 175.336 68.7186 175.589 68.1364 175.741L68.1239 175.744C68.0479 175.315 68.0244 174.827 68.0292 174.512L68.0519 173.031L61.5927 172.854L61.2647 171.574L56.068 170.74L55.6824 169.235L51.7055 168.088L51.2213 166.199L48.7311 165.641L50.6958 164.15L50.1926 162.186L53.1274 159.268L52.7417 157.763L56.8962 154.532L56.5682 153.252L62.146 149.99L61.4133 148.702C61.2579 148.429 61.0438 147.989 60.9039 147.576L60.9164 147.573C61.4998 147.426 62.3068 147.272 63.2277 147.121C65.06 146.821 67.2145 146.557 68.6389 146.406L70.1622 146.245L69.6906 142.539C69.8451 142.519 70.0237 142.507 70.2295 142.506C70.9556 142.502 71.8813 142.636 72.9916 142.916C74.414 143.275 76.045 143.849 77.8003 144.576L80.2176 142.347ZM73.7827 148.282C73.7645 148.282 73.7463 148.282 73.7281 148.283L73.7288 148.332L73.7827 148.282ZM70.1631 160.909L70.2913 161.463L70.6066 161.39L70.1631 160.909ZM57.5405 100.737C57.5401 100.732 57.5401 100.73 57.5402 100.729C57.5403 100.729 57.5409 100.734 57.5411 100.743L57.5405 100.737ZM107.137 80.9836C107.129 80.9741 107.13 80.9771 107.14 80.9887L107.137 80.9836ZM68.2742 176.278C68.274 176.278 68.2709 176.274 68.2654 176.263C68.268 176.266 68.2699 176.27 68.2713 176.272C68.2733 176.276 68.2742 176.278 68.2742 176.278ZM60.7787 147.036C60.7784 147.036 60.778 147.041 60.7785 147.054C60.7793 147.042 60.779 147.036 60.7787 147.036Z" fill="#61FFFF"/>
<path fill-rule="evenodd" clip-rule="evenodd" d="M175.569 58.4827L201.323 86.4057L195.046 92.1953L169.292 64.2723L175.569 58.4827ZM180.126 80.4433L192.841 94.2293L103.76 176.391L91.0166 162.574L99.0093 162.866L99.4369 153.201L109.105 153.555L109.533 143.89L119.201 144.243L119.628 134.578L129.296 134.932L129.724 125.267L139.392 125.62L139.82 115.955L149.488 116.309L149.915 106.644L159.584 106.997L160.011 97.332L169.679 97.6857L170.107 88.0205L179.775 88.3741L180.126 80.4433ZM177.26 77.3364L167.087 66.3063L78.0061 148.468L88.1511 159.467L96.1438 159.759L96.5714 150.094L106.24 150.448L106.667 140.783L116.335 141.136L116.763 131.471L126.431 131.825L126.859 122.16L136.527 122.513L136.954 112.848L146.622 113.202L147.05 103.537L156.718 103.89L157.146 94.2252L166.814 94.5788L167.241 84.9137L176.91 85.2673L177.26 77.3364ZM75.8009 150.502L69.7729 156.061L95.527 183.984L101.555 178.425L75.8009 150.502ZM65.5337 155.89L175.741 54.2435L205.563 86.577L95.3557 188.224L65.5337 155.89Z" fill="white"/>
</g>
<path fill-rule="evenodd" clip-rule="evenodd" d="M121.572 104.205C121.615 103.902 121.654 103.603 121.689 103.308C121.952 101.112 122.011 99.0834 121.777 97.3415C121.546 95.6155 121.008 94.0217 119.943 92.8592L119.333 92.1932L114.159 93.54C113.572 91.1599 112.781 88.1442 111.99 85.4977C111.508 83.8835 111.017 82.3752 110.564 81.2244C110.339 80.6536 110.107 80.1293 109.875 79.7117C109.759 79.5041 109.623 79.2861 109.464 79.0911C109.328 78.9238 109.065 78.6319 108.66 78.4578C107.95 78.1521 107.207 78.2243 106.669 78.3407C106.097 78.4645 105.522 78.6911 105.006 78.9355C104.51 79.1707 104.021 79.4457 103.579 79.7196L97.164 71.4085L94.6196 72.4219L88.0313 65.8829L85.1639 67.0249L79.3972 62.549L76.4308 63.7304L71.7767 59.0026L71.6306 59.1465L68.8033 58.8855L68.0479 67.0692L65.0103 68.279L63.8999 75.494L61.0325 76.636L60.7438 85.914L58.1994 86.9274L59.2551 97.3728C58.7453 97.4783 58.2013 97.6147 57.6793 97.7849C57.1372 97.9617 56.5636 98.1927 56.063 98.4961C55.5924 98.7814 55.0033 99.2397 54.6976 99.95C54.5235 100.355 54.5328 100.748 54.549 100.963C54.5679 101.213 54.6189 101.465 54.6776 101.696C54.7957 102.159 54.9882 102.699 55.2174 103.268C55.6795 104.415 56.3597 105.848 57.1193 107.352C58.3646 109.817 59.8638 112.551 61.0733 114.683L56.3902 117.262L56.4051 118.165C56.4309 119.732 57.1161 121.253 58.1139 122.665C59.1199 124.089 60.5268 125.518 62.1927 126.929C65.5256 129.753 70.0752 132.651 75.0602 135.417C77.6605 136.859 80.3952 138.274 83.161 139.632L85.5281 137.449C82.4494 135.957 79.3962 134.391 76.5155 132.793C71.6003 130.066 67.2463 127.278 64.1317 124.64C62.5738 123.321 61.371 122.076 60.5638 120.934C60.0321 120.181 59.7061 119.522 59.5403 118.952L65.1981 115.837L64.4312 114.511C63.16 112.312 61.2864 108.948 59.797 105.999C59.0501 104.521 58.4147 103.176 58.0001 102.147C57.8172 101.693 57.69 101.331 57.6142 101.064L57.6181 101.062C57.8483 100.922 58.1851 100.775 58.6096 100.637C59.4553 100.361 60.4305 100.187 61.0581 100.116L62.5308 99.9494L61.4117 88.8772L63.6812 87.9733L63.9699 78.6953L66.604 77.6461L67.7144 70.4312L70.8661 69.1759L71.4419 62.9389L75.6903 67.2546L78.9132 65.9709L84.6798 70.4469L87.314 69.3978L93.9023 75.9368L96.1718 75.0329L102.971 83.8426L104.155 82.9513C104.66 82.5715 105.488 82.0273 106.292 81.6462C106.695 81.4549 107.04 81.3298 107.304 81.2728L107.308 81.2719C107.437 81.5181 107.593 81.868 107.772 82.3235C108.179 83.356 108.642 84.7692 109.116 86.3564C110.061 89.5215 111.014 93.2531 111.602 95.7233L111.957 97.2134L118.204 95.5872C118.47 96.1141 118.681 96.8196 118.804 97.7398C118.991 99.1398 118.956 100.894 118.71 102.952C118.539 104.384 118.27 105.934 117.917 107.576L121.572 104.205ZM105.887 118.671C106.768 114.847 107.031 110.392 106.346 105.601L103.376 106.026C104.128 111.278 103.637 116.037 102.469 119.848C102.128 120.959 101.734 121.978 101.301 122.901L105.887 118.671ZM98.5044 125.48L89.235 100.521L86.4227 101.565L96.1207 127.679L98.5044 125.48ZM95.9032 127.88C93.2896 127.097 90.3939 125.41 87.5775 123.306C83.8218 120.501 80.4761 117.16 78.5604 114.957L76.2969 116.926C78.3275 119.261 81.8271 122.755 85.782 125.71C88.1438 127.474 90.7706 129.125 93.4094 130.18L95.9032 127.88ZM80.2176 142.347C77.9077 141.332 75.6826 140.501 73.7254 140.008C72.48 139.693 71.2855 139.501 70.2143 139.506C69.1592 139.511 68.0728 139.71 67.1902 140.331L66.4517 140.851L66.8009 143.595C65.5372 143.747 64.0662 143.944 62.7433 144.16C61.7947 144.316 60.8896 144.486 60.183 144.664C59.8344 144.752 59.4909 144.853 59.2001 144.969C59.0559 145.026 58.8856 145.103 58.7205 145.206C58.5857 145.289 58.2962 145.483 58.0891 145.833C57.7645 146.382 57.7598 146.966 57.7908 147.33C57.8248 147.729 57.926 148.121 58.0344 148.454C58.0765 148.584 58.1225 148.713 58.171 148.839L53.1003 151.805L53.5018 153.371L49.3473 156.603L49.7953 158.35L46.8605 161.269L47.2951 162.965L44.6428 164.979L45.1062 165.589L44.6128 167.794L48.7717 168.725L49.2254 170.495L53.2023 171.642L53.6504 173.39L58.847 174.224L59.2485 175.791L65.1205 175.951C65.1389 176.086 65.1605 176.221 65.1859 176.355C65.251 176.699 65.3509 177.091 65.513 177.457C65.6609 177.791 65.9463 178.302 66.4948 178.626C66.8446 178.833 67.1919 178.865 67.3502 178.873C67.5441 178.883 67.7304 178.869 67.8845 178.85C68.1954 178.812 68.5449 178.735 68.8927 178.644C69.5979 178.46 70.4735 178.174 71.3798 177.854C72.6437 177.408 74.0279 176.872 75.2088 176.398L76.2228 178.971L77.1203 179.072C78.1835 179.191 79.2245 178.856 80.1511 178.366C81.0904 177.868 82.0416 177.142 82.9784 176.287C83.2195 176.066 83.4624 175.835 83.7069 175.594L81.6716 173.387C81.4295 173.628 81.1907 173.856 80.9557 174.071C80.1234 174.831 79.3816 175.378 78.7468 175.715C78.5642 175.811 78.4002 175.885 78.2535 175.941L76.8813 172.458L75.4682 173.049C74.1467 173.602 72.1309 174.407 70.3803 175.025C69.5005 175.336 68.7186 175.589 68.1364 175.741L68.1239 175.744C68.0479 175.315 68.0244 174.827 68.0292 174.512L68.0519 173.031L61.5927 172.854L61.2647 171.574L56.068 170.74L55.6824 169.235L51.7055 168.088L51.2213 166.199L48.7311 165.641L50.6958 164.15L50.1926 162.186L53.1274 159.268L52.7417 157.763L56.8962 154.532L56.5682 153.252L62.146 149.99L61.4133 148.702C61.2579 148.429 61.0438 147.989 60.9039 147.576L60.9164 147.573C61.4998 147.426 62.3068 147.272 63.2277 147.121C65.06 146.821 67.2145 146.557 68.6389 146.406L70.1622 146.245L69.6906 142.539C69.8451 142.519 70.0237 142.507 70.2295 142.506C70.9556 142.502 71.8813 142.636 72.9916 142.916C74.414 143.275 76.045 143.849 77.8003 144.576L80.2176 142.347ZM73.7827 148.282C73.7645 148.282 73.7463 148.282 73.7281 148.283L73.7288 148.332L73.7827 148.282ZM70.1631 160.909L70.2913 161.463L70.6066 161.39L70.1631 160.909ZM57.5405 100.737C57.5401 100.732 57.5401 100.73 57.5402 100.729C57.5403 100.729 57.5409 100.734 57.5411 100.743L57.5405 100.737ZM107.137 80.9836C107.129 80.9741 107.13 80.9771 107.14 80.9887L107.137 80.9836ZM68.2742 176.278C68.274 176.278 68.2709 176.274 68.2654 176.263C68.268 176.266 68.2699 176.27 68.2713 176.272C68.2733 176.276 68.2742 176.278 68.2742 176.278ZM60.7787 147.036C60.7784 147.036 60.778 147.041 60.7785 147.054C60.7793 147.042 60.779 147.036 60.7787 147.036Z" fill="#61FFFF"/>
<path fill-rule="evenodd" clip-rule="evenodd" d="M175.569 58.4827L201.323 86.4057L195.046 92.1953L169.292 64.2723L175.569 58.4827ZM180.126 80.4433L192.841 94.2293L103.76 176.391L91.0166 162.574L99.0093 162.866L99.4369 153.201L109.105 153.555L109.533 143.89L119.201 144.243L119.628 134.578L129.296 134.932L129.724 125.267L139.392 125.62L139.82 115.955L149.488 116.309L149.915 106.644L159.584 106.997L160.011 97.332L169.679 97.6857L170.107 88.0205L179.775 88.3741L180.126 80.4433ZM177.26 77.3364L167.087 66.3063L78.0061 148.468L88.1511 159.467L96.1438 159.759L96.5714 150.094L106.24 150.448L106.667 140.783L116.335 141.136L116.763 131.471L126.431 131.825L126.859 122.16L136.527 122.513L136.954 112.848L146.622 113.202L147.05 103.537L156.718 103.89L157.146 94.2252L166.814 94.5788L167.241 84.9137L176.91 85.2673L177.26 77.3364ZM75.8009 150.502L69.7729 156.061L95.527 183.984L101.555 178.425L75.8009 150.502ZM65.5337 155.89L175.741 54.2435L205.563 86.577L95.3557 188.224L65.5337 155.89Z" fill="white"/>
<defs>
<filter id="filter0_f" x="24.6128" y="34.2435" width="200.95" height="173.98" filterUnits="userSpaceOnUse" color-interpolation-filters="sRGB">
<feFlood flood-opacity="0" result="BackgroundImageFix"/>
<feBlend mode="normal" in="SourceGraphic" in2="BackgroundImageFix" result="shape"/>
<feGaussianBlur stdDeviation="10" result="effect1_foregroundBlur"/>
</filter>
</defs>
</svg>
