<svg width="240" height="251" fill="none" xmlns="http://www.w3.org/2000/svg"><g filter="url(#filter0_f)"><path d="M63.339 100.365L84.583 66l20.255 34.365h-8.257l17.15 31.577h-12.28l16.726 32.387H91.711v21.261H76.466v-21.261H50l16.727-32.387h-12.28l17.15-31.577h-8.258z" stroke="#fff" stroke-width="3"/><path d="M160.982 120.949L172.474 102l10.958 18.949h-4.467l9.278 17.411H181.6l9.048 17.859h-14.317v11.723H168.083v-11.723h-14.317l9.049-17.859h-6.644l9.278-17.411h-4.467z" stroke="#fff" stroke-width="2.5"/><path d="M136.766 103.933l2.381-3.947h-2.381L142.891 91l5.84 8.986h-2.381l4.945 8.258h-3.541l2.424 4.55" stroke="#fff" stroke-width="2"/><path d="M117.504 149h29.262v-30.041L127.676 106l-16.91 10.759" stroke="#FFEDBD" stroke-width="3"/></g><path d="M63.339 100.365L84.583 66l20.255 34.365h-8.257l17.15 31.577h-12.28l16.726 32.387H91.711v21.261H76.466v-21.261H50l16.727-32.387h-12.28l17.15-31.577h-8.258z" stroke="#fff" stroke-width="3"/><path d="M160.982 120.949L172.474 102l10.958 18.949h-4.467l9.278 17.411H181.6l9.048 17.859h-14.317v11.723H168.083v-11.723h-14.317l9.049-17.859h-6.644l9.278-17.411h-4.467z" stroke="#fff" stroke-width="2.5"/><path d="M136.766 103.933l2.381-3.947h-2.381L142.891 91l5.84 8.986h-2.381l4.945 8.258h-3.541l2.424 4.55" stroke="#fff" stroke-width="2"/><path d="M117.504 149h29.262v-30.041L127.676 106l-16.91 10.759" stroke="#FFEDBD" stroke-width="3"/><defs><filter id="filter0_f" x="40.537" y="56.098" width="159.146" height="137.992" filterUnits="userSpaceOnUse" color-interpolation-filters="sRGB"><feFlood flood-opacity="0" result="BackgroundImageFix"/><feBlend in="SourceGraphic" in2="BackgroundImageFix" result="shape"/><feGaussianBlur stdDeviation="3.5" result="effect1_foregroundBlur"/></filter></defs></svg>