<svg width="331" height="265" viewBox="0 0 331 265" fill="none" xmlns="http://www.w3.org/2000/svg">
<g filter="url(#filter0_d)">
<path d="M103 133.415L194.655 106.133C208.271 106.709 235.601 114.905 236 133.415M103 133.415C148.33 133.415 236 133.415 236 133.415M103 133.415C103 133.415 103 143.307 103 149.646C103 161.513 103 180.035 103 180.035H236V133.415" stroke="#FFEDBD" stroke-width="4"/>
<circle cx="181.5" cy="111.5" r="8.5" fill="#2D3841" stroke="white" stroke-width="4"/>
</g>
<g opacity="0.1" filter="url(#filter1_f)">
<rect x="280.762" y="105.661" width="226.107" height="61.5328" transform="rotate(154.766 280.762 105.661)" fill="#61FFFF"/>
<rect x="279.911" y="105.355" width="224.829" height="60.2545" transform="rotate(154.766 279.911 105.355)" stroke="black" stroke-width="1.27836"/>
</g>
<defs>
<filter id="filter0_d" x="86" y="86" width="167" height="111.035" filterUnits="userSpaceOnUse" color-interpolation-filters="sRGB">
<feFlood flood-opacity="0" result="BackgroundImageFix"/>
<feColorMatrix in="SourceAlpha" type="matrix" values="0 0 0 0 0 0 0 0 0 0 0 0 0 0 0 0 0 0 127 0"/>
<feOffset/>
<feGaussianBlur stdDeviation="7.5"/>
<feColorMatrix type="matrix" values="0 0 0 0 1 0 0 0 0 1 0 0 0 0 1 0 0 0 0.75 0"/>
<feBlend mode="normal" in2="BackgroundImageFix" result="effect1_dropShadow"/>
<feBlend mode="normal" in="SourceGraphic" in2="effect1_dropShadow" result="shape"/>
</filter>
<filter id="filter1_f" x="-0.000976562" y="-0.000183105" width="330.763" height="252.056" filterUnits="userSpaceOnUse" color-interpolation-filters="sRGB">
<feFlood flood-opacity="0" result="BackgroundImageFix"/>
<feBlend mode="normal" in="SourceGraphic" in2="BackgroundImageFix" result="shape"/>
<feGaussianBlur stdDeviation="25" result="effect1_foregroundBlur"/>
</filter>
</defs>
</svg>
