<svg width="240" height="240" fill="none" xmlns="http://www.w3.org/2000/svg"><g filter="url(#filter0_f)"><path fill-rule="evenodd" clip-rule="evenodd" d="M51 79h138.898v.01h-.926v.497l.926.463v.168l-.429.859.429 1.287v69.424l-.429 1.288-.497.993.926.463v.598l-.429.429-.497 1.986.926.926v3.057H51V97.451l.428.428.496-.993V94.9l-.924.462V79zm3 3v17.907h47.632v-4.772a5.227 5.227 0 0 0 5.227-5.227h27.18a5.227 5.227 0 0 0 5.227 5.227v.984l-.991.817.496.993-.496.993.993.993v-.008h47.63v-1.056l.972-.972v-.993l-.497-.496-.475-.95V82H54zm85.266 20.907v9.999h30.316a5.227 5.227 0 0 0 5.226 5.227v14.011l-.494.494v.993l-.496.496.496.497h.494v6.507a5.227 5.227 0 0 0-5.226 5.227h-1.964l-.991-1.485-1.986-.497-2.979 1.49-.993-.497-1.978.989h-31.303l-1.478-.492-1.986-.497-.494.989H71.317v-1.045a5.227 5.227 0 0 0-5.227-5.227v-17.25l.313-.626.496-.496-.809-.405v-.276l.313-.312-.313-.626v-1.962a5.227 5.227 0 0 0 5.227-5.227h25.866l.97.486h1.49l1.489.496.491-.982h.006v.039l.496-.497.497-.993-.497-.497-.493-.986v-7.065H54v.986l-.884.441v1.49l.497.497.387.774v51.353h132.898v-55.541h-47.632zm-37.634 12.999h-27.88a8.253 8.253 0 0 1-4.662 4.663v3.423l-.204.204v.497l.204.204v.731l-.7 1.051.496.497v.496l.204.205v9.773a8.244 8.244 0 0 1 4.993 5.708h93.063a8.25 8.25 0 0 1 4.662-4.662v-18.127a8.25 8.25 0 0 1-4.662-4.663h-27.88V121.269a5.227 5.227 0 0 0-5.227 5.227v1.046h-.811l-.366-.366h-.496l-.732.366h-.824l-.431-.863-.993.497-.366.366h-22.161v-1.046a5.227 5.227 0 0 0-5.227-5.227V115.906zm7.994 8.636a8.247 8.247 0 0 0-4.994-5.709V97.571a8.253 8.253 0 0 0 4.663-4.663h22.308a8.253 8.253 0 0 0 4.663 4.663v21.262a8.247 8.247 0 0 0-4.994 5.709h-21.646zm8.869-16.301a4.181 4.181 0 1 1 4.66-6.886h.769v.497l.497.496-.263.263a4.182 4.182 0 0 1-2.663 5.982V117.088h-2.09v-.39l-.446-.446v-.497l.446-.446v-6.716h-.001a4.148 4.148 0 0 1-.909-.352zm-2.09 2.236a7.18 7.18 0 0 1 4.044-13.115 7.181 7.181 0 0 1 4.046 13.115v9.611h-8.09v-9.611zM80.725 79.01h5.958l-.993.993-1.986.497-.497-.993-1.49.496-.993-.993zm-19.863 79.448h-2.979l-.496.993 2.979-.496.496-.497zm48.662 2.98l.993-.993.993.496h.993l.993.497h-3.972zm64.63-81.931l.993-.497h-3.972l-.497.497 1.987-.248 1.489.248z" fill="#fff"/></g><path fill-rule="evenodd" clip-rule="evenodd" d="M51 79h138.898v.01h-.926v.497l.926.463v.168l-.429.859.429 1.287v69.424l-.429 1.288-.497.993.926.463v.598l-.429.429-.497 1.986.926.926v3.057H51V97.451l.428.428.496-.993V94.9l-.924.462V79zm3 3v17.907h47.632v-4.772a5.227 5.227 0 0 0 5.227-5.227h27.18a5.227 5.227 0 0 0 5.227 5.227v.984l-.991.817.496.993-.496.993.993.993v-.008h47.63v-1.056l.972-.972v-.993l-.497-.496-.475-.95V82H54zm85.266 20.907v9.999h30.316a5.227 5.227 0 0 0 5.226 5.227v14.011l-.494.494v.993l-.496.496.496.497h.494v6.507a5.227 5.227 0 0 0-5.226 5.227h-1.964l-.991-1.485-1.986-.497-2.979 1.49-.993-.497-1.978.989h-31.303l-1.478-.492-1.986-.497-.494.989H71.317v-1.045a5.227 5.227 0 0 0-5.227-5.227v-17.25l.313-.626.496-.496-.809-.405v-.276l.313-.312-.313-.626v-1.962a5.227 5.227 0 0 0 5.227-5.227h25.866l.97.486h1.49l1.489.496.491-.982h.006v.039l.496-.497.497-.993-.497-.497-.493-.986v-7.065H54v.986l-.884.441v1.49l.497.497.387.774v51.353h132.898v-55.541h-47.632zm-37.634 12.999h-27.88a8.253 8.253 0 0 1-4.662 4.663v3.423l-.204.204v.497l.204.204v.731l-.7 1.051.496.497v.496l.204.205v9.773a8.244 8.244 0 0 1 4.993 5.708h93.063a8.25 8.25 0 0 1 4.662-4.662v-18.127a8.25 8.25 0 0 1-4.662-4.663h-27.88V121.269a5.227 5.227 0 0 0-5.227 5.227v1.046h-.811l-.366-.366h-.496l-.732.366h-.824l-.431-.863-.993.497-.366.366h-22.161v-1.046a5.227 5.227 0 0 0-5.227-5.227V115.906zm7.994 8.636a8.247 8.247 0 0 0-4.994-5.709V97.571a8.253 8.253 0 0 0 4.663-4.663h22.308a8.253 8.253 0 0 0 4.663 4.663v21.262a8.247 8.247 0 0 0-4.994 5.709h-21.646zm8.869-16.301a4.181 4.181 0 1 1 4.66-6.886h.769v.497l.497.496-.263.263a4.182 4.182 0 0 1-2.663 5.982V117.088h-2.09v-.39l-.446-.446v-.497l.446-.446v-6.716h-.001a4.129 4.129 0 0 1-.909-.352zm-2.09 2.236a7.18 7.18 0 0 1 4.044-13.115 7.181 7.181 0 0 1 4.046 13.115v9.611h-8.09v-9.611zM80.725 79.01h5.958l-.993.993-1.986.497-.497-.993-1.49.496-.993-.993zm-19.863 79.448h-2.979l-.496.993 2.979-.496.496-.497zm48.662 2.98l.993-.993.993.496h.993l.993.497h-3.972zm64.63-81.931l.993-.497h-3.972l-.497.497 1.987-.248 1.489.248z" fill="#fff"/><defs><filter id="filter0_f" x="36" y="64" width="168.898" height="112.448" filterUnits="userSpaceOnUse" color-interpolation-filters="sRGB"><feFlood flood-opacity="0" result="BackgroundImageFix"/><feBlend in="SourceGraphic" in2="BackgroundImageFix" result="shape"/><feGaussianBlur stdDeviation="7.5" result="effect1_foregroundBlur"/></filter></defs></svg>