<svg width="307" height="287" viewBox="0 0 307 287" fill="none" xmlns="http://www.w3.org/2000/svg">
<g opacity="0.1" filter="url(#filter0_f)">
<rect x="256.846" y="134.667" width="179.616" height="102.332" transform="rotate(145.573 256.846 134.667)" fill="#61FFFF"/>
<rect x="255.957" y="134.501" width="178.338" height="101.054" transform="rotate(145.573 255.957 134.501)" stroke="black" stroke-width="1.27836"/>
</g>
<g filter="url(#filter1_d)">
<circle cx="145" cy="146" r="47.5" stroke="#FFEDBD" stroke-width="3" stroke-dasharray="2 2 2 2 2 2"/>
<path fill-rule="evenodd" clip-rule="evenodd" d="M144.947 112.304L145.647 112.673L174.698 127.957L175.5 128.378V129.284V163.645V164.548L174.702 164.971L145.702 180.326L145 180.697L144.298 180.326L115.298 164.971L114.5 164.548V163.645V129.284V128.38L115.3 127.958L144.248 112.674L144.947 112.304ZM144.949 115.696L117.5 130.189V162.742L125.924 167.202V134.428L145.222 148.112L164.519 134.428V166.968L172.5 162.742V130.19L144.949 115.696ZM145 177.303L128.924 168.791V140.233L145.222 151.79L161.519 140.233V168.556L145 177.303ZM145.694 121.775L144.113 119.225L126.231 130.315L144.893 142.798L164.043 130.3H144.904V133.3H153.957L144.914 139.202L131.769 130.41L145.694 121.775Z" fill="white"/>
</g>
<defs>
<filter id="filter0_f" x="0.835938" y="0.25824" width="306.01" height="285.956" filterUnits="userSpaceOnUse" color-interpolation-filters="sRGB">
<feFlood flood-opacity="0" result="BackgroundImageFix"/>
<feBlend mode="normal" in="SourceGraphic" in2="BackgroundImageFix" result="shape"/>
<feGaussianBlur stdDeviation="25" result="effect1_foregroundBlur"/>
</filter>
<filter id="filter1_d" x="81" y="82" width="128" height="128" filterUnits="userSpaceOnUse" color-interpolation-filters="sRGB">
<feFlood flood-opacity="0" result="BackgroundImageFix"/>
<feColorMatrix in="SourceAlpha" type="matrix" values="0 0 0 0 0 0 0 0 0 0 0 0 0 0 0 0 0 0 127 0"/>
<feOffset/>
<feGaussianBlur stdDeviation="7.5"/>
<feColorMatrix type="matrix" values="0 0 0 0 1 0 0 0 0 1 0 0 0 0 1 0 0 0 0.75 0"/>
<feBlend mode="normal" in2="BackgroundImageFix" result="effect1_dropShadow"/>
<feBlend mode="normal" in="SourceGraphic" in2="effect1_dropShadow" result="shape"/>
</filter>
</defs>
</svg>
