<svg width="240" height="240" fill="none" xmlns="http://www.w3.org/2000/svg"><g filter="url(#filter0_f_375_14113)"><circle cx="120" cy="120" r="47.5" stroke="#FFEDBD" stroke-width="3"/></g><circle cx="120" cy="120" r="47.5" stroke="#FFEDBD" stroke-width="3"/><g filter="url(#filter1_f_375_14113)"><path clip-rule="evenodd" d="M119.952 89L147 103.109v31.717L120 149l-27-14.174v-31.717L119.952 89z" stroke="#fff" stroke-width="2.5" stroke-linecap="round"/><path d="M107.598 133.898h-1.25v2.419l1.973-1.399-.723-1.02zm12.449-8.828l.723-1.019-.723-.513-.723.513.723 1.019zm12.449 8.828l-.723 1.02 1.973 1.399v-2.419h-1.25zm-12.267-26.701l.749-1.001-.719-.539-.739.51.709 1.03zm-13.881 4.009v22.692h2.5v-22.692h-2.5zm1.973 23.712l12.449-8.828-1.446-2.039-12.449 8.827 1.446 2.04zm11.003-8.828l12.449 8.828 1.446-2.04-12.449-8.827-1.446 2.039zm14.422 7.808v-22.692h-2.5v22.692h2.5zm-21.284-34.694v21.89h2.5v-21.89h-2.5zm12.987 0v21.89h2.5v-21.89h-2.5zm-11.395 13.767l6.884-4.745-1.418-2.059-6.885 4.746 1.419 2.058zm5.426-4.774l6.335 4.745 1.498-2.001-6.335-4.745-1.498 2.001z" fill="#fff"/></g><path clip-rule="evenodd" d="M119.952 89L147 103.109v31.717L120 149l-27-14.174v-31.717L119.952 89z" stroke="#fff" stroke-width="2.5" stroke-linecap="round"/><path d="M107.598 133.898h-1.25v2.419l1.973-1.399-.723-1.02zm12.449-8.828l.723-1.019-.723-.513-.723.513.723 1.019zm12.449 8.828l-.723 1.02 1.973 1.399v-2.419h-1.25zm-12.267-26.701l.749-1.001-.719-.539-.739.51.709 1.03zm-13.881 4.009v22.692h2.5v-22.692h-2.5zm1.973 23.712l12.449-8.828-1.446-2.039-12.449 8.827 1.446 2.04zm11.003-8.828l12.449 8.828 1.446-2.04-12.449-8.827-1.446 2.039zm14.422 7.808v-22.692h-2.5v22.692h2.5zm-21.284-34.694v21.89h2.5v-21.89h-2.5zm12.987 0v21.89h2.5v-21.89h-2.5zm-11.395 13.767l6.884-4.745-1.418-2.059-6.885 4.746 1.419 2.058zm5.426-4.774l6.335 4.745 1.498-2.001-6.335-4.745-1.498 2.001z" fill="#fff"/><defs><filter id="filter0_f_375_14113" x="64" y="64" width="112" height="112" filterUnits="userSpaceOnUse" color-interpolation-filters="sRGB"><feFlood flood-opacity="0" result="BackgroundImageFix"/><feBlend in="SourceGraphic" in2="BackgroundImageFix" result="shape"/><feGaussianBlur stdDeviation="3.5" result="effect1_foregroundBlur_375_14113"/></filter><filter id="filter1_f_375_14113" x="84.75" y="80.59" width="70.5" height="76.822" filterUnits="userSpaceOnUse" color-interpolation-filters="sRGB"><feFlood flood-opacity="0" result="BackgroundImageFix"/><feBlend in="SourceGraphic" in2="BackgroundImageFix" result="shape"/><feGaussianBlur stdDeviation="3.5" result="effect1_foregroundBlur_375_14113"/></filter></defs></svg>