<svg width="240" height="240" fill="none" xmlns="http://www.w3.org/2000/svg"><g filter="url(#filter0_f)"><circle cx="120" cy="120" r="47.5" stroke="#FFEDBD" stroke-width="3"/><path fill-rule="evenodd" clip-rule="evenodd" d="M119.947 86.304l.7.368 29.051 15.285.802.421V138.548l-.798.423-29 15.355-.702.371-.702-.371-29-15.355-.798-.423V102.38l.8-.422 28.948-15.284.699-.37zm.002 3.392L92.5 104.189v32.553l8.424 4.46v-32.774l19.298 13.684 19.297-13.684v32.54l7.981-4.226V104.19l-27.551-14.494zm.051 61.607l-16.076-8.512v-28.558l16.298 11.557 16.297-11.557v28.323L120 151.303zm.694-55.528l-1.581-2.55-17.882 11.09 18.662 12.483 19.15-12.498h-19.139v3h9.053l-9.043 5.902-13.145-8.792 13.925-8.635z" fill="#fff"/></g><circle cx="120" cy="120" r="47.5" stroke="#FFEDBD" stroke-width="3"/><path fill-rule="evenodd" clip-rule="evenodd" d="M119.947 86.304l.7.368 29.051 15.285.802.421V138.548l-.798.423-29 15.355-.702.371-.702-.371-29-15.355-.798-.423V102.38l.8-.422 28.948-15.284.699-.37zm.002 3.392L92.5 104.189v32.553l8.424 4.46v-32.774l19.298 13.684 19.297-13.684v32.54l7.981-4.226V104.19l-27.551-14.494zm.051 61.607l-16.076-8.512v-28.558l16.298 11.557 16.297-11.557v28.323L120 151.303zm.694-55.528l-1.581-2.55-17.882 11.09 18.662 12.483 19.15-12.498h-19.139v3h9.053l-9.043 5.902-13.145-8.792 13.925-8.635z" fill="#fff"/><defs><filter id="filter0_f" x="56" y="56" width="128" height="128" filterUnits="userSpaceOnUse" color-interpolation-filters="sRGB"><feFlood flood-opacity="0" result="BackgroundImageFix"/><feBlend in="SourceGraphic" in2="BackgroundImageFix" result="shape"/><feGaussianBlur stdDeviation="7.5" result="effect1_foregroundBlur"/></filter></defs></svg>