<svg width="240" height="240" fill="none" xmlns="http://www.w3.org/2000/svg"><g filter="url(#filter0_f)"><path fill-rule="evenodd" clip-rule="evenodd" d="M73.86 76.668l16.288 90.15-1.11 9.566a3.13 3.13 0 0 0-.017.545L73.57 76.502 89.077 177.36l.028.123a3.048 3.048 0 0 1-.201-.671L69.121 67.317c-.292-1.618.773-3.175 2.396-3.443a117.853 117.853 0 0 1 105.761 36.278c1.119 1.21 1.001 3.097-.229 4.194l-4.073 3.631a111.52 111.52 0 0 0-2.016-2.222l4.064-3.622A114.854 114.854 0 0 0 72.081 66.822l.693 4.51-.693-4.51.794 4.395a3.484 3.484 0 1 1 .985 5.451zm15.246 100.815l-.085-.554a3.128 3.128 0 0 1 .016-.544l11.939-102.852c.191-1.646 1.681-2.83 3.321-2.595a113.004 113.004 0 0 1 76.43 46.857c.953 1.355.574 3.219-.806 4.136L93.678 179.23c-1.802 1.197-4.092.145-4.572-1.747zm2.911-.752l11.934-102.812a110.005 110.005 0 0 1 74.276 45.536l-65.863 43.758a3.229 3.229 0 1 0-3.009 1.999l-17.338 11.519zm-9.233-99.248a1.742 1.742 0 1 1-3.35-.96 1.742 1.742 0 0 1 3.35.96zm2.241-7.816a2.904 2.904 0 1 1-5.582-1.6 2.904 2.904 0 0 1 5.582 1.6zm17.919 97.188a1.615 1.615 0 1 0 .89-3.104 1.615 1.615 0 0 0-.89 3.104zm6.663-11.525a1.615 1.615 0 1 1-3.104-.89 1.615 1.615 0 0 1 3.104.89zm54.589-38.09a1.615 1.615 0 1 0 .89-3.104 1.615 1.615 0 0 0-.89 3.104zm-1.77-5.546a1.614 1.614 0 1 1-3.103-.888 1.614 1.614 0 0 1 3.103.888z" fill="#FFEDBD"/></g><path fill-rule="evenodd" clip-rule="evenodd" d="M73.86 76.668l16.288 90.15-1.11 9.566a3.13 3.13 0 0 0-.017.545L73.57 76.502 89.077 177.36l.028.123a3.048 3.048 0 0 1-.201-.671L69.121 67.317c-.292-1.618.773-3.175 2.396-3.443a117.853 117.853 0 0 1 105.761 36.278c1.119 1.21 1.001 3.097-.229 4.194l-4.073 3.631a111.52 111.52 0 0 0-2.016-2.222l4.064-3.622A114.854 114.854 0 0 0 72.081 66.822l.693 4.51-.693-4.51.794 4.395a3.484 3.484 0 1 1 .985 5.451zm15.246 100.815l-.085-.554a3.128 3.128 0 0 1 .016-.544l11.939-102.852c.191-1.646 1.681-2.83 3.321-2.595a113.004 113.004 0 0 1 76.43 46.857c.953 1.355.574 3.219-.806 4.136L93.678 179.23c-1.802 1.197-4.092.145-4.572-1.747zm2.911-.752l11.934-102.812a110.005 110.005 0 0 1 74.276 45.536l-65.863 43.758a3.229 3.229 0 1 0-3.009 1.999l-17.338 11.519zm-9.233-99.248a1.742 1.742 0 1 1-3.35-.96 1.742 1.742 0 0 1 3.35.96zm2.241-7.816a2.904 2.904 0 1 1-5.582-1.6 2.904 2.904 0 0 1 5.582 1.6zm17.919 97.188a1.615 1.615 0 1 0 .89-3.104 1.615 1.615 0 0 0-.89 3.104zm6.663-11.525a1.615 1.615 0 1 1-3.104-.89 1.615 1.615 0 0 1 3.104.89zm54.589-38.09a1.615 1.615 0 1 0 .89-3.104 1.615 1.615 0 0 0-.89 3.104zm-1.77-5.546a1.614 1.614 0 1 1-3.103-.888 1.614 1.614 0 0 1 3.103.888z" fill="#FFEDBD"/><defs><filter id="filter0_f" x="54.073" y="47.296" width="142.182" height="147.442" filterUnits="userSpaceOnUse" color-interpolation-filters="sRGB"><feFlood flood-opacity="0" result="BackgroundImageFix"/><feBlend in="SourceGraphic" in2="BackgroundImageFix" result="shape"/><feGaussianBlur stdDeviation="7.5" result="effect1_foregroundBlur"/></filter></defs></svg>