<svg width="240" height="240" viewBox="0 0 240 240" fill="none" xmlns="http://www.w3.org/2000/svg">
<g clip-path="url(#clip0)">
<g filter="url(#filter0_d)">
<mask id="mask0" mask-type="alpha" maskUnits="userSpaceOnUse" x="48" y="42" width="152" height="152">
<rect x="48.1104" y="42.1099" width="151.778" height="151.778" fill="#C4C4C4"/>
</mask>
<g mask="url(#mask0)">
<g filter="url(#filter1_d)">
<mask id="path-2-inside-1" fill="white">
<path d="M101.619 73.4276C101.81 71.7818 103.3 70.5984 104.94 70.833C120.191 73.015 134.847 78.2945 148 86.3581C161.153 94.4217 172.506 105.087 181.37 117.689C182.323 119.045 181.944 120.909 180.564 121.826L94.3203 179.125C92.1933 180.538 89.3858 178.817 89.6802 176.28L101.619 73.4276Z"/>
</mask>
<path d="M101.619 73.4276C101.81 71.7818 103.3 70.5984 104.94 70.833C120.191 73.015 134.847 78.2945 148 86.3581C161.153 94.4217 172.506 105.087 181.37 117.689C182.323 119.045 181.944 120.909 180.564 121.826L94.3203 179.125C92.1933 180.538 89.3858 178.817 89.6802 176.28L101.619 73.4276Z" stroke="#FFEDBD" stroke-width="6" stroke-miterlimit="16" mask="url(#path-2-inside-1)"/>
</g>
<g filter="url(#filter2_d)">
<path fill-rule="evenodd" clip-rule="evenodd" d="M163.068 111.589C162.822 112.446 161.928 112.942 161.071 112.696C160.214 112.45 159.719 111.556 159.964 110.699C160.21 109.842 161.104 109.346 161.961 109.592C162.818 109.838 163.314 110.732 163.068 111.589ZM164.838 117.135C165.695 117.381 166.589 116.885 166.834 116.028C167.08 115.171 166.585 114.277 165.728 114.031C164.871 113.785 163.976 114.281 163.731 115.138C163.485 115.995 163.981 116.889 164.838 117.135ZM110.249 155.225C110.003 156.082 109.109 156.578 108.252 156.332C107.395 156.086 106.899 155.192 107.145 154.335C107.391 153.478 108.285 152.982 109.142 153.228C109.999 153.474 110.494 154.368 110.249 155.225ZM105.582 165.643C105.337 166.5 104.443 166.996 103.586 166.75C102.728 166.504 102.233 165.61 102.479 164.753C102.724 163.896 103.618 163.4 104.475 163.646C105.333 163.892 105.828 164.786 105.582 165.643ZM109.13 164.981C110.844 165.472 112.632 164.481 113.124 162.767C113.615 161.053 112.624 159.265 110.91 158.773C109.196 158.282 107.408 159.273 106.916 160.987C106.425 162.701 107.416 164.489 109.13 164.981Z" fill="#FFEDBD"/>
</g>
<g filter="url(#filter3_d)">
<path fill-rule="evenodd" clip-rule="evenodd" d="M82.0753 71.5528C83.6168 71.9948 85.2247 71.1035 85.6667 69.562C86.1088 68.0205 85.2175 66.4126 83.676 65.9706C82.1345 65.5285 80.5265 66.4198 80.0845 67.9613C79.6425 69.5028 80.5338 71.1108 82.0753 71.5528ZM79.4397 74.4218C78.9093 76.2716 76.9798 77.3412 75.13 76.8108C73.2802 76.2803 72.2106 74.3508 72.741 72.501C73.2715 70.6512 75.201 69.5817 77.0508 70.1121C78.9006 70.6425 79.9702 72.572 79.4397 74.4218ZM83.4262 77.3772C83.161 78.3021 82.1962 78.8369 81.2713 78.5717C80.3464 78.3065 79.8117 77.3417 80.0769 76.4168C80.3421 75.4919 81.3068 74.9571 82.2317 75.2224C83.1566 75.4876 83.6914 76.4523 83.4262 77.3772Z" fill="#FFEDBD"/>
</g>
<g filter="url(#filter4_d)">
<path fill-rule="evenodd" clip-rule="evenodd" d="M90.7894 166.713L72.7222 66.7163C91.449 63.6336 110.665 65.2376 128.646 71.4061C146.624 77.5737 162.776 88.1012 175.665 102.027L171.602 105.65C172.283 106.382 172.955 107.122 173.618 107.872L177.69 104.241C178.921 103.144 179.038 101.257 177.92 100.046C164.685 85.7283 148.092 74.9056 129.619 68.5685C111.144 62.2304 91.3987 60.5886 72.1587 63.7687C70.5358 64.037 69.4707 65.5933 69.7631 67.212L89.5466 176.707C89.5897 176.946 89.6582 177.17 89.7483 177.379C89.6615 177.037 89.6339 176.668 89.6789 176.279L90.7894 166.713Z" fill="#FFEDBD"/>
</g>
</g>
</g>
</g>
<defs>
<filter id="filter0_d" x="33.1104" y="37.3719" width="171.199" height="171.516" filterUnits="userSpaceOnUse" color-interpolation-filters="sRGB">
<feFlood flood-opacity="0" result="BackgroundImageFix"/>
<feColorMatrix in="SourceAlpha" type="matrix" values="0 0 0 0 0 0 0 0 0 0 0 0 0 0 0 0 0 0 127 0"/>
<feOffset/>
<feGaussianBlur stdDeviation="7.5"/>
<feColorMatrix type="matrix" values="0 0 0 0 1 0 0 0 0 1 0 0 0 0 1 0 0 0 0.75 0"/>
<feBlend mode="normal" in2="BackgroundImageFix" result="effect1_dropShadow"/>
<feBlend mode="normal" in="SourceGraphic" in2="effect1_dropShadow" result="shape"/>
</filter>
<filter id="filter1_d" x="57.7285" y="54.119" width="146.58" height="159.718" filterUnits="userSpaceOnUse" color-interpolation-filters="sRGB">
<feFlood flood-opacity="0" result="BackgroundImageFix"/>
<feColorMatrix in="SourceAlpha" type="matrix" values="0 0 0 0 0 0 0 0 0 0 0 0 0 0 0 0 0 0 127 0"/>
<feOffset/>
<feGaussianBlur stdDeviation="7.5"/>
<feColorMatrix type="matrix" values="0 0 0 0 1 0 0 0 0 0.929412 0 0 0 0 0.741176 0 0 0 0.75 0"/>
<feBlend mode="normal" in2="BackgroundImageFix" result="effect1_dropShadow"/>
<feBlend mode="normal" in="SourceGraphic" in2="effect1_dropShadow" result="shape"/>
</filter>
<filter id="filter2_d" x="87.0332" y="83.0225" width="96.1358" height="111.632" filterUnits="userSpaceOnUse" color-interpolation-filters="sRGB">
<feFlood flood-opacity="0" result="BackgroundImageFix"/>
<feColorMatrix in="SourceAlpha" type="matrix" values="0 0 0 0 0 0 0 0 0 0 0 0 0 0 0 0 0 0 127 0"/>
<feOffset/>
<feGaussianBlur stdDeviation="7.5"/>
<feColorMatrix type="matrix" values="0 0 0 0 1 0 0 0 0 0.929412 0 0 0 0 0.741176 0 0 0 0.75 0"/>
<feBlend mode="normal" in2="BackgroundImageFix" result="effect1_dropShadow"/>
<feBlend mode="normal" in="SourceGraphic" in2="effect1_dropShadow" result="shape"/>
</filter>
<filter id="filter3_d" x="52.6787" y="44.678" width="52.8914" height="53.2654" filterUnits="userSpaceOnUse" color-interpolation-filters="sRGB">
<feFlood flood-opacity="0" result="BackgroundImageFix"/>
<feColorMatrix in="SourceAlpha" type="matrix" values="0 0 0 0 0 0 0 0 0 0 0 0 0 0 0 0 0 0 127 0"/>
<feOffset/>
<feGaussianBlur stdDeviation="7.5"/>
<feColorMatrix type="matrix" values="0 0 0 0 1 0 0 0 0 0.929412 0 0 0 0 0.741176 0 0 0 0.75 0"/>
<feBlend mode="normal" in2="BackgroundImageFix" result="effect1_dropShadow"/>
<feBlend mode="normal" in="SourceGraphic" in2="effect1_dropShadow" result="shape"/>
</filter>
<filter id="filter4_d" x="26.7939" y="37.3719" width="172.184" height="172.879" filterUnits="userSpaceOnUse" color-interpolation-filters="sRGB">
<feFlood flood-opacity="0" result="BackgroundImageFix"/>
<feColorMatrix in="SourceAlpha" type="matrix" values="0 0 0 0 0 0 0 0 0 0 0 0 0 0 0 0 0 0 127 0"/>
<feOffset/>
<feGaussianBlur stdDeviation="7.5"/>
<feColorMatrix type="matrix" values="0 0 0 0 1 0 0 0 0 0.929412 0 0 0 0 0.741176 0 0 0 0.75 0"/>
<feBlend mode="normal" in2="BackgroundImageFix" result="effect1_dropShadow"/>
<feBlend mode="normal" in="SourceGraphic" in2="effect1_dropShadow" result="shape"/>
</filter>
<clipPath id="clip0">
<rect width="240" height="240" fill="white"/>
</clipPath>
</defs>
</svg>
