<svg width="240" height="240" fill="none" xmlns="http://www.w3.org/2000/svg"><g filter="url(#filter0_f)" fill-rule="evenodd" clip-rule="evenodd"><path d="M195 76.414H45.001v97.628H195V76.414zm-149.999-3h-3v103.628H198V73.414H45.001z" fill="#fff"/><path d="M128.914 90.129h-17.828v26.742H84.343V134.7h26.743v26.742h17.828V134.7h26.743v-17.829h-26.743V90.129z" fill="#FB005A"/><path d="M146.743 66H93.258v-3h53.485v3z" fill="#fff"/></g><path fill-rule="evenodd" clip-rule="evenodd" d="M195 76.414H45.001v97.628H195V76.414zm-149.999-3h-3v103.628H198V73.414H45.001z" fill="#fff"/><path fill-rule="evenodd" clip-rule="evenodd" d="M128.914 90.129h-17.828v26.742H84.343V134.7h26.743v26.742h17.828V134.7h26.743v-17.829h-26.743V90.129z" fill="#FB005A"/><path fill-rule="evenodd" clip-rule="evenodd" d="M146.743 66H93.258v-3h53.485v3z" fill="#fff"/><defs><filter id="filter0_f" x="27.001" y="48" width="185.999" height="144.042" filterUnits="userSpaceOnUse" color-interpolation-filters="sRGB"><feFlood flood-opacity="0" result="BackgroundImageFix"/><feBlend in="SourceGraphic" in2="BackgroundImageFix" result="shape"/><feGaussianBlur stdDeviation="7.5" result="effect1_foregroundBlur"/></filter></defs></svg>