<svg width="240" height="240" fill="none" xmlns="http://www.w3.org/2000/svg"><g filter="url(#filter0_f)"><path d="M142.522 85.796L173.44 54m-30.918 31.796l-23.189 3.854m23.189-3.854l4.348 18.306M173.44 54l.966 56.847M173.44 54l-12.561 39.504m13.527 17.343l-13.527-17.343m13.527 17.343l5.314 11.562m-60.387-32.76l-23.188-3.853m23.188 3.854v40.226m10.145 50.343L119.333 186l-10.145-5.781m20.29 0l-10.145-10.117m10.145 10.117l42.029-26.978m-42.029 26.978l21.739-53.956m-31.884 43.839l-10.145 10.117m10.145-10.117v-40.226m-23.188-44.08L65.71 54m30.435 31.796l-4.348 18.306M65.71 54l-1.45 56.847M65.71 54l12.078 39.504M64.26 110.847l13.526-17.343m-13.526 17.343l-5.314 11.562m50.241 57.81l-42.029-26.978m42.029 26.978l-21.739-53.956m-9.662-32.76l14.01 10.599m69.082-10.598l-14.009 10.598m-79.71 49.139l-14.493-17.825 6.28-13.007m8.212 30.832l20.29-26.978m84.058 26.978L186 135.416l-6.28-13.007m-8.213 30.832l-20.29-26.978m-92.27-3.854l28.502 3.854m0 0l4.348-22.161m-4.348 22.161l31.884 3.613m60.387-7.467l-28.503 3.854m0 0l-4.347-22.161m4.347 22.161l-31.884 3.613m-27.536-25.774l27.536 25.774m27.537-25.774l-27.537 25.774" stroke="#fff" stroke-width="3"/></g><path d="M142.522 85.796L173.44 54m-30.918 31.796l-23.189 3.854m23.189-3.854l4.348 18.306M173.44 54l.966 56.847M173.44 54l-12.561 39.504m13.527 17.343l-13.527-17.343m13.527 17.343l5.314 11.562m-60.387-32.76l-23.188-3.853m23.188 3.854v40.226m10.145 50.343L119.333 186l-10.145-5.781m20.29 0l-10.145-10.117m10.145 10.117l42.029-26.978m-42.029 26.978l21.739-53.956m-31.884 43.839l-10.145 10.117m10.145-10.117v-40.226m-23.188-44.08L65.71 54m30.435 31.796l-4.348 18.306M65.71 54l-1.45 56.847M65.71 54l12.078 39.504M64.26 110.847l13.526-17.343m-13.526 17.343l-5.314 11.562m50.241 57.81l-42.029-26.978m42.029 26.978l-21.739-53.956m-9.662-32.76l14.01 10.599m69.082-10.598l-14.009 10.598m-79.71 49.139l-14.493-17.825 6.28-13.007m8.212 30.832l20.29-26.978m84.058 26.978L186 135.416l-6.28-13.007m-8.213 30.832l-20.29-26.978m-92.27-3.854l28.502 3.854m0 0l4.348-22.161m-4.348 22.161l31.884 3.613m60.387-7.467l-28.503 3.854m0 0l-4.347-22.161m4.347 22.161l-31.884 3.613m-27.536-25.774l27.536 25.774m27.537-25.774l-27.537 25.774" stroke="#fff" stroke-width="3"/><defs><filter id="filter0_f" x="35.901" y="35.36" width="166.864" height="167.366" filterUnits="userSpaceOnUse" color-interpolation-filters="sRGB"><feFlood flood-opacity="0" result="BackgroundImageFix"/><feBlend in="SourceGraphic" in2="BackgroundImageFix" result="shape"/><feGaussianBlur stdDeviation="7.5" result="effect1_foregroundBlur"/></filter></defs></svg>