<svg width="240" height="240" viewBox="0 0 240 240" fill="none" xmlns="http://www.w3.org/2000/svg">
<g clip-path="url(#clip0)">
<g opacity="0.1" filter="url(#filter0_f)">
<rect x="162.896" y="196.602" width="163.598" height="90.327" transform="rotate(-151.28 162.896 196.602)" fill="#61FFFF"/>
<rect x="162.643" y="195.734" width="162.32" height="89.0486" transform="rotate(-151.28 162.643 195.734)" stroke="black" stroke-width="1.27836"/>
</g>
<g filter="url(#filter1_d)">
<path d="M142.522 85.7957L173.44 54M142.522 85.7957L119.333 89.6497M142.522 85.7957L146.87 104.102M173.44 54L174.406 110.847M173.44 54L160.879 93.5036M174.406 110.847L160.879 93.5036M174.406 110.847L179.72 122.409M119.333 89.6497L96.1449 85.7956M119.333 89.6497V129.876M129.478 180.219L119.333 186L109.188 180.219M129.478 180.219L119.333 170.102M129.478 180.219L171.507 153.241M129.478 180.219L151.217 126.263M119.333 170.102L109.188 180.219M119.333 170.102V129.876M96.1449 85.7956L65.7102 54M96.1449 85.7956L91.7971 104.102M65.7102 54L64.2609 110.847M65.7102 54L77.7875 93.5036M64.2609 110.847L77.7875 93.5036M64.2609 110.847L58.9469 122.409M109.188 180.219L67.1594 153.241M109.188 180.219L87.4493 126.263M77.7875 93.5036L91.7971 104.102M160.879 93.5036L146.87 104.102M67.1594 153.241L52.6667 135.416L58.9469 122.409M67.1594 153.241L87.4493 126.263M171.507 153.241L186 135.416L179.72 122.409M171.507 153.241L151.217 126.263M58.9469 122.409L87.4493 126.263M87.4493 126.263L91.7971 104.102M87.4493 126.263L119.333 129.876M179.72 122.409L151.217 126.263M151.217 126.263L146.87 104.102M151.217 126.263L119.333 129.876M91.7971 104.102L119.333 129.876M146.87 104.102L119.333 129.876" stroke="white" stroke-width="3"/>
</g>
</g>
<defs>
<filter id="filter0_f" x="-30.5762" y="-11.2261" width="286.877" height="257.828" filterUnits="userSpaceOnUse" color-interpolation-filters="sRGB">
<feFlood flood-opacity="0" result="BackgroundImageFix"/>
<feBlend mode="normal" in="SourceGraphic" in2="BackgroundImageFix" result="shape"/>
<feGaussianBlur stdDeviation="25" result="effect1_foregroundBlur"/>
</filter>
<filter id="filter1_d" x="35.9014" y="35.3601" width="166.864" height="167.366" filterUnits="userSpaceOnUse" color-interpolation-filters="sRGB">
<feFlood flood-opacity="0" result="BackgroundImageFix"/>
<feColorMatrix in="SourceAlpha" type="matrix" values="0 0 0 0 0 0 0 0 0 0 0 0 0 0 0 0 0 0 127 0"/>
<feOffset/>
<feGaussianBlur stdDeviation="7.5"/>
<feColorMatrix type="matrix" values="0 0 0 0 1 0 0 0 0 1 0 0 0 0 1 0 0 0 0.75 0"/>
<feBlend mode="normal" in2="BackgroundImageFix" result="effect1_dropShadow"/>
<feBlend mode="normal" in="SourceGraphic" in2="effect1_dropShadow" result="shape"/>
</filter>
<clipPath id="clip0">
<rect width="240" height="240" fill="white"/>
</clipPath>
</defs>
</svg>
