<svg width="240" height="240" viewBox="0 0 240 240" fill="none" xmlns="http://www.w3.org/2000/svg">
<g filter="url(#filter0_d)">
<path d="M79.2054 114.78L110.977 132.616L110.015 139.187L73.4287 133.555L79.2054 114.78Z" stroke="#61FFFF" stroke-width="3"/>
<path d="M161.524 114.78L129.752 132.616L130.715 139.187L167.301 133.555L161.524 114.78Z" stroke="#61FFFF" stroke-width="3"/>
</g>
<g filter="url(#filter1_d)">
<path d="M119.365 163.667L112.23 159.207L119.365 142.261V163.667Z" stroke="white" stroke-width="2"/>
<path d="M123.239 163.705V146.801L130.283 159.479L123.239 163.705Z" stroke="white" stroke-width="2"/>
</g>
<g filter="url(#filter2_d)">
<path fill-rule="evenodd" clip-rule="evenodd" d="M80.1841 157.693V155.091L77.6084 154.723L68.5724 153.432L66.3185 137.655L66.237 137.084L65.95 136.585C60.6736 127.4 57.6553 116.754 57.6553 105.393C57.6553 70.7591 85.7316 42.6829 120.365 42.6829C154.999 42.6829 183.076 70.7591 183.076 105.393C183.076 116.754 180.057 127.401 174.78 136.586L174.493 137.086L174.412 137.656L172.158 153.432L159.367 155.259L156.791 155.627V158.229V172.664L148.151 175.413V178.562L159.791 174.858V158.229L174.809 156.084L177.381 138.08C182.913 128.453 186.076 117.293 186.076 105.393C186.076 69.1023 156.656 39.6829 120.365 39.6829C84.0747 39.6829 54.6553 69.1023 54.6553 105.393C54.6553 117.292 57.818 128.452 63.3487 138.079L65.9208 156.084L77.1841 157.693V174.858L88.8291 178.563V175.415L80.1841 172.664V157.693ZM91.8291 176.37V179.518L107.603 184.537V181.388L91.8291 176.37ZM110.603 182.343V185.491L118.488 188L126.378 185.489V182.341L118.488 184.852L110.603 182.343ZM129.378 181.387V184.535L145.151 179.516V176.368L129.378 181.387Z" fill="white"/>
</g>
<defs>
<filter id="filter0_d" x="56.4844" y="97.5623" width="127.76" height="58.3371" filterUnits="userSpaceOnUse" color-interpolation-filters="sRGB">
<feFlood flood-opacity="0" result="BackgroundImageFix"/>
<feColorMatrix in="SourceAlpha" type="matrix" values="0 0 0 0 0 0 0 0 0 0 0 0 0 0 0 0 0 0 127 0"/>
<feOffset/>
<feGaussianBlur stdDeviation="7.5"/>
<feColorMatrix type="matrix" values="0 0 0 0 1 0 0 0 0 1 0 0 0 0 1 0 0 0 0.75 0"/>
<feBlend mode="normal" in2="BackgroundImageFix" result="effect1_dropShadow"/>
<feBlend mode="normal" in="SourceGraphic" in2="effect1_dropShadow" result="shape"/>
</filter>
<filter id="filter1_d" x="95.9775" y="122.309" width="50.6489" height="58.1616" filterUnits="userSpaceOnUse" color-interpolation-filters="sRGB">
<feFlood flood-opacity="0" result="BackgroundImageFix"/>
<feColorMatrix in="SourceAlpha" type="matrix" values="0 0 0 0 0 0 0 0 0 0 0 0 0 0 0 0 0 0 127 0"/>
<feOffset/>
<feGaussianBlur stdDeviation="7.5"/>
<feColorMatrix type="matrix" values="0 0 0 0 1 0 0 0 0 1 0 0 0 0 1 0 0 0 0.75 0"/>
<feBlend mode="normal" in2="BackgroundImageFix" result="effect1_dropShadow"/>
<feBlend mode="normal" in="SourceGraphic" in2="effect1_dropShadow" result="shape"/>
</filter>
<filter id="filter2_d" x="39.6553" y="24.6829" width="161.42" height="178.317" filterUnits="userSpaceOnUse" color-interpolation-filters="sRGB">
<feFlood flood-opacity="0" result="BackgroundImageFix"/>
<feColorMatrix in="SourceAlpha" type="matrix" values="0 0 0 0 0 0 0 0 0 0 0 0 0 0 0 0 0 0 127 0"/>
<feOffset/>
<feGaussianBlur stdDeviation="7.5"/>
<feColorMatrix type="matrix" values="0 0 0 0 1 0 0 0 0 1 0 0 0 0 1 0 0 0 0.75 0"/>
<feBlend mode="normal" in2="BackgroundImageFix" result="effect1_dropShadow"/>
<feBlend mode="normal" in="SourceGraphic" in2="effect1_dropShadow" result="shape"/>
</filter>
</defs>
</svg>
