<svg width="240" height="240" fill="none" xmlns="http://www.w3.org/2000/svg"><g filter="url(#filter0_f)"><path fill-rule="evenodd" clip-rule="evenodd" d="M77.663 111.879l34.293 19.251-1.332 9.087-39.795-6.127 6.834-22.211zm1.774 4.437l-4.72 15.337 33.377 5.139.594-4.056-29.251-16.42zM161.756 111.879l-34.293 19.251 1.332 9.087 39.795-6.127-6.834-22.211zm-1.774 4.437l4.719 15.337-33.376 5.139-.594-4.056 29.251-16.42z" fill="#61FFFF"/><path d="M118.709 162.984l-7.135-4.46 7.135-16.946v21.406zM129.627 158.796l-7.043 4.226v-16.904l7.043 12.678z" stroke="#fff" stroke-width="2"/><path fill-rule="evenodd" clip-rule="evenodd" d="M79.529 157.01v-2.602l-2.576-.368-9.036-1.291-2.254-15.777-.081-.571-.287-.499C60.018 126.718 57 116.071 57 104.71 57 70.076 85.076 42 119.71 42s62.71 28.076 62.71 62.71c0 11.361-3.018 22.009-8.295 31.193l-.287.5-.082.57-2.253 15.776-12.791 1.828-2.576.368v17.036l-8.64 2.749v3.149l11.64-3.704v-16.629l15.018-2.145 2.572-18.003c5.531-9.628 8.694-20.788 8.694-32.688 0-36.29-29.419-65.71-65.71-65.71C83.42 39 54 68.42 54 104.71c0 11.899 3.163 23.059 8.693 32.686l2.573 18.005 11.263 1.609v17.165l11.645 3.705v-3.148l-8.645-2.751V157.01zm11.645 18.677v3.148l15.773 5.019v-3.148l-15.773-5.019zm18.773 5.973v3.148l7.885 2.509 7.891-2.51v-3.149l-7.891 2.511-7.885-2.509zm18.776-.956v3.148l15.773-5.019v-3.148l-15.773 5.019z" fill="#fff"/></g><path fill-rule="evenodd" clip-rule="evenodd" d="M77.663 111.879l34.293 19.251-1.332 9.087-39.795-6.127 6.834-22.211zm1.774 4.437l-4.72 15.337 33.377 5.139.594-4.056-29.251-16.42zM161.756 111.879l-34.293 19.251 1.332 9.087 39.795-6.127-6.834-22.211zm-1.774 4.437l4.719 15.337-33.376 5.139-.594-4.056 29.251-16.42z" fill="#61FFFF"/><path d="M118.709 162.984l-7.135-4.46 7.135-16.946v21.406zM122.584 163.022v-16.904l7.043 12.678-7.043 4.226z" stroke="#fff" stroke-width="2"/><path fill-rule="evenodd" clip-rule="evenodd" d="M79.529 157.01v-2.602l-2.576-.368-9.036-1.291-2.254-15.777-.081-.571-.287-.499C60.018 126.718 57 116.071 57 104.71 57 70.076 85.076 42 119.71 42s62.71 28.076 62.71 62.71c0 11.361-3.018 22.009-8.295 31.193l-.287.5-.082.57-2.253 15.776-12.791 1.828-2.576.368v17.036l-8.64 2.749v3.149l11.64-3.704v-16.629l15.018-2.145 2.572-18.003c5.531-9.628 8.694-20.788 8.694-32.688 0-36.29-29.419-65.71-65.71-65.71C83.42 39 54 68.42 54 104.71c0 11.899 3.163 23.059 8.693 32.686l2.573 18.005 11.263 1.609v17.165l11.645 3.705v-3.148l-8.645-2.751V157.01zm11.645 18.677v3.148l15.773 5.019v-3.148l-15.773-5.019zm18.773 5.973v3.148l7.885 2.509 7.891-2.51v-3.149l-7.891 2.511-7.885-2.509zm18.776-.956v3.148l15.773-5.019v-3.148l-15.773 5.019z" fill="#fff"/><defs><filter id="filter0_f" x="47" y="32" width="145.42" height="162.317" filterUnits="userSpaceOnUse" color-interpolation-filters="sRGB"><feFlood flood-opacity="0" result="BackgroundImageFix"/><feBlend in="SourceGraphic" in2="BackgroundImageFix" result="shape"/><feGaussianBlur stdDeviation="3.5" result="effect1_foregroundBlur"/></filter></defs></svg>