<svg width="240" height="240" fill="none" xmlns="http://www.w3.org/2000/svg"><g filter="url(#filter0_f)"><path fill="#fff" d="M119.991 36l83.992 83.992-83.992 83.991-83.992-83.991z"/></g><g filter="url(#filter1_d)"><path fill="#fff" d="M119.991 36l83.992 83.992-83.992 83.991-83.992-83.991z"/></g><path d="M119.991 53.508l66.475 66.475-66.475 66.474-66.475-66.474 66.475-66.475z" stroke="#000" stroke-width="3.196"/><path d="M119.991 68.042l51.941 51.941-51.941 51.94-51.94-51.94 51.94-51.941z" stroke="#000" stroke-width="6.392"/><path fill-rule="evenodd" clip-rule="evenodd" d="M63.924 96.376h112.481l23.433 23.813-23.607 23.227H63.924l-23.607-23.321 23.607-23.72z" fill="#fff"/><path fill-rule="evenodd" clip-rule="evenodd" d="M108.556 144.678c.285.367.674.677 1.168.932a3.367 3.367 0 0 0 1.566.382c.509 0 .942-.074 1.298-.222.357-.147.644-.348.863-.603.219-.255.38-.552.481-.894.102-.341.153-.705.153-1.092v-1.344h-.03a2.74 2.74 0 0 1-1.169 1.039 3.49 3.49 0 0 1-1.535.366c-.56 0-1.067-.091-1.52-.275a3.443 3.443 0 0 1-1.161-.756 3.355 3.355 0 0 1-.748-1.153 3.876 3.876 0 0 1-.268-1.451c0-.509.089-.988.268-1.436.178-.448.427-.84.748-1.176a3.46 3.46 0 0 1 1.161-.794c.453-.194.96-.291 1.52-.291.519 0 1.028.123 1.527.367.499.244.891.596 1.177 1.054h.03v-1.237h1.039v7.087c0 .387-.054.8-.161 1.238-.106.437-.305.84-.595 1.206-.291.367-.685.672-1.184.917-.499.244-1.146.366-1.94.366a4.815 4.815 0 0 1-1.894-.381 4.577 4.577 0 0 1-1.543-1.054l.749-.795zm.198-5.102c0 .377.061.733.183 1.07.123.336.298.631.527.886.229.254.512.455.848.603.336.148.718.221 1.146.221.397 0 .764-.066 1.1-.198.336-.133.626-.321.87-.565.245-.245.436-.538.573-.879.138-.341.206-.72.206-1.138 0-.377-.068-.733-.206-1.069a2.78 2.78 0 0 0-1.443-1.497 2.624 2.624 0 0 0-1.1-.229c-.428 0-.81.076-1.146.229a2.532 2.532 0 0 0-.848.611c-.229.255-.404.55-.527.886a3.106 3.106 0 0 0-.183 1.069zm11.426 3.666h-1.039v-7.148h1.039v7.148zm.214-9.898c0 .214-.076.39-.229.527a.736.736 0 0 1-.504.206.732.732 0 0 1-.504-.206.676.676 0 0 1-.23-.527c0-.214.077-.389.23-.527a.737.737 0 0 1 .504-.206.74.74 0 0 1 .504.206.677.677 0 0 1 .229.527zm4.78 2.75a14.087 14.087 0 0 1 .061 1.222h.031c.203-.418.534-.756.993-1.016.458-.26.942-.39 1.451-.39.906 0 1.586.27 2.039.81.453.54.68 1.252.68 2.138v4.384h-1.039v-3.956c0-.377-.03-.718-.092-1.023a2.134 2.134 0 0 0-.313-.787 1.5 1.5 0 0 0-.595-.512c-.25-.122-.563-.183-.94-.183a1.981 1.981 0 0 0-1.497.68 2.581 2.581 0 0 0-.489.87c-.122.352-.183.767-.183 1.245v3.666h-1.039v-5.575a23.819 23.819 0 0 0-.061-1.573h.993z" fill="#000"/><path d="M68.55 112.312c1.118 0 2.049.126 2.794.38.745.254 1.324.72 1.739 1.397.415.668.622 1.612.622 2.831v10.283h-1.142c-.381 0-.67-.025-.864-.076a.732.732 0 0 1-.457-.356c-.11-.186-.165-.482-.165-.888v-.102c-.423.39-1.007.724-1.752 1.003a6.467 6.467 0 0 1-2.31.419c-.855 0-1.621-.165-2.298-.495a3.796 3.796 0 0 1-1.574-1.409c-.373-.618-.559-1.342-.559-2.171 0-.914.245-1.705.736-2.374.5-.669 1.194-1.185 2.082-1.549a12.237 12.237 0 0 1 2.666-.698 17.892 17.892 0 0 1 2.844-.241v-1.46c0-.677-.11-1.185-.33-1.524-.212-.338-.533-.567-.965-.685-.431-.119-1.028-.178-1.79-.178a7.08 7.08 0 0 0-1.409.165c-.525.11-1.02.25-1.485.419-.457.161-.796.317-1.016.47l-.686-1.828c.22-.136.618-.309 1.194-.521a15.582 15.582 0 0 1 1.98-.559 9.692 9.692 0 0 1 2.146-.253zm-.71 12.809c.398 0 .817-.059 1.257-.178.44-.118.825-.258 1.155-.419.339-.169.559-.313.66-.431v-4.05c-.618 0-1.316.059-2.095.178-.77.118-1.392.292-1.866.52-.516.246-.914.533-1.193.863-.28.331-.42.758-.42 1.283 0 1.489.835 2.234 2.502 2.234zM89.187 117.783c0 .686-.008 1.219-.025 1.6a6.397 6.397 0 0 1-.115.99h-8.924c.008.059.012.144.012.254.144 2.979 1.617 4.469 4.418 4.469.508 0 1.151-.081 1.93-.242.779-.16 1.337-.342 1.676-.545l.533 1.599c-.465.381-1.172.694-2.12.94a11.39 11.39 0 0 1-2.768.355c-1.362 0-2.522-.292-3.478-.876-.957-.592-1.684-1.447-2.184-2.564-.5-1.117-.749-2.459-.749-4.025 0-1.422.246-2.687.736-3.796.5-1.108 1.232-1.98 2.197-2.615.973-.643 2.15-.977 3.53-1.003.972-.017 1.857.182 2.652.597.796.415 1.43 1.037 1.905 1.866.482.83.74 1.828.774 2.996zm-2.615.737c.017-.271.025-.47.025-.597 0-1.075-.22-1.947-.66-2.615-.431-.669-1.176-1.003-2.234-1.003-.94 0-1.723.334-2.349 1.003-.618.66-1.003 1.73-1.155 3.212h6.373zM92.672 124.093c.16.11.457.249.889.419.431.161.935.304 1.51.431a7.935 7.935 0 0 0 1.714.191c.83 0 1.465-.157 1.905-.47.448-.313.672-.749.672-1.308 0-.533-.253-.99-.761-1.371-.5-.381-1.24-.778-2.222-1.193-1.278-.542-2.272-1.176-2.983-1.904-.703-.728-1.054-1.646-1.054-2.755 0-.821.228-1.515.686-2.082.465-.576 1.091-1.007 1.878-1.295.788-.288 1.676-.432 2.666-.432.78 0 1.511.085 2.197.254.685.169 1.176.334 1.472.495l-.457 2.108c-.237-.203-.656-.385-1.257-.546a6.821 6.821 0 0 0-1.866-.254c-.888 0-1.57.144-2.044.431-.465.288-.698.682-.698 1.181 0 .423.106.787.318 1.092.22.305.529.571.926.8.398.228.919.474 1.562.736 1.236.499 2.251 1.105 3.047 1.816.795.702 1.193 1.608 1.193 2.716 0 .864-.207 1.6-.622 2.209-.406.601-.994 1.058-1.765 1.371-.761.314-1.667.47-2.716.47-.94 0-1.854-.106-2.743-.317-.88-.212-1.502-.449-1.866-.711l.42-2.082zM106.542 114.635h-1.879v-1.511l.457-.127c.389-.11.677-.199.863-.267.186-.076.347-.177.483-.304.144-.136.258-.318.342-.546.127-.322.314-.901.559-1.739l.279-.914h1.676v3.3h4.088v2.108h-4.088v7.325c0 .965.038 1.65.114 2.057.077.397.216.656.419.774.212.119.567.178 1.067.178.364 0 .804-.059 1.32-.178.525-.118.91-.241 1.155-.368l.483 1.599c-.415.305-1.012.58-1.79.826a7.513 7.513 0 0 1-2.209.355c-1.058 0-1.879-.262-2.463-.787-.584-.533-.876-1.494-.876-2.882v-8.899zM124.791 112.312c1.008 0 1.82.203 2.438.609.626.398 1.083 1.028 1.371 1.891.296.855.444 1.977.444 3.365V127h-2.793v-9.026c0-.821-.084-1.477-.254-1.968-.16-.491-.448-.846-.863-1.067-.406-.228-.973-.325-1.701-.292-.508.017-1.092.144-1.752.381a6.978 6.978 0 0 0-1.815.94V127h-2.793v-21.125h2.793v6.03l-.127 2.044c.626-.448 1.405-.833 2.336-1.155.939-.322 1.845-.482 2.716-.482zM144.641 117.783c0 .686-.009 1.219-.026 1.6a6.436 6.436 0 0 1-.114.99h-8.925c.009.059.013.144.013.254.144 2.979 1.616 4.469 4.418 4.469.508 0 1.151-.081 1.93-.242.778-.16 1.337-.342 1.675-.545l.534 1.599c-.466.381-1.173.694-2.121.94-.948.237-1.87.355-2.767.355-1.363 0-2.522-.292-3.479-.876-.956-.592-1.684-1.447-2.183-2.564-.5-1.117-.749-2.459-.749-4.025 0-1.422.245-2.687.736-3.796.499-1.108 1.231-1.98 2.196-2.615.974-.643 2.15-.977 3.53-1.003.973-.017 1.857.182 2.653.597.795.415 1.43 1.037 1.904 1.866.483.83.741 1.828.775 2.996zm-2.616.737c.017-.271.026-.47.026-.597 0-1.075-.22-1.947-.66-2.615-.432-.669-1.177-1.003-2.235-1.003-.939 0-1.722.334-2.348 1.003-.618.66-1.003 1.73-1.156 3.212h6.373zM148.126 124.093c.16.11.457.249.888.419.432.161.935.304 1.511.431a7.94 7.94 0 0 0 1.714.191c.829 0 1.464-.157 1.904-.47.449-.313.673-.749.673-1.308 0-.533-.254-.99-.762-1.371-.499-.381-1.24-.778-2.221-1.193-1.278-.542-2.273-1.176-2.984-1.904-.702-.728-1.053-1.646-1.053-2.755 0-.821.228-1.515.685-2.082.466-.576 1.092-1.007 1.879-1.295.787-.288 1.676-.432 2.666-.432.779 0 1.511.085 2.196.254.686.169 1.177.334 1.473.495l-.457 2.108c-.237-.203-.656-.385-1.257-.546a6.822 6.822 0 0 0-1.866-.254c-.889 0-1.57.144-2.044.431-.466.288-.698.682-.698 1.181 0 .423.105.787.317 1.092.22.305.529.571.927.8.398.228.918.474 1.561.736 1.236.499 2.252 1.105 3.047 1.816.796.702 1.194 1.608 1.194 2.716 0 .864-.208 1.6-.623 2.209-.406.601-.994 1.058-1.764 1.371-.762.314-1.667.47-2.717.47-.939 0-1.853-.106-2.742-.317-.88-.212-1.502-.449-1.866-.711l.419-2.082zM164.344 112.553V127h-2.793v-14.447h2.793zm-3.326-4.367c0-.356.097-.686.292-.991a2.22 2.22 0 0 1 .787-.723c.321-.178.647-.267.977-.267.576 0 1.016.161 1.321.483.313.321.469.732.469 1.231 0 .372-.097.711-.292 1.016a2.08 2.08 0 0 1-1.764.964c-.322 0-.618-.067-.889-.203a1.754 1.754 0 0 1-.66-.609 1.687 1.687 0 0 1-.241-.901zM169.035 124.093c.161.11.457.249.889.419.431.161.935.304 1.51.431a7.94 7.94 0 0 0 1.714.191c.83 0 1.464-.157 1.905-.47.448-.313.672-.749.672-1.308 0-.533-.254-.99-.761-1.371-.5-.381-1.24-.778-2.222-1.193-1.278-.542-2.272-1.176-2.983-1.904-.703-.728-1.054-1.646-1.054-2.755 0-.821.228-1.515.685-2.082.466-.576 1.092-1.007 1.879-1.295.787-.288 1.676-.432 2.666-.432.779 0 1.511.085 2.197.254.685.169 1.176.334 1.472.495l-.457 2.108c-.237-.203-.656-.385-1.257-.546a6.817 6.817 0 0 0-1.866-.254c-.888 0-1.57.144-2.044.431-.465.288-.698.682-.698 1.181 0 .423.106.787.317 1.092.22.305.529.571.927.8.398.228.918.474 1.562.736 1.235.499 2.251 1.105 3.047 1.816.795.702 1.193 1.608 1.193 2.716 0 .864-.207 1.6-.622 2.209-.406.601-.995 1.058-1.765 1.371-.762.314-1.667.47-2.717.47-.939 0-1.853-.106-2.742-.317-.88-.212-1.502-.449-1.866-.711l.419-2.082z" fill="#000"/><defs><filter id="filter0_f" x="29" y="29" width="181.982" height="181.982" filterUnits="userSpaceOnUse" color-interpolation-filters="sRGB"><feFlood flood-opacity="0" result="BackgroundImageFix"/><feBlend in="SourceGraphic" in2="BackgroundImageFix" result="shape"/><feGaussianBlur stdDeviation="3.5" result="effect1_foregroundBlur"/></filter><filter id="filter1_d" x="32" y="36" width="175.982" height="175.982" filterUnits="userSpaceOnUse" color-interpolation-filters="sRGB"><feFlood flood-opacity="0" result="BackgroundImageFix"/><feColorMatrix in="SourceAlpha" values="0 0 0 0 0 0 0 0 0 0 0 0 0 0 0 0 0 0 127 0"/><feOffset dy="4"/><feGaussianBlur stdDeviation="2"/><feColorMatrix values="0 0 0 0 0 0 0 0 0 0 0 0 0 0 0 0 0 0 0.25 0"/><feBlend in2="BackgroundImageFix" result="effect1_dropShadow"/><feBlend in="SourceGraphic" in2="effect1_dropShadow" result="shape"/></filter></defs></svg>