<svg width="240" height="240" fill="none" xmlns="http://www.w3.org/2000/svg"><g filter="url(#filter0_f)"><path d="M111.838 85.226l20.575-7.574m-20.575 7.574V58.428m0 26.798l12.497 46.179m39.34-63.67l14.297 53.11m-14.297-53.11l-31.262 9.917m31.262-9.918l-39.34 63.671m53.637-10.56l-53.637 10.56m53.637-10.56l-32 35.049-49.81 21.55m0 0l28.173-46.039m-28.173 46.039l-33.313-52.208M68.77 55l43.069 3.428M68.768 55l55.567 76.405M68.769 55L55 85.226l7.85 40.01m48.988-66.808l20.575 19.224m-8.078 53.753l-61.486-6.169" stroke="#fff" stroke-width="3" stroke-linejoin="round"/></g><path d="M111.838 85.226l20.575-7.574m-20.575 7.574V58.428m0 26.798l12.497 46.179m39.34-63.67l14.297 53.11m-14.297-53.11l-31.262 9.917m31.262-9.918l-39.34 63.671m53.637-10.56l-53.637 10.56m53.637-10.56l-32 35.049-49.81 21.55m0 0l28.173-46.039m-28.173 46.039l-33.313-52.208M68.77 55l43.069 3.428M68.768 55l55.567 76.405M68.769 55L55 85.226l7.85 40.01m48.988-66.808l20.575 19.224m-8.078 53.753l-61.486-6.169" stroke="#fff" stroke-width="3" stroke-linejoin="round"/><defs><filter id="filter0_f" x="38.5" y="38.5" width="155.972" height="155.445" filterUnits="userSpaceOnUse" color-interpolation-filters="sRGB"><feFlood flood-opacity="0" result="BackgroundImageFix"/><feBlend in="SourceGraphic" in2="BackgroundImageFix" result="shape"/><feGaussianBlur stdDeviation="7.5" result="effect1_foregroundBlur"/></filter></defs></svg>