<svg width="233" height="232" viewBox="0 0 233 232" fill="none" xmlns="http://www.w3.org/2000/svg">
<g clip-path="url(#clip0)">
<g filter="url(#filter0_d)">
<path d="M111.838 85.2258L132.413 77.6523M111.838 85.2258V58.4284M111.838 85.2258L124.335 131.405M163.675 67.7342L177.972 120.845M163.675 67.7342L132.413 77.6523M163.675 67.7342L124.335 131.405M177.972 120.845L124.335 131.405M177.972 120.845L145.972 155.894L96.1615 177.444M96.1615 177.444L124.335 131.405M96.1615 177.444L62.8493 125.236M68.7687 55L111.838 58.4284M68.7687 55L124.335 131.405M68.7687 55L55 85.2258L62.8493 125.236M111.838 58.4284L132.413 77.6523M124.335 131.405L62.8493 125.236" stroke="white" stroke-width="3" stroke-linejoin="round"/>
</g>
<g opacity="0.1" filter="url(#filter1_f)">
<rect x="200.634" y="79.9297" width="131.246" height="146.678" transform="rotate(116.446 200.634 79.9297)" fill="#61FFFF"/>
<rect x="199.777" y="80.2173" width="129.967" height="145.4" transform="rotate(116.446 199.777 80.2173)" stroke="black" stroke-width="1.27836"/>
</g>
</g>
<defs>
<filter id="filter0_d" x="38.5" y="38.5" width="155.972" height="155.445" filterUnits="userSpaceOnUse" color-interpolation-filters="sRGB">
<feFlood flood-opacity="0" result="BackgroundImageFix"/>
<feColorMatrix in="SourceAlpha" type="matrix" values="0 0 0 0 0 0 0 0 0 0 0 0 0 0 0 0 0 0 127 0"/>
<feOffset/>
<feGaussianBlur stdDeviation="7.5"/>
<feColorMatrix type="matrix" values="0 0 0 0 1 0 0 0 0 1 0 0 0 0 1 0 0 0 0.75 0"/>
<feBlend mode="normal" in2="BackgroundImageFix" result="effect1_dropShadow"/>
<feBlend mode="normal" in="SourceGraphic" in2="effect1_dropShadow" result="shape"/>
</filter>
<filter id="filter1_f" x="-39.1465" y="-35.3948" width="289.78" height="282.835" filterUnits="userSpaceOnUse" color-interpolation-filters="sRGB">
<feFlood flood-opacity="0" result="BackgroundImageFix"/>
<feBlend mode="normal" in="SourceGraphic" in2="BackgroundImageFix" result="shape"/>
<feGaussianBlur stdDeviation="25" result="effect1_foregroundBlur"/>
</filter>
<clipPath id="clip0">
<rect width="233" height="232" fill="white"/>
</clipPath>
</defs>
</svg>
