<svg width="240" height="240" fill="none" xmlns="http://www.w3.org/2000/svg"><g filter="url(#filter0_f)" stroke-width="4"><path d="M161 137c0 22.644-18.356 41-41 41s-41-18.356-41-41c0-11.342 6.036-27.469 14.487-42.29 8.117-14.235 18.16-26.736 26.52-32.34 3.844 2.552 8.164 6.728 12.554 12.027 4.769 5.755 9.533 12.729 13.765 20.128C154.844 109.415 161 125.663 161 137z" stroke="#61FFFF"/><path d="M93 141.5c.841 3.942 7 17 18.5 21" stroke="#fff" stroke-linecap="round" stroke-linejoin="round"/></g><path d="M161 137c0 22.644-18.356 41-41 41s-41-18.356-41-41c0-11.342 6.036-27.469 14.487-42.29 8.117-14.235 18.16-26.736 26.52-32.34 3.844 2.552 8.164 6.728 12.554 12.027 4.769 5.755 9.533 12.729 13.765 20.128C154.844 109.415 161 125.663 161 137z" stroke="#61FFFF" stroke-width="4"/><path d="M93 141.5c.841 3.942 7 17 18.5 21" stroke="#fff" stroke-width="4" stroke-linecap="round" stroke-linejoin="round"/><defs><filter id="filter0_f" x="62" y="45" width="116" height="150" filterUnits="userSpaceOnUse" color-interpolation-filters="sRGB"><feFlood flood-opacity="0" result="BackgroundImageFix"/><feBlend in="SourceGraphic" in2="BackgroundImageFix" result="shape"/><feGaussianBlur stdDeviation="7.5" result="effect1_foregroundBlur"/></filter></defs></svg>