<svg width="240" height="240" fill="none" xmlns="http://www.w3.org/2000/svg"><g clip-path="url(#clip0)"><g filter="url(#filter0_f)"><path fill-rule="evenodd" clip-rule="evenodd" d="M59.188 90.479c-7.652 7.651-7.652 20.057 0 27.709 7.651 7.652 20.057 7.652 27.709 0l9.244-9.244 3.403 3.403-.942.943a2 2 0 0 0 1.488 3.413l-.089.089a1.999 1.999 0 0 0 2.748 2.904 2 2 0 0 0 3.395 1.136l.943-.943 41.484 41.484-.943.943a2 2 0 1 0 2.828 2.828l.943-.942 15.843 15.843a2 2 0 1 0 2.828-2.829l-3.626-3.626c.1-.048.193-.113.276-.196l1.692-1.692c.322-.322.376-.819.204-1.242a5.334 5.334 0 0 1 6.955-6.955c.422.172.919.119 1.242-.204l1.692-1.692a.999.999 0 0 0 0-1.414l-8.014-8.014a.999.999 0 0 0-1.414 0l-1.692 1.692c-.323.322-.376.819-.204 1.242a5.336 5.336 0 0 1-6.955 6.955c-.422-.172-.92-.119-1.242.204l-1.692 1.692a1.002 1.002 0 0 0-.196.276l-2.869-2.869.943-.943a2 2 0 1 0-2.828-2.828l-.943.943-41.484-41.484.943-.943a2 2 0 0 0-1.18-3.4 2 2 0 0 0-2.95-2.643 2 2 0 0 0-3.412-1.499l-.943.943-3.404-3.404 8.302-8.301c7.652-7.652 7.652-20.058 0-27.71-7.652-7.651-20.058-7.651-27.71 0L59.189 90.48zm25.225 24.65c3.806-3.806 5.332-9.014 4.56-13.888-.122-.768.583-1.473 1.35-1.35 4.874.771 10.083-.754 13.889-4.56 6.248-6.249 6.351-16.277.23-22.398-6.121-6.121-16.15-6.018-22.397.23-3.807 3.806-5.332 9.015-4.56 13.889.121.767-.583 1.472-1.35 1.35-4.875-.772-10.083.754-13.89 4.56-6.248 6.248-6.35 16.276-.23 22.397 6.122 6.122 16.15 6.019 22.398-.23z" fill="#fff"/></g><path fill-rule="evenodd" clip-rule="evenodd" d="M59.188 90.479c-7.652 7.651-7.652 20.057 0 27.709 7.651 7.652 20.057 7.652 27.709 0l9.244-9.244 3.403 3.403-.942.943a2 2 0 0 0 1.488 3.413l-.089.089a1.999 1.999 0 0 0 2.748 2.904 2 2 0 0 0 3.395 1.136l.943-.943 41.484 41.484-.943.943a2 2 0 1 0 2.828 2.828l.943-.942 15.843 15.843a2 2 0 1 0 2.828-2.829l-3.626-3.626c.1-.048.193-.113.276-.196l1.692-1.692c.322-.322.376-.819.204-1.242a5.334 5.334 0 0 1 6.955-6.955c.422.172.919.119 1.242-.204l1.692-1.692a.999.999 0 0 0 0-1.414l-8.014-8.014a.999.999 0 0 0-1.414 0l-1.692 1.692c-.323.322-.376.819-.204 1.242a5.336 5.336 0 0 1-6.955 6.955c-.422-.172-.92-.119-1.242.204l-1.692 1.692a1.002 1.002 0 0 0-.196.276l-2.869-2.869.943-.943a2 2 0 1 0-2.828-2.828l-.943.943-41.484-41.484.943-.943a2 2 0 0 0-1.18-3.4 2 2 0 0 0-2.95-2.643 2 2 0 0 0-3.412-1.499l-.943.943-3.404-3.404 8.302-8.301c7.652-7.652 7.652-20.058 0-27.71-7.652-7.651-20.058-7.651-27.71 0L59.189 90.48zm25.225 24.65c3.806-3.806 5.332-9.014 4.56-13.888-.122-.768.583-1.473 1.35-1.35 4.874.771 10.083-.754 13.889-4.56 6.248-6.249 6.351-16.277.23-22.398-6.121-6.121-16.15-6.018-22.397.23-3.807 3.806-5.332 9.015-4.56 13.889.121.767-.583 1.472-1.35 1.35-4.875-.772-10.083.754-13.89 4.56-6.248 6.248-6.35 16.276-.23 22.397 6.122 6.122 16.15 6.019 22.398-.23z" fill="#fff"/></g><defs><filter id="filter0_f" x="-15" y="-4" width="270" height="270" filterUnits="userSpaceOnUse" color-interpolation-filters="sRGB"><feFlood flood-opacity="0" result="BackgroundImageFix"/><feBlend in="SourceGraphic" in2="BackgroundImageFix" result="shape"/><feGaussianBlur stdDeviation="7.5" result="effect1_foregroundBlur"/></filter><clipPath id="clip0"><path fill="#fff" d="M0 0h240v240H0z"/></clipPath></defs></svg>