<svg width="240" height="240" viewBox="0 0 240 240" fill="none" xmlns="http://www.w3.org/2000/svg">
<g clip-path="url(#clip0)">
<g filter="url(#filter0_d)">
<path fill-rule="evenodd" clip-rule="evenodd" d="M102.447 102.079C101.666 102.86 101.666 104.126 102.447 104.907L107.346 109.806L106.403 110.749C105.622 111.53 105.622 112.796 106.403 113.577C106.812 113.986 107.355 114.181 107.891 114.162L107.802 114.251C107.021 115.032 107.021 116.298 107.802 117.079C108.557 117.834 109.765 117.859 110.55 117.155C110.608 117.57 110.797 117.971 111.117 118.291C111.898 119.072 113.164 119.072 113.945 118.291L114.888 117.348L156.372 158.832L155.429 159.775C154.648 160.556 154.648 161.822 155.429 162.603C156.21 163.384 157.476 163.384 158.257 162.603L159.2 161.66L175.043 177.503C175.824 178.284 177.09 178.284 177.872 177.503C178.653 176.722 178.653 175.456 177.872 174.675L174.245 171.048C174.345 171 174.438 170.935 174.521 170.853L176.213 169.161C176.535 168.838 176.589 168.341 176.417 167.918C175.631 165.991 176.021 163.696 177.585 162.132C179.149 160.567 181.444 160.178 183.372 160.964C183.794 161.136 184.291 161.082 184.614 160.76L186.306 159.068C186.696 158.677 186.696 158.044 186.306 157.653L178.292 149.639C177.901 149.249 177.268 149.249 176.878 149.639L175.186 151.331C174.863 151.654 174.81 152.151 174.982 152.574C175.768 154.502 175.378 156.796 173.814 158.361C172.249 159.925 169.955 160.314 168.027 159.529C167.604 159.356 167.107 159.41 166.785 159.733L165.093 161.425C165.01 161.507 164.945 161.601 164.897 161.701L162.029 158.832L162.971 157.889C163.752 157.108 163.752 155.842 162.971 155.061C162.19 154.28 160.924 154.28 160.143 155.061L159.2 156.003L117.716 114.52L118.659 113.577C119.44 112.796 119.44 111.53 118.659 110.749C118.328 110.418 117.91 110.227 117.479 110.177C117.999 109.399 117.916 108.338 117.23 107.651C116.49 106.911 115.315 106.872 114.529 107.533C114.552 106.994 114.357 106.447 113.945 106.035C113.164 105.254 111.898 105.254 111.117 106.035L110.174 106.977L105.275 102.079C104.494 101.298 103.228 101.298 102.447 102.079Z" fill="#FFEDBD"/>
<circle cx="82.8176" cy="82.6665" r="27.8333" transform="rotate(-45 82.8176 82.6665)" stroke="#FFEDBD" stroke-width="3"/>
<path d="M81.8405 99.6367C80.1202 101.413 78.2052 102.6 76.0955 103.197C73.9579 103.767 71.8783 103.774 69.857 103.219C67.8076 102.636 66.0408 101.602 64.5566 100.118C62.9043 98.4659 61.8289 96.6009 61.3303 94.5231C60.8599 92.4171 60.9656 90.2951 61.6474 88.1571C62.3574 85.9908 63.6007 84.0194 65.3772 82.2429C67.323 80.2971 69.561 79.1513 72.0913 78.8053C74.6216 78.4593 77.5158 78.5336 80.7738 79.0281C80.2219 76.1075 80.105 73.34 80.4232 70.7254C80.7696 68.0827 81.7746 65.9295 83.4384 64.2658C85.1867 62.5174 87.0874 61.4008 89.1405 60.916C91.1655 60.4032 93.1606 60.4525 95.1255 61.0639C97.0625 61.6473 98.7731 62.6811 100.257 64.1653C101.938 65.8456 103.013 67.7387 103.483 69.8447C103.982 71.9224 103.876 74.0444 103.166 76.2107C102.456 78.377 101.213 80.3483 99.4364 82.1249C97.547 84.0142 95.3794 85.1177 92.9335 85.4353C90.5158 85.7246 87.6779 85.6221 84.4199 85.1275C85.0004 87.9075 85.1316 90.6048 84.8134 93.2193C84.4954 95.7776 83.5044 97.9168 81.8405 99.6367ZM79.7052 95.4711C80.8614 94.3149 81.5974 92.7668 81.9132 90.8267C82.201 88.8586 82.152 86.7793 81.7662 84.5888C78.5648 83.9816 75.7275 83.7104 73.2543 83.7752C70.7814 83.7838 68.7977 84.5353 67.3031 86.0299C65.6958 87.6372 64.9171 89.34 64.9671 91.1383C65.017 92.9366 65.7701 94.5639 67.2263 96.0201C68.3745 97.1683 69.7068 97.9084 71.2231 98.2403C72.7114 98.5443 74.2011 98.4548 75.6921 97.9719C77.2114 97.4609 78.549 96.6272 79.7052 95.4711ZM85.1936 68.6435C83.1069 70.7302 82.4902 74.3433 83.3435 79.4829C86.6009 80.1461 89.4239 80.4875 91.8125 80.5074C94.2292 80.499 96.1849 79.7475 97.6794 78.253C99.2585 76.6739 100.023 74.9851 99.9731 73.1868C99.9232 71.3885 99.1701 69.7613 97.7139 68.305C96.5377 67.1289 95.1914 66.3748 93.6751 66.0428C92.187 65.6827 90.6974 65.744 89.2064 66.2269C87.6873 66.6818 86.3497 67.4873 85.1936 68.6435Z" fill="#FFEDBD"/>
</g>
<g opacity="0.1" filter="url(#filter1_f)">
<rect x="83.7285" y="32.3037" width="168.504" height="61.5328" transform="rotate(45.5451 83.7285 32.3037)" fill="#61FFFF"/>
<rect x="83.7199" y="33.2076" width="167.226" height="60.2545" transform="rotate(45.5451 83.7199 33.2076)" stroke="black" stroke-width="1.27836"/>
</g>
</g>
<defs>
<filter id="filter0_d" x="26.334" y="26.1831" width="180.68" height="171.143" filterUnits="userSpaceOnUse" color-interpolation-filters="sRGB">
<feFlood flood-opacity="0" result="BackgroundImageFix"/>
<feColorMatrix in="SourceAlpha" type="matrix" values="0 0 0 0 0 0 0 0 0 0 0 0 0 0 0 0 0 0 127 0"/>
<feOffset/>
<feGaussianBlur stdDeviation="7.5"/>
<feColorMatrix type="matrix" values="0 0 0 0 1 0 0 0 0 0.927667 0 0 0 0 0.741667 0 0 0 0.75 0"/>
<feBlend mode="normal" in2="BackgroundImageFix" result="effect1_dropShadow"/>
<feBlend mode="normal" in="SourceGraphic" in2="effect1_dropShadow" result="shape"/>
</filter>
<filter id="filter1_f" x="-10.1934" y="-17.6963" width="261.934" height="263.373" filterUnits="userSpaceOnUse" color-interpolation-filters="sRGB">
<feFlood flood-opacity="0" result="BackgroundImageFix"/>
<feBlend mode="normal" in="SourceGraphic" in2="BackgroundImageFix" result="shape"/>
<feGaussianBlur stdDeviation="25" result="effect1_foregroundBlur"/>
</filter>
<clipPath id="clip0">
<rect width="240" height="240" fill="white"/>
</clipPath>
</defs>
</svg>
