<svg width="240" height="240" fill="none" xmlns="http://www.w3.org/2000/svg"><g filter="url(#filter0_f)"><path fill-rule="evenodd" clip-rule="evenodd" d="M103.591 103.659a1.82 1.82 0 0 0 0 2.572l4.456 4.456-.857.858a1.819 1.819 0 0 0 1.353 3.105l-.081.081a1.819 1.819 0 0 0 2.5 2.641 1.819 1.819 0 0 0 3.088 1.034l.858-.858 37.736 37.736-.858.858a1.82 1.82 0 0 0 2.573 2.572l.858-.857 14.411 14.412a1.82 1.82 0 0 0 2.573-2.573l-3.319-3.32a.997.997 0 0 0 .335-.221l1.426-1.426c.323-.323.375-.82.209-1.245a4.854 4.854 0 0 1 6.287-6.287c.425.166.922.114 1.245-.209l1.426-1.426a1 1 0 0 0 0-1.414l-7.162-7.162a1 1 0 0 0-1.415 0l-1.425 1.425c-.323.323-.375.82-.209 1.245a4.853 4.853 0 0 1-6.288 6.288c-.425-.167-.922-.114-1.244.209l-1.426 1.425a1.004 1.004 0 0 0-.222.336l-2.629-2.63.857-.858a1.819 1.819 0 1 0-2.573-2.573l-.857.858-37.736-37.736.857-.857a1.819 1.819 0 0 0-1.073-3.093 1.821 1.821 0 0 0-2.683-2.405 1.82 1.82 0 0 0-3.104-1.363l-.858.858-4.456-4.456a1.819 1.819 0 0 0-2.573 0z" fill="#FFEDBD"/><circle cx="85.735" cy="86" r="25.183" transform="rotate(-45 85.735 86)" stroke="#FFEDBD" stroke-width="3"/><path d="M89.946 69.782c1.983-1.983 4.016-2.954 6.098-2.913 2.111.012 4.071.921 5.878 2.729 2.008 2.008 2.917 4.083 2.726 6.225-.162 2.113-1.278 4.205-3.349 6.275-1.166 1.167-2.737 2.163-4.71 2.989-2.002.797-4.453 1.526-7.35 2.186-1.625 4.15-2.953 7.313-3.983 9.49-1.03 2.179-2.274 3.997-3.732 5.455-1.954 1.954-4.001 2.91-6.141 2.87-2.169-.069-4.114-.964-5.835-2.686-2.009-2.008-2.932-4.068-2.77-6.181.191-2.142 1.322-4.249 3.392-6.319 1.138-1.137 2.693-2.09 4.666-2.858 1.974-.826 4.424-1.613 7.352-2.36l.62-1.48c1.358-3.482 2.552-6.254 3.582-8.316 1.029-2.062 2.214-3.764 3.556-5.106zM74.92 98.063c1.312-1.312 2.482-2.942 3.51-4.888 1.058-1.975 2.133-4.341 3.226-7.098-2.522.628-4.668 1.31-6.438 2.048-1.77.738-3.166 1.617-4.187 2.638-1.546 1.545-2.47 3.071-2.77 4.578-.302 1.507.006 2.719.924 3.637.717.717 1.597 1.014 2.64.89 1.042-.183 2.074-.784 3.094-1.805zm25.518-16.826c1.546-1.545 2.47-3.071 2.771-4.578.302-1.506-.006-2.719-.925-3.637-.717-.717-1.597-.985-2.64-.803-1.042.125-2.073.697-3.094 1.718-1.312 1.312-2.497 2.956-3.555 4.932-1.057 1.975-2.118 4.327-3.181 7.054 5.216-1.257 8.758-2.82 10.624-4.686z" fill="#FFEDBD"/></g><path fill-rule="evenodd" clip-rule="evenodd" d="M103.591 103.659a1.82 1.82 0 0 0 0 2.572l4.456 4.456-.857.858a1.819 1.819 0 0 0 1.353 3.105l-.081.081a1.819 1.819 0 0 0 2.5 2.641 1.819 1.819 0 0 0 3.088 1.034l.858-.858 37.736 37.736-.858.858a1.82 1.82 0 0 0 2.573 2.572l.858-.857 14.411 14.412a1.82 1.82 0 0 0 2.573-2.573l-3.319-3.32a.997.997 0 0 0 .335-.221l1.426-1.426c.323-.323.375-.82.209-1.245a4.854 4.854 0 0 1 6.287-6.287c.425.166.922.114 1.245-.209l1.426-1.426a1 1 0 0 0 0-1.414l-7.162-7.162a1 1 0 0 0-1.415 0l-1.425 1.425c-.323.323-.375.82-.209 1.245a4.853 4.853 0 0 1-6.288 6.288c-.425-.167-.922-.114-1.244.209l-1.426 1.425a1.004 1.004 0 0 0-.222.336l-2.629-2.63.857-.858a1.819 1.819 0 1 0-2.573-2.573l-.857.858-37.736-37.736.857-.857a1.819 1.819 0 0 0-1.073-3.093 1.821 1.821 0 0 0-2.683-2.405 1.82 1.82 0 0 0-3.104-1.363l-.858.858-4.456-4.456a1.819 1.819 0 0 0-2.573 0z" fill="#FFEDBD"/><circle cx="85.735" cy="86" r="25.183" transform="rotate(-45 85.735 86)" stroke="#FFEDBD" stroke-width="3"/><path d="M89.946 69.782c1.983-1.983 4.016-2.954 6.098-2.913 2.111.012 4.071.921 5.878 2.729 2.008 2.008 2.917 4.083 2.726 6.225-.162 2.113-1.278 4.205-3.349 6.275-1.166 1.167-2.737 2.163-4.71 2.989-2.002.797-4.453 1.526-7.35 2.186-1.625 4.15-2.953 7.313-3.983 9.49-1.03 2.179-2.274 3.997-3.732 5.455-1.954 1.954-4.001 2.91-6.141 2.87-2.169-.069-4.114-.964-5.835-2.686-2.009-2.008-2.932-4.068-2.77-6.181.191-2.142 1.322-4.249 3.392-6.319 1.138-1.137 2.693-2.09 4.666-2.858 1.974-.826 4.424-1.613 7.352-2.36l.62-1.48c1.358-3.482 2.552-6.254 3.582-8.316 1.029-2.062 2.214-3.764 3.556-5.106zM74.92 98.063c1.312-1.312 2.482-2.942 3.51-4.888 1.058-1.975 2.133-4.341 3.226-7.098-2.522.628-4.668 1.31-6.438 2.048-1.77.738-3.166 1.617-4.187 2.638-1.546 1.545-2.47 3.071-2.77 4.578-.302 1.507.006 2.719.924 3.637.717.717 1.597 1.014 2.64.89 1.042-.183 2.074-.784 3.094-1.805zm25.518-16.826c1.546-1.545 2.47-3.071 2.771-4.578.302-1.506-.006-2.719-.925-3.637-.717-.717-1.597-.985-2.64-.803-1.042.125-2.073.697-3.094 1.718-1.312 1.312-2.497 2.956-3.555 4.932-1.057 1.975-2.118 4.327-3.181 7.054 5.216-1.257 8.758-2.82 10.624-4.686z" fill="#FFEDBD"/><defs><filter id="filter0_f" x="33" y="33.265" width="167.066" height="158.391" filterUnits="userSpaceOnUse" color-interpolation-filters="sRGB"><feFlood flood-opacity="0" result="BackgroundImageFix"/><feBlend in="SourceGraphic" in2="BackgroundImageFix" result="shape"/><feGaussianBlur stdDeviation="7.5" result="effect1_foregroundBlur"/></filter></defs></svg>