<svg width="251" height="240" viewBox="0 0 251 240" fill="none" xmlns="http://www.w3.org/2000/svg">
<g filter="url(#filter0_f)">
<path fill-rule="evenodd" clip-rule="evenodd" d="M59.826 151.879L37.0411 131.679L36.2175 179.851L31.486 175.908L32.2793 130.444L30.9576 130.697L30.0754 181.027L25.4217 177.069L26.3038 126.74L36.8774 124.715L55.2893 140.744L55.6145 121.126L66.4991 119.042L65.5281 174.238L60.8744 170.28L61.6676 124.816L60.2682 125.084L59.826 151.879ZM81.8371 117.615L123.199 109.694L88.0356 145.761L88.5253 163.375L120.402 157.27L115.648 163.03L83.7716 169.134L83.7697 122.094L82.3702 122.362L82.0451 141.98L77.2137 147.754L77.6623 122.628L81.8371 117.615ZM109.659 117.136L88.5123 121.186L88.1959 139.212C95.647 131.584 102.068 124.87 109.659 117.136ZM157.944 155.903L141.151 159.119L123.635 143.952L123.979 126.476L142.087 104.566L158.88 101.35L176.381 116.441L176.036 133.916L157.944 155.903ZM157.003 106.558L143.941 109.06L128.648 127.649L128.388 141.054L142.949 153.925L145.204 153.494L130.085 140.252L130.185 133.396L151.268 152.332L156.011 151.424L171.304 132.835L171.564 119.43L157.003 106.558ZM218.981 121.399L196.196 101.199L195.372 149.371L190.641 145.428L191.434 99.9642L190.113 100.217L189.23 150.547L184.577 146.589L185.459 96.2594L196.032 94.2345L214.444 110.264L214.769 90.6461L225.654 88.5616L224.683 143.757L220.029 139.8L220.823 94.336L219.423 94.604L218.981 121.399Z" fill="white"/>
<path fill-rule="evenodd" clip-rule="evenodd" d="M59.826 151.879L37.0411 131.679L36.2175 179.851L31.486 175.908L32.2793 130.444L30.9576 130.697L30.0754 181.027L25.4217 177.069L26.3038 126.74L36.8774 124.715L55.2893 140.744L55.6145 121.126L66.4991 119.042L65.5281 174.238L60.8744 170.28L61.6676 124.816L60.2682 125.084L59.826 151.879ZM81.8371 117.615L123.199 109.694L88.0356 145.761L88.5253 163.375L120.402 157.27L115.648 163.03L83.7716 169.134L83.7697 122.094L82.3702 122.362L82.0451 141.98L77.2137 147.754L77.6623 122.628L81.8371 117.615ZM109.659 117.136L88.5123 121.186L88.1959 139.212C95.647 131.584 102.068 124.87 109.659 117.136ZM157.944 155.903L141.151 159.119L123.635 143.952L123.979 126.476L142.087 104.566L158.88 101.35L176.381 116.441L176.036 133.916L157.944 155.903ZM157.003 106.558L143.941 109.06L128.648 127.649L128.388 141.054L142.949 153.925L145.204 153.494L130.085 140.252L130.185 133.396L151.268 152.332L156.011 151.424L171.304 132.835L171.564 119.43L157.003 106.558ZM218.981 121.399L196.196 101.199L195.372 149.371L190.641 145.428L191.434 99.9642L190.113 100.217L189.23 150.547L184.577 146.589L185.459 96.2594L196.032 94.2345L214.444 110.264L214.769 90.6461L225.654 88.5616L224.683 143.757L220.029 139.8L220.823 94.336L219.423 94.604L218.981 121.399Z" fill="url(#paint0_linear)"/>
</g>
<path fill-rule="evenodd" clip-rule="evenodd" d="M59.826 151.879L37.0411 131.679L36.2175 179.851L31.486 175.908L32.2793 130.444L30.9576 130.697L30.0754 181.027L25.4217 177.069L26.3038 126.74L36.8774 124.715L55.2893 140.744L55.6145 121.126L66.4991 119.042L65.5281 174.238L60.8744 170.28L61.6676 124.816L60.2682 125.084L59.826 151.879ZM81.8371 117.615L123.199 109.694L88.0356 145.761L88.5253 163.375L120.402 157.27L115.648 163.03L83.7716 169.134L83.7697 122.094L82.3702 122.362L82.0451 141.98L77.2137 147.754L77.6623 122.628L81.8371 117.615ZM109.659 117.136L88.5123 121.186L88.1959 139.212C95.647 131.584 102.068 124.87 109.659 117.136ZM157.944 155.903L141.151 159.119L123.635 143.952L123.979 126.476L142.087 104.566L158.88 101.35L176.381 116.441L176.036 133.916L157.944 155.903ZM157.003 106.558L143.941 109.06L128.648 127.649L128.388 141.054L142.949 153.925L145.204 153.494L130.085 140.252L130.185 133.396L151.268 152.332L156.011 151.424L171.304 132.835L171.564 119.43L157.003 106.558ZM218.981 121.399L196.196 101.199L195.372 149.371L190.641 145.428L191.434 99.9642L190.113 100.217L189.23 150.547L184.577 146.589L185.459 96.2594L196.032 94.2345L214.444 110.264L214.769 90.6461L225.654 88.5616L224.683 143.757L220.029 139.8L220.823 94.336L219.423 94.604L218.981 121.399Z" fill="white"/>
<path fill-rule="evenodd" clip-rule="evenodd" d="M59.826 151.879L37.0411 131.679L36.2175 179.851L31.486 175.908L32.2793 130.444L30.9576 130.697L30.0754 181.027L25.4217 177.069L26.3038 126.74L36.8774 124.715L55.2893 140.744L55.6145 121.126L66.4991 119.042L65.5281 174.238L60.8744 170.28L61.6676 124.816L60.2682 125.084L59.826 151.879ZM81.8371 117.615L123.199 109.694L88.0356 145.761L88.5253 163.375L120.402 157.27L115.648 163.03L83.7716 169.134L83.7697 122.094L82.3702 122.362L82.0451 141.98L77.2137 147.754L77.6623 122.628L81.8371 117.615ZM109.659 117.136L88.5123 121.186L88.1959 139.212C95.647 131.584 102.068 124.87 109.659 117.136ZM157.944 155.903L141.151 159.119L123.635 143.952L123.979 126.476L142.087 104.566L158.88 101.35L176.381 116.441L176.036 133.916L157.944 155.903ZM157.003 106.558L143.941 109.06L128.648 127.649L128.388 141.054L142.949 153.925L145.204 153.494L130.085 140.252L130.185 133.396L151.268 152.332L156.011 151.424L171.304 132.835L171.564 119.43L157.003 106.558ZM218.981 121.399L196.196 101.199L195.372 149.371L190.641 145.428L191.434 99.9642L190.113 100.217L189.23 150.547L184.577 146.589L185.459 96.2594L196.032 94.2345L214.444 110.264L214.769 90.6461L225.654 88.5616L224.683 143.757L220.029 139.8L220.823 94.336L219.423 94.604L218.981 121.399Z" fill="url(#paint1_linear)"/>
<g filter="url(#filter1_f)">
<path fill-rule="evenodd" clip-rule="evenodd" d="M59.981 68.7456L59.3183 104.346L82.0997 99.9827L78.6948 104.108L58.9205 107.895L55.9522 105.446L56.5204 72.8816L55.5737 73.0629L54.9108 110.713L51.4054 114.914L52.1459 73.2639L55.1919 69.6627L59.981 68.7456ZM103.506 99.3559L91.4777 101.66L78.9317 90.7954L79.1785 78.2784L92.1484 62.5846L104.177 60.281L116.712 71.0903L116.465 83.6072L103.506 99.3559ZM102.833 64.0117L93.477 65.8034L82.5228 79.1183L82.3366 88.7198L92.7665 97.9394L94.3815 97.6301L83.5525 88.1453L83.6239 83.2348L98.7251 96.7982L102.122 96.1477L113.076 82.8328L113.263 73.2313L102.833 64.0117ZM151.805 68.1277L141.321 80.897L151.751 90.1166L147.129 91.0018L136.654 81.8477L148.416 67.3533L148.42 66.4983L137.935 57.2894L136.431 57.5773L147.238 66.9524L142.783 67.8056L132.032 58.4199L131.196 58.5798L130.565 94.6295L127.176 91.8053L127.744 59.2411L126.797 59.4224L126.105 98.3876L122.644 102.524L123.464 56.5874L139.39 53.5373L151.87 64.3572L151.805 68.1277ZM141.337 92.111L132.202 84.1808L132.274 79.2704L145.792 91.2578L141.337 92.111ZM162.63 85.0153L163.578 53.1443L162.632 53.3256L161.683 85.1966L158.222 89.3327L159.243 50.5013L178.163 46.8778L191.434 59.627L191.259 69.2834L178.356 85.0214L165.598 87.4647L162.63 85.0153ZM188.03 61.7026L177.655 52.4724L175.985 52.7923L186.814 62.2771L186.742 67.1876L171.641 53.6242L166.624 54.585L166.051 83.9045L176.971 81.8132L187.87 68.509L188.03 61.7026Z" fill="white"/>
<path fill-rule="evenodd" clip-rule="evenodd" d="M59.981 68.7456L59.3183 104.346L82.0997 99.9827L78.6948 104.108L58.9205 107.895L55.9522 105.446L56.5204 72.8816L55.5737 73.0629L54.9108 110.713L51.4054 114.914L52.1459 73.2639L55.1919 69.6627L59.981 68.7456ZM103.506 99.3559L91.4777 101.66L78.9317 90.7954L79.1785 78.2784L92.1484 62.5846L104.177 60.281L116.712 71.0903L116.465 83.6072L103.506 99.3559ZM102.833 64.0117L93.477 65.8034L82.5228 79.1183L82.3366 88.7198L92.7665 97.9394L94.3815 97.6301L83.5525 88.1453L83.6239 83.2348L98.7251 96.7982L102.122 96.1477L113.076 82.8328L113.263 73.2313L102.833 64.0117ZM151.805 68.1277L141.321 80.897L151.751 90.1166L147.129 91.0018L136.654 81.8477L148.416 67.3533L148.42 66.4983L137.935 57.2894L136.431 57.5773L147.238 66.9524L142.783 67.8056L132.032 58.4199L131.196 58.5798L130.565 94.6295L127.176 91.8053L127.744 59.2411L126.797 59.4224L126.105 98.3876L122.644 102.524L123.464 56.5874L139.39 53.5373L151.87 64.3572L151.805 68.1277ZM141.337 92.111L132.202 84.1808L132.274 79.2704L145.792 91.2578L141.337 92.111ZM162.63 85.0153L163.578 53.1443L162.632 53.3256L161.683 85.1966L158.222 89.3327L159.243 50.5013L178.163 46.8778L191.434 59.627L191.259 69.2834L178.356 85.0214L165.598 87.4647L162.63 85.0153ZM188.03 61.7026L177.655 52.4724L175.985 52.7923L186.814 62.2771L186.742 67.1876L171.641 53.6242L166.624 54.585L166.051 83.9045L176.971 81.8132L187.87 68.509L188.03 61.7026Z" fill="url(#paint2_linear)"/>
</g>
<path fill-rule="evenodd" clip-rule="evenodd" d="M59.981 68.7456L59.3183 104.346L82.0997 99.9827L78.6948 104.108L58.9205 107.895L55.9522 105.446L56.5204 72.8816L55.5737 73.0629L54.9108 110.713L51.4054 114.914L52.1459 73.2639L55.1919 69.6627L59.981 68.7456ZM103.506 99.3559L91.4777 101.66L78.9317 90.7954L79.1785 78.2784L92.1484 62.5846L104.177 60.281L116.712 71.0903L116.465 83.6072L103.506 99.3559ZM102.833 64.0117L93.477 65.8034L82.5228 79.1183L82.3366 88.7198L92.7665 97.9394L94.3815 97.6301L83.5525 88.1453L83.6239 83.2348L98.7251 96.7982L102.122 96.1477L113.076 82.8328L113.263 73.2313L102.833 64.0117ZM151.805 68.1277L141.321 80.897L151.751 90.1166L147.129 91.0018L136.654 81.8477L148.416 67.3533L148.42 66.4983L137.935 57.2894L136.431 57.5773L147.238 66.9524L142.783 67.8056L132.032 58.4199L131.196 58.5798L130.565 94.6295L127.176 91.8053L127.744 59.2411L126.797 59.4224L126.105 98.3876L122.644 102.524L123.464 56.5874L139.39 53.5373L151.87 64.3572L151.805 68.1277ZM141.337 92.111L132.202 84.1808L132.274 79.2704L145.792 91.2578L141.337 92.111ZM162.63 85.0153L163.578 53.1443L162.632 53.3256L161.683 85.1966L158.222 89.3327L159.243 50.5013L178.163 46.8778L191.434 59.627L191.259 69.2834L178.356 85.0214L165.598 87.4647L162.63 85.0153ZM188.03 61.7026L177.655 52.4724L175.985 52.7923L186.814 62.2771L186.742 67.1876L171.641 53.6242L166.624 54.585L166.051 83.9045L176.971 81.8132L187.87 68.509L188.03 61.7026Z" fill="white"/>
<path fill-rule="evenodd" clip-rule="evenodd" d="M59.981 68.7456L59.3183 104.346L82.0997 99.9827L78.6948 104.108L58.9205 107.895L55.9522 105.446L56.5204 72.8816L55.5737 73.0629L54.9108 110.713L51.4054 114.914L52.1459 73.2639L55.1919 69.6627L59.981 68.7456ZM103.506 99.3559L91.4777 101.66L78.9317 90.7954L79.1785 78.2784L92.1484 62.5846L104.177 60.281L116.712 71.0903L116.465 83.6072L103.506 99.3559ZM102.833 64.0117L93.477 65.8034L82.5228 79.1183L82.3366 88.7198L92.7665 97.9394L94.3815 97.6301L83.5525 88.1453L83.6239 83.2348L98.7251 96.7982L102.122 96.1477L113.076 82.8328L113.263 73.2313L102.833 64.0117ZM151.805 68.1277L141.321 80.897L151.751 90.1166L147.129 91.0018L136.654 81.8477L148.416 67.3533L148.42 66.4983L137.935 57.2894L136.431 57.5773L147.238 66.9524L142.783 67.8056L132.032 58.4199L131.196 58.5798L130.565 94.6295L127.176 91.8053L127.744 59.2411L126.797 59.4224L126.105 98.3876L122.644 102.524L123.464 56.5874L139.39 53.5373L151.87 64.3572L151.805 68.1277ZM141.337 92.111L132.202 84.1808L132.274 79.2704L145.792 91.2578L141.337 92.111ZM162.63 85.0153L163.578 53.1443L162.632 53.3256L161.683 85.1966L158.222 89.3327L159.243 50.5013L178.163 46.8778L191.434 59.627L191.259 69.2834L178.356 85.0214L165.598 87.4647L162.63 85.0153ZM188.03 61.7026L177.655 52.4724L175.985 52.7923L186.814 62.2771L186.742 67.1876L171.641 53.6242L166.624 54.585L166.051 83.9045L176.971 81.8132L187.87 68.509L188.03 61.7026Z" fill="url(#paint3_linear)"/>
<defs>
<filter id="filter0_f" x="0.957338" y="64.097" width="249.161" height="141.395" filterUnits="userSpaceOnUse" color-interpolation-filters="sRGB">
<feFlood flood-opacity="0" result="BackgroundImageFix"/>
<feBlend mode="normal" in="SourceGraphic" in2="BackgroundImageFix" result="shape"/>
<feGaussianBlur stdDeviation="12.2323" result="effect1_foregroundBlur"/>
</filter>
<filter id="filter1_f" x="26.9407" y="22.4132" width="188.958" height="116.966" filterUnits="userSpaceOnUse" color-interpolation-filters="sRGB">
<feFlood flood-opacity="0" result="BackgroundImageFix"/>
<feBlend mode="normal" in="SourceGraphic" in2="BackgroundImageFix" result="shape"/>
<feGaussianBlur stdDeviation="12.2323" result="effect1_foregroundBlur"/>
</filter>
<linearGradient id="paint0_linear" x1="204.408" y1="116.441" x2="197.034" y2="77.9366" gradientUnits="userSpaceOnUse">
<stop stop-color="#61FFFF"/>
<stop offset="1" stop-color="white" stop-opacity="0.01"/>
</linearGradient>
<linearGradient id="paint1_linear" x1="204.408" y1="116.441" x2="197.034" y2="77.9366" gradientUnits="userSpaceOnUse">
<stop stop-color="#61FFFF"/>
<stop offset="1" stop-color="white" stop-opacity="0.01"/>
</linearGradient>
<linearGradient id="paint2_linear" x1="56.7164" y1="85.6316" x2="63.931" y2="123.303" gradientUnits="userSpaceOnUse">
<stop stop-color="#FF3AFF"/>
<stop offset="1" stop-color="white"/>
</linearGradient>
<linearGradient id="paint3_linear" x1="56.7164" y1="85.6316" x2="63.931" y2="123.303" gradientUnits="userSpaceOnUse">
<stop stop-color="#FF3AFF"/>
<stop offset="1" stop-color="white"/>
</linearGradient>
</defs>
</svg>
