<svg width="251" height="240" fill="none" xmlns="http://www.w3.org/2000/svg"><g filter="url(#filter0_f)" fill-rule="evenodd" clip-rule="evenodd"><path d="M59.739 151.812l-22.785-20.2-.824 48.173-4.73-3.943.792-45.464-1.321.253-.883 50.33-4.653-3.958.882-50.33 10.574-2.025 18.411 16.03.326-19.618 10.884-2.085-.97 55.196-4.654-3.958.793-45.463-1.4.268-.442 26.794zm22.011-34.263l41.362-7.922-35.163 36.068.49 17.614 31.876-6.105-4.754 5.759-31.876 6.105-.002-47.04-1.4.268-.325 19.617-4.831 5.775.448-25.127 4.175-5.012zm27.823-.48l-21.148 4.05-.316 18.027c7.451-7.628 13.872-14.343 21.464-22.077zm48.284 38.768l-16.793 3.216-17.516-15.168.344-17.475L142 104.499l16.793-3.216 17.501 15.091-.345 17.476-18.092 21.987zm-.941-49.345l-13.062 2.501-15.293 18.59-.26 13.404 14.561 12.872 2.255-.432-15.119-13.242.1-6.855 21.083 18.936 4.743-.908 15.293-18.59.26-13.405-14.561-12.871zm61.978 14.84l-22.785-20.2-.823 48.172-4.732-3.943.793-45.463-1.321.253-.882 50.33-4.654-3.958.882-50.33 10.574-2.025 18.411 16.03.326-19.618 10.884-2.085-.971 55.196-4.654-3.958.794-45.463-1.4.268-.442 26.794z" fill="#fff"/><path d="M59.739 151.812l-22.785-20.2-.824 48.173-4.73-3.943.792-45.464-1.321.253-.883 50.33-4.653-3.958.882-50.33 10.574-2.025 18.411 16.03.326-19.618 10.884-2.085-.97 55.196-4.654-3.958.793-45.463-1.4.268-.442 26.794zm22.011-34.263l41.362-7.922-35.163 36.068.49 17.614 31.876-6.105-4.754 5.759-31.876 6.105-.002-47.04-1.4.268-.325 19.617-4.831 5.775.448-25.127 4.175-5.012zm27.823-.48l-21.148 4.05-.316 18.027c7.451-7.628 13.872-14.343 21.464-22.077zm48.284 38.768l-16.793 3.216-17.516-15.168.344-17.475L142 104.499l16.793-3.216 17.501 15.091-.345 17.476-18.092 21.987zm-.941-49.345l-13.062 2.501-15.293 18.59-.26 13.404 14.561 12.872 2.255-.432-15.119-13.242.1-6.855 21.083 18.936 4.743-.908 15.293-18.59.26-13.405-14.561-12.871zm61.978 14.84l-22.785-20.2-.823 48.172-4.732-3.943.793-45.463-1.321.253-.882 50.33-4.654-3.958.882-50.33 10.574-2.025 18.411 16.03.326-19.618 10.884-2.085-.971 55.196-4.654-3.958.794-45.463-1.4.268-.442 26.794z" fill="url(#paint0_linear)"/></g><path fill-rule="evenodd" clip-rule="evenodd" d="M59.739 151.812l-22.785-20.2-.824 48.173-4.73-3.943.792-45.464-1.321.253-.883 50.33-4.653-3.958.882-50.33 10.574-2.025 18.411 16.03.326-19.618 10.884-2.085-.97 55.196-4.654-3.958.793-45.463-1.4.268-.442 26.794zm22.011-34.263l41.362-7.922-35.163 36.068.49 17.614 31.876-6.105-4.754 5.759-31.876 6.105-.002-47.04-1.4.268-.325 19.617-4.831 5.775.448-25.127 4.175-5.012zm27.823-.48l-21.148 4.05-.316 18.027c7.451-7.628 13.872-14.343 21.464-22.077zm48.284 38.768l-16.793 3.216-17.516-15.168.344-17.475L142 104.499l16.793-3.216 17.501 15.091-.345 17.476-18.092 21.987zm-.941-49.345l-13.062 2.501-15.293 18.59-.26 13.404 14.561 12.872 2.255-.432-15.119-13.242.1-6.855 21.083 18.936 4.743-.908 15.293-18.59.26-13.405-14.561-12.871zm61.978 14.84l-22.785-20.2-.823 48.172-4.732-3.943.793-45.463-1.321.253-.882 50.33-4.654-3.958.882-50.33 10.574-2.025 18.411 16.03.326-19.618 10.884-2.085-.971 55.196-4.654-3.958.794-45.463-1.4.268-.442 26.794z" fill="#fff"/><path fill-rule="evenodd" clip-rule="evenodd" d="M59.739 151.812l-22.785-20.2-.824 48.173-4.73-3.943.792-45.464-1.321.253-.883 50.33-4.653-3.958.882-50.33 10.574-2.025 18.411 16.03.326-19.618 10.884-2.085-.97 55.196-4.654-3.958.793-45.463-1.4.268-.442 26.794zm22.011-34.263l41.362-7.922-35.163 36.068.49 17.614 31.876-6.105-4.754 5.759-31.876 6.105-.002-47.04-1.4.268-.325 19.617-4.831 5.775.448-25.127 4.175-5.012zm27.823-.48l-21.148 4.05-.316 18.027c7.451-7.628 13.872-14.343 21.464-22.077zm48.284 38.768l-16.793 3.216-17.516-15.168.344-17.475L142 104.499l16.793-3.216 17.501 15.091-.345 17.476-18.092 21.987zm-.941-49.345l-13.062 2.501-15.293 18.59-.26 13.404 14.561 12.872 2.255-.432-15.119-13.242.1-6.855 21.083 18.936 4.743-.908 15.293-18.59.26-13.405-14.561-12.871zm61.978 14.84l-22.785-20.2-.823 48.172-4.732-3.943.793-45.463-1.321.253-.882 50.33-4.654-3.958.882-50.33 10.574-2.025 18.411 16.03.326-19.618 10.884-2.085-.971 55.196-4.654-3.958.794-45.463-1.4.268-.442 26.794z" fill="url(#paint1_linear)"/><g filter="url(#filter1_f)" fill-rule="evenodd" clip-rule="evenodd"><path d="M59.894 68.68l-.663 35.599 22.782-4.363-3.405 4.126-19.774 3.787-2.969-2.45.569-32.564-.947.181-.663 37.65-3.505 4.202.74-41.65 3.046-3.602 4.79-.917zm43.525 30.61l-12.028 2.303-12.546-10.864.247-12.517 12.97-15.694 12.028-2.303 12.535 10.809-.247 12.517-12.959 15.749zm-.673-35.345l-9.356 1.792-10.954 13.315-.186 9.601 10.43 9.22 1.615-.31-10.83-9.484.072-4.91 15.101 13.563 3.397-.65 10.954-13.316.187-9.601-10.43-9.22zm48.972 4.116l-10.484 12.77 10.43 9.22-4.622.884-10.475-9.154 11.762-14.494.004-.855-10.485-9.209-1.504.288 10.807 9.375-4.455.853-10.751-9.386-.836.16-.631 36.05-3.389-2.824.568-32.564-.947.18-.692 38.966-3.461 4.136.82-45.936 15.927-3.05 12.479 10.82-.065 3.77zM141.25 92.045l-9.135-7.93.072-4.911 13.518 11.987-4.455.854zm21.293-7.096l.949-31.871-.947.181-.949 31.871-3.461 4.136 1.021-38.831 18.921-3.624 13.271 12.75-.176 9.656-12.903 15.738-12.758 2.443-2.968-2.45zm25.4-23.313l-10.374-9.23-1.671.32 10.829 9.485-.072 4.91-15.101-13.563-5.017.96-.572 29.32 10.92-2.091 10.898-13.304.16-6.807z" fill="#fff"/><path d="M59.894 68.68l-.663 35.599 22.782-4.363-3.405 4.126-19.774 3.787-2.969-2.45.569-32.564-.947.181-.663 37.65-3.505 4.202.74-41.65 3.046-3.602 4.79-.917zm43.525 30.61l-12.028 2.303-12.546-10.864.247-12.517 12.97-15.694 12.028-2.303 12.535 10.809-.247 12.517-12.959 15.749zm-.673-35.345l-9.356 1.792-10.954 13.315-.186 9.601 10.43 9.22 1.615-.31-10.83-9.484.072-4.91 15.101 13.563 3.397-.65 10.954-13.316.187-9.601-10.43-9.22zm48.972 4.116l-10.484 12.77 10.43 9.22-4.622.884-10.475-9.154 11.762-14.494.004-.855-10.485-9.209-1.504.288 10.807 9.375-4.455.853-10.751-9.386-.836.16-.631 36.05-3.389-2.824.568-32.564-.947.18-.692 38.966-3.461 4.136.82-45.936 15.927-3.05 12.479 10.82-.065 3.77zM141.25 92.045l-9.135-7.93.072-4.911 13.518 11.987-4.455.854zm21.293-7.096l.949-31.871-.947.181-.949 31.871-3.461 4.136 1.021-38.831 18.921-3.624 13.271 12.75-.176 9.656-12.903 15.738-12.758 2.443-2.968-2.45zm25.4-23.313l-10.374-9.23-1.671.32 10.829 9.485-.072 4.91-15.101-13.563-5.017.96-.572 29.32 10.92-2.091 10.898-13.304.16-6.807z" fill="url(#paint2_linear)"/></g><path fill-rule="evenodd" clip-rule="evenodd" d="M59.894 68.68l-.663 35.599 22.782-4.363-3.405 4.126-19.774 3.787-2.969-2.45.569-32.564-.947.181-.663 37.65-3.505 4.202.74-41.65 3.046-3.602 4.79-.917zm43.525 30.61l-12.028 2.303-12.546-10.864.247-12.517 12.97-15.694 12.028-2.303 12.535 10.809-.247 12.517-12.959 15.749zm-.673-35.345l-9.356 1.792-10.954 13.315-.186 9.601 10.43 9.22 1.615-.31-10.83-9.484.072-4.91 15.101 13.563 3.397-.65 10.954-13.316.187-9.601-10.43-9.22zm48.972 4.116l-10.484 12.77 10.43 9.22-4.622.884-10.475-9.154 11.762-14.494.004-.855-10.485-9.209-1.504.288 10.807 9.375-4.455.853-10.751-9.386-.836.16-.631 36.05-3.389-2.824.568-32.564-.947.18-.692 38.966-3.461 4.136.82-45.936 15.927-3.05 12.479 10.82-.065 3.77zM141.25 92.045l-9.135-7.93.072-4.911 13.518 11.987-4.455.854zm21.293-7.096l.949-31.871-.947.181-.949 31.871-3.461 4.136 1.021-38.831 18.921-3.624 13.271 12.75-.176 9.656-12.903 15.738-12.758 2.443-2.968-2.45zm25.4-23.313l-10.374-9.23-1.671.32 10.829 9.485-.072 4.91-15.101-13.563-5.017.96-.572 29.32 10.92-2.091 10.898-13.304.16-6.807z" fill="#fff"/><path fill-rule="evenodd" clip-rule="evenodd" d="M59.894 68.68l-.663 35.599 22.782-4.363-3.405 4.126-19.774 3.787-2.969-2.45.569-32.564-.947.181-.663 37.65-3.505 4.202.74-41.65 3.046-3.602 4.79-.917zm43.525 30.61l-12.028 2.303-12.546-10.864.247-12.517 12.97-15.694 12.028-2.303 12.535 10.809-.247 12.517-12.959 15.749zm-.673-35.345l-9.356 1.792-10.954 13.315-.186 9.601 10.43 9.22 1.615-.31-10.83-9.484.072-4.91 15.101 13.563 3.397-.65 10.954-13.316.187-9.601-10.43-9.22zm48.972 4.116l-10.484 12.77 10.43 9.22-4.622.884-10.475-9.154 11.762-14.494.004-.855-10.485-9.209-1.504.288 10.807 9.375-4.455.853-10.751-9.386-.836.16-.631 36.05-3.389-2.824.568-32.564-.947.18-.692 38.966-3.461 4.136.82-45.936 15.927-3.05 12.479 10.82-.065 3.77zM141.25 92.045l-9.135-7.93.072-4.911 13.518 11.987-4.455.854zm21.293-7.096l.949-31.871-.947.181-.949 31.871-3.461 4.136 1.021-38.831 18.921-3.624 13.271 12.75-.176 9.656-12.903 15.738-12.758 2.443-2.968-2.45zm25.4-23.313l-10.374-9.23-1.671.32 10.829 9.485-.072 4.91-15.101-13.563-5.017.96-.572 29.32 10.92-2.091 10.898-13.304.16-6.807z" fill="url(#paint3_linear)"/><defs><filter id="filter0_f" x=".87" y="64.031" width="249.161" height="141.395" filterUnits="userSpaceOnUse" color-interpolation-filters="sRGB"><feFlood flood-opacity="0" result="BackgroundImageFix"/><feBlend in="SourceGraphic" in2="BackgroundImageFix" result="shape"/><feGaussianBlur stdDeviation="12.232" result="effect1_foregroundBlur"/></filter><filter id="filter1_f" x="26.854" y="22.347" width="188.958" height="116.966" filterUnits="userSpaceOnUse" color-interpolation-filters="sRGB"><feFlood flood-opacity="0" result="BackgroundImageFix"/><feBlend in="SourceGraphic" in2="BackgroundImageFix" result="shape"/><feGaussianBlur stdDeviation="12.232" result="effect1_foregroundBlur"/></filter><linearGradient id="paint0_linear" x1="204.321" y1="116.374" x2="196.947" y2="77.87" gradientUnits="userSpaceOnUse"><stop stop-color="#61FFFF"/><stop offset="1" stop-color="#fff" stop-opacity=".01"/></linearGradient><linearGradient id="paint1_linear" x1="204.321" y1="116.374" x2="196.947" y2="77.87" gradientUnits="userSpaceOnUse"><stop stop-color="#61FFFF"/><stop offset="1" stop-color="#fff" stop-opacity=".01"/></linearGradient><linearGradient id="paint2_linear" x1="56.63" y1="85.565" x2="63.844" y2="123.237" gradientUnits="userSpaceOnUse"><stop stop-color="#FF3AFF"/><stop offset="1" stop-color="#fff"/></linearGradient><linearGradient id="paint3_linear" x1="56.63" y1="85.565" x2="63.844" y2="123.237" gradientUnits="userSpaceOnUse"><stop stop-color="#FF3AFF"/><stop offset="1" stop-color="#fff"/></linearGradient></defs></svg>