<svg width="240" height="240" fill="none" xmlns="http://www.w3.org/2000/svg"><g filter="url(#filter0_f)" fill-rule="evenodd" clip-rule="evenodd" fill="#FFEDBD"><path d="M21.61 104.013v34.659h2.056v-30.225l14.514 14.39 14.47-14.39v30.225h2.053v-34.659L38.18 120.155l-16.57-16.142zM90.567 129.13l4.697 9.542h2.36l-4.748-9.542h-2.309zM80.385 108.292l8.501 17.335h2.248l-10.749-21.614-11.777 21.614h2.343l9.434-17.335zM61.504 138.672h2.41l5.174-9.542H66.7l-5.197 9.542zM105.555 138.672h17.546v-1.908h-15.497V121.91h10.775v-1.907h-10.775V106.59h15.497v-1.96h-17.546v34.042zM149.06 135.01l-16.469-30.38h-2.413l18.882 34.712 17.238-34.712h-2.361l-14.877 30.38zM175.527 138.672h2.054V104.63h-2.054v34.042zM204.768 108.292l8.5 17.335h2.255l-10.755-21.614-11.774 21.614h2.342l9.432-17.335zM219.645 138.672h2.365l-4.745-9.542h-2.313l4.693 9.542zM185.893 138.672h2.408l5.171-9.542h-2.387l-5.192 9.542z"/></g><path fill-rule="evenodd" clip-rule="evenodd" d="M21.61 104.013v34.659h2.056v-30.225l14.514 14.39 14.47-14.39v30.225h2.053v-34.659L38.18 120.155l-16.57-16.142zM90.567 129.13l4.697 9.542h2.36l-4.748-9.542h-2.309zM80.385 108.292l8.501 17.335h2.248l-10.749-21.614-11.777 21.614h2.343l9.434-17.335zM61.504 138.672h2.41l5.174-9.542H66.7l-5.197 9.542zM105.555 138.672h17.546v-1.908h-15.497V121.91h10.775v-1.907h-10.775V106.59h15.497v-1.96h-17.546v34.042zM149.06 135.01l-16.469-30.38h-2.413l18.882 34.712 17.238-34.712h-2.361l-14.877 30.38zM175.527 138.672h2.054V104.63h-2.054v34.042zM204.768 108.292l8.5 17.335h2.255l-10.755-21.614-11.774 21.614h2.342l9.432-17.335zM219.645 138.672h2.365l-4.745-9.542h-2.313l4.693 9.542zM185.893 138.672h2.408l5.171-9.542h-2.387l-5.192 9.542z" fill="#FFEDBD"/><defs><filter id="filter0_f" x="6" y="88" width="233" height="68" filterUnits="userSpaceOnUse" color-interpolation-filters="sRGB"><feFlood flood-opacity="0" result="BackgroundImageFix"/><feBlend in="SourceGraphic" in2="BackgroundImageFix" result="shape"/><feGaussianBlur stdDeviation="7.5" result="effect1_foregroundBlur"/></filter></defs></svg>