<svg width="240" height="240" viewBox="0 0 240 240" fill="none" xmlns="http://www.w3.org/2000/svg">
<g filter="url(#filter0_d)">
<path d="M95.2734 154.912L181.002 123.71C183.225 122.9 185.683 124.047 186.493 126.27V126.27C187.302 128.493 186.155 130.951 183.932 131.761L98.2038 162.963L95.2734 154.912Z" stroke="white" stroke-width="3"/>
<g filter="url(#filter1_d)">
<path d="M75.6648 166.607C73.8419 161.599 76.7815 156.119 81.9623 154.867L93.9738 151.965L99.1019 166.055L88.0353 171.553C83.2621 173.924 77.4877 171.616 75.6648 166.607V166.607Z" stroke="#FF483D" stroke-width="3"/>
</g>
<g filter="url(#filter2_d)">
<path d="M83.7145 143.532L82.8509 142.305C82.3162 142.682 82.0871 143.361 82.2846 143.984C82.482 144.608 83.0606 145.032 83.7145 145.032V143.532ZM69.5512 143.452L69.1887 144.908C69.8864 145.081 70.6093 144.736 70.9119 144.083C71.2145 143.431 71.0117 142.656 70.4284 142.235L69.5512 143.452ZM63.3231 94.6638L64.3837 95.7245C64.9356 95.1726 64.9721 94.2898 64.4676 93.6943C63.9631 93.0987 63.0863 92.9896 62.4512 93.4432L63.3231 94.6638ZM61.6571 106.881L60.2951 107.509C60.4749 107.899 60.8127 108.193 61.2233 108.317C61.6339 108.441 62.0779 108.383 62.4432 108.158L61.6571 106.881ZM77.206 60.2343L78.7008 60.1097C78.6347 59.3168 77.961 58.7135 77.1657 58.7348C76.3703 58.7562 75.73 59.3949 75.7066 60.1902L77.206 60.2343ZM87.3891 81.7428L88.628 80.8972L87.3891 81.7428ZM99.4185 102.438L100.797 101.847L99.4185 102.438ZM84.4251 143.532V145.032C84.5594 145.032 84.6932 145.013 84.8228 144.978L84.4251 143.532ZM87.4054 133.536C87.4054 137.159 85.6087 140.363 82.8509 142.305L84.5782 144.758C88.0997 142.278 90.4054 138.176 90.4054 133.536H87.4054ZM76.6885 122.819C82.6073 122.819 87.4054 127.617 87.4054 133.536H90.4054C90.4054 125.96 84.2642 119.819 76.6885 119.819V122.819ZM65.9716 133.536C65.9716 127.617 70.7697 122.819 76.6885 122.819V119.819C69.1129 119.819 62.9716 125.96 62.9716 133.536H65.9716ZM70.4284 142.235C67.7259 140.287 65.9716 137.116 65.9716 133.536H62.9716C62.9716 138.121 65.2229 142.181 68.6739 144.669L70.4284 142.235ZM69.9136 141.997C62.229 140.083 57.4916 136.731 54.7647 132.802C52.0325 128.866 51.1936 124.171 51.651 119.344C52.1093 114.509 53.8662 109.613 56.23 105.412C58.601 101.198 61.5177 97.7968 64.195 95.8844L62.4512 93.4432C59.3174 95.6817 56.1334 99.4653 53.6154 103.941C51.0903 108.429 49.17 113.727 48.6644 119.061C48.1579 124.405 49.0682 129.856 52.3001 134.512C55.5372 139.176 60.9784 142.863 69.1887 144.908L69.9136 141.997ZM62.2624 93.6031C60.2846 95.581 57.2955 101.01 60.2951 107.509L63.019 106.252C60.6875 101.201 63.0296 97.0786 64.3837 95.7245L62.2624 93.6031ZM62.4432 108.158C65.6484 106.186 68.1983 102.91 70.2332 99.0652C72.2758 95.2055 73.8595 90.6576 75.0757 85.9904C77.5074 76.6577 78.5177 66.6572 78.7053 60.2784L75.7066 60.1902C75.524 66.3985 74.5351 76.1672 72.1726 85.234C70.9916 89.7665 69.4794 94.0759 67.5816 97.662C65.6761 101.263 63.4409 104.022 60.8709 105.603L62.4432 108.158ZM75.7111 60.3588C76.3758 68.335 81.0421 75.1052 86.1502 82.5885L88.628 80.8972C83.4013 73.2402 79.2872 67.1471 78.7008 60.1097L75.7111 60.3588ZM86.1502 82.5885C90.1609 88.4642 94.556 94.9089 98.04 103.03L100.797 101.847C97.184 93.4255 92.6309 86.7613 88.628 80.8972L86.1502 82.5885ZM98.04 103.03C100.7 109.23 102.413 117.654 100.838 125.176C99.2902 132.57 94.562 139.188 84.0273 142.085L84.8228 144.978C96.5006 141.766 102.009 134.224 103.774 125.791C105.513 117.487 103.616 108.419 100.797 101.847L98.04 103.03ZM84.4251 142.032H83.7145V145.032H84.4251V142.032Z" fill="#FFEDBD"/>
</g>
</g>
<defs>
<filter id="filter0_d" x="33.5332" y="43.7343" width="171.347" height="148.192" filterUnits="userSpaceOnUse" color-interpolation-filters="sRGB">
<feFlood flood-opacity="0" result="BackgroundImageFix"/>
<feColorMatrix in="SourceAlpha" type="matrix" values="0 0 0 0 0 0 0 0 0 0 0 0 0 0 0 0 0 0 127 0"/>
<feOffset/>
<feGaussianBlur stdDeviation="7.5"/>
<feColorMatrix type="matrix" values="0 0 0 0 1 0 0 0 0 1 0 0 0 0 1 0 0 0 0.75 0"/>
<feBlend mode="normal" in2="BackgroundImageFix" result="effect1_dropShadow"/>
<feBlend mode="normal" in="SourceGraphic" in2="effect1_dropShadow" result="shape"/>
</filter>
<filter id="filter1_d" x="55.6865" y="133.691" width="60.8304" height="58.2355" filterUnits="userSpaceOnUse" color-interpolation-filters="sRGB">
<feFlood flood-opacity="0" result="BackgroundImageFix"/>
<feColorMatrix in="SourceAlpha" type="matrix" values="0 0 0 0 0 0 0 0 0 0 0 0 0 0 0 0 0 0 127 0"/>
<feOffset/>
<feGaussianBlur stdDeviation="7.5"/>
<feColorMatrix type="matrix" values="0 0 0 0 1 0 0 0 0 0.282353 0 0 0 0 0.239216 0 0 0 0.75 0"/>
<feBlend mode="normal" in2="BackgroundImageFix" result="effect1_dropShadow"/>
<feBlend mode="normal" in="SourceGraphic" in2="effect1_dropShadow" result="shape"/>
</filter>
<filter id="filter2_d" x="33.5332" y="43.7343" width="85.9079" height="116.297" filterUnits="userSpaceOnUse" color-interpolation-filters="sRGB">
<feFlood flood-opacity="0" result="BackgroundImageFix"/>
<feColorMatrix in="SourceAlpha" type="matrix" values="0 0 0 0 0 0 0 0 0 0 0 0 0 0 0 0 0 0 127 0"/>
<feOffset/>
<feGaussianBlur stdDeviation="7.5"/>
<feColorMatrix type="matrix" values="0 0 0 0 1 0 0 0 0 0.92549 0 0 0 0 0.741176 0 0 0 0.75 0"/>
<feBlend mode="normal" in2="BackgroundImageFix" result="effect1_dropShadow"/>
<feBlend mode="normal" in="SourceGraphic" in2="effect1_dropShadow" result="shape"/>
</filter>
</defs>
</svg>
