<svg width="240" height="240" fill="none" xmlns="http://www.w3.org/2000/svg"><g filter="url(#filter0_f)"><path d="M95.074 154.738l85.895-31.263a4.284 4.284 0 0 1 5.491 2.561v0a4.283 4.283 0 0 1-2.561 5.49l-85.895 31.263-2.93-8.051z" stroke="#fff" stroke-width="3"/><path d="M75.632 166.373c-1.823-5.009 1.116-10.489 6.297-11.74l12.012-2.902 5.128 14.089-11.067 5.498c-4.773 2.372-10.547.063-12.37-4.945v0z" stroke="#FF483D" stroke-width="3"/><path d="M83.681 143.297l-.863-1.226a1.5 1.5 0 0 0 .863 2.726v-1.5zm-14.163-.079l-.362 1.455a1.5 1.5 0 0 0 1.24-2.672l-.878 1.217zM63.29 94.43l1.06 1.06a1.5 1.5 0 0 0-1.932-2.281l.872 1.22zm-1.666 12.216l-1.362.629a1.5 1.5 0 0 0 2.148.649l-.786-1.278zM77.173 60l1.495-.125a1.5 1.5 0 0 0-2.995.08l1.5.045zm10.183 21.508l1.239-.845-1.24.846zm12.03 20.696l1.378-.591-1.379.591zm-14.994 41.093v1.5c.134 0 .268-.018.398-.053l-.398-1.447zm2.98-9.995c0 3.623-1.796 6.827-4.554 8.769l1.727 2.453a13.703 13.703 0 0 0 5.827-11.222h-3zm-10.717-10.717c5.92 0 10.717 4.798 10.717 10.717h3c0-7.576-6.141-13.717-13.717-13.717v3zm-10.717 10.717c0-5.919 4.799-10.717 10.717-10.717v-3c-7.575 0-13.717 6.141-13.717 13.717h3zm4.457 8.699a10.7 10.7 0 0 1-4.457-8.699h-3c0 4.585 2.252 8.644 5.703 11.133l1.754-2.434zm-.515-.239c-7.684-1.913-12.422-5.266-15.148-9.194-2.733-3.937-3.572-8.632-3.114-13.458.458-4.835 2.215-9.731 4.579-13.933 2.37-4.214 5.287-7.615 7.965-9.527l-1.744-2.441c-3.134 2.238-6.318 6.022-8.836 10.497-2.525 4.488-4.445 9.786-4.95 15.121-.507 5.344.403 10.795 3.635 15.451 3.237 4.664 8.678 8.351 16.889 10.395l.724-2.911zm-7.65-48.393c-1.979 1.978-4.968 7.407-1.968 13.906l2.724-1.257c-2.332-5.052.01-9.174 1.364-10.528l-2.12-2.121zm.18 14.555c3.205-1.973 5.755-5.248 7.79-9.093 2.043-3.86 3.626-8.408 4.842-13.075 2.432-9.333 3.442-19.333 3.63-25.712l-2.999-.088C75.491 66.164 74.502 75.933 72.14 85c-1.18 4.532-2.693 8.842-4.59 12.428-1.906 3.6-4.141 6.359-6.711 7.941l1.572 2.555zm13.268-47.8c.665 7.977 5.33 14.747 10.439 22.23l2.478-1.691c-5.227-7.657-9.341-13.75-9.927-20.788l-2.99.25zm10.439 22.23c4.01 5.876 8.406 12.32 11.89 20.441l2.757-1.182c-3.613-8.422-8.166-15.086-12.17-20.95l-2.477 1.691zm11.89 20.441c2.66 6.201 4.373 14.625 2.798 22.147-1.548 7.394-6.276 14.012-16.81 16.909l.795 2.893c11.677-3.212 17.186-10.754 18.951-19.187 1.739-8.304-.158-17.373-2.977-23.944l-2.757 1.182zm-13.615 39.002h-.71v3h.71v-3z" fill="#FFEDBD"/></g><path d="M95.074 154.738l85.895-31.263a4.284 4.284 0 0 1 5.491 2.561v0a4.283 4.283 0 0 1-2.561 5.49l-85.895 31.263-2.93-8.051z" stroke="#fff" stroke-width="3"/><path d="M75.632 166.373c-1.823-5.009 1.116-10.489 6.297-11.74l12.012-2.902 5.128 14.089-11.067 5.498c-4.773 2.372-10.547.063-12.37-4.945v0z" stroke="#FF483D" stroke-width="3"/><path d="M83.681 143.297l-.863-1.226a1.5 1.5 0 0 0 .863 2.726v-1.5zm-14.163-.079l-.362 1.455a1.5 1.5 0 0 0 1.24-2.672l-.878 1.217zM63.29 94.43l1.06 1.06a1.5 1.5 0 0 0-1.932-2.281l.872 1.22zm-1.666 12.216l-1.362.629a1.5 1.5 0 0 0 2.148.649l-.786-1.278zM77.173 60l1.495-.125a1.5 1.5 0 0 0-2.995.08l1.5.045zm10.183 21.508l1.239-.845-1.24.846zm12.03 20.696l1.378-.591-1.379.591zm-14.994 41.093v1.5c.134 0 .268-.018.398-.053l-.398-1.447zm2.98-9.995c0 3.623-1.796 6.827-4.554 8.769l1.727 2.453a13.703 13.703 0 0 0 5.827-11.222h-3zm-10.717-10.717c5.92 0 10.717 4.798 10.717 10.717h3c0-7.576-6.141-13.717-13.717-13.717v3zm-10.717 10.717c0-5.919 4.799-10.717 10.717-10.717v-3c-7.575 0-13.717 6.141-13.717 13.717h3zm4.457 8.699a10.7 10.7 0 0 1-4.457-8.699h-3c0 4.585 2.252 8.644 5.703 11.133l1.754-2.434zm-.515-.239c-7.684-1.913-12.422-5.266-15.148-9.194-2.733-3.937-3.572-8.632-3.114-13.458.458-4.835 2.215-9.731 4.579-13.933 2.37-4.214 5.287-7.615 7.965-9.527l-1.744-2.441c-3.134 2.238-6.318 6.022-8.836 10.497-2.525 4.488-4.445 9.786-4.95 15.121-.507 5.344.403 10.795 3.635 15.451 3.237 4.664 8.678 8.351 16.889 10.395l.724-2.911zm-7.65-48.393c-1.979 1.978-4.968 7.407-1.968 13.906l2.724-1.257c-2.332-5.052.01-9.174 1.364-10.528l-2.12-2.121zm.18 14.555c3.205-1.973 5.755-5.248 7.79-9.093 2.043-3.86 3.626-8.408 4.842-13.075 2.432-9.333 3.442-19.333 3.63-25.712l-2.999-.088C75.491 66.164 74.502 75.933 72.14 85c-1.18 4.532-2.693 8.842-4.59 12.428-1.906 3.6-4.141 6.359-6.711 7.941l1.572 2.555zm13.268-47.8c.665 7.977 5.33 14.747 10.439 22.23l2.478-1.691c-5.227-7.657-9.341-13.75-9.927-20.788l-2.99.25zm10.439 22.23c4.01 5.876 8.406 12.32 11.89 20.441l2.757-1.182c-3.613-8.422-8.166-15.086-12.17-20.95l-2.477 1.691zm11.89 20.441c2.66 6.201 4.373 14.625 2.798 22.147-1.548 7.394-6.276 14.012-16.81 16.909l.795 2.893c11.677-3.212 17.186-10.754 18.951-19.187 1.739-8.304-.158-17.373-2.977-23.944l-2.757 1.182zm-13.615 39.002h-.71v3h.71v-3z" fill="#FFEDBD"/><defs><filter id="filter0_f" x="33.5" y="43.5" width="169.719" height="145.255" filterUnits="userSpaceOnUse" color-interpolation-filters="sRGB"><feFlood flood-opacity="0" result="BackgroundImageFix"/><feBlend in="SourceGraphic" in2="BackgroundImageFix" result="shape"/><feGaussianBlur stdDeviation="7.5" result="effect1_foregroundBlur"/></filter></defs></svg>