<svg width="240" height="240" fill="none" xmlns="http://www.w3.org/2000/svg"><g filter="url(#filter0_f)"><path fill-rule="evenodd" clip-rule="evenodd" d="M171.937 124.421a.905.905 0 01.871.74c.173.932.261 1.886.261 2.835a15.35 15.35 0 01-4.525 10.925 15.35 15.35 0 01-10.925 4.525 15.349 15.349 0 01-10.924-4.525 15.35 15.35 0 01-4.525-10.925c0-4.126 1.607-8.006 4.525-10.924a15.349 15.349 0 0110.924-4.525c.95 0 1.904.088 2.836.261a.905.905 0 01.037 1.772 8.745 8.745 0 00-6.816 8.568c0 4.847 3.944 8.791 8.791 8.791a8.746 8.746 0 008.569-6.816.902.902 0 01.901-.702zm-27.955 3.575c0 7.521 6.118 13.639 13.638 13.639 7.135 0 13.008-5.508 13.592-12.494a10.649 10.649 0 01-2.093 2.263 10.623 10.623 0 01-6.651 2.345c-5.845 0-10.601-4.755-10.601-10.601 0-2.413.833-4.775 2.345-6.65a10.654 10.654 0 012.264-2.093c-6.987.583-12.494 6.456-12.494 13.591z" fill="#fff"/><path d="M172.808 125.161l.246-.046-.246.046zm-.871-.74l-.005.249v.001l.005-.25zm-3.393 14.5l.176.176-.176-.176zm-21.849 0l-.177.176.177-.176zm0-21.849l-.177-.177.177.177zm13.76-4.264l.046-.246-.046.246zm.74.871l.25-.005-.25.005zm-.703.901l-.055-.244.055.244zm10.544 10.543l.243.056-.243-.056zm.176 4.018l.249.02.078-.94-.533.778.206.142zm-2.093 2.263l.157.195-.157-.195zm-14.907-14.906l.195.157-.195-.157zm2.264-2.093l.141.206.779-.534-.941.079.021.249zm16.578 10.71a1.155 1.155 0 00-1.112-.944l-.01.5c.31.006.573.23.63.535l.492-.091zm.265 2.881c0-.964-.089-1.933-.265-2.881l-.492.091c.17.918.257 1.857.257 2.79h.5zm-4.599 11.101a15.597 15.597 0 004.599-11.101h-.5c0 4.061-1.581 7.877-4.452 10.748l.353.353zm-11.101 4.599c4.193 0 8.136-1.634 11.101-4.599l-.353-.353a15.099 15.099 0 01-10.748 4.452v.5zm-11.101-4.599a15.598 15.598 0 0011.101 4.599v-.5c-4.06 0-7.876-1.581-10.747-4.452l-.354.353zm-4.598-11.101c0 4.193 1.633 8.137 4.598 11.101l.354-.353a15.099 15.099 0 01-4.452-10.748h-.5zm4.598-11.101a15.597 15.597 0 00-4.598 11.101h.5c0-4.06 1.581-7.876 4.452-10.747l-.354-.354zm11.101-4.598a15.597 15.597 0 00-11.101 4.598l.354.354a15.098 15.098 0 0110.747-4.452v-.5zm2.882.265a15.816 15.816 0 00-2.882-.265v.5c.935 0 1.873.086 2.791.257l.091-.492zm.944 1.112a1.155 1.155 0 00-.944-1.112l-.091.492c.305.056.529.32.535.63l.5-.01zm-.897 1.15c.534-.123.908-.603.897-1.15l-.5.01a.654.654 0 01-.508.652l.111.488zm-6.622 8.324a8.494 8.494 0 016.622-8.324l-.111-.488a8.996 8.996 0 00-7.011 8.812h.5zm8.541 8.541c-4.709 0-8.541-3.832-8.541-8.541h-.5c0 4.986 4.056 9.041 9.041 9.041v-.5zm8.325-6.622a8.495 8.495 0 01-8.325 6.622v.5a8.994 8.994 0 008.812-7.01l-.487-.112zm1.15-.896a1.152 1.152 0 00-1.15.896l.487.112a.655.655 0 01.653-.509l.01-.499zm-14.322 17.214c-7.382 0-13.388-6.006-13.388-13.389h-.5c0 7.659 6.23 13.889 13.888 13.889v-.5zm13.343-12.265c-.573 6.858-6.339 12.265-13.343 12.265v.5c7.267 0 13.247-5.608 13.841-12.724l-.498-.041zm-1.687 2.479a10.925 10.925 0 002.142-2.317l-.412-.283a10.409 10.409 0 01-2.044 2.211l.314.389zm-6.808 2.4a10.88 10.88 0 006.808-2.4l-.314-.389a10.38 10.38 0 01-6.494 2.289v.5zm-10.851-10.851c0 5.984 4.868 10.851 10.851 10.851v-.5c-5.707 0-10.351-4.643-10.351-10.351h-.5zm2.401-6.807a10.874 10.874 0 00-2.401 6.807h.5c0-2.356.813-4.663 2.29-6.493l-.389-.314zm2.317-2.142a10.826 10.826 0 00-2.317 2.142l.389.314a10.404 10.404 0 012.21-2.044l-.282-.412zm-12.103 13.797c0-7.003 5.406-12.769 12.265-13.342l-.042-.498c-7.115.594-12.723 6.574-12.723 13.84h.5z" fill="#61FFFF"/><path d="M83.076 86.486v14.408h2.119v-10.1l5.261 4.838 5.333-4.838v10.1h2.118V86.486l-7.45 6.64-7.381-6.64zM100.671 93.831a7.205 7.205 0 007.24 7.24 7.227 7.227 0 007.239-7.24c0-3.99-3.249-7.239-7.239-7.239a7.227 7.227 0 00-7.24 7.24zm2.119 0c0-2.895 2.225-5.19 5.121-5.19 2.895 0 5.12 2.295 5.12 5.19 0 2.896-2.225 5.227-5.12 5.227-2.896 0-5.121-2.331-5.121-5.227zM123.128 100.894V88.711h5.403v-1.942h-12.889v1.942h5.367v12.183h2.119zM132.168 98.952v-4.414h7.663v-1.943h-7.663v-3.884h10.841v-1.942h-12.96v14.125h12.96v-1.942h-10.841zM147.884 98.952V86.769h-2.119v14.125h12.96v-1.942h-10.841zM18.365 111.982v31.464h3.263v-24.472l12.352 11.653 12.353-11.653v24.472h3.263v-31.464l-15.615 14.59-15.616-14.59zM60.352 112.681h-3.263v30.765h3.263v-30.765zM67.863 143.446h3.217c8.763 0 15.895-6.619 15.895-15.382 0-8.764-7.132-15.383-15.895-15.383h-3.217v30.765zm3.263-27.688c6.992 0 12.586 5.314 12.586 12.306 0 7.038-5.594 12.352-12.586 12.352v-24.658zM96.194 118.834l27.968 25.311v-31.464h-3.263v24.612l-27.968-25.264v31.417h3.263v-24.612zM134.918 112.681h-3.263v30.765h3.263v-30.765zM194.203 143.446h3.263v-30.765h-3.263v13.285h-11.886v-13.285h-3.263v30.765h3.263v-14.45h11.886v14.45zM213.703 143.446v-27.735H222v-3.03h-19.81v3.03h8.25v27.735h3.263z" fill="#fff"/></g><path fill-rule="evenodd" clip-rule="evenodd" d="M171.937 124.421a.905.905 0 01.871.74c.173.932.261 1.886.261 2.835a15.35 15.35 0 01-4.525 10.925 15.35 15.35 0 01-10.925 4.525 15.349 15.349 0 01-10.924-4.525 15.35 15.35 0 01-4.525-10.925c0-4.126 1.607-8.006 4.525-10.924a15.349 15.349 0 0110.924-4.525c.95 0 1.904.088 2.836.261a.905.905 0 01.037 1.772 8.745 8.745 0 00-6.816 8.568c0 4.847 3.944 8.791 8.791 8.791a8.746 8.746 0 008.569-6.816.902.902 0 01.901-.702zm-27.955 3.575c0 7.521 6.118 13.639 13.638 13.639 7.135 0 13.008-5.508 13.592-12.494a10.649 10.649 0 01-2.093 2.263 10.623 10.623 0 01-6.651 2.345c-5.845 0-10.601-4.755-10.601-10.601 0-2.413.833-4.775 2.345-6.65a10.654 10.654 0 012.264-2.093c-6.987.583-12.494 6.456-12.494 13.591z" fill="#fff"/><path d="M172.808 125.161l.246-.046-.246.046zm-.871-.74l-.005.249v.001l.005-.25zm-3.393 14.5l.176.176-.176-.176zm-21.849 0l-.177.176.177-.176zm0-21.849l-.177-.177.177.177zm13.76-4.264l.046-.246-.046.246zm.74.871l.25-.005-.25.005zm-.703.901l-.055-.244.055.244zm10.544 10.543l.243.056-.243-.056zm.176 4.018l.249.02.078-.94-.533.778.206.142zm-2.093 2.263l.157.195-.157-.195zm-14.907-14.906l.195.157-.195-.157zm2.264-2.093l.141.206.779-.534-.941.079.021.249zm16.578 10.71a1.155 1.155 0 00-1.112-.944l-.01.5c.31.006.573.23.63.535l.492-.091zm.265 2.881c0-.964-.089-1.933-.265-2.881l-.492.091c.17.918.257 1.857.257 2.79h.5zm-4.599 11.101a15.597 15.597 0 004.599-11.101h-.5c0 4.061-1.581 7.877-4.452 10.748l.353.353zm-11.101 4.599c4.193 0 8.136-1.634 11.101-4.599l-.353-.353a15.099 15.099 0 01-10.748 4.452v.5zm-11.101-4.599a15.598 15.598 0 0011.101 4.599v-.5c-4.06 0-7.876-1.581-10.747-4.452l-.354.353zm-4.598-11.101c0 4.193 1.633 8.137 4.598 11.101l.354-.353a15.099 15.099 0 01-4.452-10.748h-.5zm4.598-11.101a15.597 15.597 0 00-4.598 11.101h.5c0-4.06 1.581-7.876 4.452-10.747l-.354-.354zm11.101-4.598a15.597 15.597 0 00-11.101 4.598l.354.354a15.098 15.098 0 0110.747-4.452v-.5zm2.882.265a15.816 15.816 0 00-2.882-.265v.5c.935 0 1.873.086 2.791.257l.091-.492zm.944 1.112a1.155 1.155 0 00-.944-1.112l-.091.492c.305.056.529.32.535.63l.5-.01zm-.897 1.15c.534-.123.908-.603.897-1.15l-.5.01a.654.654 0 01-.508.652l.111.488zm-6.622 8.324a8.494 8.494 0 016.622-8.324l-.111-.488a8.996 8.996 0 00-7.011 8.812h.5zm8.541 8.541c-4.709 0-8.541-3.832-8.541-8.541h-.5c0 4.986 4.056 9.041 9.041 9.041v-.5zm8.325-6.622a8.495 8.495 0 01-8.325 6.622v.5a8.994 8.994 0 008.812-7.01l-.487-.112zm1.15-.896a1.152 1.152 0 00-1.15.896l.487.112a.655.655 0 01.653-.509l.01-.499zm-14.322 17.214c-7.382 0-13.388-6.006-13.388-13.389h-.5c0 7.659 6.23 13.889 13.888 13.889v-.5zm13.343-12.265c-.573 6.858-6.339 12.265-13.343 12.265v.5c7.267 0 13.247-5.608 13.841-12.724l-.498-.041zm-1.687 2.479a10.925 10.925 0 002.142-2.317l-.412-.283a10.409 10.409 0 01-2.044 2.211l.314.389zm-6.808 2.4a10.88 10.88 0 006.808-2.4l-.314-.389a10.38 10.38 0 01-6.494 2.289v.5zm-10.851-10.851c0 5.984 4.868 10.851 10.851 10.851v-.5c-5.707 0-10.351-4.643-10.351-10.351h-.5zm2.401-6.807a10.874 10.874 0 00-2.401 6.807h.5c0-2.356.813-4.663 2.29-6.493l-.389-.314zm2.317-2.142a10.826 10.826 0 00-2.317 2.142l.389.314a10.404 10.404 0 012.21-2.044l-.282-.412zm-12.103 13.797c0-7.003 5.406-12.769 12.265-13.342l-.042-.498c-7.115.594-12.723 6.574-12.723 13.84h.5z" fill="#61FFFF"/><path d="M83.076 86.486v14.408h2.119v-10.1l5.261 4.838 5.333-4.838v10.1h2.118V86.486l-7.45 6.64-7.381-6.64zM100.671 93.831a7.205 7.205 0 007.24 7.24 7.227 7.227 0 007.239-7.24c0-3.99-3.249-7.239-7.239-7.239a7.227 7.227 0 00-7.24 7.24zm2.119 0c0-2.895 2.225-5.19 5.121-5.19 2.895 0 5.12 2.295 5.12 5.19 0 2.896-2.225 5.227-5.12 5.227-2.896 0-5.121-2.331-5.121-5.227zM123.128 100.894V88.711h5.403v-1.942h-12.889v1.942h5.367v12.183h2.119zM132.168 98.952v-4.414h7.663v-1.943h-7.663v-3.884h10.841v-1.942h-12.96v14.125h12.96v-1.942h-10.841zM147.884 98.952V86.769h-2.119v14.125h12.96v-1.942h-10.841zM18.365 111.982v31.464h3.263v-24.472l12.352 11.653 12.353-11.653v24.472h3.263v-31.464l-15.615 14.59-15.616-14.59zM60.352 112.681h-3.263v30.765h3.263v-30.765zM67.863 143.446h3.217c8.763 0 15.895-6.619 15.895-15.382 0-8.764-7.132-15.383-15.895-15.383h-3.217v30.765zm3.263-27.688c6.992 0 12.586 5.314 12.586 12.306 0 7.038-5.594 12.352-12.586 12.352v-24.658zM96.194 118.834l27.968 25.311v-31.464h-3.263v24.612l-27.968-25.264v31.417h3.263v-24.612zM134.918 112.681h-3.263v30.765h3.263v-30.765zM194.203 143.446h3.263v-30.765h-3.263v13.285h-11.886v-13.285h-3.263v30.765h3.263v-14.45h11.886v14.45zM213.703 143.446v-27.735H222v-3.03h-19.81v3.03h8.25v27.735h3.263z" fill="#fff"/><defs><filter id="filter0_f" x="11.365" y="79.486" width="217.635" height="71.659" filterUnits="userSpaceOnUse" color-interpolation-filters="sRGB"><feFlood flood-opacity="0" result="BackgroundImageFix"/><feBlend in="SourceGraphic" in2="BackgroundImageFix" result="shape"/><feGaussianBlur stdDeviation="3.5" result="effect1_foregroundBlur"/></filter></defs></svg>