<svg width="240" height="240" viewBox="0 0 240 240" fill="none" xmlns="http://www.w3.org/2000/svg">
<g clip-path="url(#clip0)">
<g opacity="0.15" filter="url(#filter0_f)">
<rect x="195.32" y="118.363" width="79.7609" height="130.453" transform="rotate(113.187 195.32 118.363)" fill="#FFEDBD"/>
</g>
<g filter="url(#filter1_d)">
<path d="M159.458 160.835C160.649 153.483 162.496 143.874 164.932 133.369M197.731 53.8976C184.596 66.2145 174.012 97.0651 167.062 124.57M167.062 124.57L153.183 120.05C156.849 93.0642 176.327 36.7394 224.916 27.3268C213.726 48.411 190.279 98.4888 186.006 130.126L164.932 133.369M167.062 124.57C166.309 127.552 165.598 130.494 164.932 133.369" stroke="white" stroke-width="3"/>
<path fill-rule="evenodd" clip-rule="evenodd" d="M158.193 98.2994L48.227 115.22L59.7853 190.336L187.285 170.717L181.154 130.873L184.119 130.416L190.25 170.261L190.706 173.226L187.741 173.683L60.2415 193.301L57.2764 193.757L56.8202 190.792L45.2619 115.676L44.8057 112.711L47.7708 112.255L159.239 95.1032C158.874 96.1777 158.526 97.2437 158.193 98.2994Z" fill="#FFEDBD"/>
<mask id="path-4-outside-1" maskUnits="userSpaceOnUse" x="70.9486" y="112.3" width="83.9031" height="55.9268" fill="black">
<rect fill="white" x="70.9486" y="112.3" width="83.9031" height="55.9268"/>
<path d="M102.393 129.184C101.816 129.866 101.318 130.627 100.901 131.467C101.707 131.515 102.484 131.657 103.231 131.892C103.99 132.123 104.691 132.457 105.335 132.896C105.99 133.33 106.573 133.88 107.084 134.545C107.601 135.195 108.024 135.968 108.353 136.866C108.632 137.628 108.762 138.401 108.744 139.184C108.732 139.951 108.591 140.696 108.322 141.418C108.059 142.124 107.672 142.787 107.161 143.407C106.657 144.011 106.051 144.526 105.342 144.951C105.896 145.32 106.399 145.772 106.849 146.306C107.306 146.826 107.666 147.444 107.929 148.162C108.036 148.454 108.124 148.816 108.193 149.248C108.259 149.67 108.31 150.121 108.346 150.604C108.394 151.083 108.427 151.573 108.446 152.075C108.471 152.561 108.492 153.018 108.509 153.444C108.536 153.867 108.564 154.238 108.592 154.559C108.62 154.879 108.659 155.106 108.708 155.241C108.828 155.566 109.01 155.786 109.255 155.899C109.515 156.02 109.808 156.021 110.133 155.902C110.728 155.684 111.241 155.35 111.674 154.899C112.111 154.459 112.481 153.942 112.785 153.348C113.104 152.76 113.37 152.116 113.584 151.414C113.794 150.702 113.973 149.975 114.121 149.234C114.281 148.489 114.418 147.752 114.533 147.023C114.655 146.279 114.777 145.572 114.901 144.904L115.696 145.147C115.45 146.662 115.205 148.061 114.963 149.345C114.728 150.614 114.423 151.743 114.048 152.733C113.676 153.734 113.204 154.581 112.631 155.274C112.058 155.967 111.307 156.484 110.376 156.824C109.512 157.141 108.751 157.146 108.092 156.84C107.449 156.542 106.967 155.955 106.646 155.08C106.425 154.475 106.303 153.864 106.281 153.249C106.259 152.634 106.259 152.023 106.279 151.418C106.31 150.809 106.319 150.208 106.305 149.615C106.292 149.022 106.18 148.44 105.971 147.868C105.786 147.363 105.53 146.923 105.201 146.547C104.884 146.167 104.508 145.835 104.073 145.549C103.725 145.676 103.321 145.805 102.86 145.936C102.41 146.062 101.965 146.149 101.524 146.196C101.095 146.238 100.71 146.214 100.371 146.122C100.032 146.03 99.8054 145.826 99.6904 145.512C99.5878 145.232 99.6178 144.967 99.7805 144.716C99.9391 144.455 100.237 144.244 100.675 144.084C101.179 143.899 101.71 143.838 102.267 143.901C102.821 143.953 103.395 144.08 103.99 144.282C104.587 143.898 105.096 143.412 105.518 142.826C105.939 142.239 106.255 141.608 106.465 140.933C106.683 140.243 106.785 139.532 106.771 138.799C106.769 138.062 106.642 137.352 106.392 136.668C106.133 135.961 105.802 135.351 105.398 134.838C104.989 134.313 104.525 133.879 104.005 133.535C103.485 133.192 102.926 132.932 102.327 132.757C101.725 132.571 101.1 132.462 100.453 132.432C99.9415 133.675 99.5542 135.031 99.2911 136.501C99.0239 137.96 98.8114 139.481 98.6537 141.065C98.503 142.634 98.3815 144.23 98.2892 145.854C98.1927 147.466 98.0559 149.055 97.8787 150.621C97.7086 152.171 97.4614 153.667 97.137 155.109C96.8239 156.546 96.3732 157.868 95.785 159.076C95.2081 160.279 94.4569 161.336 93.5313 162.247C92.617 163.155 91.4701 163.861 90.0907 164.366C89.014 164.76 87.943 164.961 86.8778 164.97C85.8125 164.978 84.8055 164.781 83.8566 164.378C82.9119 163.986 82.0555 163.384 81.2874 162.571C80.5306 161.755 79.9222 160.718 79.4623 159.462C79.1831 158.699 78.9607 157.814 78.7953 156.806C78.641 155.795 78.5789 154.704 78.609 153.536C78.635 152.356 78.7711 151.13 79.0173 149.857C79.2706 148.569 79.6596 147.269 80.1842 145.958C80.7201 144.642 81.4132 143.339 82.2634 142.049C83.1248 140.754 84.1731 139.518 85.4082 138.341C86.6505 137.148 88.1011 136.039 89.76 135.011C91.4189 133.984 93.3195 133.079 95.4616 132.294C96.1906 132.028 96.9365 131.824 97.6995 131.685C98.4583 131.534 99.2152 131.448 99.9703 131.426C100.252 130.979 100.557 130.544 100.884 130.118C101.208 129.682 101.56 129.254 101.941 128.835L102.393 129.184ZM89.3436 163.628C90.5549 163.185 91.5433 162.549 92.3088 161.722C93.0743 160.895 93.6885 159.932 94.1514 158.834C94.6102 157.725 94.9503 156.501 95.1719 155.16C95.4005 153.805 95.5821 152.39 95.7167 150.916C95.8583 149.427 95.9835 147.893 96.0923 146.315C96.2082 144.721 96.3827 143.13 96.616 141.544C96.8492 139.958 97.1795 138.394 97.6067 136.851C98.0339 135.308 98.6312 133.83 99.3985 132.417C98.2558 132.492 97.1181 132.737 95.9854 133.152C93.8993 133.916 92.0169 134.923 90.3381 136.173C88.6704 137.42 87.2036 138.815 85.9376 140.36C84.6829 141.901 83.635 143.537 82.7939 145.269C81.964 146.998 81.3438 148.726 80.9333 150.453C80.53 152.165 80.3464 153.835 80.3826 155.462C80.4147 157.078 80.671 158.543 81.1514 159.855C81.4511 160.673 81.8747 161.396 82.4219 162.022C82.9804 162.645 83.6218 163.128 84.346 163.474C85.0702 163.819 85.8599 164.013 86.7151 164.056C87.5702 164.099 88.4464 163.957 89.3436 163.628ZM102.876 144.938C102.526 144.85 102.169 144.796 101.806 144.776C101.442 144.757 101.143 144.79 100.907 144.876C100.75 144.934 100.652 144.995 100.612 145.06C100.573 145.126 100.563 145.187 100.584 145.243C100.621 145.344 100.724 145.401 100.895 145.415C101.061 145.418 101.259 145.402 101.489 145.369C101.725 145.321 101.963 145.259 102.203 145.184C102.454 145.105 102.678 145.023 102.876 144.938Z"/>
<path d="M125.028 143.123C125.077 143.118 125.124 143.107 125.169 143.09C125.214 143.074 125.265 143.055 125.321 143.035C125.635 142.92 125.91 142.787 126.148 142.637C126.381 142.475 126.58 142.288 126.743 142.075C126.919 141.858 127.068 141.607 127.192 141.32C127.312 141.021 127.409 140.68 127.485 140.297L128.263 140.546C128.004 141.506 127.644 142.242 127.183 142.754C126.722 143.266 126.171 143.639 125.532 143.873C125.297 143.959 125.081 144.013 124.885 144.034C124.698 145.018 124.435 145.896 124.095 146.67C123.751 147.432 123.358 148.097 122.918 148.665C122.477 149.233 122.005 149.699 121.502 150.061C121.003 150.434 120.512 150.71 120.03 150.886C119.536 151.067 119.044 151.145 118.552 151.122C118.075 151.106 117.626 150.99 117.204 150.776C116.782 150.562 116.405 150.261 116.073 149.874C115.74 149.487 115.471 149.013 115.266 148.452C115.061 147.891 114.941 147.287 114.907 146.638C114.873 145.989 114.902 145.323 114.996 144.64C115.1 143.953 115.264 143.27 115.486 142.591C115.704 141.901 115.969 141.238 116.283 140.601C116.597 139.965 116.944 139.367 117.325 138.808C117.705 138.249 118.11 137.757 118.54 137.333L119.337 137.843C118.899 138.486 118.49 139.246 118.111 140.123C117.744 140.995 117.449 141.91 117.228 142.869C117.018 143.823 116.904 144.781 116.887 145.741C116.877 146.686 117.015 147.551 117.303 148.336C117.562 149.043 117.92 149.535 118.377 149.812C118.831 150.079 119.378 150.095 120.017 149.861C120.51 149.68 120.961 149.4 121.37 149.022C121.778 148.644 122.148 148.196 122.481 147.68C122.813 147.164 123.107 146.593 123.36 145.966C123.61 145.327 123.827 144.669 124.011 143.991C123.616 143.92 123.238 143.772 122.876 143.548C122.51 143.314 122.169 143.025 121.853 142.683C121.533 142.329 121.242 141.934 120.98 141.495C120.729 141.053 120.513 140.585 120.332 140.092C120.151 139.598 120.043 139.11 120.006 138.628C119.969 138.145 119.998 137.702 120.092 137.299C120.193 136.88 120.354 136.522 120.576 136.225C120.798 135.928 121.083 135.715 121.43 135.588C121.744 135.473 122.056 135.454 122.364 135.532C122.668 135.599 122.958 135.747 123.233 135.977C123.504 136.196 123.756 136.485 123.989 136.845C124.223 137.205 124.421 137.609 124.586 138.058C124.709 138.394 124.816 138.774 124.908 139.199C125 139.623 125.066 140.063 125.105 140.519C125.152 140.96 125.171 141.411 125.162 141.872C125.16 142.318 125.115 142.735 125.028 143.123ZM121.207 139.772C121.326 140.097 121.483 140.44 121.679 140.801C121.875 141.161 122.1 141.499 122.355 141.812C122.609 142.126 122.89 142.405 123.195 142.649C123.497 142.882 123.821 143.037 124.167 143.114C124.225 142.648 124.247 142.188 124.234 141.735C124.228 141.266 124.2 140.825 124.15 140.411C124.111 139.993 124.049 139.615 123.964 139.277C123.886 138.924 123.801 138.625 123.711 138.378C123.588 138.041 123.447 137.743 123.288 137.483C123.129 137.224 122.963 137.011 122.788 136.846C122.62 136.666 122.443 136.546 122.256 136.488C122.076 136.414 121.902 136.407 121.734 136.469C121.51 136.551 121.331 136.706 121.198 136.932C121.06 137.148 120.972 137.409 120.932 137.717C120.887 138.013 120.887 138.343 120.932 138.708C120.984 139.058 121.076 139.413 121.207 139.772Z"/>
<path d="M130.364 131.382C130.345 131.504 130.313 131.643 130.269 131.799C130.22 131.944 130.18 132.111 130.147 132.301C130.122 132.476 130.113 132.676 130.12 132.903C130.138 133.125 130.198 133.376 130.3 133.657C130.387 133.892 130.56 134.191 130.82 134.554C131.091 134.913 131.39 135.331 131.718 135.809C132.041 136.275 132.372 136.797 132.71 137.372C133.055 137.933 133.347 138.538 133.585 139.189C133.934 140.142 134.113 141.03 134.122 141.854C134.131 142.677 134.017 143.425 133.779 144.097C134.482 143.306 135.093 142.319 135.614 141.136C136.131 139.942 136.567 138.51 136.923 136.841L137.679 137.137C137.489 138.109 137.229 139.101 136.899 140.112C136.577 141.108 136.166 142.053 135.667 142.948C135.164 143.832 134.562 144.618 133.86 145.307C133.163 146.008 132.343 146.531 131.401 146.876C130.56 147.184 129.779 147.24 129.059 147.046C128.333 146.867 127.756 146.404 127.33 145.657L127.892 145.317C127.917 145.385 127.992 145.485 128.117 145.617C128.226 145.742 128.375 145.853 128.563 145.95C128.751 146.046 128.983 146.107 129.259 146.133C129.525 146.163 129.826 146.117 130.162 145.994C130.611 145.829 130.972 145.583 131.246 145.253C131.515 144.913 131.718 144.527 131.852 144.097C131.987 143.666 132.066 143.204 132.09 142.712C132.109 142.209 132.085 141.709 132.017 141.213C131.961 140.712 131.876 140.234 131.76 139.781C131.645 139.327 131.522 138.92 131.39 138.562C131.259 138.203 131.096 137.811 130.902 137.386C130.72 136.956 130.54 136.552 130.363 136.171C130.181 135.78 130.02 135.445 129.88 135.165C129.746 134.871 129.663 134.679 129.631 134.589L129.618 134.555C129.53 134.766 129.44 135.059 129.349 135.436C129.258 135.813 129.161 136.224 129.057 136.669C128.964 137.11 128.867 137.558 128.767 138.015C128.678 138.467 128.594 138.879 128.514 139.252C128.446 139.62 128.387 139.928 128.337 140.175C128.295 140.407 128.276 140.528 128.28 140.54L127.502 140.29C127.509 140.275 127.561 139.983 127.658 139.413C127.754 138.843 127.89 138.12 128.064 137.242C128.246 136.349 128.457 135.362 128.698 134.282C128.934 133.19 129.198 132.121 129.488 131.074L130.364 131.382Z"/>
<path d="M139.094 138.812C139.121 138.955 139.153 139.096 139.192 139.235C139.23 139.373 139.273 139.51 139.323 139.645C139.47 140.048 139.668 140.415 139.916 140.744C140.171 141.058 140.461 141.313 140.788 141.512C141.122 141.695 141.486 141.803 141.88 141.837C142.285 141.867 142.707 141.801 143.144 141.641C144.613 141.103 145.849 140.085 146.852 138.586C147.855 137.087 148.639 135.006 149.203 132.345L149.96 132.64C149.671 134.145 149.302 135.463 148.851 136.595C148.397 137.715 147.884 138.678 147.315 139.485C146.756 140.287 146.156 140.939 145.513 141.442C144.87 141.944 144.218 142.316 143.556 142.559C143.074 142.735 142.539 142.855 141.952 142.917C141.364 142.98 140.783 142.938 140.208 142.793C139.644 142.643 139.12 142.358 138.636 141.937C138.14 141.521 137.748 140.92 137.461 140.135C137.153 139.294 137.003 138.433 137.011 137.553C137.004 136.665 137.108 135.801 137.321 134.959C137.534 134.118 137.838 133.314 138.231 132.547C138.62 131.768 139.046 131.072 139.508 130.458C139.981 129.839 140.47 129.317 140.975 128.89C141.476 128.452 141.951 128.151 142.399 127.987C142.691 127.88 143.005 127.816 143.34 127.795C143.676 127.774 143.997 127.816 144.302 127.92C144.618 128.021 144.907 128.201 145.168 128.462C145.44 128.718 145.656 129.065 145.816 129.503C146.034 130.097 146.099 130.709 146.011 131.339C145.931 131.953 145.743 132.569 145.448 133.186C145.148 133.792 144.761 134.385 144.287 134.965C143.808 135.535 143.283 136.064 142.712 136.553C142.141 137.042 141.545 137.483 140.926 137.875C140.306 138.267 139.696 138.58 139.094 138.812ZM138.964 138.04C139.687 137.686 140.336 137.271 140.911 136.793C141.487 136.315 141.988 135.807 142.414 135.27C142.836 134.721 143.186 134.166 143.465 133.607C143.754 133.043 143.969 132.5 144.109 131.978C144.248 131.456 144.327 130.976 144.344 130.537C144.362 130.099 144.315 129.728 144.204 129.425C144.093 129.122 143.921 128.912 143.687 128.794C143.464 128.672 143.241 128.652 143.016 128.734C142.523 128.915 142.033 129.298 141.548 129.882C141.058 130.456 140.62 131.17 140.233 132.023C139.842 132.866 139.526 133.809 139.284 134.851C139.054 135.889 138.947 136.952 138.964 138.04Z"/>
</mask>
<path d="M102.393 129.184C101.816 129.866 101.318 130.627 100.901 131.467C101.707 131.515 102.484 131.657 103.231 131.892C103.99 132.123 104.691 132.457 105.335 132.896C105.99 133.33 106.573 133.88 107.084 134.545C107.601 135.195 108.024 135.968 108.353 136.866C108.632 137.628 108.762 138.401 108.744 139.184C108.732 139.951 108.591 140.696 108.322 141.418C108.059 142.124 107.672 142.787 107.161 143.407C106.657 144.011 106.051 144.526 105.342 144.951C105.896 145.32 106.399 145.772 106.849 146.306C107.306 146.826 107.666 147.444 107.929 148.162C108.036 148.454 108.124 148.816 108.193 149.248C108.259 149.67 108.31 150.121 108.346 150.604C108.394 151.083 108.427 151.573 108.446 152.075C108.471 152.561 108.492 153.018 108.509 153.444C108.536 153.867 108.564 154.238 108.592 154.559C108.62 154.879 108.659 155.106 108.708 155.241C108.828 155.566 109.01 155.786 109.255 155.899C109.515 156.02 109.808 156.021 110.133 155.902C110.728 155.684 111.241 155.35 111.674 154.899C112.111 154.459 112.481 153.942 112.785 153.348C113.104 152.76 113.37 152.116 113.584 151.414C113.794 150.702 113.973 149.975 114.121 149.234C114.281 148.489 114.418 147.752 114.533 147.023C114.655 146.279 114.777 145.572 114.901 144.904L115.696 145.147C115.45 146.662 115.205 148.061 114.963 149.345C114.728 150.614 114.423 151.743 114.048 152.733C113.676 153.734 113.204 154.581 112.631 155.274C112.058 155.967 111.307 156.484 110.376 156.824C109.512 157.141 108.751 157.146 108.092 156.84C107.449 156.542 106.967 155.955 106.646 155.08C106.425 154.475 106.303 153.864 106.281 153.249C106.259 152.634 106.259 152.023 106.279 151.418C106.31 150.809 106.319 150.208 106.305 149.615C106.292 149.022 106.18 148.44 105.971 147.868C105.786 147.363 105.53 146.923 105.201 146.547C104.884 146.167 104.508 145.835 104.073 145.549C103.725 145.676 103.321 145.805 102.86 145.936C102.41 146.062 101.965 146.149 101.524 146.196C101.095 146.238 100.71 146.214 100.371 146.122C100.032 146.03 99.8054 145.826 99.6904 145.512C99.5878 145.232 99.6178 144.967 99.7805 144.716C99.9391 144.455 100.237 144.244 100.675 144.084C101.179 143.899 101.71 143.838 102.267 143.901C102.821 143.953 103.395 144.08 103.99 144.282C104.587 143.898 105.096 143.412 105.518 142.826C105.939 142.239 106.255 141.608 106.465 140.933C106.683 140.243 106.785 139.532 106.771 138.799C106.769 138.062 106.642 137.352 106.392 136.668C106.133 135.961 105.802 135.351 105.398 134.838C104.989 134.313 104.525 133.879 104.005 133.535C103.485 133.192 102.926 132.932 102.327 132.757C101.725 132.571 101.1 132.462 100.453 132.432C99.9415 133.675 99.5542 135.031 99.2911 136.501C99.0239 137.96 98.8114 139.481 98.6537 141.065C98.503 142.634 98.3815 144.23 98.2892 145.854C98.1927 147.466 98.0559 149.055 97.8787 150.621C97.7086 152.171 97.4614 153.667 97.137 155.109C96.8239 156.546 96.3732 157.868 95.785 159.076C95.2081 160.279 94.4569 161.336 93.5313 162.247C92.617 163.155 91.4701 163.861 90.0907 164.366C89.014 164.76 87.943 164.961 86.8778 164.97C85.8125 164.978 84.8055 164.781 83.8566 164.378C82.9119 163.986 82.0555 163.384 81.2874 162.571C80.5306 161.755 79.9222 160.718 79.4623 159.462C79.1831 158.699 78.9607 157.814 78.7953 156.806C78.641 155.795 78.5789 154.704 78.609 153.536C78.635 152.356 78.7711 151.13 79.0173 149.857C79.2706 148.569 79.6596 147.269 80.1842 145.958C80.7201 144.642 81.4132 143.339 82.2634 142.049C83.1248 140.754 84.1731 139.518 85.4082 138.341C86.6505 137.148 88.1011 136.039 89.76 135.011C91.4189 133.984 93.3195 133.079 95.4616 132.294C96.1906 132.028 96.9365 131.824 97.6995 131.685C98.4583 131.534 99.2152 131.448 99.9703 131.426C100.252 130.979 100.557 130.544 100.884 130.118C101.208 129.682 101.56 129.254 101.941 128.835L102.393 129.184ZM89.3436 163.628C90.5549 163.185 91.5433 162.549 92.3088 161.722C93.0743 160.895 93.6885 159.932 94.1514 158.834C94.6102 157.725 94.9503 156.501 95.1719 155.16C95.4005 153.805 95.5821 152.39 95.7167 150.916C95.8583 149.427 95.9835 147.893 96.0923 146.315C96.2082 144.721 96.3827 143.13 96.616 141.544C96.8492 139.958 97.1795 138.394 97.6067 136.851C98.0339 135.308 98.6312 133.83 99.3985 132.417C98.2558 132.492 97.1181 132.737 95.9854 133.152C93.8993 133.916 92.0169 134.923 90.3381 136.173C88.6704 137.42 87.2036 138.815 85.9376 140.36C84.6829 141.901 83.635 143.537 82.7939 145.269C81.964 146.998 81.3438 148.726 80.9333 150.453C80.53 152.165 80.3464 153.835 80.3826 155.462C80.4147 157.078 80.671 158.543 81.1514 159.855C81.4511 160.673 81.8747 161.396 82.4219 162.022C82.9804 162.645 83.6218 163.128 84.346 163.474C85.0702 163.819 85.8599 164.013 86.7151 164.056C87.5702 164.099 88.4464 163.957 89.3436 163.628ZM102.876 144.938C102.526 144.85 102.169 144.796 101.806 144.776C101.442 144.757 101.143 144.79 100.907 144.876C100.75 144.934 100.652 144.995 100.612 145.06C100.573 145.126 100.563 145.187 100.584 145.243C100.621 145.344 100.724 145.401 100.895 145.415C101.061 145.418 101.259 145.402 101.489 145.369C101.725 145.321 101.963 145.259 102.203 145.184C102.454 145.105 102.678 145.023 102.876 144.938Z" fill="#FFEDBD"/>
<path d="M125.028 143.123C125.077 143.118 125.124 143.107 125.169 143.09C125.214 143.074 125.265 143.055 125.321 143.035C125.635 142.92 125.91 142.787 126.148 142.637C126.381 142.475 126.58 142.288 126.743 142.075C126.919 141.858 127.068 141.607 127.192 141.32C127.312 141.021 127.409 140.68 127.485 140.297L128.263 140.546C128.004 141.506 127.644 142.242 127.183 142.754C126.722 143.266 126.171 143.639 125.532 143.873C125.297 143.959 125.081 144.013 124.885 144.034C124.698 145.018 124.435 145.896 124.095 146.67C123.751 147.432 123.358 148.097 122.918 148.665C122.477 149.233 122.005 149.699 121.502 150.061C121.003 150.434 120.512 150.71 120.03 150.886C119.536 151.067 119.044 151.145 118.552 151.122C118.075 151.106 117.626 150.99 117.204 150.776C116.782 150.562 116.405 150.261 116.073 149.874C115.74 149.487 115.471 149.013 115.266 148.452C115.061 147.891 114.941 147.287 114.907 146.638C114.873 145.989 114.902 145.323 114.996 144.64C115.1 143.953 115.264 143.27 115.486 142.591C115.704 141.901 115.969 141.238 116.283 140.601C116.597 139.965 116.944 139.367 117.325 138.808C117.705 138.249 118.11 137.757 118.54 137.333L119.337 137.843C118.899 138.486 118.49 139.246 118.111 140.123C117.744 140.995 117.449 141.91 117.228 142.869C117.018 143.823 116.904 144.781 116.887 145.741C116.877 146.686 117.015 147.551 117.303 148.336C117.562 149.043 117.92 149.535 118.377 149.812C118.831 150.079 119.378 150.095 120.017 149.861C120.51 149.68 120.961 149.4 121.37 149.022C121.778 148.644 122.148 148.196 122.481 147.68C122.813 147.164 123.107 146.593 123.36 145.966C123.61 145.327 123.827 144.669 124.011 143.991C123.616 143.92 123.238 143.772 122.876 143.548C122.51 143.314 122.169 143.025 121.853 142.683C121.533 142.329 121.242 141.934 120.98 141.495C120.729 141.053 120.513 140.585 120.332 140.092C120.151 139.598 120.043 139.11 120.006 138.628C119.969 138.145 119.998 137.702 120.092 137.299C120.193 136.88 120.354 136.522 120.576 136.225C120.798 135.928 121.083 135.715 121.43 135.588C121.744 135.473 122.056 135.454 122.364 135.532C122.668 135.599 122.958 135.747 123.233 135.977C123.504 136.196 123.756 136.485 123.989 136.845C124.223 137.205 124.421 137.609 124.586 138.058C124.709 138.394 124.816 138.774 124.908 139.199C125 139.623 125.066 140.063 125.105 140.519C125.152 140.96 125.171 141.411 125.162 141.872C125.16 142.318 125.115 142.735 125.028 143.123ZM121.207 139.772C121.326 140.097 121.483 140.44 121.679 140.801C121.875 141.161 122.1 141.499 122.355 141.812C122.609 142.126 122.89 142.405 123.195 142.649C123.497 142.882 123.821 143.037 124.167 143.114C124.225 142.648 124.247 142.188 124.234 141.735C124.228 141.266 124.2 140.825 124.15 140.411C124.111 139.993 124.049 139.615 123.964 139.277C123.886 138.924 123.801 138.625 123.711 138.378C123.588 138.041 123.447 137.743 123.288 137.483C123.129 137.224 122.963 137.011 122.788 136.846C122.62 136.666 122.443 136.546 122.256 136.488C122.076 136.414 121.902 136.407 121.734 136.469C121.51 136.551 121.331 136.706 121.198 136.932C121.06 137.148 120.972 137.409 120.932 137.717C120.887 138.013 120.887 138.343 120.932 138.708C120.984 139.058 121.076 139.413 121.207 139.772Z" fill="#FFEDBD"/>
<path d="M130.364 131.382C130.345 131.504 130.313 131.643 130.269 131.799C130.22 131.944 130.18 132.111 130.147 132.301C130.122 132.476 130.113 132.676 130.12 132.903C130.138 133.125 130.198 133.376 130.3 133.657C130.387 133.892 130.56 134.191 130.82 134.554C131.091 134.913 131.39 135.331 131.718 135.809C132.041 136.275 132.372 136.797 132.71 137.372C133.055 137.933 133.347 138.538 133.585 139.189C133.934 140.142 134.113 141.03 134.122 141.854C134.131 142.677 134.017 143.425 133.779 144.097C134.482 143.306 135.093 142.319 135.614 141.136C136.131 139.942 136.567 138.51 136.923 136.841L137.679 137.137C137.489 138.109 137.229 139.101 136.899 140.112C136.577 141.108 136.166 142.053 135.667 142.948C135.164 143.832 134.562 144.618 133.86 145.307C133.163 146.008 132.343 146.531 131.401 146.876C130.56 147.184 129.779 147.24 129.059 147.046C128.333 146.867 127.756 146.404 127.33 145.657L127.892 145.317C127.917 145.385 127.992 145.485 128.117 145.617C128.226 145.742 128.375 145.853 128.563 145.95C128.751 146.046 128.983 146.107 129.259 146.133C129.525 146.163 129.826 146.117 130.162 145.994C130.611 145.829 130.972 145.583 131.246 145.253C131.515 144.913 131.718 144.527 131.852 144.097C131.987 143.666 132.066 143.204 132.09 142.712C132.109 142.209 132.085 141.709 132.017 141.213C131.961 140.712 131.876 140.234 131.76 139.781C131.645 139.327 131.522 138.92 131.39 138.562C131.259 138.203 131.096 137.811 130.902 137.386C130.72 136.956 130.54 136.552 130.363 136.171C130.181 135.78 130.02 135.445 129.88 135.165C129.746 134.871 129.663 134.679 129.631 134.589L129.618 134.555C129.53 134.766 129.44 135.059 129.349 135.436C129.258 135.813 129.161 136.224 129.057 136.669C128.964 137.11 128.867 137.558 128.767 138.015C128.678 138.467 128.594 138.879 128.514 139.252C128.446 139.62 128.387 139.928 128.337 140.175C128.295 140.407 128.276 140.528 128.28 140.54L127.502 140.29C127.509 140.275 127.561 139.983 127.658 139.413C127.754 138.843 127.89 138.12 128.064 137.242C128.246 136.349 128.457 135.362 128.698 134.282C128.934 133.19 129.198 132.121 129.488 131.074L130.364 131.382Z" fill="#FFEDBD"/>
<path d="M139.094 138.812C139.121 138.955 139.153 139.096 139.192 139.235C139.23 139.373 139.273 139.51 139.323 139.645C139.47 140.048 139.668 140.415 139.916 140.744C140.171 141.058 140.461 141.313 140.788 141.512C141.122 141.695 141.486 141.803 141.88 141.837C142.285 141.867 142.707 141.801 143.144 141.641C144.613 141.103 145.849 140.085 146.852 138.586C147.855 137.087 148.639 135.006 149.203 132.345L149.96 132.64C149.671 134.145 149.302 135.463 148.851 136.595C148.397 137.715 147.884 138.678 147.315 139.485C146.756 140.287 146.156 140.939 145.513 141.442C144.87 141.944 144.218 142.316 143.556 142.559C143.074 142.735 142.539 142.855 141.952 142.917C141.364 142.98 140.783 142.938 140.208 142.793C139.644 142.643 139.12 142.358 138.636 141.937C138.14 141.521 137.748 140.92 137.461 140.135C137.153 139.294 137.003 138.433 137.011 137.553C137.004 136.665 137.108 135.801 137.321 134.959C137.534 134.118 137.838 133.314 138.231 132.547C138.62 131.768 139.046 131.072 139.508 130.458C139.981 129.839 140.47 129.317 140.975 128.89C141.476 128.452 141.951 128.151 142.399 127.987C142.691 127.88 143.005 127.816 143.34 127.795C143.676 127.774 143.997 127.816 144.302 127.92C144.618 128.021 144.907 128.201 145.168 128.462C145.44 128.718 145.656 129.065 145.816 129.503C146.034 130.097 146.099 130.709 146.011 131.339C145.931 131.953 145.743 132.569 145.448 133.186C145.148 133.792 144.761 134.385 144.287 134.965C143.808 135.535 143.283 136.064 142.712 136.553C142.141 137.042 141.545 137.483 140.926 137.875C140.306 138.267 139.696 138.58 139.094 138.812ZM138.964 138.04C139.687 137.686 140.336 137.271 140.911 136.793C141.487 136.315 141.988 135.807 142.414 135.27C142.836 134.721 143.186 134.166 143.465 133.607C143.754 133.043 143.969 132.5 144.109 131.978C144.248 131.456 144.327 130.976 144.344 130.537C144.362 130.099 144.315 129.728 144.204 129.425C144.093 129.122 143.921 128.912 143.687 128.794C143.464 128.672 143.241 128.652 143.016 128.734C142.523 128.915 142.033 129.298 141.548 129.882C141.058 130.456 140.62 131.17 140.233 132.023C139.842 132.866 139.526 133.809 139.284 134.851C139.054 135.889 138.947 136.952 138.964 138.04Z" fill="#FFEDBD"/>
<path d="M102.393 129.184C101.816 129.866 101.318 130.627 100.901 131.467C101.707 131.515 102.484 131.657 103.231 131.892C103.99 132.123 104.691 132.457 105.335 132.896C105.99 133.33 106.573 133.88 107.084 134.545C107.601 135.195 108.024 135.968 108.353 136.866C108.632 137.628 108.762 138.401 108.744 139.184C108.732 139.951 108.591 140.696 108.322 141.418C108.059 142.124 107.672 142.787 107.161 143.407C106.657 144.011 106.051 144.526 105.342 144.951C105.896 145.32 106.399 145.772 106.849 146.306C107.306 146.826 107.666 147.444 107.929 148.162C108.036 148.454 108.124 148.816 108.193 149.248C108.259 149.67 108.31 150.121 108.346 150.604C108.394 151.083 108.427 151.573 108.446 152.075C108.471 152.561 108.492 153.018 108.509 153.444C108.536 153.867 108.564 154.238 108.592 154.559C108.62 154.879 108.659 155.106 108.708 155.241C108.828 155.566 109.01 155.786 109.255 155.899C109.515 156.02 109.808 156.021 110.133 155.902C110.728 155.684 111.241 155.35 111.674 154.899C112.111 154.459 112.481 153.942 112.785 153.348C113.104 152.76 113.37 152.116 113.584 151.414C113.794 150.702 113.973 149.975 114.121 149.234C114.281 148.489 114.418 147.752 114.533 147.023C114.655 146.279 114.777 145.572 114.901 144.904L115.696 145.147C115.45 146.662 115.205 148.061 114.963 149.345C114.728 150.614 114.423 151.743 114.048 152.733C113.676 153.734 113.204 154.581 112.631 155.274C112.058 155.967 111.307 156.484 110.376 156.824C109.512 157.141 108.751 157.146 108.092 156.84C107.449 156.542 106.967 155.955 106.646 155.08C106.425 154.475 106.303 153.864 106.281 153.249C106.259 152.634 106.259 152.023 106.279 151.418C106.31 150.809 106.319 150.208 106.305 149.615C106.292 149.022 106.18 148.44 105.971 147.868C105.786 147.363 105.53 146.923 105.201 146.547C104.884 146.167 104.508 145.835 104.073 145.549C103.725 145.676 103.321 145.805 102.86 145.936C102.41 146.062 101.965 146.149 101.524 146.196C101.095 146.238 100.71 146.214 100.371 146.122C100.032 146.03 99.8054 145.826 99.6904 145.512C99.5878 145.232 99.6178 144.967 99.7805 144.716C99.9391 144.455 100.237 144.244 100.675 144.084C101.179 143.899 101.71 143.838 102.267 143.901C102.821 143.953 103.395 144.08 103.99 144.282C104.587 143.898 105.096 143.412 105.518 142.826C105.939 142.239 106.255 141.608 106.465 140.933C106.683 140.243 106.785 139.532 106.771 138.799C106.769 138.062 106.642 137.352 106.392 136.668C106.133 135.961 105.802 135.351 105.398 134.838C104.989 134.313 104.525 133.879 104.005 133.535C103.485 133.192 102.926 132.932 102.327 132.757C101.725 132.571 101.1 132.462 100.453 132.432C99.9415 133.675 99.5542 135.031 99.2911 136.501C99.0239 137.96 98.8114 139.481 98.6537 141.065C98.503 142.634 98.3815 144.23 98.2892 145.854C98.1927 147.466 98.0559 149.055 97.8787 150.621C97.7086 152.171 97.4614 153.667 97.137 155.109C96.8239 156.546 96.3732 157.868 95.785 159.076C95.2081 160.279 94.4569 161.336 93.5313 162.247C92.617 163.155 91.4701 163.861 90.0907 164.366C89.014 164.76 87.943 164.961 86.8778 164.97C85.8125 164.978 84.8055 164.781 83.8566 164.378C82.9119 163.986 82.0555 163.384 81.2874 162.571C80.5306 161.755 79.9222 160.718 79.4623 159.462C79.1831 158.699 78.9607 157.814 78.7953 156.806C78.641 155.795 78.5789 154.704 78.609 153.536C78.635 152.356 78.7711 151.13 79.0173 149.857C79.2706 148.569 79.6596 147.269 80.1842 145.958C80.7201 144.642 81.4132 143.339 82.2634 142.049C83.1248 140.754 84.1731 139.518 85.4082 138.341C86.6505 137.148 88.1011 136.039 89.76 135.011C91.4189 133.984 93.3195 133.079 95.4616 132.294C96.1906 132.028 96.9365 131.824 97.6995 131.685C98.4583 131.534 99.2152 131.448 99.9703 131.426C100.252 130.979 100.557 130.544 100.884 130.118C101.208 129.682 101.56 129.254 101.941 128.835L102.393 129.184ZM89.3436 163.628C90.5549 163.185 91.5433 162.549 92.3088 161.722C93.0743 160.895 93.6885 159.932 94.1514 158.834C94.6102 157.725 94.9503 156.501 95.1719 155.16C95.4005 153.805 95.5821 152.39 95.7167 150.916C95.8583 149.427 95.9835 147.893 96.0923 146.315C96.2082 144.721 96.3827 143.13 96.616 141.544C96.8492 139.958 97.1795 138.394 97.6067 136.851C98.0339 135.308 98.6312 133.83 99.3985 132.417C98.2558 132.492 97.1181 132.737 95.9854 133.152C93.8993 133.916 92.0169 134.923 90.3381 136.173C88.6704 137.42 87.2036 138.815 85.9376 140.36C84.6829 141.901 83.635 143.537 82.7939 145.269C81.964 146.998 81.3438 148.726 80.9333 150.453C80.53 152.165 80.3464 153.835 80.3826 155.462C80.4147 157.078 80.671 158.543 81.1514 159.855C81.4511 160.673 81.8747 161.396 82.4219 162.022C82.9804 162.645 83.6218 163.128 84.346 163.474C85.0702 163.819 85.8599 164.013 86.7151 164.056C87.5702 164.099 88.4464 163.957 89.3436 163.628ZM102.876 144.938C102.526 144.85 102.169 144.796 101.806 144.776C101.442 144.757 101.143 144.79 100.907 144.876C100.75 144.934 100.652 144.995 100.612 145.06C100.573 145.126 100.563 145.187 100.584 145.243C100.621 145.344 100.724 145.401 100.895 145.415C101.061 145.418 101.259 145.402 101.489 145.369C101.725 145.321 101.963 145.259 102.203 145.184C102.454 145.105 102.678 145.023 102.876 144.938Z" stroke="#FFEDBD" mask="url(#path-4-outside-1)"/>
<path d="M125.028 143.123C125.077 143.118 125.124 143.107 125.169 143.09C125.214 143.074 125.265 143.055 125.321 143.035C125.635 142.92 125.91 142.787 126.148 142.637C126.381 142.475 126.58 142.288 126.743 142.075C126.919 141.858 127.068 141.607 127.192 141.32C127.312 141.021 127.409 140.68 127.485 140.297L128.263 140.546C128.004 141.506 127.644 142.242 127.183 142.754C126.722 143.266 126.171 143.639 125.532 143.873C125.297 143.959 125.081 144.013 124.885 144.034C124.698 145.018 124.435 145.896 124.095 146.67C123.751 147.432 123.358 148.097 122.918 148.665C122.477 149.233 122.005 149.699 121.502 150.061C121.003 150.434 120.512 150.71 120.03 150.886C119.536 151.067 119.044 151.145 118.552 151.122C118.075 151.106 117.626 150.99 117.204 150.776C116.782 150.562 116.405 150.261 116.073 149.874C115.74 149.487 115.471 149.013 115.266 148.452C115.061 147.891 114.941 147.287 114.907 146.638C114.873 145.989 114.902 145.323 114.996 144.64C115.1 143.953 115.264 143.27 115.486 142.591C115.704 141.901 115.969 141.238 116.283 140.601C116.597 139.965 116.944 139.367 117.325 138.808C117.705 138.249 118.11 137.757 118.54 137.333L119.337 137.843C118.899 138.486 118.49 139.246 118.111 140.123C117.744 140.995 117.449 141.91 117.228 142.869C117.018 143.823 116.904 144.781 116.887 145.741C116.877 146.686 117.015 147.551 117.303 148.336C117.562 149.043 117.92 149.535 118.377 149.812C118.831 150.079 119.378 150.095 120.017 149.861C120.51 149.68 120.961 149.4 121.37 149.022C121.778 148.644 122.148 148.196 122.481 147.68C122.813 147.164 123.107 146.593 123.36 145.966C123.61 145.327 123.827 144.669 124.011 143.991C123.616 143.92 123.238 143.772 122.876 143.548C122.51 143.314 122.169 143.025 121.853 142.683C121.533 142.329 121.242 141.934 120.98 141.495C120.729 141.053 120.513 140.585 120.332 140.092C120.151 139.598 120.043 139.11 120.006 138.628C119.969 138.145 119.998 137.702 120.092 137.299C120.193 136.88 120.354 136.522 120.576 136.225C120.798 135.928 121.083 135.715 121.43 135.588C121.744 135.473 122.056 135.454 122.364 135.532C122.668 135.599 122.958 135.747 123.233 135.977C123.504 136.196 123.756 136.485 123.989 136.845C124.223 137.205 124.421 137.609 124.586 138.058C124.709 138.394 124.816 138.774 124.908 139.199C125 139.623 125.066 140.063 125.105 140.519C125.152 140.96 125.171 141.411 125.162 141.872C125.16 142.318 125.115 142.735 125.028 143.123ZM121.207 139.772C121.326 140.097 121.483 140.44 121.679 140.801C121.875 141.161 122.1 141.499 122.355 141.812C122.609 142.126 122.89 142.405 123.195 142.649C123.497 142.882 123.821 143.037 124.167 143.114C124.225 142.648 124.247 142.188 124.234 141.735C124.228 141.266 124.2 140.825 124.15 140.411C124.111 139.993 124.049 139.615 123.964 139.277C123.886 138.924 123.801 138.625 123.711 138.378C123.588 138.041 123.447 137.743 123.288 137.483C123.129 137.224 122.963 137.011 122.788 136.846C122.62 136.666 122.443 136.546 122.256 136.488C122.076 136.414 121.902 136.407 121.734 136.469C121.51 136.551 121.331 136.706 121.198 136.932C121.06 137.148 120.972 137.409 120.932 137.717C120.887 138.013 120.887 138.343 120.932 138.708C120.984 139.058 121.076 139.413 121.207 139.772Z" stroke="#FFEDBD" mask="url(#path-4-outside-1)"/>
<path d="M130.364 131.382C130.345 131.504 130.313 131.643 130.269 131.799C130.22 131.944 130.18 132.111 130.147 132.301C130.122 132.476 130.113 132.676 130.12 132.903C130.138 133.125 130.198 133.376 130.3 133.657C130.387 133.892 130.56 134.191 130.82 134.554C131.091 134.913 131.39 135.331 131.718 135.809C132.041 136.275 132.372 136.797 132.71 137.372C133.055 137.933 133.347 138.538 133.585 139.189C133.934 140.142 134.113 141.03 134.122 141.854C134.131 142.677 134.017 143.425 133.779 144.097C134.482 143.306 135.093 142.319 135.614 141.136C136.131 139.942 136.567 138.51 136.923 136.841L137.679 137.137C137.489 138.109 137.229 139.101 136.899 140.112C136.577 141.108 136.166 142.053 135.667 142.948C135.164 143.832 134.562 144.618 133.86 145.307C133.163 146.008 132.343 146.531 131.401 146.876C130.56 147.184 129.779 147.24 129.059 147.046C128.333 146.867 127.756 146.404 127.33 145.657L127.892 145.317C127.917 145.385 127.992 145.485 128.117 145.617C128.226 145.742 128.375 145.853 128.563 145.95C128.751 146.046 128.983 146.107 129.259 146.133C129.525 146.163 129.826 146.117 130.162 145.994C130.611 145.829 130.972 145.583 131.246 145.253C131.515 144.913 131.718 144.527 131.852 144.097C131.987 143.666 132.066 143.204 132.09 142.712C132.109 142.209 132.085 141.709 132.017 141.213C131.961 140.712 131.876 140.234 131.76 139.781C131.645 139.327 131.522 138.92 131.39 138.562C131.259 138.203 131.096 137.811 130.902 137.386C130.72 136.956 130.54 136.552 130.363 136.171C130.181 135.78 130.02 135.445 129.88 135.165C129.746 134.871 129.663 134.679 129.631 134.589L129.618 134.555C129.53 134.766 129.44 135.059 129.349 135.436C129.258 135.813 129.161 136.224 129.057 136.669C128.964 137.11 128.867 137.558 128.767 138.015C128.678 138.467 128.594 138.879 128.514 139.252C128.446 139.62 128.387 139.928 128.337 140.175C128.295 140.407 128.276 140.528 128.28 140.54L127.502 140.29C127.509 140.275 127.561 139.983 127.658 139.413C127.754 138.843 127.89 138.12 128.064 137.242C128.246 136.349 128.457 135.362 128.698 134.282C128.934 133.19 129.198 132.121 129.488 131.074L130.364 131.382Z" stroke="#FFEDBD" mask="url(#path-4-outside-1)"/>
<path d="M139.094 138.812C139.121 138.955 139.153 139.096 139.192 139.235C139.23 139.373 139.273 139.51 139.323 139.645C139.47 140.048 139.668 140.415 139.916 140.744C140.171 141.058 140.461 141.313 140.788 141.512C141.122 141.695 141.486 141.803 141.88 141.837C142.285 141.867 142.707 141.801 143.144 141.641C144.613 141.103 145.849 140.085 146.852 138.586C147.855 137.087 148.639 135.006 149.203 132.345L149.96 132.64C149.671 134.145 149.302 135.463 148.851 136.595C148.397 137.715 147.884 138.678 147.315 139.485C146.756 140.287 146.156 140.939 145.513 141.442C144.87 141.944 144.218 142.316 143.556 142.559C143.074 142.735 142.539 142.855 141.952 142.917C141.364 142.98 140.783 142.938 140.208 142.793C139.644 142.643 139.12 142.358 138.636 141.937C138.14 141.521 137.748 140.92 137.461 140.135C137.153 139.294 137.003 138.433 137.011 137.553C137.004 136.665 137.108 135.801 137.321 134.959C137.534 134.118 137.838 133.314 138.231 132.547C138.62 131.768 139.046 131.072 139.508 130.458C139.981 129.839 140.47 129.317 140.975 128.89C141.476 128.452 141.951 128.151 142.399 127.987C142.691 127.88 143.005 127.816 143.34 127.795C143.676 127.774 143.997 127.816 144.302 127.92C144.618 128.021 144.907 128.201 145.168 128.462C145.44 128.718 145.656 129.065 145.816 129.503C146.034 130.097 146.099 130.709 146.011 131.339C145.931 131.953 145.743 132.569 145.448 133.186C145.148 133.792 144.761 134.385 144.287 134.965C143.808 135.535 143.283 136.064 142.712 136.553C142.141 137.042 141.545 137.483 140.926 137.875C140.306 138.267 139.696 138.58 139.094 138.812ZM138.964 138.04C139.687 137.686 140.336 137.271 140.911 136.793C141.487 136.315 141.988 135.807 142.414 135.27C142.836 134.721 143.186 134.166 143.465 133.607C143.754 133.043 143.969 132.5 144.109 131.978C144.248 131.456 144.327 130.976 144.344 130.537C144.362 130.099 144.315 129.728 144.204 129.425C144.093 129.122 143.921 128.912 143.687 128.794C143.464 128.672 143.241 128.652 143.016 128.734C142.523 128.915 142.033 129.298 141.548 129.882C141.058 130.456 140.62 131.17 140.233 132.023C139.842 132.866 139.526 133.809 139.284 134.851C139.054 135.889 138.947 136.952 138.964 138.04Z" stroke="#FFEDBD" mask="url(#path-4-outside-1)"/>
</g>
</g>
<defs>
<filter id="filter0_f" x="-6" y="16.9999" width="251.32" height="224.682" filterUnits="userSpaceOnUse" color-interpolation-filters="sRGB">
<feFlood flood-opacity="0" result="BackgroundImageFix"/>
<feBlend mode="normal" in="SourceGraphic" in2="BackgroundImageFix" result="shape"/>
<feGaussianBlur stdDeviation="25" result="effect1_foregroundBlur"/>
</filter>
<filter id="filter1_d" x="29.8057" y="10.2572" width="212.907" height="198.5" filterUnits="userSpaceOnUse" color-interpolation-filters="sRGB">
<feFlood flood-opacity="0" result="BackgroundImageFix"/>
<feColorMatrix in="SourceAlpha" type="matrix" values="0 0 0 0 0 0 0 0 0 0 0 0 0 0 0 0 0 0 127 0"/>
<feOffset/>
<feGaussianBlur stdDeviation="7.5"/>
<feColorMatrix type="matrix" values="0 0 0 0 1 0 0 0 0 1 0 0 0 0 1 0 0 0 0.75 0"/>
<feBlend mode="normal" in2="BackgroundImageFix" result="effect1_dropShadow"/>
<feBlend mode="normal" in="SourceGraphic" in2="effect1_dropShadow" result="shape"/>
</filter>
<clipPath id="clip0">
<rect width="240" height="240" fill="white"/>
</clipPath>
</defs>
</svg>
