<svg width="240" height="240" fill="none" xmlns="http://www.w3.org/2000/svg"><g clip-path="url(#clip0)"><g filter="url(#filter0_f)"><path d="M159.322 160.46c1.191-7.352 3.038-16.96 5.473-27.465m32.799-79.472c-13.134 12.317-23.719 43.168-30.668 70.673m0 0l-13.88-4.521c3.666-26.985 23.145-83.31 71.733-92.723-11.19 21.084-34.637 71.162-38.91 102.8l-21.074 3.243m2.131-8.799a456.531 456.531 0 0 0-2.131 8.799" stroke="#fff" stroke-width="3"/><path fill-rule="evenodd" clip-rule="evenodd" d="M158.057 97.925L48.09 114.846l11.559 75.116 127.499-19.619-6.131-39.845 2.965-.456 6.131 39.845.456 2.965-2.965.456-127.5 19.619-2.964.456-.456-2.965-11.559-75.116-.456-2.965 2.965-.456 111.468-17.152c-.365 1.074-.713 2.14-1.045 3.196z" fill="#FFEDBD"/><path d="M102.256 128.81a11.354 11.354 0 0 0-1.492 2.282c.806.048 1.583.19 2.331.425.758.231 1.46.566 2.103 1.004a7.285 7.285 0 0 1 1.749 1.649c.518.65.941 1.424 1.269 2.321.279.763.41 1.535.391 2.318a6.629 6.629 0 0 1-.422 2.234 6.885 6.885 0 0 1-1.161 1.989 7.083 7.083 0 0 1-1.819 1.544 7.11 7.11 0 0 1 1.507 1.356 5.75 5.75 0 0 1 1.08 1.856c.107.291.195.653.265 1.086.065.421.116.873.153 1.356.048.478.081.968.099 1.47.026.487.047.943.063 1.37.027.422.055.794.083 1.114.029.32.067.548.117.682.119.326.301.545.546.659.261.121.553.122.879.003a4.022 4.022 0 0 0 1.54-1.003c.437-.44.807-.957 1.111-1.552.319-.587.586-1.232.799-1.933.21-.713.389-1.44.537-2.181.16-.745.297-1.482.412-2.211.122-.744.245-1.45.369-2.119l.795.243a173.765 173.765 0 0 1-.733 4.199c-.235 1.269-.541 2.398-.916 3.387-.371 1.001-.843 1.848-1.416 2.541-.573.693-1.325 1.21-2.256 1.551-.864.316-1.625.321-2.284.016-.643-.299-1.125-.886-1.445-1.76a5.91 5.91 0 0 1-.366-1.832 27.241 27.241 0 0 1-.002-1.83c.031-.609.04-1.211.027-1.803a5.412 5.412 0 0 0-.335-1.748 4.172 4.172 0 0 0-.769-1.32 5.148 5.148 0 0 0-1.129-.999c-.348.128-.752.256-1.213.387-.45.127-.895.213-1.336.26a3.18 3.18 0 0 1-1.152-.074c-.34-.092-.566-.295-.681-.609a.851.851 0 0 1 .09-.796c.158-.262.456-.473.894-.633a3.44 3.44 0 0 1 1.593-.182 7.561 7.561 0 0 1 1.722.38 5.57 5.57 0 0 0 1.528-1.456 6.6 6.6 0 0 0 .948-1.892 6.62 6.62 0 0 0 .306-2.134 6.215 6.215 0 0 0-.38-2.132 6.632 6.632 0 0 0-.994-1.83 5.864 5.864 0 0 0-1.393-1.302 6.18 6.18 0 0 0-1.678-.779 7.547 7.547 0 0 0-1.874-.325 19.89 19.89 0 0 0-1.162 4.07 56.242 56.242 0 0 0-.637 4.564c-.15 1.568-.272 3.165-.364 4.788a90.297 90.297 0 0 1-.411 4.767 40.557 40.557 0 0 1-.742 4.488 17.557 17.557 0 0 1-1.352 3.967 11.202 11.202 0 0 1-2.253 3.172c-.915.907-2.062 1.613-3.441 2.118a9.51 9.51 0 0 1-3.213.604 7.483 7.483 0 0 1-3.021-.592c-.945-.392-1.801-.994-2.57-1.806-.756-.817-1.365-1.853-1.824-3.109-.28-.763-.502-1.648-.667-2.656a18.552 18.552 0 0 1-.187-3.271c.026-1.179.162-2.405.409-3.678a21.838 21.838 0 0 1 1.166-3.9 22.673 22.673 0 0 1 2.08-3.909c.861-1.295 1.91-2.53 3.145-3.708 1.242-1.192 2.692-2.302 4.351-3.329 1.66-1.027 3.56-1.933 5.702-2.717.729-.267 1.475-.47 2.238-.61.759-.15 1.516-.237 2.27-.259.282-.446.587-.882.915-1.307a16.58 16.58 0 0 1 1.056-1.284l.452.35zm-13.05 34.444c1.212-.444 2.2-1.079 2.966-1.906a9.845 9.845 0 0 0 1.843-2.888c.459-1.109.799-2.334 1.02-3.674.229-1.356.41-2.77.545-4.244.142-1.489.267-3.023.376-4.602.115-1.594.29-3.184.523-4.77.234-1.586.564-3.151.991-4.694a21.024 21.024 0 0 1 1.792-4.433c-1.143.075-2.28.32-3.413.734-2.086.764-3.969 1.771-5.648 3.022a25.013 25.013 0 0 0-4.4 4.187 25.117 25.117 0 0 0-3.144 4.909 25.694 25.694 0 0 0-1.86 5.183 19.867 19.867 0 0 0-.551 5.01c.032 1.616.288 3.08.769 4.392.3.819.723 1.541 1.27 2.168a6.091 6.091 0 0 0 1.924 1.451c.724.346 1.514.54 2.37.583.855.043 1.73-.1 2.628-.428zm13.533-18.691a5.575 5.575 0 0 0-1.07-.161c-.363-.02-.663.013-.898.1-.157.057-.256.119-.295.184-.04.065-.05.126-.029.182.037.101.141.158.311.172.166.003.364-.012.594-.045a7.44 7.44 0 0 0 1.387-.432z" fill="#FFEDBD"/><path d="M124.892 142.748a.583.583 0 0 0 .14-.032l.152-.056a4.27 4.27 0 0 0 .827-.398c.233-.162.432-.349.596-.561.175-.217.324-.469.448-.756.12-.298.218-.639.293-1.023l.778.249c-.259.96-.619 1.696-1.08 2.208a4.076 4.076 0 0 1-1.651 1.12 2.756 2.756 0 0 1-.647.16c-.186.984-.45 1.863-.79 2.636a9.876 9.876 0 0 1-1.177 1.996 6.948 6.948 0 0 1-1.416 1.395c-.499.374-.99.649-1.472.826-.493.18-.986.259-1.478.235a3.166 3.166 0 0 1-1.348-.346 3.68 3.68 0 0 1-1.131-.902 4.554 4.554 0 0 1-.807-1.421 6.205 6.205 0 0 1-.359-1.815 10.643 10.643 0 0 1 .089-1.997c.105-.687.268-1.37.49-2.049.218-.691.484-1.354.798-1.99.314-.637.661-1.234 1.041-1.793a9.86 9.86 0 0 1 1.215-1.475l.797.509a13.723 13.723 0 0 0-1.225 2.28 16.808 16.808 0 0 0-.884 2.746c-.21.955-.323 1.912-.341 2.873-.01.944.129 1.809.416 2.595.259.706.617 1.198 1.075 1.476.453.266 1 .282 1.639.048.494-.181.944-.46 1.353-.839a6.92 6.92 0 0 0 1.111-1.341c.333-.516.626-1.088.88-1.715.249-.638.466-1.296.65-1.974a3.25 3.25 0 0 1-1.135-.443 5.274 5.274 0 0 1-1.023-.866 7.47 7.47 0 0 1-.873-1.187 9.354 9.354 0 0 1-.648-1.404 5.48 5.48 0 0 1-.326-1.464 4.365 4.365 0 0 1 .086-1.328c.101-.419.263-.777.484-1.074.222-.298.507-.51.855-.638.314-.114.625-.133.933-.055.304.067.594.215.869.445.271.219.523.508.757.868.233.359.432.763.596 1.212.123.336.231.717.322 1.141.092.424.158.865.198 1.321.047.44.065.891.056 1.352a5.832 5.832 0 0 1-.133 1.251zm-3.822-3.351c.119.325.277.668.472 1.029.196.361.421.698.676 1.012.255.314.535.593.841.837.301.233.625.388.971.464.058-.466.081-.926.067-1.379a12.41 12.41 0 0 0-.084-1.324 7.26 7.26 0 0 0-.186-1.133 7.035 7.035 0 0 0-.253-.9 5.017 5.017 0 0 0-.423-.894 3.038 3.038 0 0 0-.5-.637 1.245 1.245 0 0 0-.532-.359.701.701 0 0 0-.522-.019 1.026 1.026 0 0 0-.536.464 1.9 1.9 0 0 0-.266.784 3.734 3.734 0 0 0 0 .992c.052.35.144.704.275 1.063z" fill="#FFEDBD"/><path d="M130.228 131.008c-.019.121-.051.26-.096.416a3.292 3.292 0 0 0-.121.503 3.502 3.502 0 0 0-.028.601c.018.223.078.474.181.754.086.236.259.535.519.898.271.358.571.776.898 1.254.324.467.654.988.992 1.564.345.56.637 1.166.875 1.816.349.954.528 1.842.537 2.665.009.824-.105 1.572-.342 2.243.702-.791 1.314-1.778 1.834-2.961.517-1.194.953-2.625 1.309-4.294l.757.295a25.3 25.3 0 0 1-.781 2.976 15.79 15.79 0 0 1-1.232 2.835 10.7 10.7 0 0 1-1.807 2.36 6.658 6.658 0 0 1-2.459 1.568c-.841.308-1.622.365-2.341.17-.727-.179-1.304-.642-1.73-1.389l.563-.339c.024.067.099.167.224.299.109.126.258.237.446.333.188.097.42.158.697.184.265.03.566-.017.902-.14.449-.164.81-.411 1.084-.74.27-.34.472-.726.607-1.157a5.51 5.51 0 0 0 .237-1.384 8.738 8.738 0 0 0-.072-1.5 10.639 10.639 0 0 0-.257-1.432c-.116-.454-.239-.86-.37-1.219a16.867 16.867 0 0 0-.488-1.176 40.748 40.748 0 0 0-1.023-2.22 11.514 11.514 0 0 1-.249-.577l-.012-.033c-.089.21-.178.504-.269.88-.091.377-.189.788-.293 1.233-.093.441-.19.89-.29 1.346-.088.452-.173.865-.252 1.237-.069.369-.128.677-.177.924a3.074 3.074 0 0 0-.058.364l-.778-.249c.007-.015.059-.308.156-.877.097-.57.232-1.294.407-2.172.181-.893.393-1.88.633-2.96.236-1.091.5-2.16.79-3.208l.877.309z" fill="#FFEDBD"/><path d="M138.957 138.438a5.386 5.386 0 0 0 .229.832c.148.404.345.77.593 1.099.255.314.546.57.873.768a2.72 2.72 0 0 0 1.092.325c.405.03.826-.035 1.263-.195 1.47-.538 2.706-1.557 3.708-3.056 1.003-1.499 1.787-3.579 2.352-6.24l.756.295c-.288 1.505-.658 2.823-1.108 3.954-.455 1.121-.967 2.084-1.537 2.89-.558.802-1.159 1.455-1.802 1.957a7.198 7.198 0 0 1-1.956 1.117 6.748 6.748 0 0 1-1.605.359 4.929 4.929 0 0 1-1.744-.125 3.938 3.938 0 0 1-1.572-.855c-.496-.416-.887-1.017-1.175-1.802a7.238 7.238 0 0 1-.449-2.583c-.007-.887.096-1.752.309-2.593.214-.841.517-1.646.91-2.413.389-.778.815-1.475 1.277-2.089a9.948 9.948 0 0 1 1.467-1.567c.501-.438.976-.739 1.425-.903.291-.107.605-.171.941-.192.335-.021.656.02.961.125.317.1.605.28.866.541.272.257.488.604.648 1.041a3.76 3.76 0 0 1 .196 1.836 6.126 6.126 0 0 1-.564 1.847 9.468 9.468 0 0 1-1.161 1.78 13.571 13.571 0 0 1-1.575 1.588c-.571.489-1.166.929-1.786 1.321a10.57 10.57 0 0 1-1.832.938zm-.13-.773a9.66 9.66 0 0 0 1.947-1.247 10.272 10.272 0 0 0 1.503-1.523c.422-.549.773-1.103 1.051-1.663.29-.564.504-1.107.644-1.628.14-.522.218-1.002.236-1.441.017-.439-.03-.81-.141-1.113-.11-.302-.283-.513-.517-.631a.783.783 0 0 0-.67-.059c-.494.18-.983.563-1.469 1.148-.489.573-.927 1.287-1.314 2.141a14.443 14.443 0 0 0-.949 2.827 13.713 13.713 0 0 0-.321 3.189z" fill="#FFEDBD"/></g><path d="M159.322 160.46c1.191-7.352 3.038-16.96 5.473-27.465m32.799-79.472c-13.134 12.317-23.719 43.168-30.668 70.673m0 0l-13.88-4.521c3.666-26.985 23.145-83.31 71.733-92.723-11.19 21.084-34.637 71.162-38.91 102.8l-21.074 3.243m2.131-8.799a456.531 456.531 0 0 0-2.131 8.799" stroke="#fff" stroke-width="3"/><path fill-rule="evenodd" clip-rule="evenodd" d="M158.057 97.925L48.09 114.846l11.559 75.116 127.499-19.619-6.131-39.845 2.965-.456 6.131 39.845.456 2.965-2.965.456-127.5 19.619-2.964.456-.456-2.965-11.559-75.116-.456-2.965 2.965-.456 111.468-17.152c-.365 1.074-.713 2.14-1.045 3.196z" fill="#FFEDBD"/><path d="M102.256 128.81a11.354 11.354 0 0 0-1.492 2.282c.806.048 1.583.19 2.331.425.758.231 1.46.566 2.103 1.004a7.285 7.285 0 0 1 1.749 1.649c.518.65.941 1.424 1.269 2.321.279.763.41 1.535.391 2.318a6.629 6.629 0 0 1-.422 2.234 6.885 6.885 0 0 1-1.161 1.989 7.083 7.083 0 0 1-1.819 1.544 7.11 7.11 0 0 1 1.507 1.356 5.75 5.75 0 0 1 1.08 1.856c.107.291.195.653.265 1.086.065.421.116.873.153 1.356.048.478.081.968.099 1.47.026.487.047.943.063 1.37.027.422.055.794.083 1.114.029.32.067.548.117.682.119.326.301.545.546.659.261.121.553.122.879.003a4.022 4.022 0 0 0 1.54-1.003c.437-.44.807-.957 1.111-1.552.319-.587.586-1.232.799-1.933.21-.713.389-1.44.537-2.181.16-.745.297-1.482.412-2.211.122-.744.245-1.45.369-2.119l.795.243a173.765 173.765 0 0 1-.733 4.199c-.235 1.269-.541 2.398-.916 3.387-.371 1.001-.843 1.848-1.416 2.541-.573.693-1.325 1.21-2.256 1.551-.864.316-1.625.321-2.284.016-.643-.299-1.125-.886-1.445-1.76a5.91 5.91 0 0 1-.366-1.832 27.241 27.241 0 0 1-.002-1.83c.031-.609.04-1.211.027-1.803a5.412 5.412 0 0 0-.335-1.748 4.172 4.172 0 0 0-.769-1.32 5.148 5.148 0 0 0-1.129-.999c-.348.128-.752.256-1.213.387-.45.127-.895.213-1.336.26a3.18 3.18 0 0 1-1.152-.074c-.34-.092-.566-.295-.681-.609a.851.851 0 0 1 .09-.796c.158-.262.456-.473.894-.633a3.44 3.44 0 0 1 1.593-.182 7.561 7.561 0 0 1 1.722.38 5.57 5.57 0 0 0 1.528-1.456 6.6 6.6 0 0 0 .948-1.892 6.62 6.62 0 0 0 .306-2.134 6.215 6.215 0 0 0-.38-2.132 6.632 6.632 0 0 0-.994-1.83 5.864 5.864 0 0 0-1.393-1.302 6.18 6.18 0 0 0-1.678-.779 7.547 7.547 0 0 0-1.874-.325 19.89 19.89 0 0 0-1.162 4.07 56.242 56.242 0 0 0-.637 4.564c-.15 1.568-.272 3.165-.364 4.788a90.297 90.297 0 0 1-.411 4.767 40.557 40.557 0 0 1-.742 4.488 17.557 17.557 0 0 1-1.352 3.967 11.202 11.202 0 0 1-2.253 3.172c-.915.907-2.062 1.613-3.441 2.118a9.51 9.51 0 0 1-3.213.604 7.483 7.483 0 0 1-3.021-.592c-.945-.392-1.801-.994-2.57-1.806-.756-.817-1.365-1.853-1.824-3.109-.28-.763-.502-1.648-.667-2.656a18.552 18.552 0 0 1-.187-3.271c.026-1.179.162-2.405.409-3.678a21.838 21.838 0 0 1 1.166-3.9 22.673 22.673 0 0 1 2.08-3.909c.861-1.295 1.91-2.53 3.145-3.708 1.242-1.192 2.692-2.302 4.351-3.329 1.66-1.027 3.56-1.933 5.702-2.717.729-.267 1.475-.47 2.238-.61.759-.15 1.516-.237 2.27-.259.282-.446.587-.882.915-1.307a16.58 16.58 0 0 1 1.056-1.284l.452.35zm-13.05 34.444c1.212-.444 2.2-1.079 2.966-1.906a9.845 9.845 0 0 0 1.843-2.888c.459-1.109.799-2.334 1.02-3.674.229-1.356.41-2.77.545-4.244.142-1.489.267-3.023.376-4.602.115-1.594.29-3.184.523-4.77.234-1.586.564-3.151.991-4.694a21.024 21.024 0 0 1 1.792-4.433c-1.143.075-2.28.32-3.413.734-2.086.764-3.969 1.771-5.648 3.022a25.013 25.013 0 0 0-4.4 4.187 25.117 25.117 0 0 0-3.144 4.909 25.694 25.694 0 0 0-1.86 5.183 19.867 19.867 0 0 0-.551 5.01c.032 1.616.288 3.08.769 4.392.3.819.723 1.541 1.27 2.168a6.091 6.091 0 0 0 1.924 1.451c.724.346 1.514.54 2.37.583.855.043 1.73-.1 2.628-.428zm13.533-18.691a5.575 5.575 0 0 0-1.07-.161c-.363-.02-.663.013-.898.1-.157.057-.256.119-.295.184-.04.065-.05.126-.029.182.037.101.141.158.311.172.166.003.364-.012.594-.045a7.44 7.44 0 0 0 1.387-.432z" fill="#FFEDBD"/><path d="M124.892 142.748a.583.583 0 0 0 .14-.032l.152-.056a4.27 4.27 0 0 0 .827-.398c.233-.162.432-.349.596-.561.175-.217.324-.469.448-.756.12-.298.218-.639.293-1.023l.778.249c-.259.96-.619 1.696-1.08 2.208a4.076 4.076 0 0 1-1.651 1.12 2.756 2.756 0 0 1-.647.16c-.186.984-.45 1.863-.79 2.636a9.876 9.876 0 0 1-1.177 1.996 6.948 6.948 0 0 1-1.416 1.395c-.499.374-.99.649-1.472.826-.493.18-.986.259-1.478.235a3.166 3.166 0 0 1-1.348-.346 3.68 3.68 0 0 1-1.131-.902 4.554 4.554 0 0 1-.807-1.421 6.205 6.205 0 0 1-.359-1.815 10.643 10.643 0 0 1 .089-1.997c.105-.687.268-1.37.49-2.049.218-.691.484-1.354.798-1.99.314-.637.661-1.234 1.041-1.793a9.86 9.86 0 0 1 1.215-1.475l.797.509a13.723 13.723 0 0 0-1.225 2.28 16.808 16.808 0 0 0-.884 2.746c-.21.955-.323 1.912-.341 2.873-.01.944.129 1.809.416 2.595.259.706.617 1.198 1.075 1.476.453.266 1 .282 1.639.048.494-.181.944-.46 1.353-.839a6.92 6.92 0 0 0 1.111-1.341c.333-.516.626-1.088.88-1.715.249-.638.466-1.296.65-1.974a3.25 3.25 0 0 1-1.135-.443 5.274 5.274 0 0 1-1.023-.866 7.47 7.47 0 0 1-.873-1.187 9.354 9.354 0 0 1-.648-1.404 5.48 5.48 0 0 1-.326-1.464 4.365 4.365 0 0 1 .086-1.328c.101-.419.263-.777.484-1.074.222-.298.507-.51.855-.638.314-.114.625-.133.933-.055.304.067.594.215.869.445.271.219.523.508.757.868.233.359.432.763.596 1.212.123.336.231.717.322 1.141.092.424.158.865.198 1.321.047.44.065.891.056 1.352a5.832 5.832 0 0 1-.133 1.251zm-3.822-3.351c.119.325.277.668.472 1.029.196.361.421.698.676 1.012.255.314.535.593.841.837.301.233.625.388.971.464.058-.466.081-.926.067-1.379a12.41 12.41 0 0 0-.084-1.324 7.26 7.26 0 0 0-.186-1.133 7.035 7.035 0 0 0-.253-.9 5.017 5.017 0 0 0-.423-.894 3.038 3.038 0 0 0-.5-.637 1.245 1.245 0 0 0-.532-.359.701.701 0 0 0-.522-.019 1.026 1.026 0 0 0-.536.464 1.9 1.9 0 0 0-.266.784 3.734 3.734 0 0 0 0 .992c.052.35.144.704.275 1.063z" fill="#FFEDBD"/><path d="M130.228 131.008c-.019.121-.051.26-.096.416a3.292 3.292 0 0 0-.121.503 3.502 3.502 0 0 0-.028.601c.018.223.078.474.181.754.086.236.259.535.519.898.271.358.571.776.898 1.254.324.467.654.988.992 1.564.345.56.637 1.166.875 1.816.349.954.528 1.842.537 2.665.009.824-.105 1.572-.342 2.243.702-.791 1.314-1.778 1.834-2.961.517-1.194.953-2.625 1.309-4.294l.757.295a25.3 25.3 0 0 1-.781 2.976 15.79 15.79 0 0 1-1.232 2.835 10.7 10.7 0 0 1-1.807 2.36 6.658 6.658 0 0 1-2.459 1.568c-.841.308-1.622.365-2.341.17-.727-.179-1.304-.642-1.73-1.389l.563-.339c.024.067.099.167.224.299.109.126.258.237.446.333.188.097.42.158.697.184.265.03.566-.017.902-.14.449-.164.81-.411 1.084-.74.27-.34.472-.726.607-1.157a5.51 5.51 0 0 0 .237-1.384 8.738 8.738 0 0 0-.072-1.5 10.639 10.639 0 0 0-.257-1.432c-.116-.454-.239-.86-.37-1.219a16.867 16.867 0 0 0-.488-1.176 40.748 40.748 0 0 0-1.023-2.22 11.514 11.514 0 0 1-.249-.577l-.012-.033c-.089.21-.178.504-.269.88-.091.377-.189.788-.293 1.233-.093.441-.19.89-.29 1.346-.088.452-.173.865-.252 1.237-.069.369-.128.677-.177.924a3.074 3.074 0 0 0-.058.364l-.778-.249c.007-.015.059-.308.156-.877.097-.57.232-1.294.407-2.172.181-.893.393-1.88.633-2.96.236-1.091.5-2.16.79-3.208l.877.309z" fill="#FFEDBD"/><path d="M138.957 138.438a5.386 5.386 0 0 0 .229.832c.148.404.345.77.593 1.099.255.314.546.57.873.768a2.72 2.72 0 0 0 1.092.325c.405.03.826-.035 1.263-.195 1.47-.538 2.706-1.557 3.708-3.056 1.003-1.499 1.787-3.579 2.352-6.24l.756.295c-.288 1.505-.658 2.823-1.108 3.954-.455 1.121-.967 2.084-1.537 2.89-.558.802-1.159 1.455-1.802 1.957a7.198 7.198 0 0 1-1.956 1.117 6.748 6.748 0 0 1-1.605.359 4.929 4.929 0 0 1-1.744-.125 3.938 3.938 0 0 1-1.572-.855c-.496-.416-.887-1.017-1.175-1.802a7.238 7.238 0 0 1-.449-2.583c-.007-.887.096-1.752.309-2.593.214-.841.517-1.646.91-2.413.389-.778.815-1.475 1.277-2.089a9.948 9.948 0 0 1 1.467-1.567c.501-.438.976-.739 1.425-.903.291-.107.605-.171.941-.192.335-.021.656.02.961.125.317.1.605.28.866.541.272.257.488.604.648 1.041a3.76 3.76 0 0 1 .196 1.836 6.126 6.126 0 0 1-.564 1.847 9.468 9.468 0 0 1-1.161 1.78 13.571 13.571 0 0 1-1.575 1.588c-.571.489-1.166.929-1.786 1.321a10.57 10.57 0 0 1-1.832.938zm-.13-.773a9.66 9.66 0 0 0 1.947-1.247 10.272 10.272 0 0 0 1.503-1.523c.422-.549.773-1.103 1.051-1.663.29-.564.504-1.107.644-1.628.14-.522.218-1.002.236-1.441.017-.439-.03-.81-.141-1.113-.11-.302-.283-.513-.517-.631a.783.783 0 0 0-.67-.059c-.494.18-.983.563-1.469 1.148-.489.573-.927 1.287-1.314 2.141a14.443 14.443 0 0 0-.949 2.827 13.713 13.713 0 0 0-.321 3.189z" fill="#FFEDBD"/></g><defs><filter id="filter0_f" x="29.669" y="9.883" width="231.777" height="198.5" filterUnits="userSpaceOnUse" color-interpolation-filters="sRGB"><feFlood flood-opacity="0" result="BackgroundImageFix"/><feBlend in="SourceGraphic" in2="BackgroundImageFix" result="shape"/><feGaussianBlur stdDeviation="7.5" result="effect1_foregroundBlur"/></filter><clipPath id="clip0"><path fill="#fff" d="M0 0h240v240H0z"/></clipPath></defs></svg>