<svg width="240" height="240" fill="none" xmlns="http://www.w3.org/2000/svg"><g filter="url(#filter0_f)"><path d="M103.952 133.952c-12.572-.762-27.302 11.111-31.905 17.619h21.428c13.334-14.285 20.953-3.809 40.477-5.238 16.816-1.23 20.476-20 40-20.476v-1.428c-15.238-2.858-30 12.857-41.429 12.857-11.428 0-12.857-2.381-28.571-3.334z" fill="#61FFFF"/><path stroke="#fff" stroke-width="3" d="M54.5 54.5h130.333v130.333H54.5z"/><path d="M81.535 128.603l38.556-42.27 35.796 42.27" stroke="#fff" stroke-width="3"/><path d="M140.6 111.604l17.789-19.502 16.516 19.502M64.429 111.604l17.789-19.502 16.516 19.502" stroke="#fff" stroke-width="3"/><path stroke="#fff" stroke-width="3" d="M64.024 64.024H175.31v88.429H64.024z"/></g><path d="M103.952 133.952c-12.572-.762-27.302 11.111-31.905 17.619h21.428c13.334-14.285 20.953-3.809 40.477-5.238 16.816-1.23 20.476-20 40-20.476v-1.428c-15.238-2.858-30 12.857-41.429 12.857-11.428 0-12.857-2.381-28.571-3.334z" fill="#61FFFF"/><path stroke="#fff" stroke-width="3" d="M54.5 54.5h130.333v130.333H54.5z"/><path d="M81.535 128.603l38.556-42.27 35.796 42.27" stroke="#fff" stroke-width="3"/><path d="M140.6 111.604l17.789-19.502 16.516 19.502M64.429 111.604l17.789-19.502 16.516 19.502" stroke="#fff" stroke-width="3"/><path stroke="#fff" stroke-width="3" d="M64.024 64.024H175.31v88.429H64.024z"/><defs><filter id="filter0_f" x="38" y="38" width="163.333" height="163.333" filterUnits="userSpaceOnUse" color-interpolation-filters="sRGB"><feFlood flood-opacity="0" result="BackgroundImageFix"/><feBlend in="SourceGraphic" in2="BackgroundImageFix" result="shape"/><feGaussianBlur stdDeviation="7.5" result="effect1_foregroundBlur"/></filter></defs></svg>