<svg width="240" height="240" fill="none" xmlns="http://www.w3.org/2000/svg"><g clip-path="url(#clip0)"><g opacity=".1" filter="url(#filter0_f)"><path fill="#61FFFF" d="M206.726 139.544l-158.29 39.877L28.11 98.74 186.4 58.862z"/><path stroke="#000" stroke-width="1.278" d="M205.95 139.08L48.9 178.645 28.885 99.203l157.05-39.565z"/></g><g filter="url(#filter1_d)"><path d="M104.285 134.286c-12.572-.762-27.302 11.111-31.905 17.619h21.428c13.334-14.286 20.953-3.81 40.477-5.238 16.816-1.231 20.476-20 40-20.477v-1.428c-15.238-2.857-30 12.857-41.429 12.857-11.428 0-12.857-2.381-28.571-3.333z" fill="#61FFFF"/></g><g filter="url(#filter2_d)"><path stroke="#fff" stroke-width="3" d="M54.833 54.833h130.333v130.333H54.833z"/></g><g filter="url(#filter3_d)" stroke="#fff" stroke-width="3"><path d="M81.868 128.936l38.556-42.27 35.796 42.27"/><path d="M140.933 111.938l17.789-19.503 16.516 19.503M64.762 111.938L82.55 92.435l16.516 19.503"/></g><g filter="url(#filter4_d)"><path stroke="#fff" stroke-width="3" d="M64.357 64.357h111.286v88.429H64.357z"/></g></g><defs><filter id="filter0_f" x="-21.891" y="8.862" width="278.616" height="220.56" filterUnits="userSpaceOnUse" color-interpolation-filters="sRGB"><feFlood flood-opacity="0" result="BackgroundImageFix"/><feBlend in="SourceGraphic" in2="BackgroundImageFix" result="shape"/><feGaussianBlur stdDeviation="25" result="effect1_foregroundBlur"/></filter><filter id="filter1_d" x="57.38" y="109.415" width="131.905" height="57.49" filterUnits="userSpaceOnUse" color-interpolation-filters="sRGB"><feFlood flood-opacity="0" result="BackgroundImageFix"/><feColorMatrix in="SourceAlpha" values="0 0 0 0 0 0 0 0 0 0 0 0 0 0 0 0 0 0 127 0"/><feOffset/><feGaussianBlur stdDeviation="7.5"/><feColorMatrix values="0 0 0 0 0.384314 0 0 0 0 1 0 0 0 0 1 0 0 0 1 0"/><feBlend in2="BackgroundImageFix" result="effect1_dropShadow"/><feBlend in="SourceGraphic" in2="effect1_dropShadow" result="shape"/></filter><filter id="filter2_d" x="38.333" y="38.333" width="163.333" height="163.333" filterUnits="userSpaceOnUse" color-interpolation-filters="sRGB"><feFlood flood-opacity="0" result="BackgroundImageFix"/><feColorMatrix in="SourceAlpha" values="0 0 0 0 0 0 0 0 0 0 0 0 0 0 0 0 0 0 127 0"/><feOffset/><feGaussianBlur stdDeviation="7.5"/><feColorMatrix values="0 0 0 0 1 0 0 0 0 1 0 0 0 0 1 0 0 0 0.75 0"/><feBlend in2="BackgroundImageFix" result="effect1_dropShadow"/><feBlend in="SourceGraphic" in2="effect1_dropShadow" result="shape"/></filter><filter id="filter3_d" x="48.653" y="69.395" width="142.729" height="75.552" filterUnits="userSpaceOnUse" color-interpolation-filters="sRGB"><feFlood flood-opacity="0" result="BackgroundImageFix"/><feColorMatrix in="SourceAlpha" values="0 0 0 0 0 0 0 0 0 0 0 0 0 0 0 0 0 0 127 0"/><feOffset/><feGaussianBlur stdDeviation="7.5"/><feColorMatrix values="0 0 0 0 1 0 0 0 0 1 0 0 0 0 1 0 0 0 0.75 0"/><feBlend in2="BackgroundImageFix" result="effect1_dropShadow"/><feBlend in="SourceGraphic" in2="effect1_dropShadow" result="shape"/></filter><filter id="filter4_d" x="47.857" y="47.857" width="144.286" height="121.429" filterUnits="userSpaceOnUse" color-interpolation-filters="sRGB"><feFlood flood-opacity="0" result="BackgroundImageFix"/><feColorMatrix in="SourceAlpha" values="0 0 0 0 0 0 0 0 0 0 0 0 0 0 0 0 0 0 127 0"/><feOffset/><feGaussianBlur stdDeviation="7.5"/><feColorMatrix values="0 0 0 0 1 0 0 0 0 1 0 0 0 0 1 0 0 0 0.75 0"/><feBlend in2="BackgroundImageFix" result="effect1_dropShadow"/><feBlend in="SourceGraphic" in2="effect1_dropShadow" result="shape"/></filter><clipPath id="clip0"><path fill="#fff" d="M0 0h240v240H0z"/></clipPath></defs></svg>