<svg width="240" height="240" fill="none" xmlns="http://www.w3.org/2000/svg"><g filter="url(#filter0_f)"><path fill-rule="evenodd" clip-rule="evenodd" d="M86.155 75.043c-2.177-2.782-6.566-12.035-5.748-26.143 5.983-.374 15.855-.064 23.391 3.926 4.234 2.241 7.912 4.757 9.504 8.587 1.39 3.348 1.325 8.085-2.203 15.21-4.191-5.978-9.604-10.76-16.546-13.517l-1.107 2.788c6.586 2.616 11.746 7.287 15.742 13.249-2.54.99-6.231 1.877-10.138 1.745-4.519-.152-9.237-1.655-12.895-5.845zm24.648 6.683c-2.89 1.205-7.219 2.316-11.854 2.16-5.139-.172-10.743-1.912-15.082-6.902l-.023-.027-.022-.028c-2.766-3.503-7.544-14.025-6.318-29.547l.1-1.268 1.267-.109c5.9-.505 17.433-.541 26.331 4.17 4.266 2.258 8.837 5.192 10.87 10.087 1.974 4.751 1.396 10.901-3.092 19.255 4.006 6.648 6.72 14.47 8.497 22.509 2.555 11.559 3.226 23.784 2.943 34.131 1.257-5.281 2.902-11.073 4.933-16.634a101.227 101.227 0 012.861-7.046c-3.988-7.953-4.507-13.782-2.78-18.277 1.775-4.622 5.776-7.403 9.503-9.538 7.799-4.466 17.891-4.427 23.034-3.95l1.265.117.092 1.267c1.064 14.575-3.081 24.464-5.496 27.773l-.02.029-.022.027c-3.801 4.728-8.735 6.396-13.275 6.561-3.846.14-7.448-.791-9.975-1.859a100.563 100.563 0 00-2.369 5.925c-3.713 10.167-6.117 21.167-7.189 28.175l-1.414-.217-.079.671-2.978-.362c1.402-11.546 1.695-29.594-1.964-46.145-1.686-7.63-4.188-14.843-7.744-20.948zm44.626 26.347c1.876-2.594 5.679-11.255 4.988-24.473-5.188-.332-13.58-.005-19.989 3.666-3.657 2.094-6.821 4.434-8.194 8.01-1.175 3.06-1.152 7.353 1.657 13.727a59.907 59.907 0 012.22-3.951c2.6-4.22 5.625-7.765 9.123-9.842l1.531 2.58c-2.902 1.723-5.618 4.807-8.099 8.836a59.81 59.81 0 00-2.87 5.275c2.174.905 5.304 1.707 8.61 1.587 3.846-.14 7.878-1.519 11.023-5.415z" fill="#36C64F"/><path d="M42.5 147l-1.275-.79-.225.363V147h1.5zm0 25.5H41v1.375l1.37.119.13-1.494zm59.5 18l.973-1.142-.095-.08-.106-.064L102 190.5zm37.5 0l.465 1.426.034-.011.034-.013-.533-1.402zm25-9.5l.533 1.402.103-.039.097-.054L164.5 181zm15.5-16.5l-1.371-.609-.034.077-.025.08 1.43.452zm2-33l1.171.937.02-.025.019-.025-1.21-.887zm-95.5 4l.826-1.252-.088-.058-.096-.046-.642 1.356zM148 166l-.132-1.494L148 166zm18-14.5l.976 1.139.107-.092.088-.11L166 151.5zm30.324-23.73l1.371.609-1.371-.609zm-2.418-3.416l-.312-1.467.312 1.467zM41 147v25.5h3V147h-3zm1.37 26.994c11.403.992 39.14 5.962 58.858 17.792l1.544-2.572c-20.283-12.17-48.545-17.2-60.142-18.208l-.26 2.988zm58.657 17.648c5.081 4.328 15.726 7.853 38.938.284l-.93-2.852c-22.788 7.431-32.143 3.622-36.062.284l-1.946 2.284zm39.006.26l25-9.5-1.066-2.804-25 9.5 1.066 2.804zm25.2-9.593c2.182-1.222 5.559-3.519 8.709-6.493 3.131-2.956 6.176-6.71 7.488-10.864l-2.86-.904c-1.088 3.446-3.71 6.776-6.687 9.586-2.958 2.793-6.132 4.946-8.116 6.057l1.466 2.618zm16.138-17.2l16.324-36.73-2.741-1.218-16.325 36.73 2.742 1.218zm12.223-42.222c-4.031.857-9.444 3.144-12.804 7.726l2.42 1.774c2.761-3.765 7.372-5.793 11.008-6.565l-.624-2.935zM43.774 147.79c2.445-3.942 7.52-9.288 14.7-12.334 7.117-3.02 16.379-3.813 27.384 1.4l1.284-2.712c-11.795-5.587-21.95-4.797-29.84-1.45-7.83 3.321-13.354 9.125-16.077 13.516l2.55 1.58zm41.9-11.038C93.968 142.226 106.99 151 123.5 151v-3c-15.49 0-27.802-8.226-36.174-13.752l-1.652 2.504zM123.5 151H148v-3h-24.5v3zm24.5 0c2.458 0 4.892.258 6.673 1.201.861.455 1.544 1.058 2.022 1.862.479.806.805 1.905.805 3.437h3c0-1.968-.424-3.619-1.226-4.969-.804-1.353-1.933-2.312-3.197-2.982-2.469-1.307-5.535-1.549-8.077-1.549v3zm9.5 6.5c0 .362-.164.955-.645 1.722-.468.744-1.17 1.549-2.071 2.307-1.809 1.523-4.277 2.744-6.916 2.977l.264 2.988c3.361-.296 6.393-1.826 8.584-3.67 1.099-.926 2.022-1.959 2.679-3.007.644-1.026 1.105-2.179 1.105-3.317h-3zm-9.632 7.006c-16.884 1.49-27.235 1.49-46.567-2.475l-.602 2.938c19.668 4.035 30.317 4.035 47.433 2.525l-.264-2.988zm32.961-33.943l-16 20 2.342 1.874 16-20-2.342-1.874zm-15.805 19.798l-7 6 1.952 2.278 7-6-1.952-2.278zm32.671-21.982c.609-1.37.49-2.883-.282-4.018-.801-1.175-2.224-1.813-3.819-1.474l.624 2.935c.227-.049.373-.019.463.017.093.038.18.105.252.21.145.214.239.62.021 1.112l2.741 1.218z" fill="#fff"/></g><path fill-rule="evenodd" clip-rule="evenodd" d="M86.155 75.043c-2.177-2.782-6.566-12.035-5.748-26.143 5.983-.374 15.855-.064 23.391 3.926 4.234 2.241 7.912 4.757 9.504 8.587 1.39 3.348 1.325 8.085-2.203 15.21-4.191-5.978-9.604-10.76-16.546-13.517l-1.107 2.788c6.586 2.616 11.746 7.287 15.742 13.249-2.54.99-6.231 1.877-10.138 1.745-4.519-.152-9.237-1.655-12.895-5.845zm24.648 6.683c-2.89 1.205-7.219 2.316-11.854 2.16-5.139-.172-10.743-1.912-15.082-6.902l-.023-.027-.022-.028c-2.766-3.503-7.544-14.025-6.318-29.547l.1-1.268 1.267-.109c5.9-.505 17.433-.541 26.331 4.17 4.266 2.258 8.837 5.192 10.87 10.087 1.974 4.751 1.396 10.901-3.092 19.255 4.006 6.648 6.72 14.47 8.497 22.509 2.555 11.559 3.226 23.784 2.943 34.131 1.257-5.281 2.902-11.073 4.933-16.634a101.227 101.227 0 012.861-7.046c-3.988-7.953-4.507-13.782-2.78-18.277 1.775-4.622 5.776-7.403 9.503-9.538 7.799-4.466 17.891-4.427 23.034-3.95l1.265.117.092 1.267c1.064 14.575-3.081 24.464-5.496 27.773l-.02.029-.022.027c-3.801 4.728-8.735 6.396-13.275 6.561-3.846.14-7.448-.791-9.975-1.859a100.563 100.563 0 00-2.369 5.925c-3.713 10.167-6.117 21.167-7.189 28.175l-1.414-.217-.079.671-2.978-.362c1.402-11.546 1.695-29.594-1.964-46.145-1.686-7.63-4.188-14.843-7.744-20.948zm44.626 26.347c1.876-2.594 5.679-11.255 4.988-24.473-5.188-.332-13.58-.005-19.989 3.666-3.657 2.094-6.821 4.434-8.194 8.01-1.175 3.06-1.152 7.353 1.657 13.727a59.907 59.907 0 012.22-3.951c2.6-4.22 5.625-7.765 9.123-9.842l1.531 2.58c-2.902 1.723-5.618 4.807-8.099 8.836a59.81 59.81 0 00-2.87 5.275c2.174.905 5.304 1.707 8.61 1.587 3.846-.14 7.878-1.519 11.023-5.415z" fill="#36C64F"/><path d="M42.5 147l-1.275-.79-.225.363V147h1.5zm0 25.5H41v1.375l1.37.119.13-1.494zm59.5 18l.973-1.142-.095-.08-.106-.064L102 190.5zm37.5 0l.465 1.426.034-.011.034-.013-.533-1.402zm25-9.5l.533 1.402.103-.039.097-.054L164.5 181zm15.5-16.5l-1.371-.609-.034.077-.025.08 1.43.452zm2-33l1.171.937.02-.025.019-.025-1.21-.887zm-95.5 4l.826-1.252-.088-.058-.096-.046-.642 1.356zM148 166l-.132-1.494L148 166zm18-14.5l.976 1.139.107-.092.088-.11L166 151.5zm30.324-23.73l1.371.609-1.371-.609zm-2.418-3.416l-.312-1.467.312 1.467zM41 147v25.5h3V147h-3zm1.37 26.994c11.403.992 39.14 5.962 58.858 17.792l1.544-2.572c-20.283-12.17-48.545-17.2-60.142-18.208l-.26 2.988zm58.657 17.648c5.081 4.328 15.726 7.853 38.938.284l-.93-2.852c-22.788 7.431-32.143 3.622-36.062.284l-1.946 2.284zm39.006.26l25-9.5-1.066-2.804-25 9.5 1.066 2.804zm25.2-9.593c2.182-1.222 5.559-3.519 8.709-6.493 3.131-2.956 6.176-6.71 7.488-10.864l-2.86-.904c-1.088 3.446-3.71 6.776-6.687 9.586-2.958 2.793-6.132 4.946-8.116 6.057l1.466 2.618zm16.138-17.2l16.324-36.73-2.741-1.218-16.325 36.73 2.742 1.218zm12.223-42.222c-4.031.857-9.444 3.144-12.804 7.726l2.42 1.774c2.761-3.765 7.372-5.793 11.008-6.565l-.624-2.935zM43.774 147.79c2.445-3.942 7.52-9.288 14.7-12.334 7.117-3.02 16.379-3.813 27.384 1.4l1.284-2.712c-11.795-5.587-21.95-4.797-29.84-1.45-7.83 3.321-13.354 9.125-16.077 13.516l2.55 1.58zm41.9-11.038C93.968 142.226 106.99 151 123.5 151v-3c-15.49 0-27.802-8.226-36.174-13.752l-1.652 2.504zM123.5 151H148v-3h-24.5v3zm24.5 0c2.458 0 4.892.258 6.673 1.201.861.455 1.544 1.058 2.022 1.862.479.806.805 1.905.805 3.437h3c0-1.968-.424-3.619-1.226-4.969-.804-1.353-1.933-2.312-3.197-2.982-2.469-1.307-5.535-1.549-8.077-1.549v3zm9.5 6.5c0 .362-.164.955-.645 1.722-.468.744-1.17 1.549-2.071 2.307-1.809 1.523-4.277 2.744-6.916 2.977l.264 2.988c3.361-.296 6.393-1.826 8.584-3.67 1.099-.926 2.022-1.959 2.679-3.007.644-1.026 1.105-2.179 1.105-3.317h-3zm-9.632 7.006c-16.884 1.49-27.235 1.49-46.567-2.475l-.602 2.938c19.668 4.035 30.317 4.035 47.433 2.525l-.264-2.988zm32.961-33.943l-16 20 2.342 1.874 16-20-2.342-1.874zm-15.805 19.798l-7 6 1.952 2.278 7-6-1.952-2.278zm32.671-21.982c.609-1.37.49-2.883-.282-4.018-.801-1.175-2.224-1.813-3.819-1.474l.624 2.935c.227-.049.373-.019.463.017.093.038.18.105.252.21.145.214.239.62.021 1.112l2.741 1.218z" fill="#fff"/><defs><filter id="filter0_f" x="34" y="38.781" width="171.083" height="164.574" filterUnits="userSpaceOnUse" color-interpolation-filters="sRGB"><feFlood flood-opacity="0" result="BackgroundImageFix"/><feBlend in="SourceGraphic" in2="BackgroundImageFix" result="shape"/><feGaussianBlur stdDeviation="3.5" result="effect1_foregroundBlur"/></filter></defs></svg>