<svg width="240" height="240" fill="none" xmlns="http://www.w3.org/2000/svg"><g filter="url(#filter0_f)"><rect x="77.5" y="46.5" width="80.203" height="139" rx="4.5" stroke="#fff" stroke-width="3"/><rect x="98.578" y="63.141" width="38.047" height="68" rx="4.5" stroke="#fff" stroke-width="3"/><circle cx="117.602" cy="82.164" r="5.711" stroke="#61FFFF" stroke-width="3"/><circle cx="117.602" cy="109.898" r="5.711" stroke="#61FFFF" stroke-width="3"/><path fill-rule="evenodd" clip-rule="evenodd" d="M159.203 81.61h5.547a6.656 6.656 0 0 0 6.656-6.657V59.422a6.656 6.656 0 0 0-6.656-6.656h-5.547v3.328h5.547a3.328 3.328 0 0 1 3.328 3.328v15.531a3.328 3.328 0 0 1-3.328 3.328h-5.547v3.328zM159.203 132.641h1.11a6.656 6.656 0 0 0 6.656-6.657v-33.28a6.656 6.656 0 0 0-6.656-6.657h-1.11v3.328h1.11a3.328 3.328 0 0 1 3.328 3.328v33.281a3.328 3.328 0 0 1-3.328 3.328h-1.11v3.329z" fill="#fff"/></g><rect x="77.5" y="46.5" width="80.203" height="139" rx="4.5" stroke="#fff" stroke-width="3"/><rect x="98.578" y="63.141" width="38.047" height="68" rx="4.5" stroke="#fff" stroke-width="3"/><circle cx="117.602" cy="82.164" r="5.711" stroke="#61FFFF" stroke-width="3"/><circle cx="117.602" cy="109.898" r="5.711" stroke="#61FFFF" stroke-width="3"/><path fill-rule="evenodd" clip-rule="evenodd" d="M159.203 81.61h5.547a6.656 6.656 0 0 0 6.656-6.657V59.422a6.656 6.656 0 0 0-6.656-6.656h-5.547v3.328h5.547a3.328 3.328 0 0 1 3.328 3.328v15.531a3.328 3.328 0 0 1-3.328 3.328h-5.547v3.328zM159.203 132.641h1.11a6.656 6.656 0 0 0 6.656-6.657v-33.28a6.656 6.656 0 0 0-6.656-6.657h-1.11v3.328h1.11a3.328 3.328 0 0 1 3.328 3.328v33.281a3.328 3.328 0 0 1-3.328 3.328h-1.11v3.329z" fill="#fff"/><defs><filter id="filter0_f" x="61" y="30" width="125.406" height="172" filterUnits="userSpaceOnUse" color-interpolation-filters="sRGB"><feFlood flood-opacity="0" result="BackgroundImageFix"/><feBlend in="SourceGraphic" in2="BackgroundImageFix" result="shape"/><feGaussianBlur stdDeviation="7.5" result="effect1_foregroundBlur"/></filter></defs></svg>