<svg width="240" height="240" viewBox="0 0 240 240" fill="none" xmlns="http://www.w3.org/2000/svg">
<g clip-path="url(#clip0)">
<g filter="url(#filter0_d)">
<circle cx="124.116" cy="125.659" r="39.2077" stroke="white" stroke-width="3"/>
<path fill-rule="evenodd" clip-rule="evenodd" d="M163.882 116.92C164.201 114.791 164.367 112.612 164.367 110.394C164.367 86.2896 144.826 66.7494 120.722 66.7494C96.6183 66.7494 77.0781 86.2896 77.0781 110.394C77.0781 119.34 79.7699 127.657 84.3876 134.581C85.0295 137.452 85.9747 140.208 87.1878 142.815C79.0719 134.422 74.0781 122.991 74.0781 110.394C74.0781 84.6327 94.9615 63.7494 120.722 63.7494C146.483 63.7494 167.367 84.6327 167.367 110.394C167.367 115.728 166.471 120.853 164.822 125.627C164.82 122.638 164.496 119.725 163.882 116.92Z" fill="white"/>
<circle cx="123.691" cy="116.754" r="30.3029" stroke="white" stroke-width="3"/>
<path d="M143.816 121.419C143.816 134.642 133.097 145.361 119.874 145.361C106.651 145.361 95.9316 134.642 95.9316 121.419C95.9316 108.196 106.651 97.4765 119.874 97.4765C133.097 97.4765 143.816 108.196 143.816 121.419Z" stroke="white" stroke-width="3"/>
<path d="M135.335 113.362C135.335 122.102 128.067 129.248 119.025 129.248C109.984 129.248 102.716 122.102 102.716 113.362C102.716 104.623 109.984 97.4765 119.025 97.4765C128.067 97.4765 135.335 104.623 135.335 113.362Z" stroke="white" stroke-width="3"/>
<path d="M131.095 119.723C131.095 124.458 127.079 128.4 121.995 128.4C116.91 128.4 112.894 124.458 112.894 119.723C112.894 114.988 116.91 111.046 121.995 111.046C127.079 111.046 131.095 114.988 131.095 119.723Z" stroke="white" stroke-width="3"/>
<path fill-rule="evenodd" clip-rule="evenodd" d="M78.8013 89.9172C70.2308 96.8353 64.749 107.427 64.749 119.299C64.749 138.569 79.1911 154.465 97.8419 156.755C96.4567 155.584 95.1508 154.321 93.9335 152.977C78.8843 149.166 67.749 135.533 67.749 119.299C67.749 110.655 70.9061 102.748 76.13 96.6692C76.8475 94.3352 77.7432 92.0792 78.8013 89.9172Z" fill="white"/>
<path fill-rule="evenodd" clip-rule="evenodd" d="M120.649 63.7495C117.578 61.8859 113.975 60.8129 110.121 60.8129C101.21 60.8129 93.6384 66.548 90.8964 74.5284C89.5232 75.6716 88.2166 76.8922 86.9834 78.1835C88.4341 66.6965 98.2399 57.8129 110.121 57.8129C116.25 57.8129 121.827 60.1773 125.989 64.0437C124.26 63.8493 122.502 63.7494 120.721 63.7494C120.697 63.7494 120.673 63.7494 120.649 63.7495Z" fill="white"/>
<path fill-rule="evenodd" clip-rule="evenodd" d="M167.002 103.671C170.118 107.3 172.001 112.019 172.001 117.178C172.001 123.799 168.899 129.695 164.07 133.494C163.781 134.972 163.413 136.422 162.97 137.838C170.154 133.755 175.001 126.032 175.001 117.178C175.001 109.674 171.52 102.982 166.084 98.6307C166.479 100.278 166.787 101.96 167.002 103.671Z" fill="white"/>
<path d="M132.596 66.7177C137.543 67.4245 149.981 67.9898 153.374 64.5975C152.95 68.4139 155.494 81.7287 158.886 85.7995" stroke="white" stroke-width="3" stroke-linejoin="round"/>
<path d="M162.103 137.108C160.426 141.816 162.597 153.038 165.247 157.038C161.591 155.863 144.469 164.247 135.564 163.399C115.634 168.063 117.208 174.424 113.09 171.455C108.971 168.487 100.793 163.823 97.8242 155.766" stroke="white" stroke-width="3" stroke-linejoin="round"/>
<path d="M71.9511 99.454C73.057 94.5805 74.6299 82.229 71.524 78.5726C75.2934 79.3049 85.011 80.3694 89.3437 77.3187" stroke="white" stroke-width="3" stroke-linejoin="round"/>
</g>
<g opacity="0.1" filter="url(#filter1_f)">
<rect x="179.6" y="185.761" width="174.737" height="76.806" transform="rotate(-154.155 179.6 185.761)" fill="#61FFFF"/>
<rect x="179.303" y="184.907" width="173.459" height="75.5277" transform="rotate(-154.155 179.303 184.907)" stroke="black" stroke-width="1.27836"/>
</g>
</g>
<defs>
<filter id="filter0_d" x="49.749" y="42.8129" width="140.252" height="145.903" filterUnits="userSpaceOnUse" color-interpolation-filters="sRGB">
<feFlood flood-opacity="0" result="BackgroundImageFix"/>
<feColorMatrix in="SourceAlpha" type="matrix" values="0 0 0 0 0 0 0 0 0 0 0 0 0 0 0 0 0 0 127 0"/>
<feOffset/>
<feGaussianBlur stdDeviation="7.5"/>
<feColorMatrix type="matrix" values="0 0 0 0 1 0 0 0 0 1 0 0 0 0 1 0 0 0 0.75 0"/>
<feBlend mode="normal" in2="BackgroundImageFix" result="effect1_dropShadow"/>
<feBlend mode="normal" in="SourceGraphic" in2="effect1_dropShadow" result="shape"/>
</filter>
<filter id="filter1_f" x="-27.6592" y="-9.53772" width="290.742" height="245.299" filterUnits="userSpaceOnUse" color-interpolation-filters="sRGB">
<feFlood flood-opacity="0" result="BackgroundImageFix"/>
<feBlend mode="normal" in="SourceGraphic" in2="BackgroundImageFix" result="shape"/>
<feGaussianBlur stdDeviation="25" result="effect1_foregroundBlur"/>
</filter>
<clipPath id="clip0">
<rect width="240" height="240" fill="white"/>
</clipPath>
</defs>
</svg>
