<svg width="240" height="240" fill="none" xmlns="http://www.w3.org/2000/svg"><g filter="url(#filter0_f)"><circle cx="123.366" cy="124.846" r="39.208" stroke="#fff" stroke-width="3"/><path fill-rule="evenodd" clip-rule="evenodd" d="M163.132 116.107c.319-2.129.485-4.308.485-6.526 0-24.104-19.541-43.645-43.645-43.645-24.104 0-43.644 19.54-43.644 43.645a43.442 43.442 0 007.31 24.187 40.407 40.407 0 002.8 8.234c-8.116-8.393-13.11-19.824-13.11-32.421 0-25.761 20.883-46.645 46.644-46.645s46.645 20.884 46.645 46.645c0 5.334-.896 10.459-2.545 15.233a40.816 40.816 0 00-.94-8.707z" fill="#fff"/><circle cx="122.942" cy="115.941" r="30.303" stroke="#fff" stroke-width="3"/><path d="M143.066 120.606c0 13.223-10.719 23.942-23.942 23.942s-23.942-10.719-23.942-23.942 10.719-23.942 23.942-23.942 23.942 10.719 23.942 23.942z" stroke="#fff" stroke-width="3"/><path d="M134.586 112.549c0 8.74-7.268 15.886-16.31 15.886-9.041 0-16.309-7.146-16.309-15.886 0-8.739 7.268-15.885 16.309-15.885 9.042 0 16.31 7.146 16.31 15.885z" stroke="#fff" stroke-width="3"/><path d="M130.346 118.91c0 4.735-4.016 8.677-9.1 8.677-5.085 0-9.101-3.942-9.101-8.677 0-4.735 4.016-8.677 9.101-8.677 5.084 0 9.1 3.942 9.1 8.677z" stroke="#fff" stroke-width="3"/><path fill-rule="evenodd" clip-rule="evenodd" d="M78.052 89.104C69.482 96.022 64 106.614 64 118.486c0 19.27 14.442 35.166 33.093 37.456a40.902 40.902 0 01-3.909-3.778C78.136 148.353 67 134.72 67 118.486a34.603 34.603 0 018.381-22.63 46.327 46.327 0 012.671-6.752zM119.9 62.937A20.227 20.227 0 00109.372 60c-8.911 0-16.483 5.735-19.225 13.716a46.918 46.918 0 00-3.913 3.655C87.685 65.884 97.491 57 109.372 57a23.238 23.238 0 0115.868 6.23 47.14 47.14 0 00-5.268-.293h-.072zM166.253 102.858a20.663 20.663 0 014.999 13.507c0 6.621-3.102 12.518-7.931 16.316a40.718 40.718 0 01-1.1 4.344c7.184-4.083 12.031-11.806 12.031-20.66 0-7.504-3.481-14.196-8.917-18.547.395 1.648.703 3.329.918 5.04z" fill="#fff"/><path d="M131.846 65.905c4.947.707 17.385 1.272 20.778-2.12-.424 3.816 2.12 17.13 5.512 21.202M161.353 136.295c-1.677 4.708.494 15.93 3.144 19.93-3.656-1.175-20.778 7.209-29.683 6.361-19.93 4.664-18.356 11.025-22.474 8.056-4.119-2.968-12.297-7.632-15.266-15.689M71.201 98.641c1.106-4.873 2.679-17.225-.427-20.881 3.77.732 13.487 1.796 17.82-1.254" stroke="#fff" stroke-width="3" stroke-linejoin="round"/></g><circle cx="123.366" cy="124.846" r="39.208" stroke="#fff" stroke-width="3"/><path fill-rule="evenodd" clip-rule="evenodd" d="M163.132 116.107c.319-2.129.485-4.308.485-6.526 0-24.104-19.541-43.645-43.645-43.645-24.104 0-43.644 19.54-43.644 43.645a43.442 43.442 0 007.31 24.187 40.407 40.407 0 002.8 8.234c-8.116-8.393-13.11-19.824-13.11-32.421 0-25.761 20.883-46.645 46.644-46.645s46.645 20.884 46.645 46.645c0 5.334-.896 10.459-2.545 15.233a40.816 40.816 0 00-.94-8.707z" fill="#fff"/><circle cx="122.942" cy="115.941" r="30.303" stroke="#fff" stroke-width="3"/><path d="M143.066 120.606c0 13.223-10.719 23.942-23.942 23.942s-23.942-10.719-23.942-23.942 10.719-23.942 23.942-23.942 23.942 10.719 23.942 23.942z" stroke="#fff" stroke-width="3"/><path d="M134.586 112.549c0 8.74-7.268 15.886-16.31 15.886-9.041 0-16.309-7.146-16.309-15.886 0-8.739 7.268-15.885 16.309-15.885 9.042 0 16.31 7.146 16.31 15.885z" stroke="#fff" stroke-width="3"/><path d="M130.346 118.91c0 4.735-4.016 8.677-9.1 8.677-5.085 0-9.101-3.942-9.101-8.677 0-4.735 4.016-8.677 9.101-8.677 5.084 0 9.1 3.942 9.1 8.677z" stroke="#fff" stroke-width="3"/><path fill-rule="evenodd" clip-rule="evenodd" d="M78.052 89.104C69.482 96.022 64 106.614 64 118.486c0 19.27 14.442 35.166 33.093 37.456a40.902 40.902 0 01-3.909-3.778C78.136 148.353 67 134.72 67 118.486a34.603 34.603 0 018.381-22.63 46.327 46.327 0 012.671-6.752zM119.9 62.937A20.227 20.227 0 00109.372 60c-8.911 0-16.483 5.735-19.225 13.716a46.918 46.918 0 00-3.913 3.655C87.685 65.884 97.491 57 109.372 57a23.238 23.238 0 0115.868 6.23 47.14 47.14 0 00-5.268-.293h-.072zM166.253 102.858a20.663 20.663 0 014.999 13.507c0 6.621-3.102 12.518-7.931 16.316a40.718 40.718 0 01-1.1 4.344c7.184-4.083 12.031-11.806 12.031-20.66 0-7.504-3.481-14.196-8.917-18.547.395 1.648.703 3.329.918 5.04z" fill="#fff"/><path d="M131.846 65.905c4.947.707 17.385 1.272 20.778-2.12-.424 3.816 2.12 17.13 5.512 21.202M161.353 136.295c-1.677 4.708.494 15.93 3.144 19.93-3.656-1.175-20.778 7.209-29.683 6.361-19.93 4.664-18.356 11.025-22.474 8.056-4.119-2.968-12.297-7.632-15.266-15.689M71.201 98.641c1.106-4.873 2.679-17.225-.427-20.881 3.77.732 13.487 1.796 17.82-1.254" stroke="#fff" stroke-width="3" stroke-linejoin="round"/><defs><filter id="filter0_f" x="57" y="50" width="124.252" height="129.903" filterUnits="userSpaceOnUse" color-interpolation-filters="sRGB"><feFlood flood-opacity="0" result="BackgroundImageFix"/><feBlend in="SourceGraphic" in2="BackgroundImageFix" result="shape"/><feGaussianBlur stdDeviation="3.5" result="effect1_foregroundBlur"/></filter></defs></svg>