<svg width="248" height="300" viewBox="0 0 248 300" fill="none" xmlns="http://www.w3.org/2000/svg">
<g filter="url(#filter0_d)">
<path d="M111.506 137.805C114.449 138.385 120.605 140.127 129.84 137.805C141.383 134.903 141.383 132 150.21 132M102 233L124.364 212.483C127.451 209.651 132.201 209.68 135.253 212.55L157 233" stroke="#FFEDBD" stroke-width="4"/>
<path d="M86.6239 97.4835L128.5 165.132L170.376 97.4835H86.6239Z" stroke="white" stroke-width="4"/>
<path d="M86.6239 233.888L128.5 166.239L170.376 233.888H86.6239Z" stroke="white" stroke-width="4"/>
<rect x="127" y="187" width="4" height="4" fill="#FFEDBD"/>
</g>
<g opacity="0.1" filter="url(#filter1_f)">
<rect x="190.981" y="78.2058" width="190.94" height="61.5328" transform="rotate(116.446 190.981 78.2058)" fill="#61FFFF"/>
<rect x="190.124" y="78.4934" width="189.661" height="60.2545" transform="rotate(116.446 190.124 78.4934)" stroke="black" stroke-width="1.27836"/>
</g>
<defs>
<filter id="filter0_d" x="68.0332" y="80.4835" width="120.933" height="170.404" filterUnits="userSpaceOnUse" color-interpolation-filters="sRGB">
<feFlood flood-opacity="0" result="BackgroundImageFix"/>
<feColorMatrix in="SourceAlpha" type="matrix" values="0 0 0 0 0 0 0 0 0 0 0 0 0 0 0 0 0 0 127 0"/>
<feOffset/>
<feGaussianBlur stdDeviation="7.5"/>
<feColorMatrix type="matrix" values="0 0 0 0 1 0 0 0 0 1 0 0 0 0 1 0 0 0 0.75 0"/>
<feBlend mode="normal" in2="BackgroundImageFix" result="effect1_dropShadow"/>
<feBlend mode="normal" in="SourceGraphic" in2="effect1_dropShadow" result="shape"/>
</filter>
<filter id="filter1_f" x="0.850586" y="0.801514" width="240.13" height="298.362" filterUnits="userSpaceOnUse" color-interpolation-filters="sRGB">
<feFlood flood-opacity="0" result="BackgroundImageFix"/>
<feBlend mode="normal" in="SourceGraphic" in2="BackgroundImageFix" result="shape"/>
<feGaussianBlur stdDeviation="25" result="effect1_foregroundBlur"/>
</filter>
</defs>
</svg>
