<svg width="240" height="240" fill="none" xmlns="http://www.w3.org/2000/svg"><g filter="url(#filter0_f)"><path d="M103.506 93.805c2.943.58 9.099 2.322 18.334 0C133.383 90.903 133.383 88 142.21 88M94 189l22.364-20.517a8 8 0 0 1 10.889.067L149 189" stroke="#FFEDBD" stroke-width="4"/><path d="M78.624 53.483l41.876 67.649 41.876-67.649H78.624zM78.624 189.888l41.876-67.649 41.876 67.649H78.624z" stroke="#fff" stroke-width="4"/><path fill="#FFEDBD" d="M119 143h4v4h-4z"/></g><path d="M103.506 93.805c2.943.58 9.099 2.322 18.334 0C133.383 90.903 133.383 88 142.21 88M94 189l22.364-20.517a8 8 0 0 1 10.889.067L149 189" stroke="#FFEDBD" stroke-width="4"/><path d="M78.624 53.483l41.876 67.649 41.876-67.649H78.624zM78.624 189.888l41.876-67.649 41.876 67.649H78.624z" stroke="#fff" stroke-width="4"/><path fill="#FFEDBD" d="M119 143h4v4h-4z"/><defs><filter id="filter0_f" x="60.033" y="36.483" width="120.933" height="170.404" filterUnits="userSpaceOnUse" color-interpolation-filters="sRGB"><feFlood flood-opacity="0" result="BackgroundImageFix"/><feBlend in="SourceGraphic" in2="BackgroundImageFix" result="shape"/><feGaussianBlur stdDeviation="7.5" result="effect1_foregroundBlur"/></filter></defs></svg>