<svg width="240" height="240" fill="none" xmlns="http://www.w3.org/2000/svg"><g filter="url(#filter0_f_2314_4347)" stroke="#fff" stroke-width="3"><path d="M97 100.5l-75 2L82 167l78.5-12 44-67-58 9"/><path d="M23.5 103l101 18.5 32-13.538M201 90l-44.5 17.962M85 114.265L123 72l33.5 35.962"/><path d="M83 166l41-45 35.5 32.5M123 73.5l1 46.5"/></g><path d="M97 100.5l-75 2L82 167l78.5-12 44-67-58 9" stroke="#fff" stroke-width="3"/><path d="M23.5 103l101 18.5 32-13.538M201 90l-44.5 17.962M85 114.265L123 72l33.5 35.962" stroke="#fff" stroke-width="3"/><path d="M83 166l41-45 35.5 32.5M123 73.5l1 46.5" stroke="#fff" stroke-width="3"/><defs><filter id="filter0_f_2314_4347" x="11.639" y="62.778" width="202.97" height="112.824" filterUnits="userSpaceOnUse" color-interpolation-filters="sRGB"><feFlood flood-opacity="0" result="BackgroundImageFix"/><feBlend in="SourceGraphic" in2="BackgroundImageFix" result="shape"/><feGaussianBlur stdDeviation="3.5" result="effect1_foregroundBlur_2314_4347"/></filter></defs></svg>