<svg width="240" height="240" fill="none" xmlns="http://www.w3.org/2000/svg"><g filter="url(#filter0_f)"><path d="M25.31 163.472c.984 1.311 3.325 2.388 5.433 2.388 3.371 0 6.04-2.154 6.04-5.245 0-5.994-8.148-5.525-8.148-9.084 0-1.171 1.077-2.295 2.576-2.295.843 0 2.154.422 3.184 1.405l1.686-1.967c-1.311-1.405-3.325-2.013-5.058-2.013-2.715 0-5.244 2.013-5.244 5.01 0 5.713 8.007 5.245 8.007 9.225 0 1.358-1.217 2.529-2.903 2.529-1.124 0-2.575-.562-4.027-1.92l-1.546 1.967zM42.961 152.046L59.913 166v-19.058h-2.81v13.579L40.152 146.52v19.106h2.81v-13.58zM63.73 156.26c0 5.338 4.26 9.6 9.599 9.6 5.291 0 9.6-4.262 9.6-9.6 0-5.291-4.309-9.599-9.6-9.599a9.582 9.582 0 00-9.6 9.599zm2.809 0c0-3.84 2.95-6.883 6.79-6.883s6.79 3.043 6.79 6.883-2.95 6.931-6.79 6.931-6.79-3.091-6.79-6.931zM96.085 157.244l9.881 8.756v-19.105h-2.81v13.392l-7.07-6.415-6.978 6.415v-13.392h-2.81V166l9.787-8.756zM129.499 149.47c1.92 0 3.371 1.265 3.371 3.278 0 2.201-1.639 3.184-3.699 3.184h-5.76v-6.462h6.088zm.281 9.038c3.278 0 5.9-2.341 5.9-5.713s-2.622-5.9-5.9-5.9h-9.178v18.731h2.809v-7.118h6.369zM142.3 163.05v-5.853h10.162v-2.576H142.3v-5.151h14.376v-2.575h-17.185v18.731h17.185v-2.576H142.3zM158.153 165.626h3.138l2.154-4.074h10.114l2.154 4.074h3.138l-10.349-19.153-10.349 19.153zm10.349-13.627l3.887 7.399h-7.82l3.933-7.399zM183.6 146.895h-2.81v18.731h2.81v-6.228l1.826-1.639 4.777 4.87c2.762 2.856 5.244 3.278 8.616 3.231v-2.576c-2.529.047-4.636-.468-6.931-2.809l-4.448-4.496 10.302-9.084h-3.653l-10.489 9.272v-9.272zM200.527 163.472c.983 1.311 3.324 2.388 5.431 2.388 3.372 0 6.041-2.154 6.041-5.245 0-5.994-8.148-5.525-8.148-9.084 0-1.171 1.077-2.295 2.576-2.295.843 0 2.154.422 3.184 1.405l1.686-1.967c-1.311-1.405-3.325-2.013-5.058-2.013-2.716 0-5.244 2.013-5.244 5.01 0 5.713 8.007 5.245 8.007 9.225 0 1.358-1.217 2.529-2.903 2.529-1.124 0-2.576-.562-4.027-1.92l-1.545 1.967z" fill="#fff"/><path d="M22 114l25-25 25 25M161 114l25-25 25 25" stroke="#fff" stroke-width="3"/><path d="M56.5 127.5l60-60 60 60" stroke="#fff" stroke-width="3"/></g><path d="M25.31 163.472c.984 1.311 3.325 2.388 5.433 2.388 3.371 0 6.04-2.154 6.04-5.245 0-5.994-8.148-5.525-8.148-9.084 0-1.171 1.077-2.295 2.576-2.295.843 0 2.154.422 3.184 1.405l1.686-1.967c-1.311-1.405-3.325-2.013-5.058-2.013-2.715 0-5.244 2.013-5.244 5.01 0 5.713 8.007 5.245 8.007 9.225 0 1.358-1.217 2.529-2.903 2.529-1.124 0-2.575-.562-4.027-1.92l-1.546 1.967zM42.961 152.046L59.913 166v-19.058h-2.81v13.579L40.152 146.52v19.106h2.81v-13.58zM63.73 156.26c0 5.338 4.26 9.6 9.599 9.6 5.291 0 9.6-4.262 9.6-9.6 0-5.291-4.309-9.599-9.6-9.599a9.582 9.582 0 00-9.6 9.599zm2.809 0c0-3.84 2.95-6.883 6.79-6.883s6.79 3.043 6.79 6.883-2.95 6.931-6.79 6.931-6.79-3.091-6.79-6.931zM96.085 157.244l9.881 8.756v-19.105h-2.81v13.392l-7.07-6.415-6.978 6.415v-13.392h-2.81V166l9.787-8.756zM129.499 149.47c1.92 0 3.371 1.265 3.371 3.278 0 2.201-1.639 3.184-3.699 3.184h-5.76v-6.462h6.088zm.281 9.038c3.278 0 5.9-2.341 5.9-5.713s-2.622-5.9-5.9-5.9h-9.178v18.731h2.809v-7.118h6.369zM142.3 163.05v-5.853h10.162v-2.576H142.3v-5.151h14.376v-2.575h-17.185v18.731h17.185v-2.576H142.3zM158.153 165.626h3.138l2.154-4.074h10.114l2.154 4.074h3.138l-10.349-19.153-10.349 19.153zm10.349-13.627l3.887 7.399h-7.82l3.933-7.399zM183.6 146.895h-2.81v18.731h2.81v-6.228l1.826-1.639 4.777 4.87c2.762 2.856 5.244 3.278 8.616 3.231v-2.576c-2.529.047-4.636-.468-6.931-2.809l-4.448-4.496 10.302-9.084h-3.653l-10.489 9.272v-9.272zM200.527 163.472c.983 1.311 3.324 2.388 5.431 2.388 3.372 0 6.041-2.154 6.041-5.245 0-5.994-8.148-5.525-8.148-9.084 0-1.171 1.077-2.295 2.576-2.295.843 0 2.154.422 3.184 1.405l1.686-1.967c-1.311-1.405-3.325-2.013-5.058-2.013-2.716 0-5.244 2.013-5.244 5.01 0 5.713 8.007 5.245 8.007 9.225 0 1.358-1.217 2.529-2.903 2.529-1.124 0-2.576-.562-4.027-1.92l-1.545 1.967z" fill="#fff"/><path d="M22 114l25-25 25 25M161 114l25-25 25 25" stroke="#fff" stroke-width="3"/><path d="M56.5 127.5l60-60 60 60" stroke="#fff" stroke-width="3"/><defs><filter id="filter0_f" x="13.94" y="58.379" width="205.121" height="114.622" filterUnits="userSpaceOnUse" color-interpolation-filters="sRGB"><feFlood flood-opacity="0" result="BackgroundImageFix"/><feBlend in="SourceGraphic" in2="BackgroundImageFix" result="shape"/><feGaussianBlur stdDeviation="3.5" result="effect1_foregroundBlur"/></filter></defs></svg>