<svg width="240" height="240" fill="none" xmlns="http://www.w3.org/2000/svg"><g filter="url(#filter0_f)" stroke="#fff" stroke-width="3"><path d="M94.399 108.537c12.358-4.394 23.38 1.032 27.511 3.615 8.122 5.078 14.292 13.539 15.377 23.192.187 2.207-.104 7.353-2.771 10.282-1.502 1.847-3.287 5.259-2.207 12.724 1.082 7.467-10.123 20.207-27.138 13.333-7.09-2.864-4.344-7.416-12.536-12.537-8.334-5.209-11.15-.701-16.83-5.819-13.635-12.283-7.091-27.937.094-30.236 7.184-2.3 9.47-5.399 10.471-7.559 1.465-3.681 5.963-6.197 8.029-6.995zM89.698 95.673c-4.772 7.635-13.396 10.229-19.108 6.659-5.712-3.57-7.158-12.46-2.386-20.094 4.772-7.635 13.396-10.229 19.108-6.659 5.712 3.57 7.158 12.46 2.386 20.094zM132.612 83.844c-4.772 7.634-13.396 10.228-19.108 6.658-5.712-3.57-7.158-12.46-2.386-20.094s13.396-10.229 19.108-6.659c5.712 3.57 7.158 12.46 2.386 20.095zM164.161 103.564c-4.772 7.635-13.396 10.229-19.108 6.659-5.712-3.57-7.158-12.46-2.386-20.094 4.772-7.635 13.396-10.23 19.108-6.659 5.712 3.57 7.158 12.46 2.386 20.094zM172.329 147.323c-4.772 7.634-13.396 10.229-19.108 6.659-5.712-3.571-7.158-12.46-2.386-20.094 4.772-7.635 13.396-10.229 19.108-6.659 5.712 3.57 7.158 12.459 2.386 20.094z"/></g><path d="M94.399 108.537c12.358-4.394 23.38 1.032 27.511 3.615 8.122 5.078 14.292 13.539 15.377 23.192.187 2.207-.104 7.353-2.771 10.282-1.502 1.847-3.287 5.259-2.207 12.724 1.082 7.467-10.123 20.207-27.138 13.333-7.09-2.864-4.344-7.416-12.536-12.537-8.334-5.209-11.15-.701-16.83-5.819-13.635-12.283-7.091-27.937.094-30.236 7.184-2.3 9.47-5.399 10.471-7.559 1.465-3.681 5.963-6.197 8.029-6.995zM89.698 95.673c-4.772 7.635-13.396 10.229-19.108 6.659-5.712-3.57-7.158-12.46-2.386-20.094 4.772-7.635 13.396-10.229 19.108-6.659 5.712 3.57 7.158 12.46 2.386 20.094zM132.612 83.844c-4.772 7.634-13.396 10.228-19.108 6.658-5.712-3.57-7.158-12.46-2.386-20.094s13.396-10.229 19.108-6.659c5.712 3.57 7.158 12.46 2.386 20.095zM164.161 103.564c-4.772 7.635-13.396 10.229-19.108 6.659-5.712-3.57-7.158-12.46-2.386-20.094 4.772-7.635 13.396-10.23 19.108-6.659 5.712 3.57 7.158 12.46 2.386 20.094zM172.329 147.323c-4.772 7.634-13.396 10.229-19.108 6.659-5.712-3.571-7.158-12.46-2.386-20.094 4.772-7.635 13.396-10.229 19.108-6.659 5.712 3.57 7.158 12.459 2.386 20.094z" stroke="#fff" stroke-width="3"/><defs><filter id="filter0_f" x="56.84" y="53.66" width="126.851" height="128.493" filterUnits="userSpaceOnUse" color-interpolation-filters="sRGB"><feFlood flood-opacity="0" result="BackgroundImageFix"/><feBlend in="SourceGraphic" in2="BackgroundImageFix" result="shape"/><feGaussianBlur stdDeviation="3.5" result="effect1_foregroundBlur"/></filter></defs></svg>