<svg width="240" height="240" viewBox="0 0 240 240" fill="none" xmlns="http://www.w3.org/2000/svg">
<g clip-path="url(#clip0)">
<g opacity="0.1" filter="url(#filter0_f)">
<rect x="186.513" y="40.4354" width="189.894" height="76.806" transform="rotate(108.332 186.513 40.4354)" fill="#61FFFF"/>
<rect x="185.705" y="40.8411" width="188.615" height="75.5277" transform="rotate(108.332 185.705 40.8411)" stroke="black" stroke-width="1.27836"/>
</g>
<g opacity="0.3" filter="url(#filter1_d)">
<path d="M132.819 171.484L86.0137 196.893L160.234 41.7656L132.819 171.484Z" fill="#61FFFF"/>
</g>
<g filter="url(#filter2_d)">
<path d="M85.3449 197.562L160.234 41.097M85.3449 197.562L81.333 200.236M85.3449 197.562L132.819 172.153M85.3449 197.562L159.408 181.03M160.234 180.845L153.547 193.55L81.333 200.236M160.234 180.845L155.553 112.643L160.234 41.097M160.234 180.845L159.408 181.03M160.234 180.845L162 110.657L160.234 41.097M160.234 41.097L150.873 45.109L130.115 86.5654L96.0134 154.768L81.333 200.236M160.234 41.097L137.575 149.419L132.819 172.153M132.819 172.153L159.408 181.03" stroke="white" stroke-width="3"/>
</g>
</g>
<defs>
<filter id="filter0_f" x="3.87891" y="-33.7219" width="232.634" height="304.414" filterUnits="userSpaceOnUse" color-interpolation-filters="sRGB">
<feFlood flood-opacity="0" result="BackgroundImageFix"/>
<feBlend mode="normal" in="SourceGraphic" in2="BackgroundImageFix" result="shape"/>
<feGaussianBlur stdDeviation="25" result="effect1_foregroundBlur"/>
</filter>
<filter id="filter1_d" x="71.0137" y="26.7656" width="104.22" height="185.127" filterUnits="userSpaceOnUse" color-interpolation-filters="sRGB">
<feFlood flood-opacity="0" result="BackgroundImageFix"/>
<feColorMatrix in="SourceAlpha" type="matrix" values="0 0 0 0 0 0 0 0 0 0 0 0 0 0 0 0 0 0 127 0"/>
<feOffset/>
<feGaussianBlur stdDeviation="7.5"/>
<feColorMatrix type="matrix" values="0 0 0 0 0.380392 0 0 0 0 1 0 0 0 0 1 0 0 0 0.75 0"/>
<feBlend mode="normal" in2="BackgroundImageFix" result="effect1_dropShadow"/>
<feBlend mode="normal" in="SourceGraphic" in2="effect1_dropShadow" result="shape"/>
</filter>
<filter id="filter2_d" x="64.207" y="23.8466" width="114.294" height="193.093" filterUnits="userSpaceOnUse" color-interpolation-filters="sRGB">
<feFlood flood-opacity="0" result="BackgroundImageFix"/>
<feColorMatrix in="SourceAlpha" type="matrix" values="0 0 0 0 0 0 0 0 0 0 0 0 0 0 0 0 0 0 127 0"/>
<feOffset/>
<feGaussianBlur stdDeviation="7.5"/>
<feColorMatrix type="matrix" values="0 0 0 0 1 0 0 0 0 1 0 0 0 0 1 0 0 0 0.75 0"/>
<feBlend mode="normal" in2="BackgroundImageFix" result="effect1_dropShadow"/>
<feBlend mode="normal" in="SourceGraphic" in2="effect1_dropShadow" result="shape"/>
</filter>
<clipPath id="clip0">
<rect width="240" height="240" fill="white"/>
</clipPath>
</defs>
</svg>
