<svg width="240" height="240" fill="none" xmlns="http://www.w3.org/2000/svg"><g filter="url(#filter0_f)"><path opacity=".3" d="M132.486 171.387l-46.805 25.409L159.9 41.669l-27.415 129.718z" fill="#61FFFF"/><path d="M85.012 197.464L159.9 41m-74.89 156.464L81 200.139m4.012-2.675l47.474-25.408m-47.474 25.408l74.063-16.532m.826-.184l-6.687 12.705L81 200.139m78.901-19.391l-4.681-68.202L159.901 41m0 139.748l-.826.184m.826-.184l1.766-70.188L159.901 41m0 0l-9.361 4.012-20.758 41.456-34.102 68.203L81 200.139M159.901 41l-22.659 108.322-4.756 22.734m0 0l26.589 8.876" stroke="#fff" stroke-width="3"/></g><path opacity=".3" d="M132.486 171.387l-46.805 25.409L159.9 41.669l-27.415 129.718z" fill="#61FFFF"/><path d="M85.012 197.464L159.9 41m-74.89 156.464L81 200.139m4.012-2.675l47.474-25.408m-47.474 25.408l74.063-16.532m.826-.184l-6.687 12.705L81 200.139m78.901-19.391l-4.681-68.202L159.901 41m0 139.748l-.826.184m.826-.184l1.766-70.188L159.901 41m0 0l-9.361 4.012-20.758 41.456-34.102 68.203L81 200.139M159.901 41l-22.659 108.322-4.756 22.734m0 0l26.589 8.876" stroke="#fff" stroke-width="3"/><defs><filter id="filter0_f" x="63.874" y="23.75" width="114.294" height="193.093" filterUnits="userSpaceOnUse" color-interpolation-filters="sRGB"><feFlood flood-opacity="0" result="BackgroundImageFix"/><feBlend in="SourceGraphic" in2="BackgroundImageFix" result="shape"/><feGaussianBlur stdDeviation="7.5" result="effect1_foregroundBlur"/></filter></defs></svg>