<svg width="240" height="240" viewBox="0 0 240 240" fill="none" xmlns="http://www.w3.org/2000/svg">
<g clip-path="url(#clip0)">
<g opacity="0.1" filter="url(#filter0_f)">
<rect x="185.855" y="53.4569" width="172.67" height="76.806" transform="rotate(111.715 185.855 53.4569)" fill="#61FFFF"/>
<rect x="185.025" y="53.8142" width="171.392" height="75.5277" transform="rotate(111.715 185.025 53.8142)" stroke="black" stroke-width="1.27836"/>
</g>
<g opacity="0.3" filter="url(#filter1_d)">
<path d="M128.609 173.108L81.4648 198.7L156.221 42.4526L141.285 133.704L128.609 173.108Z" fill="#61FFFF"/>
<path d="M128.609 173.108L81.4648 198.7L156.221 42.4526L141.285 133.704L128.609 173.108Z" fill="url(#paint0_linear)"/>
</g>
<g filter="url(#filter2_d)">
<path d="M80.791 199.374L156.221 41.7792M80.791 199.374L128.608 173.781M80.791 199.374L89.2045 152.763L123.552 84.0678L156.221 41.7792M80.791 199.374L149.486 195.333L156.221 182.537M156.221 182.537L155.389 182.722L128.608 173.781M156.221 182.537L158 111.841L156.221 41.7792M156.221 41.7792L141.877 132.518L128.608 173.781" stroke="white" stroke-width="3"/>
</g>
</g>
<defs>
<filter id="filter0_f" x="0.613281" y="-24.9611" width="235.243" height="288.834" filterUnits="userSpaceOnUse" color-interpolation-filters="sRGB">
<feFlood flood-opacity="0" result="BackgroundImageFix"/>
<feBlend mode="normal" in="SourceGraphic" in2="BackgroundImageFix" result="shape"/>
<feGaussianBlur stdDeviation="25" result="effect1_foregroundBlur"/>
</filter>
<filter id="filter1_d" x="66.4648" y="27.4526" width="104.756" height="186.248" filterUnits="userSpaceOnUse" color-interpolation-filters="sRGB">
<feFlood flood-opacity="0" result="BackgroundImageFix"/>
<feColorMatrix in="SourceAlpha" type="matrix" values="0 0 0 0 0 0 0 0 0 0 0 0 0 0 0 0 0 0 127 0"/>
<feOffset/>
<feGaussianBlur stdDeviation="7.5"/>
<feColorMatrix type="matrix" values="0 0 0 0 0.380392 0 0 0 0 1 0 0 0 0 1 0 0 0 0.75 0"/>
<feBlend mode="normal" in2="BackgroundImageFix" result="effect1_dropShadow"/>
<feBlend mode="normal" in="SourceGraphic" in2="effect1_dropShadow" result="shape"/>
</filter>
<filter id="filter2_d" x="63.9766" y="22.5232" width="110.524" height="193.46" filterUnits="userSpaceOnUse" color-interpolation-filters="sRGB">
<feFlood flood-opacity="0" result="BackgroundImageFix"/>
<feColorMatrix in="SourceAlpha" type="matrix" values="0 0 0 0 0 0 0 0 0 0 0 0 0 0 0 0 0 0 127 0"/>
<feOffset/>
<feGaussianBlur stdDeviation="7.5"/>
<feColorMatrix type="matrix" values="0 0 0 0 1 0 0 0 0 1 0 0 0 0 1 0 0 0 0.75 0"/>
<feBlend mode="normal" in2="BackgroundImageFix" result="effect1_dropShadow"/>
<feBlend mode="normal" in="SourceGraphic" in2="effect1_dropShadow" result="shape"/>
</filter>
<linearGradient id="paint0_linear" x1="151.96" y1="50.082" x2="123.493" y2="155.055" gradientUnits="userSpaceOnUse">
<stop stop-color="white"/>
<stop offset="1" stop-color="#66FFFF"/>
</linearGradient>
<clipPath id="clip0">
<rect width="240" height="240" fill="white"/>
</clipPath>
</defs>
</svg>
