<svg width="240" height="240" fill="none" xmlns="http://www.w3.org/2000/svg"><g filter="url(#filter0_f)"><g opacity=".3"><path d="M127.817 173.329l-47.143 25.592L155.43 42.673l-14.937 91.252-12.676 39.404z" fill="#61FFFF"/><path d="M127.817 173.329l-47.143 25.592L155.43 42.673l-14.937 91.252-12.676 39.404z" fill="url(#paint0_linear)"/></g><path d="M80 199.594L155.43 42M80 199.594l47.817-25.592M80 199.594l8.413-46.61 34.348-68.695L155.43 42M80 199.594l68.695-4.04 6.735-12.797m0 0l-.832.186-26.781-8.941m27.613 8.755l1.779-70.695L155.43 42m0 0l-14.344 90.739-13.269 41.263" stroke="#fff" stroke-width="3"/></g><g opacity=".3"><path d="M127.817 173.329l-47.143 25.592L155.43 42.673l-14.937 91.252-12.676 39.404z" fill="#61FFFF"/><path d="M127.817 173.329l-47.143 25.592L155.43 42.673l-14.937 91.252-12.676 39.404z" fill="url(#paint1_linear)"/></g><path d="M80 199.594L155.43 42M80 199.594l47.817-25.592M80 199.594l8.413-46.61 34.348-68.695L155.43 42M80 199.594l68.695-4.04 6.735-12.797m0 0l-.832.186-26.781-8.941m27.613 8.755l1.779-70.695L155.43 42m0 0l-14.344 90.739-13.269 41.263" stroke="#fff" stroke-width="3"/><defs><filter id="filter0_f" x="63.185" y="22.744" width="110.524" height="193.46" filterUnits="userSpaceOnUse" color-interpolation-filters="sRGB"><feFlood flood-opacity="0" result="BackgroundImageFix"/><feBlend in="SourceGraphic" in2="BackgroundImageFix" result="shape"/><feGaussianBlur stdDeviation="7.5" result="effect1_foregroundBlur"/></filter><linearGradient id="paint0_linear" x1="151.169" y1="50.303" x2="122.702" y2="155.275" gradientUnits="userSpaceOnUse"><stop stop-color="#fff"/><stop offset="1" stop-color="#6FF"/></linearGradient><linearGradient id="paint1_linear" x1="151.169" y1="50.303" x2="122.702" y2="155.275" gradientUnits="userSpaceOnUse"><stop stop-color="#fff"/><stop offset="1" stop-color="#6FF"/></linearGradient></defs></svg>