<svg width="240" height="240" fill="none" xmlns="http://www.w3.org/2000/svg"><g filter="url(#filter0_f_384_89)"><path opacity=".3" d="M127.817 173.329l-47.143 25.592L155.43 42.673l-14.937 91.252-12.676 39.404z" fill="#FF483D"/><path d="M80 199.594L155.43 42M80 199.594l47.817-25.592M80 199.594l8.413-46.61 34.348-68.695L155.43 42M80 199.594l68.695-4.04 6.735-12.797m0 0l-.832.186-26.781-8.941m27.613 8.755l1.779-70.695L155.43 42m0 0l-14.344 90.739-13.269 41.263" stroke="#fff" stroke-width="3"/></g><path opacity=".3" d="M127.817 173.329l-47.143 25.592L155.43 42.673l-14.937 91.252-12.676 39.404z" fill="#FF483D"/><path d="M80 199.594L155.43 42M80 199.594l47.817-25.592M80 199.594l8.413-46.61 34.348-68.695L155.43 42M80 199.594l68.695-4.04 6.735-12.797m0 0l-.832.186-26.781-8.941m27.613 8.755l1.779-70.695L155.43 42m0 0l-14.344 90.739-13.269 41.263" stroke="#fff" stroke-width="3"/><defs><filter id="filter0_f_384_89" x="71.186" y="30.744" width="94.523" height="177.46" filterUnits="userSpaceOnUse" color-interpolation-filters="sRGB"><feFlood flood-opacity="0" result="BackgroundImageFix"/><feBlend in="SourceGraphic" in2="BackgroundImageFix" result="shape"/><feGaussianBlur stdDeviation="3.5" result="effect1_foregroundBlur_384_89"/></filter></defs></svg>