<svg width="240" height="240" fill="none" xmlns="http://www.w3.org/2000/svg"><g filter="url(#filter0_f)"><path d="M17 121.052c1.542 2.268 4.672 3.946 7.939 3.946 5.171 0 8.936-3.493 8.936-8.165 0-9.844-12.928-8.619-12.928-15.152 0-2.268 1.95-4.445 4.808-4.445 1.724 0 3.675.77 5.172 2.45l1.95-2.314c-1.95-2.269-4.49-3.221-7.167-3.221-4.219 0-8.03 3.266-8.03 7.666 0 9.028 12.93 7.803 12.93 15.243 0 2.676-2.133 4.899-5.4 4.899-2.131 0-4.4-.998-6.395-3.176L17 121.052zM46.813 124.545V97.553h8.075v-2.948h-19.28v2.948h8.03v26.992h3.175zM112.956 119.691c4.582 4.763 8.302 5.307 12.883 5.307v-2.948c-3.084 0-6.668-.545-10.524-4.491l-4.99-5.172c3.811-1.089 6.487-4.355 6.487-8.71 0-5.307-4.083-9.073-9.345-9.073h-9.799v29.941h3.176V112.75h5.353l6.759 6.941zm-5.761-22.138c3.629 0 6.442 2.495 6.442 6.124 0 3.629-2.813 6.124-6.442 6.124h-6.351V97.553h6.351zM130.083 124.545h3.13c8.528 0 15.469-6.442 15.469-14.971 0-8.528-6.941-14.97-15.469-14.97h-3.13v29.941zm3.175-26.947c6.805 0 12.249 5.172 12.249 11.976 0 6.85-5.444 12.022-12.249 12.022V97.598zM181.107 94.605v14.969c0 6.85-5.398 12.385-12.248 12.385-6.805 0-12.248-5.535-12.248-12.385v-14.97h-3.176v14.97c0 8.529 6.896 15.424 15.424 15.424 8.528 0 15.424-6.895 15.424-15.424v-14.97h-3.176zM188.187 121.052c1.542 2.268 4.672 3.946 7.939 3.946 5.171 0 8.936-3.493 8.936-8.165 0-9.844-12.928-8.619-12.928-15.152 0-2.268 1.95-4.445 4.808-4.445 1.724 0 3.675.77 5.172 2.45l1.95-2.314c-1.95-2.269-4.491-3.221-7.167-3.221-4.219 0-8.03 3.266-8.03 7.666 0 9.028 12.929 7.803 12.929 15.243 0 2.676-2.132 4.899-5.398 4.899-2.132 0-4.4-.998-6.396-3.176l-1.815 2.269zM218 124.545V97.553h8.075v-2.948h-19.28v2.948h8.029v26.992H218zM87.2 152.725h6.77c3.884 0 7.046-2.955 7.046-6.873 0-3.884-3.162-6.874-7.045-6.874H87.2v13.747zm2.063-11.856h4.708c2.818 0 4.983 2.165 4.983 4.983 0 2.818-2.165 4.983-4.983 4.983h-4.709v-9.966zM105.429 138.978h-2.062v13.747h2.062v-13.747zM110.856 142.759L123.297 153v-13.987h-2.062v9.966l-12.44-10.275v14.021h2.061v-9.966zM128.735 150.835v-4.296h7.457v-1.89h-7.457v-3.78h10.55v-1.891h-12.612v13.747h12.612v-1.89h-10.55zM152.346 143.309c0-2.475-1.925-4.331-4.33-4.331h-6.049v13.747h2.062v-5.224h3.23l2.956 3.025c2.028 2.096 3.883 2.405 6.323 2.405v-1.89c-1.855.034-3.299-.481-5.017-2.199l-1.684-1.684c1.478-.653 2.509-2.028 2.509-3.849zm-4.537-2.44c1.409 0 2.475.928 2.475 2.405 0 1.615-1.203 2.337-2.715 2.337h-3.54v-4.742h3.78z" fill="#fff"/><path d="M73.664 118.001l-10.62 5.577 2.028-11.812-8.592-8.366 11.874-1.723 5.31-10.747 5.31 10.747 11.873 1.723-8.592 8.366 2.029 11.812-10.62-5.577z" stroke="#FFEDBD" stroke-width="3"/></g><path d="M17 121.052c1.542 2.268 4.672 3.946 7.939 3.946 5.171 0 8.936-3.493 8.936-8.165 0-9.844-12.928-8.619-12.928-15.152 0-2.268 1.95-4.445 4.808-4.445 1.724 0 3.675.77 5.172 2.45l1.95-2.314c-1.95-2.269-4.49-3.221-7.167-3.221-4.219 0-8.03 3.266-8.03 7.666 0 9.028 12.93 7.803 12.93 15.243 0 2.676-2.133 4.899-5.4 4.899-2.131 0-4.4-.998-6.395-3.176L17 121.052zM46.813 124.545V97.553h8.075v-2.948h-19.28v2.948h8.03v26.992h3.175zM112.956 119.691c4.582 4.763 8.302 5.307 12.883 5.307v-2.948c-3.084 0-6.668-.545-10.524-4.491l-4.99-5.172c3.811-1.089 6.487-4.355 6.487-8.71 0-5.307-4.083-9.073-9.345-9.073h-9.799v29.941h3.176V112.75h5.353l6.759 6.941zm-5.761-22.138c3.629 0 6.442 2.495 6.442 6.124 0 3.629-2.813 6.124-6.442 6.124h-6.351V97.553h6.351zM130.083 124.545h3.13c8.528 0 15.469-6.442 15.469-14.971 0-8.528-6.941-14.97-15.469-14.97h-3.13v29.941zm3.175-26.947c6.805 0 12.249 5.172 12.249 11.976 0 6.85-5.444 12.022-12.249 12.022V97.598zM181.107 94.605v14.969c0 6.85-5.398 12.385-12.248 12.385-6.805 0-12.248-5.535-12.248-12.385v-14.97h-3.176v14.97c0 8.529 6.896 15.424 15.424 15.424 8.528 0 15.424-6.895 15.424-15.424v-14.97h-3.176zM188.187 121.052c1.542 2.268 4.672 3.946 7.939 3.946 5.171 0 8.936-3.493 8.936-8.165 0-9.844-12.928-8.619-12.928-15.152 0-2.268 1.95-4.445 4.808-4.445 1.724 0 3.675.77 5.172 2.45l1.95-2.314c-1.95-2.269-4.491-3.221-7.167-3.221-4.219 0-8.03 3.266-8.03 7.666 0 9.028 12.929 7.803 12.929 15.243 0 2.676-2.132 4.899-5.398 4.899-2.132 0-4.4-.998-6.396-3.176l-1.815 2.269zM218 124.545V97.553h8.075v-2.948h-19.28v2.948h8.029v26.992H218zM87.2 152.725h6.77c3.884 0 7.046-2.955 7.046-6.873 0-3.884-3.162-6.874-7.045-6.874H87.2v13.747zm2.063-11.856h4.708c2.818 0 4.983 2.165 4.983 4.983 0 2.818-2.165 4.983-4.983 4.983h-4.709v-9.966zM105.429 138.978h-2.062v13.747h2.062v-13.747zM110.856 142.759L123.297 153v-13.987h-2.062v9.966l-12.44-10.275v14.021h2.061v-9.966zM128.735 150.835v-4.296h7.457v-1.89h-7.457v-3.78h10.55v-1.891h-12.612v13.747h12.612v-1.89h-10.55zM152.346 143.309c0-2.475-1.925-4.331-4.33-4.331h-6.049v13.747h2.062v-5.224h3.23l2.956 3.025c2.028 2.096 3.883 2.405 6.323 2.405v-1.89c-1.855.034-3.299-.481-5.017-2.199l-1.684-1.684c1.478-.653 2.509-2.028 2.509-3.849zm-4.537-2.44c1.409 0 2.475.928 2.475 2.405 0 1.615-1.203 2.337-2.715 2.337h-3.54v-4.742h3.78z" fill="#fff"/><path d="M73.664 118.001l-10.62 5.577 2.028-11.812-8.592-8.366 11.874-1.723 5.31-10.747 5.31 10.747 11.873 1.723-8.592 8.366 2.029 11.812-10.62-5.577z" stroke="#FFEDBD" stroke-width="3"/><defs><filter id="filter0_f" x="10" y="80.543" width="223.075" height="79.457" filterUnits="userSpaceOnUse" color-interpolation-filters="sRGB"><feFlood flood-opacity="0" result="BackgroundImageFix"/><feBlend in="SourceGraphic" in2="BackgroundImageFix" result="shape"/><feGaussianBlur stdDeviation="3.5" result="effect1_foregroundBlur"/></filter></defs></svg>