<svg width="240" height="240" fill="none" xmlns="http://www.w3.org/2000/svg"><g filter="url(#filter0_f_388_2903)"><path d="M17 131.052c1.542 2.268 4.672 3.946 7.939 3.946 5.171 0 8.936-3.493 8.936-8.165 0-9.844-12.928-8.619-12.928-15.152 0-2.268 1.95-4.445 4.808-4.445 1.724 0 3.675.771 5.172 2.449l1.95-2.313c-1.95-2.269-4.49-3.221-7.167-3.221-4.219 0-8.03 3.266-8.03 7.666 0 9.028 12.93 7.803 12.93 15.243 0 2.676-2.133 4.899-5.4 4.899-2.131 0-4.4-.998-6.395-3.176L17 131.052zM46.813 134.545v-26.992h8.075v-2.949h-19.28v2.949h8.03v26.992h3.175zM112.956 129.691c4.582 4.763 8.302 5.307 12.883 5.307v-2.948c-3.084 0-6.668-.545-10.524-4.491l-4.99-5.172c3.811-1.089 6.487-4.355 6.487-8.71 0-5.307-4.083-9.073-9.345-9.073h-9.799v29.941h3.176V122.75h5.353l6.759 6.941zm-5.761-22.138c3.629 0 6.442 2.495 6.442 6.124 0 3.629-2.813 6.124-6.442 6.124h-6.351v-12.248h6.351zM130.083 134.545h3.13c8.528 0 15.469-6.442 15.469-14.971 0-8.528-6.941-14.97-15.469-14.97h-3.13v29.941zm3.175-26.947c6.805 0 12.249 5.172 12.249 11.976 0 6.85-5.444 12.022-12.249 12.022v-23.998zM181.107 104.604v14.97c0 6.85-5.398 12.385-12.248 12.385-6.805 0-12.248-5.535-12.248-12.385v-14.97h-3.176v14.97c0 8.529 6.896 15.424 15.424 15.424 8.528 0 15.424-6.895 15.424-15.424v-14.97h-3.176zM188.187 131.052c1.542 2.268 4.672 3.946 7.939 3.946 5.171 0 8.936-3.493 8.936-8.165 0-9.844-12.928-8.619-12.928-15.152 0-2.268 1.95-4.445 4.808-4.445 1.724 0 3.675.771 5.172 2.449l1.95-2.313c-1.95-2.269-4.491-3.221-7.167-3.221-4.219 0-8.03 3.266-8.03 7.666 0 9.028 12.929 7.803 12.929 15.243 0 2.676-2.132 4.899-5.398 4.899-2.132 0-4.4-.998-6.396-3.176l-1.815 2.269zM218 134.545v-26.992h8.075v-2.949h-19.28v2.949h8.029v26.992H218z" fill="#fff"/><path d="M73.664 128.001l-10.62 5.577 2.028-11.812-8.592-8.366 11.874-1.723 5.31-10.747 5.31 10.747 11.873 1.723-8.592 8.366 2.029 11.812-10.62-5.577z" stroke="#FFEDBD" stroke-width="3"/></g><path d="M17 131.052c1.542 2.268 4.672 3.946 7.939 3.946 5.171 0 8.936-3.493 8.936-8.165 0-9.844-12.928-8.619-12.928-15.152 0-2.268 1.95-4.445 4.808-4.445 1.724 0 3.675.771 5.172 2.449l1.95-2.313c-1.95-2.269-4.49-3.221-7.167-3.221-4.219 0-8.03 3.266-8.03 7.666 0 9.028 12.93 7.803 12.93 15.243 0 2.676-2.133 4.899-5.4 4.899-2.131 0-4.4-.998-6.395-3.176L17 131.052zM46.813 134.545v-26.992h8.075v-2.949h-19.28v2.949h8.03v26.992h3.175zM112.956 129.691c4.582 4.763 8.302 5.307 12.883 5.307v-2.948c-3.084 0-6.668-.545-10.524-4.491l-4.99-5.172c3.811-1.089 6.487-4.355 6.487-8.71 0-5.307-4.083-9.073-9.345-9.073h-9.799v29.941h3.176V122.75h5.353l6.759 6.941zm-5.761-22.138c3.629 0 6.442 2.495 6.442 6.124 0 3.629-2.813 6.124-6.442 6.124h-6.351v-12.248h6.351zM130.083 134.545h3.13c8.528 0 15.469-6.442 15.469-14.971 0-8.528-6.941-14.97-15.469-14.97h-3.13v29.941zm3.175-26.947c6.805 0 12.249 5.172 12.249 11.976 0 6.85-5.444 12.022-12.249 12.022v-23.998zM181.107 104.604v14.97c0 6.85-5.398 12.385-12.248 12.385-6.805 0-12.248-5.535-12.248-12.385v-14.97h-3.176v14.97c0 8.529 6.896 15.424 15.424 15.424 8.528 0 15.424-6.895 15.424-15.424v-14.97h-3.176zM188.187 131.052c1.542 2.268 4.672 3.946 7.939 3.946 5.171 0 8.936-3.493 8.936-8.165 0-9.844-12.928-8.619-12.928-15.152 0-2.268 1.95-4.445 4.808-4.445 1.724 0 3.675.771 5.172 2.449l1.95-2.313c-1.95-2.269-4.491-3.221-7.167-3.221-4.219 0-8.03 3.266-8.03 7.666 0 9.028 12.929 7.803 12.929 15.243 0 2.676-2.132 4.899-5.398 4.899-2.132 0-4.4-.998-6.396-3.176l-1.815 2.269zM218 134.545v-26.992h8.075v-2.949h-19.28v2.949h8.029v26.992H218z" fill="#fff"/><path d="M73.664 128.001l-10.62 5.577 2.028-11.812-8.592-8.366 11.874-1.723 5.31-10.747 5.31 10.747 11.873 1.723-8.592 8.366 2.029 11.812-10.62-5.577z" stroke="#FFEDBD" stroke-width="3"/><defs><filter id="filter0_f_388_2903" x="10" y="90.543" width="223.074" height="52.775" filterUnits="userSpaceOnUse" color-interpolation-filters="sRGB"><feFlood flood-opacity="0" result="BackgroundImageFix"/><feBlend in="SourceGraphic" in2="BackgroundImageFix" result="shape"/><feGaussianBlur stdDeviation="3.5" result="effect1_foregroundBlur_388_2903"/></filter></defs></svg>