<?xml version="1.0" encoding="UTF-8"?>
<svg width="219px" height="267px" viewBox="0 0 219 267" version="1.1" xmlns="http://www.w3.org/2000/svg" xmlns:xlink="http://www.w3.org/1999/xlink">
    <title>Logo</title>
    <g id="HW-v1" stroke="none" stroke-width="1" fill="none" fill-rule="evenodd">
        <g id="0_HOME_Dunkel_Fortsetzen-Serif-Copy" transform="translate(-81.000000, -124.000000)" fill="#FFFFFF" fill-rule="nonzero">
            <g id="Logo" transform="translate(81.000000, 124.000000)">
                <path d="M4.4944,219.213813 L4.4944,200.845813 L14.7529297,200.845813 L24.9584,200.845813 L24.9584,219.213813 L28.6544,219.213813 L28.6544,184.365813 L24.9584,184.365813 L24.9584,197.413813 L14.6503906,197.413813 L4.4944,197.413813 L4.4944,184.365813 L0.7984,184.365813 L0.7984,219.213813 L4.4944,219.213813 Z M54.62,219.741813 C64.5464,219.741813 72.572,211.716213 72.572,201.789813 C72.572,191.863413 64.5464,183.837813 54.62,183.837813 C44.6936,183.837813 36.668,191.863413 36.668,201.789813 C36.668,211.716213 44.6936,219.741813 54.62,219.741813 Z M54.62,216.204213 C46.7,216.204213 40.364,209.762613 40.364,201.789813 C40.364,193.869813 46.7,187.428213 54.62,187.428213 C62.5928,187.428213 68.876,193.869813 68.876,201.789813 C68.876,209.762613 62.5928,216.204213 54.62,216.204213 Z M104.752,219.213813 L104.752,215.781813 L82.3344,215.781813 L82.3344,184.365813 L78.6384,184.365813 L78.6384,219.213813 L104.752,219.213813 Z M137.1896,219.213813 L137.1896,215.781813 L114.772,215.781813 L114.772,184.365813 L111.076,184.365813 L111.076,219.213813 L137.1896,219.213813 Z M158.0272,219.741813 C167.9536,219.741813 175.9792,211.716213 175.9792,201.789813 C175.9792,191.863413 167.9536,183.837813 158.0272,183.837813 C148.1008,183.837813 140.0752,191.863413 140.0752,201.789813 C140.0752,211.716213 148.1008,219.741813 158.0272,219.741813 Z M158.0272,216.204213 C150.1072,216.204213 143.7712,209.762613 143.7712,201.789813 C143.7712,193.869813 150.1072,187.428213 158.0272,187.428213 C166,187.428213 172.2832,193.869813 172.2832,201.789813 C172.2832,209.762613 166,216.204213 158.0272,216.204213 Z M218.4216,220.005813 L218.4216,184.365813 L214.7256,184.365813 L214.7256,212.138613 L200.7336,198.885813 L186.7416,212.138613 L186.7416,184.365813 L183.0456,184.365813 L183.0456,220.005813 L200.7336,203.532213 L218.4216,220.005813 Z M71.246,265.205813 L71.246,229.565813 L67.55,229.565813 L67.55,257.338613 L53.558,244.085813 L39.566,257.338613 L39.566,229.565813 L35.87,229.565813 L35.87,265.205813 L53.558,248.732213 L71.246,265.205813 Z M82.698,264.413813 L82.698,246.045813 L101.162,246.045813 L101.162,264.413813 L104.858,264.413813 L104.858,229.565813 L101.162,229.565813 L101.162,242.613813 L82.698,242.613813 L82.698,229.565813 L79.002,229.565813 L79.002,264.413813 L82.698,264.413813 Z M115.31,264.413813 L115.31,229.565813 L111.614,229.565813 L111.614,264.413813 L115.31,264.413813 Z M136.9396,264.413813 L136.9396,232.997813 L149.338,232.997813 L149.338,229.565813 L120.898,229.565813 L120.898,232.997813 L133.2436,232.997813 L133.2436,264.413813 L136.9396,264.413813 Z M179.0396,264.413813 L179.0396,260.981813 L158.622,260.981813 L158.622,248.045813 L174.71,248.045813 L174.71,244.613813 L158.622,244.613813 L158.622,232.997813 L179.0396,232.997813 L179.0396,229.565813 L154.926,229.565813 L154.926,264.413813 L179.0396,264.413813 Z" id="HOLLOWWHITE" stroke="#FFFFFF"></path>
                <path d="M106.518898,0.769074899 L179.091357,42.3518487 L179.091357,122.694853 L106.518898,164.277627 L36.317094,122.671668 L36.317094,42.375034 L106.518898,0.769074899 Z M106.559245,6.2621751 L41.0631877,45.0792154 L41.0631877,119.967486 L106.559245,158.784527 L174.345263,119.944301 L174.345263,45.1024008 L106.559245,6.2621751 Z M80.3264474,61.8873861 L80.3264474,111.311777 L107.14627,91.2187446 L135.082003,111.45285 L135.082003,61.8873861 L142.201144,61.8873861 L142.201144,125.399713 L107.217559,100.060785 L73.2073068,125.540786 L73.2073068,61.8873861 L80.3264474,61.8873861 Z M94.3606294,29.4415082 L94.360094,55.2360749 L107.505591,45.8644701 L107.842094,46.3360749 L121.132094,55.5430749 L121.132196,29.4415082 L128.247821,29.4415082 L128.247821,87.1006114 L121.132196,87.1006114 L121.132094,64.1990749 L107.394094,54.6820749 L94.360094,63.9750749 L94.3606294,87.1006114 L87.2450044,87.1006114 L87.2450044,29.4415082 L94.3606294,29.4415082 Z" id="Logo-Pfade"></path>
            </g>
        </g>
    </g>
</svg>