<?xml version="1.0" encoding="UTF-8"?>
<svg width="49px" height="53px" viewBox="0 0 49 53" version="1.1" xmlns="http://www.w3.org/2000/svg" xmlns:xlink="http://www.w3.org/1999/xlink">
    <title>ico_Fragezeichen Copy 5</title>
    <defs>
        <filter x="-43.1%" y="-38.1%" width="186.2%" height="176.2%" filterUnits="objectBoundingBox" id="filter-1">
            <feOffset dx="0" dy="2" in="SourceAlpha" result="shadowOffsetOuter1"></feOffset>
            <feGaussianBlur stdDeviation="2" in="shadowOffsetOuter1" result="shadowBlurOuter1"></feGaussianBlur>
            <feColorMatrix values="0 0 0 0 0   0 0 0 0 0   0 0 0 0 0  0 0 0 0.5 0" type="matrix" in="shadowBlurOuter1" result="shadowMatrixOuter1"></feColorMatrix>
            <feMerge>
                <feMergeNode in="shadowMatrixOuter1"></feMergeNode>
                <feMergeNode in="SourceGraphic"></feMergeNode>
            </feMerge>
        </filter>
    </defs>
    <g id="HW-v1" stroke="none" stroke-width="1" fill="none" fill-rule="evenodd">
        <g id="01a_Chapter_Sections_Dark" transform="translate(-163.000000, -2592.000000)">
            <g id="ico_Fragezeichen-Copy-5" transform="translate(173.000000, 2602.000000)">
                <g id="Group-2" transform="translate(7.000000, 8.000000)"></g>
                <g id="Group-11" filter="url(#filter-1)" fill-rule="nonzero" stroke="#FFFFFF">
                    <polyline id="Path-2-Copy" transform="translate(14.500000, 20.500000) scale(1, -1) translate(-14.500000, -20.500000) " points="0 33 0 16.4388557 14.2551988 8 29 16.4388557 29 33"></polyline>
                    <polyline id="Path-2" points="0 25 0 8.43885575 14.2551988 0 29 8.43885575 29 25"></polyline>
                </g>
                <polyline id="Path-2-Copy-2" stroke="#FFFFFF" stroke-width="1.5" fill-rule="nonzero" points="8 12.25 8 24.1153516 14.3902615 19.3333333 21 24.1153516 21 12.25"></polyline>
                <polyline id="Path-2-Copy-4" stroke="#FFFFFF" stroke-width="1.5" fill-rule="nonzero" points="11.9 6 11.9 9.86482379 11.9 12.25 14.5 11.25 17.1 12.25 17.1 9.78484558 17.1 6"></polyline>
                <polyline id="Path-2-Copy-5" stroke="#FFFFFF" stroke-width="1.5" fill-rule="nonzero" transform="translate(14.500000, 13.625000) scale(1, -1) translate(-14.500000, -13.625000) " points="11.9 11.25 11.9 13.5688943 11.9 15 14.5 16 17.1 15 17.1 13.5209073 17.1 11.25"></polyline>
            </g>
        </g>
    </g>
</svg>