<?xml version="1.0" standalone="no"?>
<!DOCTYPE svg PUBLIC "-//W3C//DTD SVG 20010904//EN"
 "http://www.w3.org/TR/2001/REC-SVG-20010904/DTD/svg10.dtd">
<svg version="1.0" xmlns="http://www.w3.org/2000/svg"
 width="2048.000000pt" height="2048.000000pt" viewBox="0 0 2048.000000 2048.000000"
 preserveAspectRatio="xMidYMid meet">
<metadata>
Created by potrace 1.14, written by Peter Selinger 2001-2017
</metadata>
<g transform="translate(0.000000,2048.000000) scale(0.100000,-0.100000)"
fill="#000000" stroke="none">
<path d="M0 10240 l0 -10240 10240 0 10240 0 0 10240 0 10240 -10240 0 -10240
0 0 -10240z m13810 6075 l3565 -1864 0 -4203 0 -4202 -3557 -1873 -3557 -1873
-3558 1873 -3558 1874 0 4202 0 4202 3550 1864 c1953 1025 3550 1864 3550
1865 1 0 1605 -839 3565 -1865z"/>
<path d="M6993 15792 l-3253 -1707 3 -3838 2 -3837 3257 -1715 3257 -1715
3261 1716 3260 1717 0 3836 0 3836 -3260 1705 c-1793 938 -3264 1706 -3268
1707 -4 1 -1471 -766 -3259 -1705z m1917 -1827 l5 -1290 670 462 c369 254 673
463 676 463 3 0 302 -222 665 -494 l659 -495 3 1325 2 1324 300 0 300 0 0
-2775 0 -2775 -300 0 -300 0 0 1073 0 1072 -666 500 c-367 275 -669 501 -673
503 -3 1 -305 -204 -671 -456 l-665 -459 -5 -1114 -5 -1114 -300 0 -300 0 -3
2760 c-1 1518 0 2766 3 2773 3 10 69 12 302 10 l298 -3 5 -1290z m-1548 -4325
l3 -2580 1419 1007 c1402 994 1420 1006 1445 991 14 -8 655 -461 1424 -1006
769 -546 1400 -992 1403 -992 2 0 4 1161 4 2580 l0 2580 300 0 300 0 0 -3165
0 -3165 -67 48 c-208 150 -3374 2392 -3381 2394 -4 2 -780 -545 -1725 -1214
-944 -670 -1719 -1218 -1722 -1218 -3 0 -5 1422 -5 3160 l0 3160 300 0 300 0
2 -2580z"/>
</g>
</svg>
