<?xml version="1.0" standalone="no"?>
<!DOCTYPE svg PUBLIC "-//W3C//DTD SVG 20010904//EN"
 "http://www.w3.org/TR/2001/REC-SVG-20010904/DTD/svg10.dtd">
<svg version="1.0" xmlns="http://www.w3.org/2000/svg"
 width="700.000000pt" height="700.000000pt" viewBox="0 0 700.000000 700.000000"
 preserveAspectRatio="xMidYMid meet">
<metadata>
Created by potrace 1.14, written by Peter Selinger 2001-2017
</metadata>
<g transform="translate(0.000000,700.000000) scale(0.100000,-0.100000)"
fill="#000000" stroke="none">
<path d="M3465 6661 c-6 -5 -91 -50 -190 -101 -99 -51 -193 -101 -210 -110
-16 -10 -106 -57 -200 -105 -93 -48 -183 -96 -200 -105 -16 -10 -93 -50 -170
-90 -164 -85 -318 -165 -430 -225 -44 -23 -138 -73 -210 -110 -71 -37 -170
-89 -220 -115 -49 -26 -135 -71 -190 -100 -55 -29 -127 -67 -160 -85 -33 -18
-139 -73 -235 -123 -96 -50 -220 -115 -275 -144 l-100 -53 -1 -1665 -1 -1665
66 -36 c36 -19 134 -70 216 -113 83 -43 182 -95 220 -116 39 -20 115 -61 170
-90 196 -103 291 -153 370 -195 44 -23 139 -73 210 -110 72 -37 162 -85 200
-105 39 -21 124 -66 190 -100 66 -34 152 -79 190 -100 114 -60 253 -134 370
-195 61 -32 146 -77 190 -100 113 -60 256 -135 352 -186 l82 -43 83 43 c137
71 310 162 363 191 28 15 118 62 200 105 83 43 177 92 210 110 33 18 114 61
180 95 127 66 244 128 360 190 39 21 138 72 220 115 83 43 173 90 200 105 28
15 142 76 255 135 113 59 237 124 275 145 39 20 129 68 200 105 167 87 257
136 271 146 15 12 15 3326 0 3338 -6 4 -74 41 -151 81 -178 92 -325 170 -440
230 -49 26 -144 76 -210 110 -66 34 -176 92 -245 128 -69 35 -165 86 -215 112
-149 79 -272 143 -420 220 -77 40 -176 92 -220 115 -44 23 -156 81 -250 130
-93 48 -188 98 -210 110 -22 12 -112 60 -200 105 -88 46 -179 94 -203 107 -45
24 -72 29 -87 14z m-514 -1160 c0 -14 0 -248 0 -518 0 -271 4 -493 8 -493 4 0
26 13 47 28 21 16 95 66 163 113 68 46 171 116 228 156 l105 71 259 -194 c142
-107 263 -194 268 -194 6 0 9 208 9 520 0 286 3 524 6 529 9 14 213 12 218 -2
3 -7 4 -505 4 -1107 l-1 -1095 -112 -1 c-73 0 -113 4 -113 10 -1 6 -2 200 -3
430 l-2 420 -167 125 c-91 69 -177 134 -190 143 -12 9 -59 44 -102 77 -46 35
-84 57 -91 53 -43 -26 -494 -339 -512 -355 l-22 -20 1 -434 c0 -239 -3 -437
-7 -441 -12 -12 -214 -10 -218 2 -2 10 -1 2198 2 2203 0 1 51 1 111 1 l110 -1
1 -26z m-626 -1190 c7 -1 10 -353 10 -1035 -1 -756 2 -1033 10 -1028 12 7 138
96 288 203 51 36 262 186 469 333 l377 267 173 -122 c95 -68 349 -247 563
-399 215 -152 395 -279 400 -282 7 -4 10 339 9 1020 0 565 1 1032 3 1037 2 6
47 10 111 10 l107 -1 3 -1256 2 -1257 -252 179 c-139 99 -260 184 -268 190 -8
6 -131 92 -272 193 -141 100 -327 231 -412 292 -85 60 -159 111 -163 112 -4 2
-55 -31 -113 -72 -58 -42 -127 -91 -155 -110 -27 -18 -89 -62 -138 -97 -48
-35 -195 -139 -327 -233 -133 -93 -325 -230 -428 -303 -103 -73 -194 -137
-202 -142 -13 -7 -15 134 -15 1243 0 1199 1 1252 18 1257 15 4 164 5 202 1z"/>
</g>
</svg>
