<svg width="48" height="48" viewBox="0 0 48 48" fill="none" xmlns="http://www.w3.org/2000/svg">
<path fill-rule="evenodd" clip-rule="evenodd" d="M34.2309 22.0698C34.5225 22.0759 34.7697 22.286 34.8229 22.5727C34.9404 23.2067 35 23.8552 35 24.5C35 27.3046 33.9078 29.9414 31.9246 31.9246C29.9414 33.9078 27.3046 35 24.5 35C21.6954 35 19.0586 33.9078 17.0754 31.9246C15.0922 29.9414 14 27.3046 14 24.5C14 21.6954 15.0922 19.0586 17.0754 17.0754C19.0586 15.0922 21.6954 14 24.5 14C25.1454 14 25.7938 14.0596 26.4274 14.1773C26.7141 14.2305 26.9241 14.4778 26.9303 14.7693C26.9363 15.0608 26.737 15.3166 26.4527 15.3818C23.7252 16.0076 21.8203 18.4022 21.8203 21.2051C21.8203 24.4994 24.5005 27.1796 27.7949 27.1796C30.5978 27.1796 32.9924 25.2747 33.6183 22.5473C33.6835 22.263 33.9378 22.0634 34.2309 22.0698ZM15.2305 24.5C15.2305 29.6112 19.3888 33.7695 24.5 33.7695C29.3492 33.7695 33.3407 30.0263 33.7372 25.2778C33.3422 25.8537 32.8634 26.3738 32.3147 26.8164C31.0403 27.8441 29.4351 28.4101 27.7949 28.4101C23.822 28.4101 20.5898 25.1779 20.5898 21.2051C20.5898 19.5648 21.1558 17.9597 22.1836 16.6853C22.6261 16.1365 23.1463 15.6578 23.7222 15.2628C18.9737 15.6593 15.2305 19.6508 15.2305 24.5Z" fill="white"/>
<path d="M34.8229 22.5727L35.0687 22.5271L35.0687 22.5271L34.8229 22.5727ZM34.2309 22.0698L34.2255 22.3197L34.2256 22.3197L34.2309 22.0698ZM31.9246 31.9246L32.1014 32.1014L32.1014 32.1014L31.9246 31.9246ZM17.0754 31.9246L16.8986 32.1014L16.8986 32.1014L17.0754 31.9246ZM17.0754 17.0754L16.8986 16.8986L16.8986 16.8986L17.0754 17.0754ZM26.4274 14.1773L26.4731 13.9315L26.4731 13.9315L26.4274 14.1773ZM26.9303 14.7693L27.1802 14.7641L27.1802 14.764L26.9303 14.7693ZM26.4527 15.3818L26.3968 15.1381L26.3968 15.1381L26.4527 15.3818ZM33.6183 22.5473L33.8619 22.6032L33.8619 22.6032L33.6183 22.5473ZM33.7372 25.2778L33.9863 25.2986L34.0649 24.3582L33.5311 25.1364L33.7372 25.2778ZM32.3147 26.8164L32.4716 27.011L32.4716 27.011L32.3147 26.8164ZM22.1836 16.6853L22.3782 16.8422V16.8422L22.1836 16.6853ZM23.7222 15.2628L23.8636 15.469L24.642 14.9351L23.7014 15.0137L23.7222 15.2628ZM35.0687 22.5271C34.9939 22.1239 34.6463 21.8285 34.2361 21.8198L34.2256 22.3197C34.3987 22.3234 34.5455 22.4481 34.577 22.6183L35.0687 22.5271ZM35.25 24.5C35.25 23.8399 35.189 23.1762 35.0687 22.5271L34.577 22.6183C34.6918 23.2373 34.75 23.8704 34.75 24.5H35.25ZM32.1014 32.1014C34.1315 30.0713 35.25 27.371 35.25 24.5H34.75C34.75 27.2383 33.6841 29.8115 31.7479 31.7478L32.1014 32.1014ZM24.5 35.25C27.371 35.25 30.0713 34.1315 32.1014 32.1014L31.7479 31.7478C29.8115 33.6841 27.2383 34.75 24.5 34.75V35.25ZM16.8986 32.1014C18.9287 34.1315 21.629 35.25 24.5 35.25V34.75C21.7617 34.75 19.1885 33.6841 17.2521 31.7478L16.8986 32.1014ZM13.75 24.5C13.75 27.371 14.8685 30.0713 16.8986 32.1014L17.2521 31.7478C15.3159 29.8115 14.25 27.2383 14.25 24.5H13.75ZM16.8986 16.8986C14.8685 18.9287 13.75 21.629 13.75 24.5H14.25C14.25 21.7617 15.3159 19.1885 17.2521 17.2522L16.8986 16.8986ZM24.5 13.75C21.629 13.75 18.9287 14.8685 16.8986 16.8986L17.2521 17.2522C19.1885 15.3159 21.7617 14.25 24.5 14.25V13.75ZM26.4731 13.9315C25.8244 13.811 25.1607 13.75 24.5 13.75V14.25C25.1301 14.25 25.7633 14.3082 26.3818 14.4231L26.4731 13.9315ZM27.1802 14.764C27.1716 14.354 26.8763 14.0063 26.4731 13.9315L26.3818 14.4231C26.552 14.4547 26.6767 14.6015 26.6803 14.7745L27.1802 14.764ZM26.5086 15.6255C26.9084 15.5338 27.1887 15.174 27.1802 14.7641L26.6803 14.7745C26.6839 14.9476 26.5655 15.0994 26.3968 15.1381L26.5086 15.6255ZM22.0703 21.2051C22.0703 18.5185 23.895 16.2252 26.5086 15.6255L26.3968 15.1381C23.5555 15.7901 21.5703 18.286 21.5703 21.2051H22.0703ZM27.7949 26.9296C24.6386 26.9296 22.0703 24.3614 22.0703 21.2051H21.5703C21.5703 24.6375 24.3625 27.4296 27.7949 27.4296V26.9296ZM33.3746 22.4914C32.7748 25.105 30.4815 26.9296 27.7949 26.9296V27.4296C30.714 27.4296 33.2099 25.4445 33.8619 22.6032L33.3746 22.4914ZM34.2363 21.8198C33.8241 21.8109 33.4662 22.0921 33.3746 22.4914L33.8619 22.6032C33.9008 22.434 34.0515 22.316 34.2255 22.3197L34.2363 21.8198ZM24.5 33.5195C19.5268 33.5195 15.4805 29.4732 15.4805 24.5H14.9805C14.9805 29.7493 19.2507 34.0195 24.5 34.0195V33.5195ZM33.4881 25.257C33.1023 29.8771 29.218 33.5195 24.5 33.5195V34.0195C29.4804 34.0195 33.5791 30.1754 33.9863 25.2986L33.4881 25.257ZM32.4716 27.011C33.0395 26.553 33.5348 26.0148 33.9434 25.4192L33.5311 25.1364C33.1496 25.6925 32.6873 26.1947 32.1578 26.6218L32.4716 27.011ZM27.7949 28.6601C29.4921 28.6601 31.1527 28.0746 32.4716 27.011L32.1578 26.6218C30.9279 27.6136 29.3781 28.1601 27.7949 28.1601V28.6601ZM20.3398 21.2051C20.3398 25.316 23.6839 28.6601 27.7949 28.6601V28.1601C23.9601 28.1601 20.8398 25.0399 20.8398 21.2051H20.3398ZM21.989 16.5283C20.9253 17.8473 20.3398 19.5079 20.3398 21.2051H20.8398C20.8398 19.6218 21.3863 18.072 22.3782 16.8422L21.989 16.5283ZM23.5808 15.0566C22.9851 15.4651 22.4469 15.9604 21.989 16.5283L22.3782 16.8422C22.8052 16.3127 23.3074 15.8504 23.8636 15.469L23.5808 15.0566ZM15.4805 24.5C15.4805 19.7821 19.1229 15.8977 23.743 15.5119L23.7014 15.0137C18.8246 15.4209 14.9805 19.5196 14.9805 24.5H15.4805Z" fill="white"/>
</svg>
