<svg width="48" height="48" viewBox="0 0 48 48" fill="none" xmlns="http://www.w3.org/2000/svg">
<path fill-rule="evenodd" clip-rule="evenodd" d="M25 11V15H23V11H25ZM30.707 18.5355L29.2928 17.1213L32.1213 14.2929L33.5355 15.7071L30.707 18.5355ZM18.5355 17.1213L15.7071 14.2929L14.2929 15.7071L17.1213 18.5355L18.5355 17.1213ZM11 23H15V25H11V23ZM25 37V33H23V37H25ZM15.5147 33.8995L14.1005 32.4853L16.9289 29.6568L18.3431 31.0711L15.5147 33.8995ZM32.4853 33.8995L33.8995 32.4853L31.0711 29.6568L29.6569 31.0711L32.4853 33.8995ZM33 23H37V25H33V23ZM29 24C29 26.7614 26.7614 29 24 29C21.2386 29 19 26.7614 19 24C19 21.2386 21.2386 19 24 19C26.7614 19 29 21.2386 29 24ZM31 24C31 27.866 27.866 31 24 31C20.134 31 17 27.866 17 24C17 20.134 20.134 17 24 17C27.866 17 31 20.134 31 24Z" fill="white"/>
</svg>
