<svg width="48" height="48" viewBox="0 0 48 48" fill="none" xmlns="http://www.w3.org/2000/svg">
<path opacity="0.65" fill-rule="evenodd" clip-rule="evenodd" d="M13.5 17C14.3284 17 15 16.3284 15 15.5C15 14.6716 14.3284 14 13.5 14C12.6716 14 12 14.6716 12 15.5C12 16.3284 12.6716 17 13.5 17ZM18 16.3H36V14.8H18V16.3ZM18 24.3H36V22.8H18V24.3ZM36 32.3H18V30.8H36V32.3ZM15 23.5C15 24.3284 14.3284 25 13.5 25C12.6716 25 12 24.3284 12 23.5C12 22.6716 12.6716 22 13.5 22C14.3284 22 15 22.6716 15 23.5ZM13.5 33C14.3284 33 15 32.3284 15 31.5C15 30.6716 14.3284 30 13.5 30C12.6716 30 12 30.6716 12 31.5C12 32.3284 12.6716 33 13.5 33Z" fill="white"/>
</svg>
