<svg width="47" height="47" viewBox="0 0 47 47" fill="none" xmlns="http://www.w3.org/2000/svg">
<g opacity="0.65">
<path fill-rule="evenodd" clip-rule="evenodd" d="M23.5 27.6284C25.78 27.6284 27.6284 25.78 27.6284 23.5C27.6284 21.22 25.78 19.3716 23.5 19.3716C21.22 19.3716 19.3716 21.22 19.3716 23.5C19.3716 25.78 21.22 27.6284 23.5 27.6284ZM23.5 29C26.5376 29 29 26.5376 29 23.5C29 20.4624 26.5376 18 23.5 18C20.4624 18 18 20.4624 18 23.5C18 26.5376 20.4624 29 23.5 29Z" fill="white"/>
<path fill-rule="evenodd" clip-rule="evenodd" d="M24.8841 14.4166L24.5457 13.9138C24.0462 13.1715 22.9538 13.1715 22.4543 13.9138L22.1159 14.4166C21.2237 15.7424 19.6242 16.405 18.0558 16.0984L17.461 15.9821C16.5829 15.8104 15.8104 16.5829 15.9821 17.461L16.0984 18.0558C16.405 19.6242 15.7424 21.2237 14.4166 22.1159L13.9138 22.4543C13.1715 22.9538 13.1715 24.0462 13.9138 24.5457L14.4166 24.8841C15.7424 25.7763 16.405 27.3758 16.0984 28.9442L15.9821 29.539C15.8104 30.4171 16.5829 31.1896 17.461 31.0179L18.0558 30.9016C19.6242 30.595 21.2237 31.2576 22.1159 32.5834L22.4543 33.0862C22.9538 33.8285 24.0462 33.8285 24.5457 33.0862L24.8841 32.5834C25.7763 31.2576 27.3758 30.595 28.9442 30.9016L29.539 31.0179C30.4171 31.1896 31.1896 30.4171 31.0179 29.539L30.9016 28.9442C30.595 27.3758 31.2576 25.7763 32.5834 24.8841L33.0862 24.5457C33.8285 24.0462 33.8285 22.9538 33.0862 22.4543L32.5834 22.1159C31.2576 21.2237 30.595 19.6242 30.9016 18.0558L31.0179 17.461C31.1896 16.5829 30.4171 15.8104 29.539 15.9821L28.9442 16.0984C27.3758 16.405 25.7763 15.7424 24.8841 14.4166ZM25.6716 13.1562C24.6342 11.6146 22.3658 11.6146 21.3284 13.1562L20.99 13.659C20.4024 14.5321 19.3491 14.9684 18.3162 14.7665L17.7214 14.6502C15.8978 14.2937 14.2937 15.8978 14.6502 17.7214L14.7665 18.3162C14.9684 19.3491 14.5321 20.4024 13.659 20.99L13.1562 21.3284C11.6146 22.3658 11.6146 24.6342 13.1562 25.6716L13.659 26.01C14.5321 26.5976 14.9684 27.6509 14.7665 28.6838L14.6502 29.2786C14.2937 31.1022 15.8978 32.7063 17.7214 32.3498L18.3162 32.2335C19.3491 32.0316 20.4024 32.4679 20.99 33.341L21.3284 33.8438C22.3658 35.3854 24.6342 35.3854 25.6716 33.8438L26.01 33.341C26.5976 32.4679 27.6509 32.0316 28.6838 32.2335L29.2786 32.3498C31.1022 32.7063 32.7063 31.1022 32.3498 29.2786L32.2335 28.6838C32.0316 27.6509 32.4679 26.5976 33.341 26.01L33.8438 25.6716C35.3854 24.6342 35.3854 22.3658 33.8438 21.3284L33.341 20.99C32.4679 20.4024 32.0316 19.3491 32.2335 18.3162L32.3498 17.7214C32.7063 15.8978 31.1022 14.2937 29.2786 14.6502L28.6838 14.7665C27.6509 14.9684 26.5976 14.5321 26.01 13.659L25.6716 13.1562Z" fill="white"/>
</g>
</svg>
