<svg width="48" height="48" viewBox="0 0 48 48" fill="none" xmlns="http://www.w3.org/2000/svg">
<g opacity="0.65">
<path fill-rule="evenodd" clip-rule="evenodd" d="M24.0846 28.177C26.4386 28.177 28.3468 26.2688 28.3468 23.9148C28.3468 21.5608 26.4386 19.6525 24.0846 19.6525C21.7306 19.6525 19.8223 21.5608 19.8223 23.9148C19.8223 26.2688 21.7306 28.177 24.0846 28.177ZM24.0846 29.5931C27.2206 29.5931 29.7629 27.0508 29.7629 23.9148C29.7629 20.7787 27.2206 18.2365 24.0846 18.2365C20.9485 18.2365 18.4062 20.7787 18.4062 23.9148C18.4062 27.0508 20.9485 29.5931 24.0846 29.5931Z" fill="white"/>
<path fill-rule="evenodd" clip-rule="evenodd" d="M25.4443 14.5217L25.0912 13.997C24.5699 13.2224 23.4301 13.2224 22.9088 13.997L22.5557 14.5217C21.6247 15.9052 19.9557 16.5965 18.3191 16.2766L17.6984 16.1552C16.7821 15.9761 15.9761 16.7821 16.1552 17.6984L16.2766 18.3191C16.5965 19.9557 15.9052 21.6247 14.5217 22.5557L13.997 22.9088C13.2224 23.4301 13.2224 24.5699 13.997 25.0912L14.5217 25.4443C15.9052 26.3753 16.5965 28.0443 16.2766 29.6809L16.1552 30.3016C15.9761 31.2179 16.7821 32.0239 17.6984 31.8448L18.3191 31.7234C19.9557 31.4035 21.6247 32.0948 22.5557 33.4783L22.9088 34.003C23.4301 34.7776 24.5699 34.7776 25.0912 34.003L25.4443 33.4783C26.3753 32.0948 28.0443 31.4035 29.6809 31.7234L30.3016 31.8448C31.2179 32.0239 32.0239 31.2179 31.8448 30.3016L31.7234 29.6809C31.4035 28.0443 32.0948 26.3753 33.4783 25.4443L34.003 25.0912C34.7776 24.5699 34.7776 23.4301 34.003 22.9088L33.4783 22.5557C32.0948 21.6247 31.4035 19.9557 31.7234 18.3191L31.8448 17.6984C32.0239 16.7821 31.2179 15.9761 30.3016 16.1552L29.6809 16.2766C28.0443 16.5965 26.3753 15.9052 25.4443 14.5217ZM26.266 13.2064C25.1835 11.5979 22.8165 11.5979 21.734 13.2064L21.3809 13.7311C20.7677 14.6422 19.6686 15.0975 18.5908 14.8868L17.9701 14.7655C16.0673 14.3935 14.3935 16.0673 14.7655 17.9701L14.8868 18.5908C15.0975 19.6686 14.6422 20.7677 13.7311 21.3809L13.2064 21.734C11.5979 22.8165 11.5979 25.1835 13.2064 26.266L13.7311 26.6191C14.6422 27.2323 15.0975 28.3314 14.8868 29.4092L14.7655 30.0299C14.3935 31.9327 16.0673 33.6065 17.9701 33.2345L18.5908 33.1132C19.6686 32.9025 20.7677 33.3578 21.3809 34.2689L21.734 34.7936C22.8165 36.4021 25.1835 36.4021 26.266 34.7936L26.6191 34.2689C27.2323 33.3578 28.3314 32.9025 29.4092 33.1132L30.0299 33.2345C31.9327 33.6065 33.6065 31.9327 33.2345 30.0299L33.1132 29.4092C32.9025 28.3314 33.3578 27.2323 34.2689 26.6191L34.7936 26.266C36.4021 25.1835 36.4021 22.8165 34.7936 21.734L34.2689 21.3809C33.3578 20.7677 32.9025 19.6686 33.1132 18.5908L33.2345 17.9701C33.6065 16.0673 31.9327 14.3935 30.0299 14.7655L29.4092 14.8868C28.3314 15.0975 27.2323 14.6422 26.6191 13.7311L26.266 13.2064Z" fill="white"/>
</g>
</svg>
