<svg width="48" height="48" viewBox="0 0 48 48" fill="none" xmlns="http://www.w3.org/2000/svg">
<path opacity="0.65" fill-rule="evenodd" clip-rule="evenodd" d="M38 15.2847L23.9756 8L10 15.2854V31.6813L24 39L38 31.6813V15.2847ZM11.2909 16.0591L23.9767 9.44613L36.7091 16.0598V30.9086L24 37.5524L11.2909 30.9086V16.0591ZM20.218 14V24.9305H21.5089V20.6833L24.0848 18.7917L26.6485 20.7285V24.9305H27.9395V14H26.6485V19.1188L24.0958 17.1903L21.5089 19.0899V14H20.218ZM18.4819 19.9931H17.1909V32.5753L24 27.7055L30.8091 32.5753V19.9931H29.5182V30.0733L24 26.1268L18.4819 30.0733V19.9931Z" fill="white"/>
</svg>
