<svg width="192" height="251" viewBox="0 0 192 251" fill="none" xmlns="http://www.w3.org/2000/svg">
<g id="HW Logo">
<g id="HOLLOW WHITE">
<path d="M17.742 207H21.438V172.152H17.742V187.2H4.27803V172.152H0.582031V207H4.27803V190.632H17.742V207Z" fill="white"/>
<path d="M28.2143 189.576C28.2143 199.502 36.2399 207.528 46.1663 207.528C56.0927 207.528 64.1183 199.502 64.1183 189.576C64.1183 179.65 56.0927 171.624 46.1663 171.624C36.2399 171.624 28.2143 179.65 28.2143 189.576ZM31.9103 189.576C31.9103 181.656 38.2463 175.214 46.1663 175.214C54.1391 175.214 60.4223 181.656 60.4223 189.576C60.4223 197.549 54.1391 203.99 46.1663 203.99C38.2463 203.99 31.9103 197.549 31.9103 189.576Z" fill="white"/>
<path d="M90.0466 203.568H74.629V172.152H70.933V207H90.0466V203.568Z" fill="white"/>
<path d="M114.213 203.568H98.7959V172.152H95.0999V207H114.213V203.568Z" fill="white"/>
<path d="M113.812 189.576C113.812 199.502 121.837 207.528 131.764 207.528C141.69 207.528 149.716 199.502 149.716 189.576C149.716 179.65 141.69 171.624 131.764 171.624C121.837 171.624 113.812 179.65 113.812 189.576ZM117.508 189.576C117.508 181.656 123.844 175.214 131.764 175.214C139.737 175.214 146.02 181.656 146.02 189.576C146.02 197.549 139.737 203.99 131.764 203.99C123.844 203.99 117.508 197.549 117.508 189.576Z" fill="white"/>
<path d="M174.218 191.318L191.906 207.792V172.152H188.21V199.925L174.218 186.672L160.226 199.925V172.152H156.53V207.792L174.218 191.318Z" fill="white"/>
<path d="M49.965 234.318L67.653 250.792V215.152H63.957V242.925L49.965 229.672L35.973 242.925V215.152H32.277V250.792L49.965 234.318Z" fill="white"/>
<path d="M93.3008 250H96.9968V215.152H93.3008V230.2H79.8368V215.152H76.1408V250H79.8368V233.632H93.3008V250Z" fill="white"/>
<path d="M109.211 215.152H105.515V250H109.211V215.152Z" fill="white"/>
<path d="M127.593 250V218.584H136.992V215.152H114.552V218.584H123.897V250H127.593Z" fill="white"/>
<path d="M145.995 246.568V233.632H157.083V230.2H145.995V218.584H161.413V215.152H142.299V250H161.413V246.568H145.995Z" fill="white"/>
<path d="M17.742 207H21.438V172.152H17.742V187.2H4.27803V172.152H0.582031V207H4.27803V190.632H17.742V207Z" stroke="white"/>
<path d="M28.2143 189.576C28.2143 199.502 36.2399 207.528 46.1663 207.528C56.0927 207.528 64.1183 199.502 64.1183 189.576C64.1183 179.65 56.0927 171.624 46.1663 171.624C36.2399 171.624 28.2143 179.65 28.2143 189.576ZM31.9103 189.576C31.9103 181.656 38.2463 175.214 46.1663 175.214C54.1391 175.214 60.4223 181.656 60.4223 189.576C60.4223 197.549 54.1391 203.99 46.1663 203.99C38.2463 203.99 31.9103 197.549 31.9103 189.576Z" stroke="white"/>
<path d="M90.0466 203.568H74.629V172.152H70.933V207H90.0466V203.568Z" stroke="white"/>
<path d="M114.213 203.568H98.7959V172.152H95.0999V207H114.213V203.568Z" stroke="white"/>
<path d="M113.812 189.576C113.812 199.502 121.837 207.528 131.764 207.528C141.69 207.528 149.716 199.502 149.716 189.576C149.716 179.65 141.69 171.624 131.764 171.624C121.837 171.624 113.812 179.65 113.812 189.576ZM117.508 189.576C117.508 181.656 123.844 175.214 131.764 175.214C139.737 175.214 146.02 181.656 146.02 189.576C146.02 197.549 139.737 203.99 131.764 203.99C123.844 203.99 117.508 197.549 117.508 189.576Z" stroke="white"/>
<path d="M174.218 191.318L191.906 207.792V172.152H188.21V199.925L174.218 186.672L160.226 199.925V172.152H156.53V207.792L174.218 191.318Z" stroke="white"/>
<path d="M49.965 234.318L67.653 250.792V215.152H63.957V242.925L49.965 229.672L35.973 242.925V215.152H32.277V250.792L49.965 234.318Z" stroke="white"/>
<path d="M93.3008 250H96.9968V215.152H93.3008V230.2H79.8368V215.152H76.1408V250H79.8368V233.632H93.3008V250Z" stroke="white"/>
<path d="M109.211 215.152H105.515V250H109.211V215.152Z" stroke="white"/>
<path d="M127.593 250V218.584H136.992V215.152H114.552V218.584H123.897V250H127.593Z" stroke="white"/>
<path d="M145.995 246.568V233.632H157.083V230.2H145.995V218.584H161.413V215.152H142.299V250H161.413V246.568H145.995Z" stroke="white"/>
</g>
<path id="Hex" fill-rule="evenodd" clip-rule="evenodd" d="M94.8821 3L161 37.5659V115.274L95 150L29 115.274V37.5659L94.8821 3Z" stroke="white" stroke-width="5" stroke-linecap="round"/>
<path id="HW" d="M64 113H61.25V118.321L65.5907 115.243L64 113ZM94.5 91.3721L96.0907 89.1289L94.5 88.0009L92.9093 89.1289L94.5 91.3721ZM125 113L123.409 115.243L127.75 118.321V113H125ZM94.9467 47.5815L96.5954 45.3805L95.0134 44.1955L93.386 45.3173L94.9467 47.5815ZM61.25 57.4044V113H66.75V57.4044H61.25ZM65.5907 115.243L96.0907 93.6154L92.9093 89.1289L62.4093 110.757L65.5907 115.243ZM92.9093 93.6154L123.409 115.243L126.591 110.757L96.0907 89.1289L92.9093 93.6154ZM127.75 113V57.4044H122.25V113H127.75ZM76.2292 28V81.6296H81.7292V28H76.2292ZM108.05 28V81.6296H113.55V28H108.05ZM79.6409 61.4719L96.5075 49.8457L93.386 45.3173L76.5194 56.9435L79.6409 61.4719ZM93.2981 49.7825L108.819 61.4087L112.116 57.0067L96.5954 45.3805L93.2981 49.7825Z" fill="white"/>
</g>
</svg>
