<svg width="48" height="48" viewBox="0 0 48 48" fill="none" xmlns="http://www.w3.org/2000/svg">
<path fill-rule="evenodd" clip-rule="evenodd" d="M20.6667 13H19.8667V13.8V16.3503H16.2222H14V17.9503H15.5099L17.4415 34.5524L17.5238 35.2599H18.2361H30.1111H30.8378L30.9074 34.5366L32.5045 17.9503H34V16.3503H31.7778H28.1333V13.8V13H27.3333H20.6667ZM26.5333 16.3503V14.6H21.4667V16.3503H26.5333ZM17.1207 17.9503L18.9484 33.6599H29.3844L30.897 17.9503H17.1207ZM19.8667 30.5513V21.0589H21.4667V30.5513H19.8667ZM23.2 21.0589V30.5513H24.8V21.0589H23.2ZM26.5333 30.5513V21.0589H28.1333V30.5513H26.5333Z" fill="white"/>
</svg>
