<svg width="48" height="48" viewBox="0 0 48 48" fill="none" xmlns="http://www.w3.org/2000/svg">
<path fill-rule="evenodd" clip-rule="evenodd" d="M24.345 5.29263L23.9708 5.09497L23.5968 5.29318L7.62537 13.7583L7.20001 13.9837V14.4651V33.4958V33.9766L7.62454 34.2022L23.6245 42.7065L24 42.906L24.3755 42.7065L40.3755 34.2022L40.8 33.9766V33.4958V14.4651V13.9829L40.3736 13.7577L24.345 5.29263ZM8.80001 14.9466L23.9721 6.9051L39.2 14.9474V33.015L24 41.0941L8.80001 33.015V14.9466ZM19.5477 12.2069V25.5219H21.1477V20.3582L24.2403 18.0689L27.3185 20.4132V25.5219H28.9185V12.2069H27.3185V18.402L24.7318 16.4321L24.2539 16.0682L23.7711 16.4256L21.1477 18.3675V12.2069H19.5477ZM15.8897 19.5074V33.3104V34.8734L17.1576 33.9593L24.138 28.9269L31.1184 33.9593L32.3863 34.8734V33.3104V19.5074H30.7863V31.7474L24.6058 27.2918L24.138 26.9545L23.6701 27.2918L17.4897 31.7474V19.5074H15.8897Z" fill="#555555"/>
</svg>
