<svg width="48" height="48" viewBox="0 0 48 48" fill="none" xmlns="http://www.w3.org/2000/svg">
<mask id="mask0_1812_3918" style="mask-type:alpha" maskUnits="userSpaceOnUse" x="12" y="12" width="24" height="24">
<path fill-rule="evenodd" clip-rule="evenodd" d="M20.8 14C20.8 12.8954 21.6954 12 22.8 12H25.2C26.3046 12 27.2 12.8954 27.2 14V14.5564C27.2 15.4473 28.2771 15.8935 28.9071 15.2635L29.1564 15.0142C29.9374 14.2332 31.2038 14.2332 31.9848 15.0142L33.6819 16.7113C34.4629 17.4923 34.4629 18.7586 33.6819 19.5397L33.5377 19.6839C33.1258 20.0958 33.4175 20.8 34 20.8C35.1046 20.8 36 21.6954 36 22.8V25.2C36 26.3046 35.1046 27.2 34 27.2H33.7916C32.9007 27.2 32.4546 28.2771 33.0845 28.9071L33.3338 29.1564C34.1148 29.9374 34.1148 31.2037 33.3338 31.9848L31.6367 33.6818C30.8557 34.4629 29.5893 34.4629 28.8083 33.6818L28.5622 33.4358C28.0595 32.9331 27.2 33.2891 27.2 34C27.2 35.1046 26.3046 36 25.2 36H22.8C21.6954 36 20.8 35.1046 20.8 34C20.8 33.4175 20.0958 33.1258 19.6839 33.5377L19.5397 33.6818C18.7587 34.4629 17.4924 34.4629 16.7113 33.6818L15.0143 31.9848C14.2332 31.2037 14.2332 29.9374 15.0143 29.1563L15.2635 28.9071C15.8935 28.2771 15.4473 27.2 14.5564 27.2H14C12.8954 27.2 12 26.3046 12 25.2V22.8C12 21.6954 12.8954 20.8 14 20.8H14.1441C14.8019 20.8 15.1312 20.0048 14.6662 19.5397C13.8851 18.7587 13.8851 17.4923 14.6662 16.7113L16.3632 15.0142C17.1443 14.2332 18.4106 14.2332 19.1916 15.0142C19.7852 15.6077 20.8 15.1874 20.8 14.348V14ZM24 28.8C26.651 28.8 28.8 26.651 28.8 24C28.8 21.349 26.651 19.2 24 19.2C21.349 19.2 19.2 21.349 19.2 24C19.2 26.651 21.349 28.8 24 28.8Z" fill="white"/>
</mask>
<g mask="url(#mask0_1812_3918)">
<path d="M28.9079 15.2635L29.7564 16.112L28.9079 15.2635ZM29.1572 15.0142L28.3087 14.1657L29.1572 15.0142ZM31.9856 15.0142L31.1371 15.8627L31.9856 15.0142ZM33.6827 16.7113L34.5312 15.8627L33.6827 16.7113ZM33.6827 19.5397L32.8341 18.6912L33.6827 19.5397ZM33.5385 19.6839L34.387 20.5324L33.5385 19.6839ZM33.3346 31.9848L34.1831 32.8333L33.3346 31.9848ZM31.6375 33.6818L30.789 32.8333L31.6375 33.6818ZM19.6847 33.5377L18.8362 32.6892L19.6847 33.5377ZM19.5405 33.6818L20.3891 34.5304L19.5405 33.6818ZM16.7121 33.6818L15.8636 34.5304L16.7121 33.6818ZM15.0151 31.9848L15.8636 31.1362L15.0151 31.9848ZM15.0151 29.1563L15.8636 30.0049L15.0151 29.1563ZM15.2643 28.9071L14.4158 28.0586L15.2643 28.9071ZM14.667 19.5397L15.5155 18.6912L14.667 19.5397ZM14.667 16.7113L13.8184 15.8627L14.667 16.7113ZM16.364 15.0142L17.2125 15.8627L16.364 15.0142ZM19.1924 15.0142L20.041 14.1657L19.1924 15.0142ZM22.8008 10.8C21.0335 10.8 19.6008 12.2327 19.6008 14H22.0008C22.0008 13.5582 22.359 13.2 22.8008 13.2V10.8ZM25.2008 10.8H22.8008V13.2H25.2008V10.8ZM28.4008 14C28.4008 12.2327 26.9681 10.8 25.2008 10.8V13.2C25.6426 13.2 26.0008 13.5582 26.0008 14H28.4008ZM28.4008 14.5564V14H26.0008V14.5564H28.4008ZM28.0594 14.415C28.0789 14.3954 28.1191 14.3706 28.1706 14.3617C28.2154 14.3539 28.2516 14.3609 28.2773 14.3716C28.3031 14.3823 28.3336 14.4029 28.3599 14.4401C28.3899 14.4827 28.4008 14.5287 28.4008 14.5564H26.0008C26.0008 16.5164 28.3705 17.498 29.7564 16.112L28.0594 14.415ZM28.3087 14.1657L28.0594 14.415L29.7564 16.112L30.0057 15.8627L28.3087 14.1657ZM32.8341 14.1657C31.5845 12.916 29.5583 12.916 28.3087 14.1657L30.0057 15.8627C30.3181 15.5503 30.8247 15.5503 31.1371 15.8627L32.8341 14.1657ZM34.5312 15.8627L32.8341 14.1657L31.1371 15.8627L32.8341 17.5598L34.5312 15.8627ZM34.5312 20.3882C35.7809 19.1385 35.7809 17.1124 34.5312 15.8627L32.8341 17.5598C33.1466 17.8722 33.1466 18.3788 32.8341 18.6912L34.5312 20.3882ZM34.387 20.5324L34.5312 20.3882L32.8341 18.6912L32.69 18.8354L34.387 20.5324ZM34.0008 19.6C34.4874 19.6 34.7311 20.1883 34.387 20.5324L32.69 18.8354C31.5221 20.0032 32.3492 22 34.0008 22V19.6ZM37.2008 22.8C37.2008 21.0327 35.7681 19.6 34.0008 19.6V22C34.4426 22 34.8008 22.3582 34.8008 22.8H37.2008ZM37.2008 25.2V22.8H34.8008V25.2H37.2008ZM34.0008 28.4C35.7681 28.4 37.2008 26.9673 37.2008 25.2H34.8008C34.8008 25.6418 34.4426 26 34.0008 26V28.4ZM33.7924 28.4H34.0008V26H33.7924V28.4ZM33.9339 28.0586C33.9534 28.0781 33.9783 28.1183 33.9872 28.1698C33.9949 28.2146 33.9879 28.2508 33.9772 28.2765C33.9666 28.3023 33.946 28.3328 33.9088 28.3591C33.8661 28.3891 33.8201 28.4 33.7924 28.4V26C31.8325 26 30.8509 28.3697 32.2368 29.7556L33.9339 28.0586ZM34.1831 28.3078L33.9339 28.0586L32.2368 29.7556L32.4861 30.0049L34.1831 28.3078ZM34.1831 32.8333C35.4328 31.5836 35.4328 29.5575 34.1831 28.3078L32.4861 30.0049C32.7985 30.3173 32.7985 30.8238 32.4861 31.1363L34.1831 32.8333ZM32.4861 34.5304L34.1831 32.8333L32.4861 31.1363L30.789 32.8333L32.4861 34.5304ZM27.9606 34.5304C29.2103 35.78 31.2364 35.78 32.4861 34.5304L30.789 32.8333C30.4766 33.1457 29.97 33.1457 29.6576 32.8333L27.9606 34.5304ZM27.7145 34.2843L27.9606 34.5304L29.6576 32.8333L29.4115 32.5872L27.7145 34.2843ZM28.4008 34C28.4008 34.3582 27.9678 34.5375 27.7145 34.2843L29.4115 32.5872C28.1529 31.3286 26.0008 32.22 26.0008 34H28.4008ZM25.2008 37.2C26.9681 37.2 28.4008 35.7673 28.4008 34H26.0008C26.0008 34.4418 25.6426 34.8 25.2008 34.8V37.2ZM22.8008 37.2H25.2008V34.8H22.8008V37.2ZM19.6008 34C19.6008 35.7673 21.0335 37.2 22.8008 37.2V34.8C22.359 34.8 22.0008 34.4418 22.0008 34H19.6008ZM20.5332 34.3862C20.1891 34.7303 19.6008 34.4866 19.6008 34H22.0008C22.0008 32.3484 20.004 31.5213 18.8362 32.6892L20.5332 34.3862ZM20.3891 34.5304L20.5332 34.3862L18.8362 32.6892L18.692 32.8333L20.3891 34.5304ZM15.8636 34.5304C17.1133 35.78 19.1394 35.78 20.3891 34.5304L18.692 32.8333C18.3796 33.1457 17.8731 33.1457 17.5606 32.8333L15.8636 34.5304ZM14.1665 32.8333L15.8636 34.5304L17.5606 32.8333L15.8636 31.1362L14.1665 32.8333ZM14.1665 28.3078C12.9169 29.5575 12.9169 31.5836 14.1665 32.8333L15.8636 31.1362C15.5512 30.8238 15.5512 30.3173 15.8636 30.0049L14.1665 28.3078ZM14.4158 28.0586L14.1665 28.3078L15.8636 30.0049L16.1128 29.7556L14.4158 28.0586ZM14.5572 28.4C14.5295 28.4 14.4835 28.3891 14.4409 28.3591C14.4037 28.3328 14.3831 28.3023 14.3724 28.2765C14.3618 28.2508 14.3547 28.2146 14.3625 28.1698C14.3714 28.1183 14.3962 28.0781 14.4158 28.0586L16.1128 29.7556C17.4988 28.3697 16.5172 26 14.5572 26V28.4ZM14.0008 28.4H14.5572V26H14.0008V28.4ZM10.8008 25.2C10.8008 26.9673 12.2335 28.4 14.0008 28.4V26C13.559 26 13.2008 25.6418 13.2008 25.2H10.8008ZM10.8008 22.8V25.2H13.2008V22.8H10.8008ZM14.0008 19.6C12.2335 19.6 10.8008 21.0327 10.8008 22.8H13.2008C13.2008 22.3582 13.559 22 14.0008 22V19.6ZM14.1449 19.6H14.0008V22H14.1449V19.6ZM13.8184 20.3882C13.5276 20.0974 13.7336 19.6 14.1449 19.6V22C15.8717 22 16.7365 19.9122 15.5155 18.6912L13.8184 20.3882ZM13.8184 15.8627C12.5688 17.1124 12.5688 19.1386 13.8184 20.3882L15.5155 18.6912C15.2031 18.3788 15.2031 17.8722 15.5155 17.5598L13.8184 15.8627ZM15.5155 14.1657L13.8184 15.8627L15.5155 17.5598L17.2125 15.8627L15.5155 14.1657ZM20.041 14.1657C18.7913 12.916 16.7652 12.916 15.5155 14.1657L17.2125 15.8627C17.525 15.5503 18.0315 15.5503 18.3439 15.8627L20.041 14.1657ZM19.6008 14.348C19.6008 14.3075 19.6156 14.2502 19.652 14.1984C19.6847 14.1521 19.7242 14.1246 19.76 14.1098C19.7958 14.095 19.8431 14.0865 19.899 14.0962C19.9614 14.107 20.0123 14.137 20.041 14.1657L18.3439 15.8627C19.6934 17.2122 22.0008 16.2565 22.0008 14.348H19.6008ZM19.6008 14V14.348H22.0008V14H19.6008ZM27.6008 24C27.6008 25.9882 25.989 27.6 24.0008 27.6V30C27.3145 30 30.0008 27.3137 30.0008 24H27.6008ZM24.0008 20.4C25.989 20.4 27.6008 22.0118 27.6008 24H30.0008C30.0008 20.6863 27.3145 18 24.0008 18V20.4ZM20.4008 24C20.4008 22.0118 22.0126 20.4 24.0008 20.4V18C20.6871 18 18.0008 20.6863 18.0008 24H20.4008ZM24.0008 27.6C22.0126 27.6 20.4008 25.9882 20.4008 24H18.0008C18.0008 27.3137 20.6871 30 24.0008 30V27.6Z" fill="#555555"/>
</g>
</svg>
