<svg width="48" height="48" viewBox="0 0 48 48" fill="none" xmlns="http://www.w3.org/2000/svg">
<mask id="path-1-inside-1_1619_3720" fill="white">
<path fill-rule="evenodd" clip-rule="evenodd" d="M20.8 14C20.8 12.8954 21.6954 12 22.8 12H25.2C26.3046 12 27.2 12.8954 27.2 14V14.5564C27.2 15.4473 28.2771 15.8935 28.9071 15.2635L29.1564 15.0142C29.9374 14.2332 31.2038 14.2332 31.9848 15.0142L33.6819 16.7113C34.4629 17.4923 34.4629 18.7586 33.6819 19.5397L33.5377 19.6839C33.1258 20.0958 33.4175 20.8 34 20.8C35.1046 20.8 36 21.6954 36 22.8V25.2C36 26.3046 35.1046 27.2 34 27.2H33.7916C32.9007 27.2 32.4546 28.2771 33.0845 28.9071L33.3338 29.1564C34.1148 29.9374 34.1148 31.2037 33.3338 31.9848L31.6367 33.6818C30.8557 34.4629 29.5893 34.4629 28.8083 33.6818L28.5622 33.4358C28.0595 32.9331 27.2 33.2891 27.2 34C27.2 35.1046 26.3046 36 25.2 36H22.8C21.6954 36 20.8 35.1046 20.8 34C20.8 33.4175 20.0958 33.1258 19.6839 33.5377L19.5397 33.6818C18.7587 34.4629 17.4924 34.4629 16.7113 33.6818L15.0143 31.9848C14.2332 31.2037 14.2332 29.9374 15.0143 29.1563L15.2635 28.9071C15.8935 28.2771 15.4473 27.2 14.5564 27.2H14C12.8954 27.2 12 26.3046 12 25.2V22.8C12 21.6954 12.8954 20.8 14 20.8H14.1441C14.8019 20.8 15.1312 20.0048 14.6662 19.5397C13.8851 18.7587 13.8851 17.4923 14.6662 16.7113L16.3632 15.0142C17.1443 14.2332 18.4106 14.2332 19.1916 15.0142C19.7852 15.6077 20.8 15.1874 20.8 14.348V14ZM24 28.8C26.651 28.8 28.8 26.651 28.8 24C28.8 21.349 26.651 19.2 24 19.2C21.349 19.2 19.2 21.349 19.2 24C19.2 26.651 21.349 28.8 24 28.8Z"/>
</mask>
<path d="M28.9071 15.2635L29.7556 16.112L29.7556 16.112L28.9071 15.2635ZM29.1564 15.0142L28.3079 14.1657L28.3079 14.1657L29.1564 15.0142ZM31.9848 15.0142L31.1363 15.8627L31.1363 15.8627L31.9848 15.0142ZM33.6819 16.7113L34.5304 15.8627L34.5304 15.8627L33.6819 16.7113ZM33.6819 19.5397L32.8333 18.6912L32.8333 18.6912L33.6819 19.5397ZM33.5377 19.6839L34.3862 20.5324L34.3862 20.5324L33.5377 19.6839ZM33.3338 31.9848L34.1823 32.8333L34.1823 32.8333L33.3338 31.9848ZM31.6367 33.6818L30.7882 32.8333L30.7882 32.8333L31.6367 33.6818ZM19.6839 33.5377L18.8354 32.6892L18.8354 32.6892L19.6839 33.5377ZM19.5397 33.6818L20.3883 34.5304L20.3883 34.5304L19.5397 33.6818ZM16.7113 33.6818L15.8628 34.5304L15.8628 34.5304L16.7113 33.6818ZM15.0143 31.9848L15.8628 31.1362L15.8628 31.1362L15.0143 31.9848ZM15.0143 29.1563L15.8628 30.0049L15.8628 30.0049L15.0143 29.1563ZM15.2635 28.9071L14.415 28.0586L14.415 28.0586L15.2635 28.9071ZM14.6662 19.5397L15.5147 18.6912L15.5147 18.6912L14.6662 19.5397ZM14.6662 16.7113L13.8176 15.8627L13.8176 15.8627L14.6662 16.7113ZM16.3632 15.0142L17.2117 15.8627L17.2117 15.8627L16.3632 15.0142ZM19.1916 15.0142L20.0402 14.1657L20.0402 14.1657L19.1916 15.0142ZM22.8 10.8C21.0327 10.8 19.6 12.2327 19.6 14H22C22 13.5582 22.3582 13.2 22.8 13.2V10.8ZM25.2 10.8H22.8V13.2H25.2V10.8ZM28.4 14C28.4 12.2327 26.9673 10.8 25.2 10.8V13.2C25.6418 13.2 26 13.5582 26 14H28.4ZM28.4 14.5564V14H26V14.5564H28.4ZM28.0586 14.415C28.0781 14.3954 28.1183 14.3706 28.1698 14.3617C28.2146 14.3539 28.2508 14.3609 28.2765 14.3716C28.3023 14.3823 28.3328 14.4029 28.3591 14.4401C28.3891 14.4827 28.4 14.5287 28.4 14.5564H26C26 16.5164 28.3697 17.498 29.7556 16.112L28.0586 14.415ZM28.3079 14.1657L28.0586 14.415L29.7556 16.112L30.0049 15.8627L28.3079 14.1657ZM32.8333 14.1657C31.5837 12.916 29.5575 12.916 28.3079 14.1657L30.0049 15.8627C30.3173 15.5503 30.8239 15.5503 31.1363 15.8627L32.8333 14.1657ZM34.5304 15.8627L32.8333 14.1657L31.1363 15.8627L32.8333 17.5598L34.5304 15.8627ZM34.5304 20.3882C35.7801 19.1385 35.7801 17.1124 34.5304 15.8627L32.8333 17.5598C33.1458 17.8722 33.1458 18.3788 32.8333 18.6912L34.5304 20.3882ZM34.3862 20.5324L34.5304 20.3882L32.8333 18.6912L32.6892 18.8354L34.3862 20.5324ZM34 19.6C34.4866 19.6 34.7303 20.1883 34.3862 20.5324L32.6892 18.8354C31.5213 20.0032 32.3484 22 34 22V19.6ZM37.2 22.8C37.2 21.0327 35.7673 19.6 34 19.6V22C34.4418 22 34.8 22.3582 34.8 22.8H37.2ZM37.2 25.2V22.8H34.8V25.2H37.2ZM34 28.4C35.7673 28.4 37.2 26.9673 37.2 25.2H34.8C34.8 25.6418 34.4418 26 34 26V28.4ZM33.7916 28.4H34V26H33.7916V28.4ZM33.9331 28.0586C33.9526 28.0781 33.9775 28.1183 33.9864 28.1698C33.9941 28.2146 33.9871 28.2508 33.9764 28.2765C33.9658 28.3023 33.9452 28.3328 33.908 28.3591C33.8653 28.3891 33.8193 28.4 33.7916 28.4V26C31.8317 26 30.8501 28.3697 32.236 29.7556L33.9331 28.0586ZM34.1823 28.3078L33.9331 28.0586L32.236 29.7556L32.4853 30.0049L34.1823 28.3078ZM34.1823 32.8333C35.432 31.5836 35.432 29.5575 34.1823 28.3078L32.4853 30.0049C32.7977 30.3173 32.7977 30.8238 32.4853 31.1363L34.1823 32.8333ZM32.4853 34.5304L34.1823 32.8333L32.4853 31.1363L30.7882 32.8333L32.4853 34.5304ZM27.9598 34.5304C29.2095 35.78 31.2356 35.78 32.4853 34.5304L30.7882 32.8333C30.4758 33.1457 29.9692 33.1457 29.6568 32.8333L27.9598 34.5304ZM27.7137 34.2843L27.9598 34.5304L29.6568 32.8333L29.4107 32.5872L27.7137 34.2843ZM28.4 34C28.4 34.3582 27.967 34.5375 27.7137 34.2843L29.4107 32.5872C28.1521 31.3286 26 32.22 26 34H28.4ZM25.2 37.2C26.9673 37.2 28.4 35.7673 28.4 34H26C26 34.4418 25.6418 34.8 25.2 34.8V37.2ZM22.8 37.2H25.2V34.8H22.8V37.2ZM19.6 34C19.6 35.7673 21.0327 37.2 22.8 37.2V34.8C22.3582 34.8 22 34.4418 22 34H19.6ZM20.5324 34.3862C20.1883 34.7303 19.6 34.4866 19.6 34H22C22 32.3484 20.0032 31.5213 18.8354 32.6892L20.5324 34.3862ZM20.3883 34.5304L20.5324 34.3862L18.8354 32.6892L18.6912 32.8333L20.3883 34.5304ZM15.8628 34.5304C17.1125 35.78 19.1386 35.78 20.3883 34.5304L18.6912 32.8333C18.3788 33.1457 17.8723 33.1457 17.5598 32.8333L15.8628 34.5304ZM14.1657 32.8333L15.8628 34.5304L17.5598 32.8333L15.8628 31.1362L14.1657 32.8333ZM14.1657 28.3078C12.9161 29.5575 12.9161 31.5836 14.1657 32.8333L15.8628 31.1362C15.5504 30.8238 15.5504 30.3173 15.8628 30.0049L14.1657 28.3078ZM14.415 28.0586L14.1657 28.3078L15.8628 30.0049L16.112 29.7556L14.415 28.0586ZM14.5564 28.4C14.5287 28.4 14.4827 28.3891 14.4401 28.3591C14.4029 28.3328 14.3823 28.3023 14.3716 28.2765C14.361 28.2508 14.3539 28.2146 14.3617 28.1698C14.3706 28.1183 14.3954 28.0781 14.415 28.0586L16.112 29.7556C17.498 28.3697 16.5164 26 14.5564 26V28.4ZM14 28.4H14.5564V26H14V28.4ZM10.8 25.2C10.8 26.9673 12.2327 28.4 14 28.4V26C13.5582 26 13.2 25.6418 13.2 25.2H10.8ZM10.8 22.8V25.2H13.2V22.8H10.8ZM14 19.6C12.2327 19.6 10.8 21.0327 10.8 22.8H13.2C13.2 22.3582 13.5582 22 14 22V19.6ZM14.1441 19.6H14V22H14.1441V19.6ZM13.8176 20.3882C13.5268 20.0974 13.7328 19.6 14.1441 19.6V22C15.8709 22 16.7357 19.9122 15.5147 18.6912L13.8176 20.3882ZM13.8176 15.8627C12.568 17.1124 12.568 19.1386 13.8176 20.3882L15.5147 18.6912C15.2023 18.3788 15.2023 17.8722 15.5147 17.5598L13.8176 15.8627ZM15.5147 14.1657L13.8176 15.8627L15.5147 17.5598L17.2117 15.8627L15.5147 14.1657ZM20.0402 14.1657C18.7905 12.916 16.7644 12.916 15.5147 14.1657L17.2117 15.8627C17.5242 15.5503 18.0307 15.5503 18.3431 15.8627L20.0402 14.1657ZM19.6 14.348C19.6 14.3075 19.6148 14.2502 19.6512 14.1984C19.6839 14.1521 19.7234 14.1246 19.7592 14.1098C19.795 14.095 19.8423 14.0865 19.8982 14.0962C19.9606 14.107 20.0115 14.137 20.0402 14.1657L18.3431 15.8627C19.6926 17.2122 22 16.2565 22 14.348H19.6ZM19.6 14V14.348H22V14H19.6ZM27.6 24C27.6 25.9882 25.9882 27.6 24 27.6V30C27.3137 30 30 27.3137 30 24H27.6ZM24 20.4C25.9882 20.4 27.6 22.0118 27.6 24H30C30 20.6863 27.3137 18 24 18V20.4ZM20.4 24C20.4 22.0118 22.0118 20.4 24 20.4V18C20.6863 18 18 20.6863 18 24H20.4ZM24 27.6C22.0118 27.6 20.4 25.9882 20.4 24H18C18 27.3137 20.6863 30 24 30V27.6Z" fill="#555555" mask="url(#path-1-inside-1_1619_3720)"/>
</svg>
