<svg width="48" height="48" viewBox="0 0 48 48" fill="none" xmlns="http://www.w3.org/2000/svg">
<path fill-rule="evenodd" clip-rule="evenodd" d="M38.1077 15.2847L24.0294 8L10 15.2854V31.6813L24.0538 39L38.1077 31.6813V15.2847ZM11.2959 16.0591L24.0304 9.44613L36.8118 16.0598V30.9086L24.0538 37.5524L11.2959 30.9086V16.0591ZM20.2573 14V24.9305H21.5532V20.6833L24.139 18.7917L26.7125 20.7285V24.9305H28.0085V14H26.7125V19.1188L24.15 17.1903L21.5532 19.0899V14H20.2573ZM18.5145 19.9931H17.2186V32.5753L24.0539 27.7055L30.8892 32.5753V19.9931H29.5932V30.0733L24.0539 26.1268L18.5145 30.0733V19.9931Z" fill="#555555"/>
</svg>
