<svg width="192" height="251" viewBox="0 0 192 251" fill="none" xmlns="http://www.w3.org/2000/svg">
<g clip-path="url(#clip0_1812_3922)">
<path d="M17.742 207H21.438V172.152H17.742V187.2H4.27803V172.152H0.582031V207H4.27803V190.632H17.742V207Z" fill="black"/>
<path d="M28.2148 189.576C28.2148 199.502 36.2404 207.528 46.1668 207.528C56.0932 207.528 64.1188 199.502 64.1188 189.576C64.1188 179.65 56.0932 171.624 46.1668 171.624C36.2404 171.624 28.2148 179.65 28.2148 189.576ZM31.9108 189.576C31.9108 181.656 38.2468 175.214 46.1668 175.214C54.1396 175.214 60.4228 181.656 60.4228 189.576C60.4228 197.549 54.1396 203.99 46.1668 203.99C38.2468 203.99 31.9108 197.549 31.9108 189.576Z" fill="black"/>
<path d="M90.0472 203.568H74.6296V172.152H70.9336V207H90.0472V203.568Z" fill="black"/>
<path d="M114.213 203.568H98.7956V172.152H95.0996V207H114.213V203.568Z" fill="black"/>
<path d="M113.812 189.576C113.812 199.502 121.838 207.528 131.765 207.528C141.691 207.528 149.717 199.502 149.717 189.576C149.717 179.65 141.691 171.624 131.765 171.624C121.838 171.624 113.812 179.65 113.812 189.576ZM117.509 189.576C117.509 181.656 123.845 175.214 131.765 175.214C139.738 175.214 146.021 181.656 146.021 189.576C146.021 197.549 139.738 203.99 131.765 203.99C123.845 203.99 117.509 197.549 117.509 189.576Z" fill="black"/>
<path d="M174.219 191.318L191.907 207.792V172.152H188.211V199.925L174.219 186.672L160.227 199.925V172.152H156.531V207.792L174.219 191.318Z" fill="black"/>
<path d="M49.9653 234.318L67.6533 250.792V215.152H63.9573V242.925L49.9653 229.672L35.9733 242.925V215.152H32.2773V250.792L49.9653 234.318Z" fill="black"/>
<path d="M93.3006 250H96.9966V215.152H93.3006V230.2H79.8366V215.152H76.1406V250H79.8366V233.632H93.3006V250Z" fill="black"/>
<path d="M109.212 215.152H105.516V250H109.212V215.152Z" fill="black"/>
<path d="M127.592 250V218.584H136.991V215.152H114.551V218.584H123.896V250H127.592Z" fill="black"/>
<path d="M145.995 246.568V233.632H157.083V230.2H145.995V218.584H161.413V215.152H142.299V250H161.413V246.568H145.995Z" fill="black"/>
<path d="M17.742 207H21.438V172.152H17.742V187.2H4.27803V172.152H0.582031V207H4.27803V190.632H17.742V207Z" stroke="black"/>
<path d="M28.2148 189.576C28.2148 199.502 36.2404 207.528 46.1668 207.528C56.0932 207.528 64.1188 199.502 64.1188 189.576C64.1188 179.65 56.0932 171.624 46.1668 171.624C36.2404 171.624 28.2148 179.65 28.2148 189.576ZM31.9108 189.576C31.9108 181.656 38.2468 175.214 46.1668 175.214C54.1396 175.214 60.4228 181.656 60.4228 189.576C60.4228 197.549 54.1396 203.99 46.1668 203.99C38.2468 203.99 31.9108 197.549 31.9108 189.576Z" stroke="black"/>
<path d="M90.0472 203.568H74.6296V172.152H70.9336V207H90.0472V203.568Z" stroke="black"/>
<path d="M114.213 203.568H98.7956V172.152H95.0996V207H114.213V203.568Z" stroke="black"/>
<path d="M113.812 189.576C113.812 199.502 121.838 207.528 131.765 207.528C141.691 207.528 149.717 199.502 149.717 189.576C149.717 179.65 141.691 171.624 131.765 171.624C121.838 171.624 113.812 179.65 113.812 189.576ZM117.509 189.576C117.509 181.656 123.845 175.214 131.765 175.214C139.738 175.214 146.021 181.656 146.021 189.576C146.021 197.549 139.738 203.99 131.765 203.99C123.845 203.99 117.509 197.549 117.509 189.576Z" stroke="black"/>
<path d="M174.219 191.318L191.907 207.792V172.152H188.211V199.925L174.219 186.672L160.227 199.925V172.152H156.531V207.792L174.219 191.318Z" stroke="black"/>
<path d="M49.9653 234.318L67.6533 250.792V215.152H63.9573V242.925L49.9653 229.672L35.9733 242.925V215.152H32.2773V250.792L49.9653 234.318Z" stroke="black"/>
<path d="M93.3006 250H96.9966V215.152H93.3006V230.2H79.8366V215.152H76.1406V250H79.8366V233.632H93.3006V250Z" stroke="black"/>
<path d="M109.212 215.152H105.516V250H109.212V215.152Z" stroke="black"/>
<path d="M127.592 250V218.584H136.991V215.152H114.551V218.584H123.896V250H127.592Z" stroke="black"/>
<path d="M145.995 246.568V233.632H157.083V230.2H145.995V218.584H161.413V215.152H142.299V250H161.413V246.568H145.995Z" stroke="black"/>
<path fill-rule="evenodd" clip-rule="evenodd" d="M94.8821 3L161 37.5659V115.274L95 150L29 115.274V37.5659L94.8821 3Z" stroke="black" stroke-width="5" stroke-linecap="round"/>
<path d="M64 113H61.25V118.321L65.5907 115.243L64 113ZM94.5 91.3721L96.0907 89.1289L94.5 88.0009L92.9093 89.1289L94.5 91.3721ZM125 113L123.409 115.243L127.75 118.321V113H125ZM94.9467 47.5815L96.5954 45.3805L95.0134 44.1955L93.386 45.3173L94.9467 47.5815ZM61.25 57.4044V113H66.75V57.4044H61.25ZM65.5907 115.243L96.0907 93.6154L92.9093 89.1289L62.4093 110.757L65.5907 115.243ZM92.9093 93.6154L123.409 115.243L126.591 110.757L96.0907 89.1289L92.9093 93.6154ZM127.75 113V57.4044H122.25V113H127.75ZM76.2292 28V81.6296H81.7292V28H76.2292ZM108.05 28V81.6296H113.55V28H108.05ZM79.6409 61.4719L96.5075 49.8457L93.386 45.3173L76.5194 56.9435L79.6409 61.4719ZM93.2981 49.7825L108.819 61.4087L112.116 57.0067L96.5954 45.3805L93.2981 49.7825Z" fill="black"/>
</g>
<defs>
<clipPath id="clip0_1812_3922">
<rect width="192" height="251" fill="white"/>
</clipPath>
</defs>
</svg>
